<?xml version="1.0" encoding="utf-8"?>
<svg xmlns="http://www.w3.org/2000/svg" xmlns:xlink="http://www.w3.org/1999/xlink" width="600" height="400" viewBox="0 0 2400 1600">
<defs>
  <clipPath id="clip440">
    <rect x="0" y="0" width="2400" height="1600"/>
  </clipPath>
</defs>
<path clip-path="url(#clip440)" d="M0 1600 L2400 1600 L2400 8.88178e-14 L0 8.88178e-14  Z" fill="#ffffff" fill-rule="evenodd" fill-opacity="1"/>
<defs>
  <clipPath id="clip441">
    <rect x="480" y="0" width="1681" height="1600"/>
  </clipPath>
</defs>
<path clip-path="url(#clip440)" d="M203.964 1423.18 L2352.76 1423.18 L2352.76 123.472 L203.964 123.472  Z" fill="#ffffff" fill-rule="evenodd" fill-opacity="1"/>
<defs>
  <clipPath id="clip442">
    <rect x="203" y="123" width="2150" height="1301"/>
  </clipPath>
</defs>
<polyline clip-path="url(#clip442)" style="stroke:#000000; stroke-linecap:round; stroke-linejoin:round; stroke-width:2; stroke-opacity:0.1; fill:none" points="264.778,1423.18 264.778,123.472 "/>
<polyline clip-path="url(#clip442)" style="stroke:#000000; stroke-linecap:round; stroke-linejoin:round; stroke-width:2; stroke-opacity:0.1; fill:none" points="670.211,1423.18 670.211,123.472 "/>
<polyline clip-path="url(#clip442)" style="stroke:#000000; stroke-linecap:round; stroke-linejoin:round; stroke-width:2; stroke-opacity:0.1; fill:none" points="1075.64,1423.18 1075.64,123.472 "/>
<polyline clip-path="url(#clip442)" style="stroke:#000000; stroke-linecap:round; stroke-linejoin:round; stroke-width:2; stroke-opacity:0.1; fill:none" points="1481.08,1423.18 1481.08,123.472 "/>
<polyline clip-path="url(#clip442)" style="stroke:#000000; stroke-linecap:round; stroke-linejoin:round; stroke-width:2; stroke-opacity:0.1; fill:none" points="1886.51,1423.18 1886.51,123.472 "/>
<polyline clip-path="url(#clip442)" style="stroke:#000000; stroke-linecap:round; stroke-linejoin:round; stroke-width:2; stroke-opacity:0.1; fill:none" points="2291.94,1423.18 2291.94,123.472 "/>
<polyline clip-path="url(#clip442)" style="stroke:#000000; stroke-linecap:round; stroke-linejoin:round; stroke-width:2; stroke-opacity:0.1; fill:none" points="203.964,1386.4 2352.76,1386.4 "/>
<polyline clip-path="url(#clip442)" style="stroke:#000000; stroke-linecap:round; stroke-linejoin:round; stroke-width:2; stroke-opacity:0.1; fill:none" points="203.964,1079.86 2352.76,1079.86 "/>
<polyline clip-path="url(#clip442)" style="stroke:#000000; stroke-linecap:round; stroke-linejoin:round; stroke-width:2; stroke-opacity:0.1; fill:none" points="203.964,773.326 2352.76,773.326 "/>
<polyline clip-path="url(#clip442)" style="stroke:#000000; stroke-linecap:round; stroke-linejoin:round; stroke-width:2; stroke-opacity:0.1; fill:none" points="203.964,466.791 2352.76,466.791 "/>
<polyline clip-path="url(#clip442)" style="stroke:#000000; stroke-linecap:round; stroke-linejoin:round; stroke-width:2; stroke-opacity:0.1; fill:none" points="203.964,160.256 2352.76,160.256 "/>
<polyline clip-path="url(#clip440)" style="stroke:#000000; stroke-linecap:round; stroke-linejoin:round; stroke-width:4; stroke-opacity:1; fill:none" points="203.964,1423.18 2352.76,1423.18 "/>
<polyline clip-path="url(#clip440)" style="stroke:#000000; stroke-linecap:round; stroke-linejoin:round; stroke-width:4; stroke-opacity:1; fill:none" points="264.778,1423.18 264.778,1404.28 "/>
<polyline clip-path="url(#clip440)" style="stroke:#000000; stroke-linecap:round; stroke-linejoin:round; stroke-width:4; stroke-opacity:1; fill:none" points="670.211,1423.18 670.211,1404.28 "/>
<polyline clip-path="url(#clip440)" style="stroke:#000000; stroke-linecap:round; stroke-linejoin:round; stroke-width:4; stroke-opacity:1; fill:none" points="1075.64,1423.18 1075.64,1404.28 "/>
<polyline clip-path="url(#clip440)" style="stroke:#000000; stroke-linecap:round; stroke-linejoin:round; stroke-width:4; stroke-opacity:1; fill:none" points="1481.08,1423.18 1481.08,1404.28 "/>
<polyline clip-path="url(#clip440)" style="stroke:#000000; stroke-linecap:round; stroke-linejoin:round; stroke-width:4; stroke-opacity:1; fill:none" points="1886.51,1423.18 1886.51,1404.28 "/>
<polyline clip-path="url(#clip440)" style="stroke:#000000; stroke-linecap:round; stroke-linejoin:round; stroke-width:4; stroke-opacity:1; fill:none" points="2291.94,1423.18 2291.94,1404.28 "/>
<path clip-path="url(#clip440)" d="M264.778 1454.1 Q261.167 1454.1 259.339 1457.66 Q257.533 1461.2 257.533 1468.33 Q257.533 1475.44 259.339 1479.01 Q261.167 1482.55 264.778 1482.55 Q268.413 1482.55 270.218 1479.01 Q272.047 1475.44 272.047 1468.33 Q272.047 1461.2 270.218 1457.66 Q268.413 1454.1 264.778 1454.1 M264.778 1450.39 Q270.589 1450.39 273.644 1455 Q276.723 1459.58 276.723 1468.33 Q276.723 1477.06 273.644 1481.67 Q270.589 1486.25 264.778 1486.25 Q258.968 1486.25 255.89 1481.67 Q252.834 1477.06 252.834 1468.33 Q252.834 1459.58 255.89 1455 Q258.968 1450.39 264.778 1450.39 Z" fill="#000000" fill-rule="nonzero" fill-opacity="1" /><path clip-path="url(#clip440)" d="M660.593 1481.64 L668.232 1481.64 L668.232 1455.28 L659.922 1456.95 L659.922 1452.69 L668.186 1451.02 L672.861 1451.02 L672.861 1481.64 L680.5 1481.64 L680.5 1485.58 L660.593 1485.58 L660.593 1481.64 Z" fill="#000000" fill-rule="nonzero" fill-opacity="1" /><path clip-path="url(#clip440)" d="M1070.3 1481.64 L1086.62 1481.64 L1086.62 1485.58 L1064.67 1485.58 L1064.67 1481.64 Q1067.33 1478.89 1071.92 1474.26 Q1076.52 1469.61 1077.7 1468.27 Q1079.95 1465.74 1080.83 1464.01 Q1081.73 1462.25 1081.73 1460.56 Q1081.73 1457.8 1079.79 1456.07 Q1077.87 1454.33 1074.76 1454.33 Q1072.56 1454.33 1070.11 1455.09 Q1067.68 1455.86 1064.9 1457.41 L1064.9 1452.69 Q1067.73 1451.55 1070.18 1450.97 Q1072.63 1450.39 1074.67 1450.39 Q1080.04 1450.39 1083.24 1453.08 Q1086.43 1455.77 1086.43 1460.26 Q1086.43 1462.39 1085.62 1464.31 Q1084.83 1466.2 1082.73 1468.8 Q1082.15 1469.47 1079.05 1472.69 Q1075.94 1475.88 1070.3 1481.64 Z" fill="#000000" fill-rule="nonzero" fill-opacity="1" /><path clip-path="url(#clip440)" d="M1485.32 1466.95 Q1488.68 1467.66 1490.56 1469.93 Q1492.45 1472.2 1492.45 1475.53 Q1492.45 1480.65 1488.93 1483.45 Q1485.42 1486.25 1478.93 1486.25 Q1476.76 1486.25 1474.44 1485.81 Q1472.15 1485.39 1469.7 1484.54 L1469.7 1480.02 Q1471.64 1481.16 1473.96 1481.74 Q1476.27 1482.32 1478.8 1482.32 Q1483.19 1482.32 1485.49 1480.58 Q1487.8 1478.84 1487.8 1475.53 Q1487.8 1472.48 1485.65 1470.77 Q1483.52 1469.03 1479.7 1469.03 L1475.67 1469.03 L1475.67 1465.19 L1479.88 1465.19 Q1483.33 1465.19 1485.16 1463.82 Q1486.99 1462.43 1486.99 1459.84 Q1486.99 1457.18 1485.09 1455.77 Q1483.22 1454.33 1479.7 1454.33 Q1477.78 1454.33 1475.58 1454.75 Q1473.38 1455.16 1470.74 1456.04 L1470.74 1451.88 Q1473.4 1451.14 1475.72 1450.77 Q1478.06 1450.39 1480.12 1450.39 Q1485.44 1450.39 1488.54 1452.83 Q1491.64 1455.23 1491.64 1459.35 Q1491.64 1462.22 1490 1464.21 Q1488.36 1466.18 1485.32 1466.95 Z" fill="#000000" fill-rule="nonzero" fill-opacity="1" /><path clip-path="url(#clip440)" d="M1889.52 1455.09 L1877.71 1473.54 L1889.52 1473.54 L1889.52 1455.09 M1888.29 1451.02 L1894.17 1451.02 L1894.17 1473.54 L1899.1 1473.54 L1899.1 1477.43 L1894.17 1477.43 L1894.17 1485.58 L1889.52 1485.58 L1889.52 1477.43 L1873.92 1477.43 L1873.92 1472.92 L1888.29 1451.02 Z" fill="#000000" fill-rule="nonzero" fill-opacity="1" /><path clip-path="url(#clip440)" d="M2282.22 1451.02 L2300.58 1451.02 L2300.58 1454.96 L2286.5 1454.96 L2286.5 1463.43 Q2287.52 1463.08 2288.54 1462.92 Q2289.56 1462.73 2290.58 1462.73 Q2296.36 1462.73 2299.74 1465.9 Q2303.12 1469.08 2303.12 1474.49 Q2303.12 1480.07 2299.65 1483.17 Q2296.18 1486.25 2289.86 1486.25 Q2287.68 1486.25 2285.41 1485.88 Q2283.17 1485.51 2280.76 1484.77 L2280.76 1480.07 Q2282.84 1481.2 2285.07 1481.76 Q2287.29 1482.32 2289.77 1482.32 Q2293.77 1482.32 2296.11 1480.21 Q2298.45 1478.1 2298.45 1474.49 Q2298.45 1470.88 2296.11 1468.77 Q2293.77 1466.67 2289.77 1466.67 Q2287.89 1466.67 2286.02 1467.08 Q2284.16 1467.5 2282.22 1468.38 L2282.22 1451.02 Z" fill="#000000" fill-rule="nonzero" fill-opacity="1" /><path clip-path="url(#clip440)" d="M1200.24 1520.52 L1240.44 1520.52 L1240.44 1525.93 L1223.57 1525.93 L1223.57 1568.04 L1217.11 1568.04 L1217.11 1525.93 L1200.24 1525.93 L1200.24 1520.52 Z" fill="#000000" fill-rule="nonzero" fill-opacity="1" /><path clip-path="url(#clip440)" d="M1244.38 1532.4 L1250.24 1532.4 L1250.24 1568.04 L1244.38 1568.04 L1244.38 1532.4 M1244.38 1518.52 L1250.24 1518.52 L1250.24 1525.93 L1244.38 1525.93 L1244.38 1518.52 Z" fill="#000000" fill-rule="nonzero" fill-opacity="1" /><path clip-path="url(#clip440)" d="M1290.25 1539.24 Q1292.44 1535.29 1295.5 1533.41 Q1298.55 1531.54 1302.69 1531.54 Q1308.26 1531.54 1311.29 1535.45 Q1314.31 1539.33 1314.31 1546.53 L1314.31 1568.04 L1308.42 1568.04 L1308.42 1546.72 Q1308.42 1541.59 1306.61 1539.11 Q1304.79 1536.63 1301.07 1536.63 Q1296.52 1536.63 1293.88 1539.65 Q1291.23 1542.68 1291.23 1547.9 L1291.23 1568.04 L1285.35 1568.04 L1285.35 1546.72 Q1285.35 1541.56 1283.53 1539.11 Q1281.72 1536.63 1277.93 1536.63 Q1273.44 1536.63 1270.8 1539.68 Q1268.16 1542.71 1268.16 1547.9 L1268.16 1568.04 L1262.27 1568.04 L1262.27 1532.4 L1268.16 1532.4 L1268.16 1537.93 Q1270.16 1534.66 1272.96 1533.1 Q1275.77 1531.54 1279.62 1531.54 Q1283.5 1531.54 1286.21 1533.51 Q1288.94 1535.48 1290.25 1539.24 Z" fill="#000000" fill-rule="nonzero" fill-opacity="1" /><path clip-path="url(#clip440)" d="M1356.48 1548.76 L1356.48 1551.62 L1329.56 1551.62 Q1329.94 1557.67 1333.18 1560.85 Q1336.46 1564 1342.29 1564 Q1345.66 1564 1348.81 1563.17 Q1352 1562.35 1355.11 1560.69 L1355.11 1566.23 Q1351.96 1567.57 1348.65 1568.27 Q1345.34 1568.97 1341.94 1568.97 Q1333.41 1568.97 1328.41 1564 Q1323.44 1559.04 1323.44 1550.57 Q1323.44 1541.82 1328.16 1536.69 Q1332.9 1531.54 1340.92 1531.54 Q1348.11 1531.54 1352.28 1536.18 Q1356.48 1540.8 1356.48 1548.76 M1350.63 1547.04 Q1350.56 1542.23 1347.92 1539.37 Q1345.31 1536.5 1340.98 1536.5 Q1336.08 1536.5 1333.12 1539.27 Q1330.19 1542.04 1329.75 1547.07 L1350.63 1547.04 Z" fill="#000000" fill-rule="nonzero" fill-opacity="1" /><polyline clip-path="url(#clip440)" style="stroke:#000000; stroke-linecap:round; stroke-linejoin:round; stroke-width:4; stroke-opacity:1; fill:none" points="203.964,1423.18 203.964,123.472 "/>
<polyline clip-path="url(#clip440)" style="stroke:#000000; stroke-linecap:round; stroke-linejoin:round; stroke-width:4; stroke-opacity:1; fill:none" points="203.964,1386.4 222.861,1386.4 "/>
<polyline clip-path="url(#clip440)" style="stroke:#000000; stroke-linecap:round; stroke-linejoin:round; stroke-width:4; stroke-opacity:1; fill:none" points="203.964,1079.86 222.861,1079.86 "/>
<polyline clip-path="url(#clip440)" style="stroke:#000000; stroke-linecap:round; stroke-linejoin:round; stroke-width:4; stroke-opacity:1; fill:none" points="203.964,773.326 222.861,773.326 "/>
<polyline clip-path="url(#clip440)" style="stroke:#000000; stroke-linecap:round; stroke-linejoin:round; stroke-width:4; stroke-opacity:1; fill:none" points="203.964,466.791 222.861,466.791 "/>
<polyline clip-path="url(#clip440)" style="stroke:#000000; stroke-linecap:round; stroke-linejoin:round; stroke-width:4; stroke-opacity:1; fill:none" points="203.964,160.256 222.861,160.256 "/>
<path clip-path="url(#clip440)" d="M156.019 1372.19 Q152.408 1372.19 150.579 1375.76 Q148.774 1379.3 148.774 1386.43 Q148.774 1393.54 150.579 1397.1 Q152.408 1400.64 156.019 1400.64 Q159.653 1400.64 161.459 1397.1 Q163.288 1393.54 163.288 1386.43 Q163.288 1379.3 161.459 1375.76 Q159.653 1372.19 156.019 1372.19 M156.019 1368.49 Q161.829 1368.49 164.885 1373.1 Q167.964 1377.68 167.964 1386.43 Q167.964 1395.16 164.885 1399.76 Q161.829 1404.35 156.019 1404.35 Q150.209 1404.35 147.13 1399.76 Q144.075 1395.16 144.075 1386.43 Q144.075 1377.68 147.13 1373.1 Q150.209 1368.49 156.019 1368.49 Z" fill="#000000" fill-rule="nonzero" fill-opacity="1" /><path clip-path="url(#clip440)" d="M147.061 1062.58 L165.417 1062.58 L165.417 1066.52 L151.343 1066.52 L151.343 1074.99 Q152.362 1074.64 153.38 1074.48 Q154.399 1074.29 155.417 1074.29 Q161.204 1074.29 164.584 1077.47 Q167.964 1080.64 167.964 1086.05 Q167.964 1091.63 164.491 1094.73 Q161.019 1097.81 154.7 1097.81 Q152.524 1097.81 150.255 1097.44 Q148.01 1097.07 145.603 1096.33 L145.603 1091.63 Q147.686 1092.77 149.908 1093.32 Q152.13 1093.88 154.607 1093.88 Q158.612 1093.88 160.95 1091.77 Q163.288 1089.66 163.288 1086.05 Q163.288 1082.44 160.95 1080.34 Q158.612 1078.23 154.607 1078.23 Q152.732 1078.23 150.857 1078.65 Q149.005 1079.06 147.061 1079.94 L147.061 1062.58 Z" fill="#000000" fill-rule="nonzero" fill-opacity="1" /><path clip-path="url(#clip440)" d="M116.668 786.671 L124.306 786.671 L124.306 760.305 L115.996 761.972 L115.996 757.713 L124.26 756.046 L128.936 756.046 L128.936 786.671 L136.575 786.671 L136.575 790.606 L116.668 790.606 L116.668 786.671 Z" fill="#000000" fill-rule="nonzero" fill-opacity="1" /><path clip-path="url(#clip440)" d="M156.019 759.125 Q152.408 759.125 150.579 762.689 Q148.774 766.231 148.774 773.361 Q148.774 780.467 150.579 784.032 Q152.408 787.574 156.019 787.574 Q159.653 787.574 161.459 784.032 Q163.288 780.467 163.288 773.361 Q163.288 766.231 161.459 762.689 Q159.653 759.125 156.019 759.125 M156.019 755.421 Q161.829 755.421 164.885 760.027 Q167.964 764.611 167.964 773.361 Q167.964 782.088 164.885 786.694 Q161.829 791.277 156.019 791.277 Q150.209 791.277 147.13 786.694 Q144.075 782.088 144.075 773.361 Q144.075 764.611 147.13 760.027 Q150.209 755.421 156.019 755.421 Z" fill="#000000" fill-rule="nonzero" fill-opacity="1" /><path clip-path="url(#clip440)" d="M117.663 480.136 L125.302 480.136 L125.302 453.77 L116.992 455.437 L116.992 451.178 L125.255 449.511 L129.931 449.511 L129.931 480.136 L137.57 480.136 L137.57 484.071 L117.663 484.071 L117.663 480.136 Z" fill="#000000" fill-rule="nonzero" fill-opacity="1" /><path clip-path="url(#clip440)" d="M147.061 449.511 L165.417 449.511 L165.417 453.446 L151.343 453.446 L151.343 461.918 Q152.362 461.571 153.38 461.409 Q154.399 461.224 155.417 461.224 Q161.204 461.224 164.584 464.395 Q167.964 467.567 167.964 472.983 Q167.964 478.562 164.491 481.664 Q161.019 484.742 154.7 484.742 Q152.524 484.742 150.255 484.372 Q148.01 484.002 145.603 483.261 L145.603 478.562 Q147.686 479.696 149.908 480.252 Q152.13 480.807 154.607 480.807 Q158.612 480.807 160.95 478.701 Q163.288 476.594 163.288 472.983 Q163.288 469.372 160.95 467.266 Q158.612 465.159 154.607 465.159 Q152.732 465.159 150.857 465.576 Q149.005 465.993 147.061 466.872 L147.061 449.511 Z" fill="#000000" fill-rule="nonzero" fill-opacity="1" /><path clip-path="url(#clip440)" d="M119.885 173.601 L136.204 173.601 L136.204 177.536 L114.26 177.536 L114.26 173.601 Q116.922 170.847 121.505 166.217 Q126.112 161.564 127.292 160.222 Q129.538 157.698 130.417 155.962 Q131.32 154.203 131.32 152.513 Q131.32 149.759 129.376 148.023 Q127.455 146.286 124.353 146.286 Q122.154 146.286 119.7 147.05 Q117.269 147.814 114.492 149.365 L114.492 144.643 Q117.316 143.509 119.769 142.93 Q122.223 142.351 124.26 142.351 Q129.63 142.351 132.825 145.036 Q136.019 147.722 136.019 152.212 Q136.019 154.342 135.209 156.263 Q134.422 158.161 132.316 160.754 Q131.737 161.425 128.635 164.643 Q125.533 167.837 119.885 173.601 Z" fill="#000000" fill-rule="nonzero" fill-opacity="1" /><path clip-path="url(#clip440)" d="M156.019 146.055 Q152.408 146.055 150.579 149.62 Q148.774 153.161 148.774 160.291 Q148.774 167.397 150.579 170.962 Q152.408 174.504 156.019 174.504 Q159.653 174.504 161.459 170.962 Q163.288 167.397 163.288 160.291 Q163.288 153.161 161.459 149.62 Q159.653 146.055 156.019 146.055 M156.019 142.351 Q161.829 142.351 164.885 146.958 Q167.964 151.541 167.964 160.291 Q167.964 169.018 164.885 173.624 Q161.829 178.208 156.019 178.208 Q150.209 178.208 147.13 173.624 Q144.075 169.018 144.075 160.291 Q144.075 151.541 147.13 146.958 Q150.209 142.351 156.019 142.351 Z" fill="#000000" fill-rule="nonzero" fill-opacity="1" /><path clip-path="url(#clip440)" d="M20.1444 960.971 L26.9239 960.971 Q23.9002 964.218 22.4043 967.91 Q20.9083 971.57 20.9083 975.708 Q20.9083 983.856 25.9054 988.184 Q30.8707 992.513 40.2919 992.513 Q49.6813 992.513 54.6784 988.184 Q59.6436 983.856 59.6436 975.708 Q59.6436 971.57 58.1477 967.91 Q56.6518 964.218 53.6281 960.971 L60.3439 960.971 Q62.6355 964.345 63.7814 968.133 Q64.9272 971.888 64.9272 976.09 Q64.9272 986.88 58.3387 993.086 Q51.7183 999.293 40.2919 999.293 Q28.8336 999.293 22.2451 993.086 Q15.6248 986.88 15.6248 976.09 Q15.6248 971.825 16.7706 968.069 Q17.8846 964.281 20.1444 960.971 Z" fill="#000000" fill-rule="nonzero" fill-opacity="1" /><path clip-path="url(#clip440)" d="M32.4621 937.482 Q32.4621 942.192 36.1542 944.93 Q39.8145 947.667 46.212 947.667 Q52.6095 947.667 56.3017 944.961 Q59.9619 942.224 59.9619 937.482 Q59.9619 932.803 56.2698 930.066 Q52.5777 927.328 46.212 927.328 Q39.8781 927.328 36.186 930.066 Q32.4621 932.803 32.4621 937.482 M27.4968 937.482 Q27.4968 929.843 32.4621 925.482 Q37.4273 921.122 46.212 921.122 Q54.9649 921.122 59.9619 925.482 Q64.9272 929.843 64.9272 937.482 Q64.9272 945.152 59.9619 949.513 Q54.9649 953.842 46.212 953.842 Q37.4273 953.842 32.4621 949.513 Q27.4968 945.152 27.4968 937.482 Z" fill="#000000" fill-rule="nonzero" fill-opacity="1" /><path clip-path="url(#clip440)" d="M42.4881 881.782 L64.0042 881.782 L64.0042 887.638 L42.679 887.638 Q37.6183 887.638 35.1038 889.612 Q32.5894 891.585 32.5894 895.532 Q32.5894 900.274 35.6131 903.011 Q38.6368 905.749 43.8567 905.749 L64.0042 905.749 L64.0042 911.637 L28.3562 911.637 L28.3562 905.749 L33.8944 905.749 Q30.6797 903.648 29.0883 900.815 Q27.4968 897.951 27.4968 894.227 Q27.4968 888.084 31.3163 884.933 Q35.1038 881.782 42.4881 881.782 Z" fill="#000000" fill-rule="nonzero" fill-opacity="1" /><path clip-path="url(#clip440)" d="M29.7248 844.447 L35.1993 844.447 Q33.8307 846.929 33.1623 849.444 Q32.4621 851.927 32.4621 854.473 Q32.4621 860.17 36.0905 863.321 Q39.6872 866.472 46.212 866.472 Q52.7369 866.472 56.3653 863.321 Q59.9619 860.17 59.9619 854.473 Q59.9619 851.927 59.2935 849.444 Q58.5933 846.929 57.2247 844.447 L62.6355 844.447 Q63.7814 846.898 64.3543 849.539 Q64.9272 852.149 64.9272 855.109 Q64.9272 863.162 59.8664 867.904 Q54.8057 872.647 46.212 872.647 Q37.491 872.647 32.4939 867.873 Q27.4968 863.067 27.4968 854.727 Q27.4968 852.022 28.0697 849.444 Q28.6108 846.866 29.7248 844.447 Z" fill="#000000" fill-rule="nonzero" fill-opacity="1" /><path clip-path="url(#clip440)" d="M44.7161 803.77 L47.5806 803.77 L47.5806 830.697 Q53.6281 830.315 56.8109 827.068 Q59.9619 823.79 59.9619 817.966 Q59.9619 814.592 59.1344 811.441 Q58.3069 808.258 56.6518 805.139 L62.1899 805.139 Q63.5267 808.29 64.227 811.6 Q64.9272 814.91 64.9272 818.316 Q64.9272 826.846 59.9619 831.843 Q54.9967 836.808 46.5303 836.808 Q37.7774 836.808 32.6531 832.097 Q27.4968 827.355 27.4968 819.334 Q27.4968 812.141 32.1438 807.971 Q36.7589 803.77 44.7161 803.77 M42.9973 809.626 Q38.1912 809.69 35.3266 812.332 Q32.4621 814.942 32.4621 819.27 Q32.4621 824.172 35.2312 827.132 Q38.0002 830.06 43.0292 830.506 L42.9973 809.626 Z" fill="#000000" fill-rule="nonzero" fill-opacity="1" /><path clip-path="url(#clip440)" d="M42.4881 764.525 L64.0042 764.525 L64.0042 770.382 L42.679 770.382 Q37.6183 770.382 35.1038 772.355 Q32.5894 774.329 32.5894 778.275 Q32.5894 783.018 35.6131 785.755 Q38.6368 788.492 43.8567 788.492 L64.0042 788.492 L64.0042 794.381 L28.3562 794.381 L28.3562 788.492 L33.8944 788.492 Q30.6797 786.392 29.0883 783.559 Q27.4968 780.694 27.4968 776.97 Q27.4968 770.827 31.3163 767.676 Q35.1038 764.525 42.4881 764.525 Z" fill="#000000" fill-rule="nonzero" fill-opacity="1" /><path clip-path="url(#clip440)" d="M18.2347 747.052 L28.3562 747.052 L28.3562 734.989 L32.9077 734.989 L32.9077 747.052 L52.2594 747.052 Q56.6199 747.052 57.8613 745.874 Q59.1026 744.664 59.1026 741.004 L59.1026 734.989 L64.0042 734.989 L64.0042 741.004 Q64.0042 747.784 61.4897 750.362 Q58.9434 752.94 52.2594 752.94 L32.9077 752.94 L32.9077 757.237 L28.3562 757.237 L28.3562 752.94 L18.2347 752.94 L18.2347 747.052 Z" fill="#000000" fill-rule="nonzero" fill-opacity="1" /><path clip-path="url(#clip440)" d="M33.8307 706.629 Q33.2578 707.616 33.0032 708.794 Q32.7167 709.939 32.7167 711.34 Q32.7167 716.305 35.9632 718.979 Q39.1779 721.621 45.2253 721.621 L64.0042 721.621 L64.0042 727.509 L28.3562 727.509 L28.3562 721.621 L33.8944 721.621 Q30.6479 719.774 29.0883 716.814 Q27.4968 713.854 27.4968 709.621 Q27.4968 709.016 27.5923 708.284 Q27.656 707.552 27.8151 706.661 L33.8307 706.629 Z" fill="#000000" fill-rule="nonzero" fill-opacity="1" /><path clip-path="url(#clip440)" d="M46.0847 684.286 Q46.0847 691.383 47.7079 694.121 Q49.3312 696.858 53.2461 696.858 Q56.3653 696.858 58.2114 694.821 Q60.0256 692.752 60.0256 689.219 Q60.0256 684.349 56.5881 681.421 Q53.1188 678.461 47.3897 678.461 L46.0847 678.461 L46.0847 684.286 M43.6657 672.605 L64.0042 672.605 L64.0042 678.461 L58.5933 678.461 Q61.8398 680.466 63.3994 683.458 Q64.9272 686.45 64.9272 690.779 Q64.9272 696.253 61.8716 699.5 Q58.7843 702.714 53.6281 702.714 Q47.6125 702.714 44.5569 698.704 Q41.5014 694.662 41.5014 686.673 L41.5014 678.461 L40.9285 678.461 Q36.8862 678.461 34.6901 681.135 Q32.4621 683.776 32.4621 688.583 Q32.4621 691.638 33.1941 694.534 Q33.9262 697.431 35.3903 700.104 L29.9795 700.104 Q28.7381 696.89 28.1334 693.866 Q27.4968 690.842 27.4968 687.978 Q27.4968 680.243 31.5072 676.424 Q35.5176 672.605 43.6657 672.605 Z" fill="#000000" fill-rule="nonzero" fill-opacity="1" /><path clip-path="url(#clip440)" d="M18.2347 654.749 L28.3562 654.749 L28.3562 642.686 L32.9077 642.686 L32.9077 654.749 L52.2594 654.749 Q56.6199 654.749 57.8613 653.571 Q59.1026 652.362 59.1026 648.701 L59.1026 642.686 L64.0042 642.686 L64.0042 648.701 Q64.0042 655.481 61.4897 658.059 Q58.9434 660.637 52.2594 660.637 L32.9077 660.637 L32.9077 664.934 L28.3562 664.934 L28.3562 660.637 L18.2347 660.637 L18.2347 654.749 Z" fill="#000000" fill-rule="nonzero" fill-opacity="1" /><path clip-path="url(#clip440)" d="M28.3562 634.983 L28.3562 629.127 L64.0042 629.127 L64.0042 634.983 L28.3562 634.983 M14.479 634.983 L14.479 629.127 L21.895 629.127 L21.895 634.983 L14.479 634.983 Z" fill="#000000" fill-rule="nonzero" fill-opacity="1" /><path clip-path="url(#clip440)" d="M32.4621 603.059 Q32.4621 607.77 36.1542 610.507 Q39.8145 613.244 46.212 613.244 Q52.6095 613.244 56.3017 610.539 Q59.9619 607.802 59.9619 603.059 Q59.9619 598.38 56.2698 595.643 Q52.5777 592.906 46.212 592.906 Q39.8781 592.906 36.186 595.643 Q32.4621 598.38 32.4621 603.059 M27.4968 603.059 Q27.4968 595.42 32.4621 591.06 Q37.4273 586.699 46.212 586.699 Q54.9649 586.699 59.9619 591.06 Q64.9272 595.42 64.9272 603.059 Q64.9272 610.73 59.9619 615.09 Q54.9649 619.419 46.212 619.419 Q37.4273 619.419 32.4621 615.09 Q27.4968 610.73 27.4968 603.059 Z" fill="#000000" fill-rule="nonzero" fill-opacity="1" /><path clip-path="url(#clip440)" d="M42.4881 547.359 L64.0042 547.359 L64.0042 553.216 L42.679 553.216 Q37.6183 553.216 35.1038 555.189 Q32.5894 557.163 32.5894 561.109 Q32.5894 565.852 35.6131 568.589 Q38.6368 571.326 43.8567 571.326 L64.0042 571.326 L64.0042 577.214 L28.3562 577.214 L28.3562 571.326 L33.8944 571.326 Q30.6797 569.226 29.0883 566.393 Q27.4968 563.528 27.4968 559.804 Q27.4968 553.661 31.3163 550.51 Q35.1038 547.359 42.4881 547.359 Z" fill="#000000" fill-rule="nonzero" fill-opacity="1" /><path clip-path="url(#clip440)" d="M755.915 20.1573 L744.815 50.2555 L767.055 50.2555 L755.915 20.1573 M751.297 12.096 L760.573 12.096 L783.623 72.576 L775.116 72.576 L769.607 57.061 L742.344 57.061 L736.835 72.576 L728.206 72.576 L751.297 12.096 Z" fill="#000000" fill-rule="nonzero" fill-opacity="1" /><path clip-path="url(#clip440)" d="M792.13 9.54393 L799.583 9.54393 L799.583 72.576 L792.13 72.576 L792.13 9.54393 Z" fill="#000000" fill-rule="nonzero" fill-opacity="1" /><path clip-path="url(#clip440)" d="M815.179 9.54393 L822.633 9.54393 L822.633 72.576 L815.179 72.576 L815.179 9.54393 Z" fill="#000000" fill-rule="nonzero" fill-opacity="1" /><path clip-path="url(#clip440)" d="M901.18 14.0809 L901.18 22.0612 Q896.522 19.8332 892.39 18.7395 Q888.258 17.6457 884.409 17.6457 Q877.725 17.6457 874.079 20.2383 Q870.474 22.8309 870.474 27.611 Q870.474 31.6214 872.864 33.6873 Q875.295 35.7128 882.019 36.9686 L886.961 37.9813 Q896.116 39.7232 900.451 44.1387 Q904.826 48.5136 904.826 55.8863 Q904.826 64.6767 898.912 69.2137 Q893.038 73.7508 881.655 73.7508 Q877.361 73.7508 872.5 72.7785 Q867.679 71.8063 862.494 69.9024 L862.494 61.4765 Q867.477 64.2716 872.257 65.6895 Q877.037 67.1073 881.655 67.1073 Q888.663 67.1073 892.471 64.3527 Q896.278 61.598 896.278 56.4939 Q896.278 52.0379 893.524 49.5264 Q890.81 47.0148 884.571 45.759 L879.589 44.7868 Q870.434 42.9639 866.342 39.075 Q862.251 35.1862 862.251 28.2591 Q862.251 20.2383 867.882 15.6203 Q873.553 11.0023 883.478 11.0023 Q887.731 11.0023 892.147 11.7719 Q896.562 12.5416 901.18 14.0809 Z" fill="#000000" fill-rule="nonzero" fill-opacity="1" /><path clip-path="url(#clip440)" d="M924.473 65.7705 L924.473 89.8329 L916.979 89.8329 L916.979 27.2059 L924.473 27.2059 L924.473 34.0924 Q926.822 30.0415 930.387 28.0971 Q933.992 26.1121 938.975 26.1121 Q947.239 26.1121 952.383 32.6746 Q957.569 39.2371 957.569 49.9314 Q957.569 60.6258 952.383 67.1883 Q947.239 73.7508 938.975 73.7508 Q933.992 73.7508 930.387 71.8063 Q926.822 69.8214 924.473 65.7705 M949.831 49.9314 Q949.831 41.7081 946.429 37.0496 Q943.066 32.3505 937.152 32.3505 Q931.238 32.3505 927.835 37.0496 Q924.473 41.7081 924.473 49.9314 Q924.473 58.1548 927.835 62.8538 Q931.238 67.5124 937.152 67.5124 Q943.066 67.5124 946.429 62.8538 Q949.831 58.1548 949.831 49.9314 Z" fill="#000000" fill-rule="nonzero" fill-opacity="1" /><path clip-path="url(#clip440)" d="M1008.73 48.0275 L1008.73 51.6733 L974.461 51.6733 Q974.947 59.3701 979.079 63.421 Q983.251 67.4314 990.665 67.4314 Q994.958 67.4314 998.969 66.3781 Q1003.02 65.3249 1006.99 63.2184 L1006.99 70.267 Q1002.98 71.9684 998.766 72.8596 Q994.553 73.7508 990.219 73.7508 Q979.362 73.7508 973.003 67.4314 Q966.683 61.1119 966.683 50.3365 Q966.683 39.1965 972.679 32.6746 Q978.714 26.1121 988.923 26.1121 Q998.078 26.1121 1003.38 32.0264 Q1008.73 37.9003 1008.73 48.0275 M1001.28 45.84 Q1001.2 39.7232 997.835 36.0774 Q994.513 32.4315 989.004 32.4315 Q982.765 32.4315 978.998 35.9558 Q975.271 39.4801 974.704 45.8805 L1001.28 45.84 Z" fill="#000000" fill-rule="nonzero" fill-opacity="1" /><path clip-path="url(#clip440)" d="M1053.62 28.9478 L1053.62 35.9153 Q1050.46 34.1734 1047.26 33.3227 Q1044.1 32.4315 1040.86 32.4315 Q1033.6 32.4315 1029.59 37.0496 Q1025.58 41.6271 1025.58 49.9314 Q1025.58 58.2358 1029.59 62.8538 Q1033.6 67.4314 1040.86 67.4314 Q1044.1 67.4314 1047.26 66.5807 Q1050.46 65.6895 1053.62 63.9476 L1053.62 70.8341 Q1050.5 72.2924 1047.13 73.0216 Q1043.81 73.7508 1040.05 73.7508 Q1029.8 73.7508 1023.76 67.3098 Q1017.72 60.8689 1017.72 49.9314 Q1017.72 38.832 1023.8 32.472 Q1029.92 26.1121 1040.53 26.1121 Q1043.97 26.1121 1047.26 26.8413 Q1050.54 27.5299 1053.62 28.9478 Z" fill="#000000" fill-rule="nonzero" fill-opacity="1" /><path clip-path="url(#clip440)" d="M1066.58 27.2059 L1074.03 27.2059 L1074.03 72.576 L1066.58 72.576 L1066.58 27.2059 M1066.58 9.54393 L1074.03 9.54393 L1074.03 18.9825 L1066.58 18.9825 L1066.58 9.54393 Z" fill="#000000" fill-rule="nonzero" fill-opacity="1" /><path clip-path="url(#clip440)" d="M1128.44 48.0275 L1128.44 51.6733 L1094.17 51.6733 Q1094.65 59.3701 1098.78 63.421 Q1102.96 67.4314 1110.37 67.4314 Q1114.66 67.4314 1118.67 66.3781 Q1122.72 65.3249 1126.69 63.2184 L1126.69 70.267 Q1122.68 71.9684 1118.47 72.8596 Q1114.26 73.7508 1109.92 73.7508 Q1099.07 73.7508 1092.71 67.4314 Q1086.39 61.1119 1086.39 50.3365 Q1086.39 39.1965 1092.38 32.6746 Q1098.42 26.1121 1108.63 26.1121 Q1117.78 26.1121 1123.09 32.0264 Q1128.44 37.9003 1128.44 48.0275 M1120.98 45.84 Q1120.9 39.7232 1117.54 36.0774 Q1114.22 32.4315 1108.71 32.4315 Q1102.47 32.4315 1098.7 35.9558 Q1094.98 39.4801 1094.41 45.8805 L1120.98 45.84 Z" fill="#000000" fill-rule="nonzero" fill-opacity="1" /><path clip-path="url(#clip440)" d="M1169.59 28.5427 L1169.59 35.5912 Q1166.43 33.9709 1163.03 33.1607 Q1159.63 32.3505 1155.98 32.3505 Q1150.43 32.3505 1147.64 34.0519 Q1144.88 35.7533 1144.88 39.156 Q1144.88 41.7486 1146.87 43.2475 Q1148.85 44.7058 1154.85 46.0426 L1157.4 46.6097 Q1165.34 48.3111 1168.66 51.4303 Q1172.02 54.509 1172.02 60.0587 Q1172.02 66.3781 1167 70.0644 Q1162.02 73.7508 1153.27 73.7508 Q1149.62 73.7508 1145.65 73.0216 Q1141.72 72.3329 1137.35 70.9151 L1137.35 63.2184 Q1141.48 65.3654 1145.49 66.4591 Q1149.5 67.5124 1153.43 67.5124 Q1158.7 67.5124 1161.53 65.73 Q1164.37 63.9071 1164.37 60.6258 Q1164.37 57.5877 1162.3 55.9673 Q1160.28 54.3469 1153.35 52.8481 L1150.76 52.2405 Q1143.83 50.7821 1140.75 47.7845 Q1137.67 44.7463 1137.67 39.4801 Q1137.67 33.0797 1142.21 29.5959 Q1146.75 26.1121 1155.09 26.1121 Q1159.22 26.1121 1162.87 26.7198 Q1166.51 27.3274 1169.59 28.5427 Z" fill="#000000" fill-rule="nonzero" fill-opacity="1" /><path clip-path="url(#clip440)" d="M1255.88 16.7545 L1255.88 25.383 Q1251.75 21.5346 1247.05 19.6307 Q1242.39 17.7268 1237.12 17.7268 Q1226.75 17.7268 1221.24 24.0867 Q1215.73 30.4061 1215.73 42.3968 Q1215.73 54.3469 1221.24 60.7069 Q1226.75 67.0263 1237.12 67.0263 Q1242.39 67.0263 1247.05 65.1223 Q1251.75 63.2184 1255.88 59.3701 L1255.88 67.9175 Q1251.58 70.8341 1246.76 72.2924 Q1241.98 73.7508 1236.64 73.7508 Q1222.9 73.7508 1215 65.3654 Q1207.1 56.9395 1207.1 42.3968 Q1207.1 27.8135 1215 19.4281 Q1222.9 11.0023 1236.64 11.0023 Q1242.06 11.0023 1246.84 12.4606 Q1251.66 13.8784 1255.88 16.7545 Z" fill="#000000" fill-rule="nonzero" fill-opacity="1" /><path clip-path="url(#clip440)" d="M1285.77 32.4315 Q1279.78 32.4315 1276.29 37.1306 Q1272.81 41.7891 1272.81 49.9314 Q1272.81 58.0738 1276.25 62.7728 Q1279.74 67.4314 1285.77 67.4314 Q1291.73 67.4314 1295.21 62.7323 Q1298.7 58.0333 1298.7 49.9314 Q1298.7 41.8701 1295.21 37.1711 Q1291.73 32.4315 1285.77 32.4315 M1285.77 26.1121 Q1295.5 26.1121 1301.04 32.4315 Q1306.59 38.7509 1306.59 49.9314 Q1306.59 61.0714 1301.04 67.4314 Q1295.5 73.7508 1285.77 73.7508 Q1276.01 73.7508 1270.46 67.4314 Q1264.95 61.0714 1264.95 49.9314 Q1264.95 38.7509 1270.46 32.4315 Q1276.01 26.1121 1285.77 26.1121 Z" fill="#000000" fill-rule="nonzero" fill-opacity="1" /><path clip-path="url(#clip440)" d="M1356.66 45.1919 L1356.66 72.576 L1349.21 72.576 L1349.21 45.4349 Q1349.21 38.994 1346.7 35.7938 Q1344.19 32.5936 1339.16 32.5936 Q1333.13 32.5936 1329.64 36.4419 Q1326.16 40.2903 1326.16 46.9338 L1326.16 72.576 L1318.67 72.576 L1318.67 27.2059 L1326.16 27.2059 L1326.16 34.2544 Q1328.83 30.163 1332.44 28.1376 Q1336.09 26.1121 1340.82 26.1121 Q1348.64 26.1121 1352.65 30.9732 Q1356.66 35.7938 1356.66 45.1919 Z" fill="#000000" fill-rule="nonzero" fill-opacity="1" /><path clip-path="url(#clip440)" d="M1404.18 28.9478 L1404.18 35.9153 Q1401.02 34.1734 1397.82 33.3227 Q1394.66 32.4315 1391.42 32.4315 Q1384.17 32.4315 1380.16 37.0496 Q1376.15 41.6271 1376.15 49.9314 Q1376.15 58.2358 1380.16 62.8538 Q1384.17 67.4314 1391.42 67.4314 Q1394.66 67.4314 1397.82 66.5807 Q1401.02 65.6895 1404.18 63.9476 L1404.18 70.8341 Q1401.06 72.2924 1397.7 73.0216 Q1394.38 73.7508 1390.61 73.7508 Q1380.36 73.7508 1374.33 67.3098 Q1368.29 60.8689 1368.29 49.9314 Q1368.29 38.832 1374.37 32.472 Q1380.48 26.1121 1391.1 26.1121 Q1394.54 26.1121 1397.82 26.8413 Q1401.1 27.5299 1404.18 28.9478 Z" fill="#000000" fill-rule="nonzero" fill-opacity="1" /><path clip-path="url(#clip440)" d="M1455.95 48.0275 L1455.95 51.6733 L1421.68 51.6733 Q1422.17 59.3701 1426.3 63.421 Q1430.47 67.4314 1437.88 67.4314 Q1442.18 67.4314 1446.19 66.3781 Q1450.24 65.3249 1454.21 63.2184 L1454.21 70.267 Q1450.2 71.9684 1445.99 72.8596 Q1441.77 73.7508 1437.44 73.7508 Q1426.58 73.7508 1420.22 67.4314 Q1413.9 61.1119 1413.9 50.3365 Q1413.9 39.1965 1419.9 32.6746 Q1425.93 26.1121 1436.14 26.1121 Q1445.3 26.1121 1450.6 32.0264 Q1455.95 37.9003 1455.95 48.0275 M1448.5 45.84 Q1448.42 39.7232 1445.05 36.0774 Q1441.73 32.4315 1436.22 32.4315 Q1429.99 32.4315 1426.22 35.9558 Q1422.49 39.4801 1421.92 45.8805 L1448.5 45.84 Z" fill="#000000" fill-rule="nonzero" fill-opacity="1" /><path clip-path="url(#clip440)" d="M1505.9 45.1919 L1505.9 72.576 L1498.45 72.576 L1498.45 45.4349 Q1498.45 38.994 1495.93 35.7938 Q1493.42 32.5936 1488.4 32.5936 Q1482.36 32.5936 1478.88 36.4419 Q1475.4 40.2903 1475.4 46.9338 L1475.4 72.576 L1467.9 72.576 L1467.9 27.2059 L1475.4 27.2059 L1475.4 34.2544 Q1478.07 30.163 1481.67 28.1376 Q1485.32 26.1121 1490.06 26.1121 Q1497.88 26.1121 1501.89 30.9732 Q1505.9 35.7938 1505.9 45.1919 Z" fill="#000000" fill-rule="nonzero" fill-opacity="1" /><path clip-path="url(#clip440)" d="M1528.14 14.324 L1528.14 27.2059 L1543.49 27.2059 L1543.49 32.9987 L1528.14 32.9987 L1528.14 57.6282 Q1528.14 63.1779 1529.64 64.7578 Q1531.18 66.3376 1535.84 66.3376 L1543.49 66.3376 L1543.49 72.576 L1535.84 72.576 Q1527.21 72.576 1523.93 69.3758 Q1520.64 66.1351 1520.64 57.6282 L1520.64 32.9987 L1515.18 32.9987 L1515.18 27.2059 L1520.64 27.2059 L1520.64 14.324 L1528.14 14.324 Z" fill="#000000" fill-rule="nonzero" fill-opacity="1" /><path clip-path="url(#clip440)" d="M1579.58 34.1734 Q1578.33 33.4443 1576.83 33.1202 Q1575.37 32.7556 1573.59 32.7556 Q1567.27 32.7556 1563.87 36.8875 Q1560.51 40.9789 1560.51 48.6757 L1560.51 72.576 L1553.01 72.576 L1553.01 27.2059 L1560.51 27.2059 L1560.51 34.2544 Q1562.85 30.1225 1566.62 28.1376 Q1570.39 26.1121 1575.78 26.1121 Q1576.55 26.1121 1577.48 26.2337 Q1578.41 26.3147 1579.54 26.5172 L1579.58 34.1734 Z" fill="#000000" fill-rule="nonzero" fill-opacity="1" /><path clip-path="url(#clip440)" d="M1608.02 49.7694 Q1598.99 49.7694 1595.51 51.8354 Q1592.02 53.9013 1592.02 58.8839 Q1592.02 62.8538 1594.61 65.2034 Q1597.25 67.5124 1601.74 67.5124 Q1607.94 67.5124 1611.67 63.1374 Q1615.44 58.7219 1615.44 51.4303 L1615.44 49.7694 L1608.02 49.7694 M1622.89 46.6907 L1622.89 72.576 L1615.44 72.576 L1615.44 65.6895 Q1612.88 69.8214 1609.08 71.8063 Q1605.27 73.7508 1599.76 73.7508 Q1592.79 73.7508 1588.66 69.8619 Q1584.57 65.9325 1584.57 59.3701 Q1584.57 51.7138 1589.67 47.825 Q1594.82 43.9361 1604.98 43.9361 L1615.44 43.9361 L1615.44 43.2069 Q1615.44 38.0623 1612.03 35.2672 Q1608.67 32.4315 1602.55 32.4315 Q1598.66 32.4315 1594.98 33.3632 Q1591.29 34.295 1587.89 36.1584 L1587.89 29.2718 Q1591.98 27.692 1595.83 26.9223 Q1599.68 26.1121 1603.32 26.1121 Q1613.17 26.1121 1618.03 31.2163 Q1622.89 36.3204 1622.89 46.6907 Z" fill="#000000" fill-rule="nonzero" fill-opacity="1" /><path clip-path="url(#clip440)" d="M1645.61 14.324 L1645.61 27.2059 L1660.97 27.2059 L1660.97 32.9987 L1645.61 32.9987 L1645.61 57.6282 Q1645.61 63.1779 1647.11 64.7578 Q1648.65 66.3376 1653.31 66.3376 L1660.97 66.3376 L1660.97 72.576 L1653.31 72.576 Q1644.68 72.576 1641.4 69.3758 Q1638.12 66.1351 1638.12 57.6282 L1638.12 32.9987 L1632.65 32.9987 L1632.65 27.2059 L1638.12 27.2059 L1638.12 14.324 L1645.61 14.324 Z" fill="#000000" fill-rule="nonzero" fill-opacity="1" /><path clip-path="url(#clip440)" d="M1670.77 27.2059 L1678.22 27.2059 L1678.22 72.576 L1670.77 72.576 L1670.77 27.2059 M1670.77 9.54393 L1678.22 9.54393 L1678.22 18.9825 L1670.77 18.9825 L1670.77 9.54393 Z" fill="#000000" fill-rule="nonzero" fill-opacity="1" /><path clip-path="url(#clip440)" d="M1711.4 32.4315 Q1705.41 32.4315 1701.92 37.1306 Q1698.44 41.7891 1698.44 49.9314 Q1698.44 58.0738 1701.88 62.7728 Q1705.37 67.4314 1711.4 67.4314 Q1717.36 67.4314 1720.84 62.7323 Q1724.32 58.0333 1724.32 49.9314 Q1724.32 41.8701 1720.84 37.1711 Q1717.36 32.4315 1711.4 32.4315 M1711.4 26.1121 Q1721.12 26.1121 1726.67 32.4315 Q1732.22 38.7509 1732.22 49.9314 Q1732.22 61.0714 1726.67 67.4314 Q1721.12 73.7508 1711.4 73.7508 Q1701.64 73.7508 1696.09 67.4314 Q1690.58 61.0714 1690.58 49.9314 Q1690.58 38.7509 1696.09 32.4315 Q1701.64 26.1121 1711.4 26.1121 Z" fill="#000000" fill-rule="nonzero" fill-opacity="1" /><path clip-path="url(#clip440)" d="M1782.29 45.1919 L1782.29 72.576 L1774.84 72.576 L1774.84 45.4349 Q1774.84 38.994 1772.33 35.7938 Q1769.82 32.5936 1764.79 32.5936 Q1758.76 32.5936 1755.27 36.4419 Q1751.79 40.2903 1751.79 46.9338 L1751.79 72.576 L1744.29 72.576 L1744.29 27.2059 L1751.79 27.2059 L1751.79 34.2544 Q1754.46 30.163 1758.07 28.1376 Q1761.71 26.1121 1766.45 26.1121 Q1774.27 26.1121 1778.28 30.9732 Q1782.29 35.7938 1782.29 45.1919 Z" fill="#000000" fill-rule="nonzero" fill-opacity="1" /><path clip-path="url(#clip440)" d="M1826.08 28.5427 L1826.08 35.5912 Q1822.92 33.9709 1819.52 33.1607 Q1816.12 32.3505 1812.47 32.3505 Q1806.92 32.3505 1804.13 34.0519 Q1801.37 35.7533 1801.37 39.156 Q1801.37 41.7486 1803.36 43.2475 Q1805.34 44.7058 1811.34 46.0426 L1813.89 46.6097 Q1821.83 48.3111 1825.15 51.4303 Q1828.51 54.509 1828.51 60.0587 Q1828.51 66.3781 1823.49 70.0644 Q1818.51 73.7508 1809.76 73.7508 Q1806.11 73.7508 1802.14 73.0216 Q1798.21 72.3329 1793.84 70.9151 L1793.84 63.2184 Q1797.97 65.3654 1801.98 66.4591 Q1805.99 67.5124 1809.92 67.5124 Q1815.19 67.5124 1818.02 65.73 Q1820.86 63.9071 1820.86 60.6258 Q1820.86 57.5877 1818.79 55.9673 Q1816.77 54.3469 1809.84 52.8481 L1807.25 52.2405 Q1800.32 50.7821 1797.24 47.7845 Q1794.16 44.7463 1794.16 39.4801 Q1794.16 33.0797 1798.7 29.5959 Q1803.24 26.1121 1811.58 26.1121 Q1815.71 26.1121 1819.36 26.7198 Q1823 27.3274 1826.08 28.5427 Z" fill="#000000" fill-rule="nonzero" fill-opacity="1" /><polyline clip-path="url(#clip442)" style="stroke:#009af9; stroke-linecap:round; stroke-linejoin:round; stroke-width:8; stroke-opacity:1; fill:none" points="264.778,1079.86 305.322,1364.45 345.865,1374.18 386.408,1375.62 426.951,1376.57 467.495,1377.36 508.038,1378.02 548.581,1378.58 589.124,1379.05 629.668,1379.46 670.211,1379.8 710.754,1380.1 751.297,1380.35 791.841,1380.57 832.384,1380.76 872.927,1380.92 913.47,1381.06 954.014,1381.18 994.557,1381.28 1035.1,1381.37 1075.64,1381.45 1116.19,1381.52 1156.73,1381.58 1197.27,1381.63 1237.82,1381.68 1278.36,1381.71 1318.9,1381.75 1359.45,1381.77 1399.99,1381.8 1440.53,1381.82 1481.08,1381.84 1521.62,1381.86 1562.16,1381.87 1602.71,1381.89 1643.25,1381.9 1683.79,1381.91 1724.34,1381.92 1764.88,1381.92 1805.42,1381.93 1845.97,1381.93 1886.51,1381.93 1927.05,1381.94 1967.6,1381.94 2008.14,1381.95 2048.68,1381.95 2089.22,1381.96 2129.77,1381.96 2170.31,1381.96 2210.85,1381.96 2251.4,1381.96 2291.94,1381.96 "/>
<polyline clip-path="url(#clip442)" style="stroke:#e26f46; stroke-linecap:round; stroke-linejoin:round; stroke-width:8; stroke-opacity:1; fill:none" points="264.778,1386.4 305.322,1373.6 345.865,1372.15 386.408,1372.5 426.951,1372.91 467.495,1373.28 508.038,1373.6 548.581,1373.88 589.124,1374.12 629.668,1374.33 670.211,1374.52 710.754,1374.68 751.297,1374.82 791.841,1374.95 832.384,1375.05 872.927,1375.15 913.47,1375.23 954.014,1375.3 994.557,1375.36 1035.1,1375.41 1075.64,1375.46 1116.19,1375.5 1156.73,1375.53 1197.27,1375.57 1237.82,1375.59 1278.36,1375.62 1318.9,1375.64 1359.45,1375.65 1399.99,1375.67 1440.53,1375.68 1481.08,1375.69 1521.62,1375.7 1562.16,1375.71 1602.71,1375.72 1643.25,1375.73 1683.79,1375.73 1724.34,1375.74 1764.88,1375.74 1805.42,1375.75 1845.97,1375.75 1886.51,1375.75 1927.05,1375.75 1967.6,1375.76 2008.14,1375.76 2048.68,1375.76 2089.22,1375.76 2129.77,1375.76 2170.31,1375.76 2210.85,1375.76 2251.4,1375.76 2291.94,1375.77 "/>
<polyline clip-path="url(#clip442)" style="stroke:#3da44d; stroke-linecap:round; stroke-linejoin:round; stroke-width:8; stroke-opacity:1; fill:none" points="264.778,1386.4 305.322,1385.89 345.865,1383.95 386.408,1381.52 426.951,1379.14 467.495,1376.97 508.038,1375.02 548.581,1373.29 589.124,1371.77 629.668,1370.42 670.211,1369.23 710.754,1368.19 751.297,1367.27 791.841,1366.46 832.384,1365.76 872.927,1365.14 913.47,1364.6 954.014,1364.13 994.557,1363.72 1035.1,1363.36 1075.64,1363.04 1116.19,1362.77 1156.73,1362.53 1197.27,1362.32 1237.82,1362.13 1278.36,1361.98 1318.9,1361.84 1359.45,1361.72 1399.99,1361.61 1440.53,1361.52 1481.08,1361.44 1521.62,1361.37 1562.16,1361.31 1602.71,1361.26 1643.25,1361.21 1683.79,1361.17 1724.34,1361.13 1764.88,1361.1 1805.42,1361.08 1845.97,1361.05 1886.51,1361.03 1927.05,1361.02 1967.6,1361 2008.14,1360.99 2048.68,1360.98 2089.22,1360.97 2129.77,1360.96 2170.31,1360.95 2210.85,1360.94 2251.4,1360.94 2291.94,1360.93 "/>
<polyline clip-path="url(#clip442)" style="stroke:#c271d2; stroke-linecap:round; stroke-linejoin:round; stroke-width:8; stroke-opacity:1; fill:none" points="264.778,160.256 305.322,419.558 345.865,405.632 386.408,387.332 426.951,371.368 467.495,357.591 508.038,345.692 548.581,335.405 589.124,326.504 629.668,318.797 670.211,312.119 710.754,306.332 751.297,301.313 791.841,296.957 832.384,293.173 872.927,289.886 913.47,287.028 954.014,284.544 994.557,282.383 1035.1,280.505 1075.64,278.872 1116.19,277.455 1156.73,276.223 1197.27,275.151 1237.82,274.218 1278.36,273.405 1318.9,272.696 1359.45,272.078 1399.99,271.54 1440.53,271.071 1481.08,270.664 1521.62,270.311 1562.16,270.006 1602.71,269.74 1643.25,269.508 1683.79,269.305 1724.34,269.128 1764.88,268.972 1805.42,268.835 1845.97,268.716 1886.51,268.614 1927.05,268.527 1967.6,268.453 2008.14,268.388 2048.68,268.331 2089.22,268.28 2129.77,268.234 2170.31,268.194 2210.85,268.158 2251.4,268.126 2291.94,268.101 "/>
<polyline clip-path="url(#clip442)" style="stroke:#ac8d18; stroke-linecap:round; stroke-linejoin:round; stroke-width:8; stroke-opacity:1; fill:none" points="264.778,1386.4 305.322,1127.09 345.865,1141.02 386.408,1159.32 426.951,1175.28 467.495,1189.06 508.038,1200.96 548.581,1211.25 589.124,1220.15 629.668,1227.86 670.211,1234.53 710.754,1240.32 751.297,1245.34 791.841,1249.7 832.384,1253.48 872.927,1256.77 913.47,1259.62 954.014,1262.11 994.557,1264.27 1035.1,1266.15 1075.64,1267.78 1116.19,1269.2 1156.73,1270.43 1197.27,1271.5 1237.82,1272.43 1278.36,1273.25 1318.9,1273.96 1359.45,1274.57 1399.99,1275.11 1440.53,1275.58 1481.08,1275.99 1521.62,1276.34 1562.16,1276.65 1602.71,1276.91 1643.25,1277.14 1683.79,1277.35 1724.34,1277.52 1764.88,1277.68 1805.42,1277.82 1845.97,1277.94 1886.51,1278.04 1927.05,1278.12 1967.6,1278.2 2008.14,1278.26 2048.68,1278.32 2089.22,1278.37 2129.77,1278.42 2170.31,1278.46 2210.85,1278.49 2251.4,1278.53 2291.94,1278.55 "/>
<polyline clip-path="url(#clip442)" style="stroke:#00a9ad; stroke-linecap:round; stroke-linejoin:round; stroke-width:8; stroke-opacity:1; fill:none" points="264.778,466.791 305.322,478.79 345.865,499.05 386.408,516.702 426.951,531.654 467.495,544.412 508.038,555.347 548.581,564.744 589.124,572.833 629.668,579.807 670.211,585.826 710.754,591.028 751.297,595.528 791.841,599.423 832.384,602.796 872.927,605.721 913.47,608.256 954.014,610.457 994.557,612.367 1035.1,614.026 1075.64,615.467 1116.19,616.72 1156.73,617.81 1197.27,618.757 1237.82,619.581 1278.36,620.297 1318.9,620.92 1359.45,621.461 1399.99,621.932 1440.53,622.342 1481.08,622.699 1521.62,623.01 1562.16,623.281 1602.71,623.517 1643.25,623.722 1683.79,623.901 1724.34,624.056 1764.88,624.191 1805.42,624.308 1845.97,624.41 1886.51,624.499 1927.05,624.577 1967.6,624.645 2008.14,624.705 2048.68,624.756 2089.22,624.801 2129.77,624.84 2170.31,624.873 2210.85,624.902 2251.4,624.927 2291.94,624.95 "/>
<polyline clip-path="url(#clip442)" style="stroke:#ed5d92; stroke-linecap:round; stroke-linejoin:round; stroke-width:8; stroke-opacity:1; fill:none" points="264.778,1386.4 305.322,1374.4 345.865,1354.14 386.408,1336.49 426.951,1321.53 467.495,1308.77 508.038,1297.84 548.581,1288.44 589.124,1280.35 629.668,1273.38 670.211,1267.36 710.754,1262.16 751.297,1257.66 791.841,1253.76 832.384,1250.39 872.927,1247.47 913.47,1244.93 954.014,1242.73 994.557,1240.82 1035.1,1239.16 1075.64,1237.72 1116.19,1236.47 1156.73,1235.38 1197.27,1234.43 1237.82,1233.61 1278.36,1232.89 1318.9,1232.27 1359.45,1231.73 1399.99,1231.25 1440.53,1230.84 1481.08,1230.49 1521.62,1230.18 1562.16,1229.91 1602.71,1229.67 1643.25,1229.46 1683.79,1229.29 1724.34,1229.13 1764.88,1229 1805.42,1228.88 1845.97,1228.78 1886.51,1228.69 1927.05,1228.61 1967.6,1228.54 2008.14,1228.48 2048.68,1228.43 2089.22,1228.39 2129.77,1228.35 2170.31,1228.31 2210.85,1228.28 2251.4,1228.26 2291.94,1228.24 "/>
<path clip-path="url(#clip440)" d="M1978.45 581.516 L2281.13 581.516 L2281.13 166.796 L1978.45 166.796  Z" fill="#ffffff" fill-rule="evenodd" fill-opacity="1"/>
<polyline clip-path="url(#clip440)" style="stroke:#000000; stroke-linecap:round; stroke-linejoin:round; stroke-width:4; stroke-opacity:1; fill:none" points="1978.45,581.516 2281.13,581.516 2281.13,166.796 1978.45,166.796 1978.45,581.516 "/>
<polyline clip-path="url(#clip440)" style="stroke:#009af9; stroke-linecap:round; stroke-linejoin:round; stroke-width:8; stroke-opacity:1; fill:none" points="2002.33,218.636 2145.58,218.636 "/>
<path clip-path="url(#clip440)" d="M2185.29 205.962 L2178.94 223.161 L2191.65 223.161 L2185.29 205.962 M2182.65 201.356 L2187.95 201.356 L2201.12 235.916 L2196.26 235.916 L2193.11 227.05 L2177.53 227.05 L2174.38 235.916 L2169.45 235.916 L2182.65 201.356 Z" fill="#000000" fill-rule="nonzero" fill-opacity="1" /><polyline clip-path="url(#clip440)" style="stroke:#e26f46; stroke-linecap:round; stroke-linejoin:round; stroke-width:8; stroke-opacity:1; fill:none" points="2002.33,270.476 2145.58,270.476 "/>
<path clip-path="url(#clip440)" d="M2174.13 271.251 L2174.13 283.913 L2181.63 283.913 Q2185.4 283.913 2187.21 282.362 Q2189.04 280.788 2189.04 277.571 Q2189.04 274.33 2187.21 272.802 Q2185.4 271.251 2181.63 271.251 L2174.13 271.251 M2174.13 257.038 L2174.13 267.455 L2181.05 267.455 Q2184.48 267.455 2186.14 266.182 Q2187.83 264.885 2187.83 262.247 Q2187.83 259.631 2186.14 258.335 Q2184.48 257.038 2181.05 257.038 L2174.13 257.038 M2169.45 253.196 L2181.4 253.196 Q2186.75 253.196 2189.64 255.418 Q2192.53 257.64 2192.53 261.737 Q2192.53 264.909 2191.05 266.784 Q2189.57 268.659 2186.7 269.122 Q2190.15 269.862 2192.05 272.223 Q2193.97 274.561 2193.97 278.08 Q2193.97 282.709 2190.82 285.233 Q2187.67 287.756 2181.86 287.756 L2169.45 287.756 L2169.45 253.196 Z" fill="#000000" fill-rule="nonzero" fill-opacity="1" /><polyline clip-path="url(#clip440)" style="stroke:#3da44d; stroke-linecap:round; stroke-linejoin:round; stroke-width:8; stroke-opacity:1; fill:none" points="2002.33,322.316 2145.58,322.316 "/>
<path clip-path="url(#clip440)" d="M2197.32 307.698 L2197.32 312.628 Q2194.96 310.429 2192.28 309.341 Q2189.62 308.253 2186.61 308.253 Q2180.68 308.253 2177.53 311.888 Q2174.38 315.499 2174.38 322.35 Q2174.38 329.179 2177.53 332.813 Q2180.68 336.424 2186.61 336.424 Q2189.62 336.424 2192.28 335.336 Q2194.96 334.249 2197.32 332.049 L2197.32 336.934 Q2194.87 338.6 2192.12 339.434 Q2189.38 340.267 2186.33 340.267 Q2178.48 340.267 2173.97 335.475 Q2169.45 330.661 2169.45 322.35 Q2169.45 314.017 2173.97 309.226 Q2178.48 304.411 2186.33 304.411 Q2189.43 304.411 2192.16 305.244 Q2194.92 306.054 2197.32 307.698 Z" fill="#000000" fill-rule="nonzero" fill-opacity="1" /><polyline clip-path="url(#clip440)" style="stroke:#c271d2; stroke-linecap:round; stroke-linejoin:round; stroke-width:8; stroke-opacity:1; fill:none" points="2002.33,374.156 2145.58,374.156 "/>
<path clip-path="url(#clip440)" d="M2169.45 356.876 L2191.31 356.876 L2191.31 360.811 L2174.13 360.811 L2174.13 371.042 L2190.59 371.042 L2190.59 374.977 L2174.13 374.977 L2174.13 387.501 L2191.72 387.501 L2191.72 391.436 L2169.45 391.436 L2169.45 356.876 Z" fill="#000000" fill-rule="nonzero" fill-opacity="1" /><path clip-path="url(#clip440)" d="M2200.63 387.501 L2208.27 387.501 L2208.27 361.135 L2199.96 362.802 L2199.96 358.542 L2208.23 356.876 L2212.9 356.876 L2212.9 387.501 L2220.54 387.501 L2220.54 391.436 L2200.63 391.436 L2200.63 387.501 Z" fill="#000000" fill-rule="nonzero" fill-opacity="1" /><polyline clip-path="url(#clip440)" style="stroke:#ac8d18; stroke-linecap:round; stroke-linejoin:round; stroke-width:8; stroke-opacity:1; fill:none" points="2002.33,425.996 2145.58,425.996 "/>
<path clip-path="url(#clip440)" d="M2185.29 413.322 L2178.94 430.521 L2191.65 430.521 L2185.29 413.322 M2182.65 408.716 L2187.95 408.716 L2201.12 443.276 L2196.26 443.276 L2193.11 434.41 L2177.53 434.41 L2174.38 443.276 L2169.45 443.276 L2182.65 408.716 Z" fill="#000000" fill-rule="nonzero" fill-opacity="1" /><path clip-path="url(#clip440)" d="M2206.17 408.716 L2228.02 408.716 L2228.02 412.651 L2210.84 412.651 L2210.84 422.882 L2227.3 422.882 L2227.3 426.817 L2210.84 426.817 L2210.84 439.341 L2228.43 439.341 L2228.43 443.276 L2206.17 443.276 L2206.17 408.716 Z" fill="#000000" fill-rule="nonzero" fill-opacity="1" /><path clip-path="url(#clip440)" d="M2237.35 439.341 L2244.99 439.341 L2244.99 412.975 L2236.68 414.642 L2236.68 410.382 L2244.94 408.716 L2249.62 408.716 L2249.62 439.341 L2257.25 439.341 L2257.25 443.276 L2237.35 443.276 L2237.35 439.341 Z" fill="#000000" fill-rule="nonzero" fill-opacity="1" /><polyline clip-path="url(#clip440)" style="stroke:#00a9ad; stroke-linecap:round; stroke-linejoin:round; stroke-width:8; stroke-opacity:1; fill:none" points="2002.33,477.836 2145.58,477.836 "/>
<path clip-path="url(#clip440)" d="M2169.45 460.556 L2191.31 460.556 L2191.31 464.491 L2174.13 464.491 L2174.13 474.722 L2190.59 474.722 L2190.59 478.657 L2174.13 478.657 L2174.13 491.181 L2191.72 491.181 L2191.72 495.116 L2169.45 495.116 L2169.45 460.556 Z" fill="#000000" fill-rule="nonzero" fill-opacity="1" /><path clip-path="url(#clip440)" d="M2203.85 491.181 L2220.17 491.181 L2220.17 495.116 L2198.23 495.116 L2198.23 491.181 Q2200.89 488.426 2205.47 483.796 Q2210.08 479.144 2211.26 477.801 Q2213.5 475.278 2214.38 473.542 Q2215.29 471.783 2215.29 470.093 Q2215.29 467.338 2213.34 465.602 Q2211.42 463.866 2208.32 463.866 Q2206.12 463.866 2203.67 464.63 Q2201.24 465.394 2198.46 466.945 L2198.46 462.222 Q2201.28 461.088 2203.74 460.509 Q2206.19 459.931 2208.23 459.931 Q2213.6 459.931 2216.79 462.616 Q2219.99 465.301 2219.99 469.792 Q2219.99 471.921 2219.18 473.843 Q2218.39 475.741 2216.28 478.333 Q2215.7 479.005 2212.6 482.222 Q2209.5 485.417 2203.85 491.181 Z" fill="#000000" fill-rule="nonzero" fill-opacity="1" /><polyline clip-path="url(#clip440)" style="stroke:#ed5d92; stroke-linecap:round; stroke-linejoin:round; stroke-width:8; stroke-opacity:1; fill:none" points="2002.33,529.676 2145.58,529.676 "/>
<path clip-path="url(#clip440)" d="M2174.13 530.451 L2174.13 543.113 L2181.63 543.113 Q2185.4 543.113 2187.21 541.562 Q2189.04 539.988 2189.04 536.771 Q2189.04 533.53 2187.21 532.002 Q2185.4 530.451 2181.63 530.451 L2174.13 530.451 M2174.13 516.238 L2174.13 526.655 L2181.05 526.655 Q2184.48 526.655 2186.14 525.382 Q2187.83 524.085 2187.83 521.447 Q2187.83 518.831 2186.14 517.535 Q2184.48 516.238 2181.05 516.238 L2174.13 516.238 M2169.45 512.396 L2181.4 512.396 Q2186.75 512.396 2189.64 514.618 Q2192.53 516.84 2192.53 520.937 Q2192.53 524.109 2191.05 525.984 Q2189.57 527.859 2186.7 528.322 Q2190.15 529.062 2192.05 531.423 Q2193.97 533.761 2193.97 537.28 Q2193.97 541.909 2190.82 544.433 Q2187.67 546.956 2181.86 546.956 L2169.45 546.956 L2169.45 512.396 Z" fill="#000000" fill-rule="nonzero" fill-opacity="1" /><path clip-path="url(#clip440)" d="M2201.98 512.396 L2223.83 512.396 L2223.83 516.331 L2206.65 516.331 L2206.65 526.562 L2223.11 526.562 L2223.11 530.497 L2206.65 530.497 L2206.65 543.021 L2224.24 543.021 L2224.24 546.956 L2201.98 546.956 L2201.98 512.396 Z" fill="#000000" fill-rule="nonzero" fill-opacity="1" /><path clip-path="url(#clip440)" d="M2236.37 543.021 L2252.69 543.021 L2252.69 546.956 L2230.75 546.956 L2230.75 543.021 Q2233.41 540.266 2237.99 535.636 Q2242.6 530.984 2243.78 529.641 Q2246.03 527.118 2246.91 525.382 Q2247.81 523.623 2247.81 521.933 Q2247.81 519.178 2245.87 517.442 Q2243.94 515.706 2240.84 515.706 Q2238.64 515.706 2236.19 516.47 Q2233.76 517.234 2230.98 518.785 L2230.98 514.062 Q2233.81 512.928 2236.26 512.349 Q2238.71 511.771 2240.75 511.771 Q2246.12 511.771 2249.31 514.456 Q2252.51 517.141 2252.51 521.632 Q2252.51 523.761 2251.7 525.683 Q2250.91 527.581 2248.8 530.173 Q2248.23 530.845 2245.12 534.062 Q2242.02 537.257 2236.37 543.021 Z" fill="#000000" fill-rule="nonzero" fill-opacity="1" /></svg>
