<?xml version="1.0" encoding="utf-8"?>
<svg xmlns="http://www.w3.org/2000/svg" xmlns:xlink="http://www.w3.org/1999/xlink" width="600" height="400" viewBox="0 0 2400 1600">
<defs>
  <clipPath id="clip640">
    <rect x="0" y="0" width="2400" height="1600"/>
  </clipPath>
</defs>
<path clip-path="url(#clip640)" d="M0 1600 L2400 1600 L2400 8.88178e-14 L0 8.88178e-14  Z" fill="#ffffff" fill-rule="evenodd" fill-opacity="1"/>
<defs>
  <clipPath id="clip641">
    <rect x="480" y="0" width="1681" height="1600"/>
  </clipPath>
</defs>
<path clip-path="url(#clip640)" d="M339.542 1423.18 L2352.76 1423.18 L2352.76 123.472 L339.542 123.472  Z" fill="#ffffff" fill-rule="evenodd" fill-opacity="1"/>
<defs>
  <clipPath id="clip642">
    <rect x="339" y="123" width="2014" height="1301"/>
  </clipPath>
</defs>
<polyline clip-path="url(#clip642)" style="stroke:#000000; stroke-linecap:round; stroke-linejoin:round; stroke-width:2; stroke-opacity:0.1; fill:none" points="357.759,1423.18 357.759,123.472 "/>
<polyline clip-path="url(#clip642)" style="stroke:#000000; stroke-linecap:round; stroke-linejoin:round; stroke-width:2; stroke-opacity:0.1; fill:none" points="745.363,1423.18 745.363,123.472 "/>
<polyline clip-path="url(#clip642)" style="stroke:#000000; stroke-linecap:round; stroke-linejoin:round; stroke-width:2; stroke-opacity:0.1; fill:none" points="1132.97,1423.18 1132.97,123.472 "/>
<polyline clip-path="url(#clip642)" style="stroke:#000000; stroke-linecap:round; stroke-linejoin:round; stroke-width:2; stroke-opacity:0.1; fill:none" points="1520.57,1423.18 1520.57,123.472 "/>
<polyline clip-path="url(#clip642)" style="stroke:#000000; stroke-linecap:round; stroke-linejoin:round; stroke-width:2; stroke-opacity:0.1; fill:none" points="1908.17,1423.18 1908.17,123.472 "/>
<polyline clip-path="url(#clip642)" style="stroke:#000000; stroke-linecap:round; stroke-linejoin:round; stroke-width:2; stroke-opacity:0.1; fill:none" points="2295.78,1423.18 2295.78,123.472 "/>
<polyline clip-path="url(#clip642)" style="stroke:#000000; stroke-linecap:round; stroke-linejoin:round; stroke-width:2; stroke-opacity:0.1; fill:none" points="339.542,1386.34 2352.76,1386.34 "/>
<polyline clip-path="url(#clip642)" style="stroke:#000000; stroke-linecap:round; stroke-linejoin:round; stroke-width:2; stroke-opacity:0.1; fill:none" points="339.542,1050.15 2352.76,1050.15 "/>
<polyline clip-path="url(#clip642)" style="stroke:#000000; stroke-linecap:round; stroke-linejoin:round; stroke-width:2; stroke-opacity:0.1; fill:none" points="339.542,713.957 2352.76,713.957 "/>
<polyline clip-path="url(#clip642)" style="stroke:#000000; stroke-linecap:round; stroke-linejoin:round; stroke-width:2; stroke-opacity:0.1; fill:none" points="339.542,377.764 2352.76,377.764 "/>
<polyline clip-path="url(#clip640)" style="stroke:#000000; stroke-linecap:round; stroke-linejoin:round; stroke-width:4; stroke-opacity:1; fill:none" points="339.542,1423.18 2352.76,1423.18 "/>
<polyline clip-path="url(#clip640)" style="stroke:#000000; stroke-linecap:round; stroke-linejoin:round; stroke-width:4; stroke-opacity:1; fill:none" points="357.759,1423.18 357.759,1404.28 "/>
<polyline clip-path="url(#clip640)" style="stroke:#000000; stroke-linecap:round; stroke-linejoin:round; stroke-width:4; stroke-opacity:1; fill:none" points="745.363,1423.18 745.363,1404.28 "/>
<polyline clip-path="url(#clip640)" style="stroke:#000000; stroke-linecap:round; stroke-linejoin:round; stroke-width:4; stroke-opacity:1; fill:none" points="1132.97,1423.18 1132.97,1404.28 "/>
<polyline clip-path="url(#clip640)" style="stroke:#000000; stroke-linecap:round; stroke-linejoin:round; stroke-width:4; stroke-opacity:1; fill:none" points="1520.57,1423.18 1520.57,1404.28 "/>
<polyline clip-path="url(#clip640)" style="stroke:#000000; stroke-linecap:round; stroke-linejoin:round; stroke-width:4; stroke-opacity:1; fill:none" points="1908.17,1423.18 1908.17,1404.28 "/>
<polyline clip-path="url(#clip640)" style="stroke:#000000; stroke-linecap:round; stroke-linejoin:round; stroke-width:4; stroke-opacity:1; fill:none" points="2295.78,1423.18 2295.78,1404.28 "/>
<path clip-path="url(#clip640)" d="M357.759 1454.1 Q354.148 1454.1 352.319 1457.66 Q350.514 1461.2 350.514 1468.33 Q350.514 1475.44 352.319 1479.01 Q354.148 1482.55 357.759 1482.55 Q361.393 1482.55 363.199 1479.01 Q365.027 1475.44 365.027 1468.33 Q365.027 1461.2 363.199 1457.66 Q361.393 1454.1 357.759 1454.1 M357.759 1450.39 Q363.569 1450.39 366.625 1455 Q369.703 1459.58 369.703 1468.33 Q369.703 1477.06 366.625 1481.67 Q363.569 1486.25 357.759 1486.25 Q351.949 1486.25 348.87 1481.67 Q345.815 1477.06 345.815 1468.33 Q345.815 1459.58 348.87 1455 Q351.949 1450.39 357.759 1450.39 Z" fill="#000000" fill-rule="nonzero" fill-opacity="1" /><path clip-path="url(#clip640)" d="M735.745 1481.64 L743.384 1481.64 L743.384 1455.28 L735.073 1456.95 L735.073 1452.69 L743.337 1451.02 L748.013 1451.02 L748.013 1481.64 L755.652 1481.64 L755.652 1485.58 L735.745 1485.58 L735.745 1481.64 Z" fill="#000000" fill-rule="nonzero" fill-opacity="1" /><path clip-path="url(#clip640)" d="M1127.62 1481.64 L1143.94 1481.64 L1143.94 1485.58 L1121.99 1485.58 L1121.99 1481.64 Q1124.66 1478.89 1129.24 1474.26 Q1133.85 1469.61 1135.03 1468.27 Q1137.27 1465.74 1138.15 1464.01 Q1139.05 1462.25 1139.05 1460.56 Q1139.05 1457.8 1137.11 1456.07 Q1135.19 1454.33 1132.09 1454.33 Q1129.89 1454.33 1127.43 1455.09 Q1125 1455.86 1122.23 1457.41 L1122.23 1452.69 Q1125.05 1451.55 1127.5 1450.97 Q1129.96 1450.39 1131.99 1450.39 Q1137.36 1450.39 1140.56 1453.08 Q1143.75 1455.77 1143.75 1460.26 Q1143.75 1462.39 1142.94 1464.31 Q1142.16 1466.2 1140.05 1468.8 Q1139.47 1469.47 1136.37 1472.69 Q1133.27 1475.88 1127.62 1481.64 Z" fill="#000000" fill-rule="nonzero" fill-opacity="1" /><path clip-path="url(#clip640)" d="M1524.82 1466.95 Q1528.17 1467.66 1530.05 1469.93 Q1531.95 1472.2 1531.95 1475.53 Q1531.95 1480.65 1528.43 1483.45 Q1524.91 1486.25 1518.43 1486.25 Q1516.25 1486.25 1513.94 1485.81 Q1511.65 1485.39 1509.19 1484.54 L1509.19 1480.02 Q1511.14 1481.16 1513.45 1481.74 Q1515.77 1482.32 1518.29 1482.32 Q1522.69 1482.32 1524.98 1480.58 Q1527.29 1478.84 1527.29 1475.53 Q1527.29 1472.48 1525.14 1470.77 Q1523.01 1469.03 1519.19 1469.03 L1515.17 1469.03 L1515.17 1465.19 L1519.38 1465.19 Q1522.83 1465.19 1524.66 1463.82 Q1526.48 1462.43 1526.48 1459.84 Q1526.48 1457.18 1524.59 1455.77 Q1522.71 1454.33 1519.19 1454.33 Q1517.27 1454.33 1515.07 1454.75 Q1512.87 1455.16 1510.23 1456.04 L1510.23 1451.88 Q1512.9 1451.14 1515.21 1450.77 Q1517.55 1450.39 1519.61 1450.39 Q1524.93 1450.39 1528.04 1452.83 Q1531.14 1455.23 1531.14 1459.35 Q1531.14 1462.22 1529.49 1464.21 Q1527.85 1466.18 1524.82 1466.95 Z" fill="#000000" fill-rule="nonzero" fill-opacity="1" /><path clip-path="url(#clip640)" d="M1911.18 1455.09 L1899.38 1473.54 L1911.18 1473.54 L1911.18 1455.09 M1909.96 1451.02 L1915.84 1451.02 L1915.84 1473.54 L1920.77 1473.54 L1920.77 1477.43 L1915.84 1477.43 L1915.84 1485.58 L1911.18 1485.58 L1911.18 1477.43 L1895.58 1477.43 L1895.58 1472.92 L1909.96 1451.02 Z" fill="#000000" fill-rule="nonzero" fill-opacity="1" /><path clip-path="url(#clip640)" d="M2286.06 1451.02 L2304.41 1451.02 L2304.41 1454.96 L2290.34 1454.96 L2290.34 1463.43 Q2291.36 1463.08 2292.38 1462.92 Q2293.39 1462.73 2294.41 1462.73 Q2300.2 1462.73 2303.58 1465.9 Q2306.96 1469.08 2306.96 1474.49 Q2306.96 1480.07 2303.49 1483.17 Q2300.01 1486.25 2293.69 1486.25 Q2291.52 1486.25 2289.25 1485.88 Q2287.01 1485.51 2284.6 1484.77 L2284.6 1480.07 Q2286.68 1481.2 2288.9 1481.76 Q2291.13 1482.32 2293.6 1482.32 Q2297.61 1482.32 2299.94 1480.21 Q2302.28 1478.1 2302.28 1474.49 Q2302.28 1470.88 2299.94 1468.77 Q2297.61 1466.67 2293.6 1466.67 Q2291.73 1466.67 2289.85 1467.08 Q2288 1467.5 2286.06 1468.38 L2286.06 1451.02 Z" fill="#000000" fill-rule="nonzero" fill-opacity="1" /><path clip-path="url(#clip640)" d="M1268.03 1520.52 L1308.23 1520.52 L1308.23 1525.93 L1291.36 1525.93 L1291.36 1568.04 L1284.89 1568.04 L1284.89 1525.93 L1268.03 1525.93 L1268.03 1520.52 Z" fill="#000000" fill-rule="nonzero" fill-opacity="1" /><path clip-path="url(#clip640)" d="M1312.17 1532.4 L1318.03 1532.4 L1318.03 1568.04 L1312.17 1568.04 L1312.17 1532.4 M1312.17 1518.52 L1318.03 1518.52 L1318.03 1525.93 L1312.17 1525.93 L1312.17 1518.52 Z" fill="#000000" fill-rule="nonzero" fill-opacity="1" /><path clip-path="url(#clip640)" d="M1358.04 1539.24 Q1360.23 1535.29 1363.29 1533.41 Q1366.34 1531.54 1370.48 1531.54 Q1376.05 1531.54 1379.08 1535.45 Q1382.1 1539.33 1382.1 1546.53 L1382.1 1568.04 L1376.21 1568.04 L1376.21 1546.72 Q1376.21 1541.59 1374.4 1539.11 Q1372.58 1536.63 1368.86 1536.63 Q1364.31 1536.63 1361.67 1539.65 Q1359.02 1542.68 1359.02 1547.9 L1359.02 1568.04 L1353.14 1568.04 L1353.14 1546.72 Q1353.14 1541.56 1351.32 1539.11 Q1349.51 1536.63 1345.72 1536.63 Q1341.23 1536.63 1338.59 1539.68 Q1335.95 1542.71 1335.95 1547.9 L1335.95 1568.04 L1330.06 1568.04 L1330.06 1532.4 L1335.95 1532.4 L1335.95 1537.93 Q1337.95 1534.66 1340.75 1533.1 Q1343.55 1531.54 1347.41 1531.54 Q1351.29 1531.54 1353.99 1533.51 Q1356.73 1535.48 1358.04 1539.24 Z" fill="#000000" fill-rule="nonzero" fill-opacity="1" /><path clip-path="url(#clip640)" d="M1424.27 1548.76 L1424.27 1551.62 L1397.34 1551.62 Q1397.73 1557.67 1400.97 1560.85 Q1404.25 1564 1410.08 1564 Q1413.45 1564 1416.6 1563.17 Q1419.78 1562.35 1422.9 1560.69 L1422.9 1566.23 Q1419.75 1567.57 1416.44 1568.27 Q1413.13 1568.97 1409.73 1568.97 Q1401.2 1568.97 1396.2 1564 Q1391.23 1559.04 1391.23 1550.57 Q1391.23 1541.82 1395.94 1536.69 Q1400.69 1531.54 1408.71 1531.54 Q1415.9 1531.54 1420.07 1536.18 Q1424.27 1540.8 1424.27 1548.76 M1418.42 1547.04 Q1418.35 1542.23 1415.71 1539.37 Q1413.1 1536.5 1408.77 1536.5 Q1403.87 1536.5 1400.91 1539.27 Q1397.98 1542.04 1397.54 1547.07 L1418.42 1547.04 Z" fill="#000000" fill-rule="nonzero" fill-opacity="1" /><polyline clip-path="url(#clip640)" style="stroke:#000000; stroke-linecap:round; stroke-linejoin:round; stroke-width:4; stroke-opacity:1; fill:none" points="339.542,1423.18 339.542,123.472 "/>
<polyline clip-path="url(#clip640)" style="stroke:#000000; stroke-linecap:round; stroke-linejoin:round; stroke-width:4; stroke-opacity:1; fill:none" points="339.542,1386.34 358.439,1386.34 "/>
<polyline clip-path="url(#clip640)" style="stroke:#000000; stroke-linecap:round; stroke-linejoin:round; stroke-width:4; stroke-opacity:1; fill:none" points="339.542,1050.15 358.439,1050.15 "/>
<polyline clip-path="url(#clip640)" style="stroke:#000000; stroke-linecap:round; stroke-linejoin:round; stroke-width:4; stroke-opacity:1; fill:none" points="339.542,713.957 358.439,713.957 "/>
<polyline clip-path="url(#clip640)" style="stroke:#000000; stroke-linecap:round; stroke-linejoin:round; stroke-width:4; stroke-opacity:1; fill:none" points="339.542,377.764 358.439,377.764 "/>
<path clip-path="url(#clip640)" d="M291.597 1372.14 Q287.986 1372.14 286.157 1375.71 Q284.352 1379.25 284.352 1386.38 Q284.352 1393.48 286.157 1397.05 Q287.986 1400.59 291.597 1400.59 Q295.231 1400.59 297.037 1397.05 Q298.866 1393.48 298.866 1386.38 Q298.866 1379.25 297.037 1375.71 Q295.231 1372.14 291.597 1372.14 M291.597 1368.44 Q297.407 1368.44 300.463 1373.04 Q303.542 1377.63 303.542 1386.38 Q303.542 1395.1 300.463 1399.71 Q297.407 1404.29 291.597 1404.29 Q285.787 1404.29 282.708 1399.71 Q279.653 1395.1 279.653 1386.38 Q279.653 1377.63 282.708 1373.04 Q285.787 1368.44 291.597 1368.44 Z" fill="#000000" fill-rule="nonzero" fill-opacity="1" /><path clip-path="url(#clip640)" d="M116.668 1069.94 L124.306 1069.94 L124.306 1043.58 L115.996 1045.24 L115.996 1040.98 L124.26 1039.32 L128.936 1039.32 L128.936 1069.94 L136.575 1069.94 L136.575 1073.88 L116.668 1073.88 L116.668 1069.94 Z" fill="#000000" fill-rule="nonzero" fill-opacity="1" /><path clip-path="url(#clip640)" d="M146.019 1068 L150.903 1068 L150.903 1073.88 L146.019 1073.88 L146.019 1068 Z" fill="#000000" fill-rule="nonzero" fill-opacity="1" /><path clip-path="url(#clip640)" d="M171.089 1042.4 Q167.477 1042.4 165.649 1045.96 Q163.843 1049.5 163.843 1056.63 Q163.843 1063.74 165.649 1067.3 Q167.477 1070.84 171.089 1070.84 Q174.723 1070.84 176.528 1067.3 Q178.357 1063.74 178.357 1056.63 Q178.357 1049.5 176.528 1045.96 Q174.723 1042.4 171.089 1042.4 M171.089 1038.69 Q176.899 1038.69 179.954 1043.3 Q183.033 1047.88 183.033 1056.63 Q183.033 1065.36 179.954 1069.97 Q176.899 1074.55 171.089 1074.55 Q165.278 1074.55 162.2 1069.97 Q159.144 1065.36 159.144 1056.63 Q159.144 1047.88 162.2 1043.3 Q165.278 1038.69 171.089 1038.69 Z" fill="#000000" fill-rule="nonzero" fill-opacity="1" /><path clip-path="url(#clip640)" d="M219.422 1048.41 L208.843 1059.04 L219.422 1069.62 L216.667 1072.42 L206.042 1061.79 L195.417 1072.42 L192.686 1069.62 L203.241 1059.04 L192.686 1048.41 L195.417 1045.61 L206.042 1056.24 L216.667 1045.61 L219.422 1048.41 Z" fill="#000000" fill-rule="nonzero" fill-opacity="1" /><path clip-path="url(#clip640)" d="M231.783 1069.94 L239.422 1069.94 L239.422 1043.58 L231.111 1045.24 L231.111 1040.98 L239.375 1039.32 L244.051 1039.32 L244.051 1069.94 L251.69 1069.94 L251.69 1073.88 L231.783 1073.88 L231.783 1069.94 Z" fill="#000000" fill-rule="nonzero" fill-opacity="1" /><path clip-path="url(#clip640)" d="M271.134 1042.4 Q267.523 1042.4 265.695 1045.96 Q263.889 1049.5 263.889 1056.63 Q263.889 1063.74 265.695 1067.3 Q267.523 1070.84 271.134 1070.84 Q274.769 1070.84 276.574 1067.3 Q278.403 1063.74 278.403 1056.63 Q278.403 1049.5 276.574 1045.96 Q274.769 1042.4 271.134 1042.4 M271.134 1038.69 Q276.944 1038.69 280 1043.3 Q283.079 1047.88 283.079 1056.63 Q283.079 1065.36 280 1069.97 Q276.944 1074.55 271.134 1074.55 Q265.324 1074.55 262.245 1069.97 Q259.19 1065.36 259.19 1056.63 Q259.19 1047.88 262.245 1043.3 Q265.324 1038.69 271.134 1038.69 Z" fill="#000000" fill-rule="nonzero" fill-opacity="1" /><path clip-path="url(#clip640)" d="M295.755 1021.7 L286.163 1036.69 L295.755 1036.69 L295.755 1021.7 M294.758 1018.39 L299.535 1018.39 L299.535 1036.69 L303.542 1036.69 L303.542 1039.85 L299.535 1039.85 L299.535 1046.47 L295.755 1046.47 L295.755 1039.85 L283.079 1039.85 L283.079 1036.18 L294.758 1018.39 Z" fill="#000000" fill-rule="nonzero" fill-opacity="1" /><path clip-path="url(#clip640)" d="M119.885 733.749 L136.204 733.749 L136.204 737.684 L114.26 737.684 L114.26 733.749 Q116.922 730.995 121.505 726.365 Q126.112 721.712 127.292 720.37 Q129.538 717.846 130.417 716.11 Q131.32 714.351 131.32 712.661 Q131.32 709.907 129.376 708.171 Q127.455 706.435 124.353 706.435 Q122.154 706.435 119.7 707.198 Q117.269 707.962 114.492 709.513 L114.492 704.791 Q117.316 703.657 119.769 703.078 Q122.223 702.499 124.26 702.499 Q129.63 702.499 132.825 705.185 Q136.019 707.87 136.019 712.36 Q136.019 714.49 135.209 716.411 Q134.422 718.309 132.316 720.902 Q131.737 721.573 128.635 724.791 Q125.533 727.985 119.885 733.749 Z" fill="#000000" fill-rule="nonzero" fill-opacity="1" /><path clip-path="url(#clip640)" d="M146.019 731.805 L150.903 731.805 L150.903 737.684 L146.019 737.684 L146.019 731.805 Z" fill="#000000" fill-rule="nonzero" fill-opacity="1" /><path clip-path="url(#clip640)" d="M171.089 706.203 Q167.477 706.203 165.649 709.768 Q163.843 713.309 163.843 720.439 Q163.843 727.546 165.649 731.11 Q167.477 734.652 171.089 734.652 Q174.723 734.652 176.528 731.11 Q178.357 727.546 178.357 720.439 Q178.357 713.309 176.528 709.768 Q174.723 706.203 171.089 706.203 M171.089 702.499 Q176.899 702.499 179.954 707.106 Q183.033 711.689 183.033 720.439 Q183.033 729.166 179.954 733.772 Q176.899 738.356 171.089 738.356 Q165.278 738.356 162.2 733.772 Q159.144 729.166 159.144 720.439 Q159.144 711.689 162.2 707.106 Q165.278 702.499 171.089 702.499 Z" fill="#000000" fill-rule="nonzero" fill-opacity="1" /><path clip-path="url(#clip640)" d="M219.422 712.222 L208.843 722.846 L219.422 733.425 L216.667 736.226 L206.042 725.601 L195.417 736.226 L192.686 733.425 L203.241 722.846 L192.686 712.222 L195.417 709.421 L206.042 720.046 L216.667 709.421 L219.422 712.222 Z" fill="#000000" fill-rule="nonzero" fill-opacity="1" /><path clip-path="url(#clip640)" d="M231.783 733.749 L239.422 733.749 L239.422 707.384 L231.111 709.05 L231.111 704.791 L239.375 703.124 L244.051 703.124 L244.051 733.749 L251.69 733.749 L251.69 737.684 L231.783 737.684 L231.783 733.749 Z" fill="#000000" fill-rule="nonzero" fill-opacity="1" /><path clip-path="url(#clip640)" d="M271.134 706.203 Q267.523 706.203 265.695 709.768 Q263.889 713.309 263.889 720.439 Q263.889 727.546 265.695 731.11 Q267.523 734.652 271.134 734.652 Q274.769 734.652 276.574 731.11 Q278.403 727.546 278.403 720.439 Q278.403 713.309 276.574 709.768 Q274.769 706.203 271.134 706.203 M271.134 702.499 Q276.944 702.499 280 707.106 Q283.079 711.689 283.079 720.439 Q283.079 729.166 280 733.772 Q276.944 738.356 271.134 738.356 Q265.324 738.356 262.245 733.772 Q259.19 729.166 259.19 720.439 Q259.19 711.689 262.245 707.106 Q265.324 702.499 271.134 702.499 Z" fill="#000000" fill-rule="nonzero" fill-opacity="1" /><path clip-path="url(#clip640)" d="M295.755 685.504 L286.163 700.494 L295.755 700.494 L295.755 685.504 M294.758 682.194 L299.535 682.194 L299.535 700.494 L303.542 700.494 L303.542 703.654 L299.535 703.654 L299.535 710.274 L295.755 710.274 L295.755 703.654 L283.079 703.654 L283.079 699.986 L294.758 682.194 Z" fill="#000000" fill-rule="nonzero" fill-opacity="1" /><path clip-path="url(#clip640)" d="M130.024 382.857 Q133.38 383.575 135.255 385.844 Q137.154 388.112 137.154 391.445 Q137.154 396.561 133.635 399.362 Q130.117 402.163 123.635 402.163 Q121.459 402.163 119.144 401.723 Q116.853 401.306 114.399 400.45 L114.399 395.936 Q116.343 397.07 118.658 397.649 Q120.973 398.228 123.496 398.228 Q127.894 398.228 130.186 396.492 Q132.501 394.756 132.501 391.445 Q132.501 388.39 130.348 386.677 Q128.218 384.941 124.399 384.941 L120.371 384.941 L120.371 381.098 L124.584 381.098 Q128.033 381.098 129.862 379.732 Q131.691 378.344 131.691 375.751 Q131.691 373.089 129.792 371.677 Q127.917 370.242 124.399 370.242 Q122.478 370.242 120.279 370.658 Q118.08 371.075 115.441 371.955 L115.441 367.788 Q118.103 367.047 120.418 366.677 Q122.755 366.307 124.816 366.307 Q130.14 366.307 133.242 368.737 Q136.343 371.145 136.343 375.265 Q136.343 378.135 134.7 380.126 Q133.056 382.094 130.024 382.857 Z" fill="#000000" fill-rule="nonzero" fill-opacity="1" /><path clip-path="url(#clip640)" d="M146.019 395.612 L150.903 395.612 L150.903 401.492 L146.019 401.492 L146.019 395.612 Z" fill="#000000" fill-rule="nonzero" fill-opacity="1" /><path clip-path="url(#clip640)" d="M171.089 370.01 Q167.477 370.01 165.649 373.575 Q163.843 377.117 163.843 384.246 Q163.843 391.353 165.649 394.918 Q167.477 398.459 171.089 398.459 Q174.723 398.459 176.528 394.918 Q178.357 391.353 178.357 384.246 Q178.357 377.117 176.528 373.575 Q174.723 370.01 171.089 370.01 M171.089 366.307 Q176.899 366.307 179.954 370.913 Q183.033 375.496 183.033 384.246 Q183.033 392.973 179.954 397.58 Q176.899 402.163 171.089 402.163 Q165.278 402.163 162.2 397.58 Q159.144 392.973 159.144 384.246 Q159.144 375.496 162.2 370.913 Q165.278 366.307 171.089 366.307 Z" fill="#000000" fill-rule="nonzero" fill-opacity="1" /><path clip-path="url(#clip640)" d="M219.422 376.029 L208.843 386.654 L219.422 397.232 L216.667 400.033 L206.042 389.408 L195.417 400.033 L192.686 397.232 L203.241 386.654 L192.686 376.029 L195.417 373.228 L206.042 383.853 L216.667 373.228 L219.422 376.029 Z" fill="#000000" fill-rule="nonzero" fill-opacity="1" /><path clip-path="url(#clip640)" d="M231.783 397.556 L239.422 397.556 L239.422 371.191 L231.111 372.858 L231.111 368.598 L239.375 366.932 L244.051 366.932 L244.051 397.556 L251.69 397.556 L251.69 401.492 L231.783 401.492 L231.783 397.556 Z" fill="#000000" fill-rule="nonzero" fill-opacity="1" /><path clip-path="url(#clip640)" d="M271.134 370.01 Q267.523 370.01 265.695 373.575 Q263.889 377.117 263.889 384.246 Q263.889 391.353 265.695 394.918 Q267.523 398.459 271.134 398.459 Q274.769 398.459 276.574 394.918 Q278.403 391.353 278.403 384.246 Q278.403 377.117 276.574 373.575 Q274.769 370.01 271.134 370.01 M271.134 366.307 Q276.944 366.307 280 370.913 Q283.079 375.496 283.079 384.246 Q283.079 392.973 280 397.58 Q276.944 402.163 271.134 402.163 Q265.324 402.163 262.245 397.58 Q259.19 392.973 259.19 384.246 Q259.19 375.496 262.245 370.913 Q265.324 366.307 271.134 366.307 Z" fill="#000000" fill-rule="nonzero" fill-opacity="1" /><path clip-path="url(#clip640)" d="M295.755 349.311 L286.163 364.301 L295.755 364.301 L295.755 349.311 M294.758 346.001 L299.535 346.001 L299.535 364.301 L303.542 364.301 L303.542 367.461 L299.535 367.461 L299.535 374.081 L295.755 374.081 L295.755 367.461 L283.079 367.461 L283.079 363.793 L294.758 346.001 Z" fill="#000000" fill-rule="nonzero" fill-opacity="1" /><path clip-path="url(#clip640)" d="M33.7671 915.138 L14.479 915.138 L14.479 909.282 L64.0042 909.282 L64.0042 915.138 L58.657 915.138 Q61.8398 916.984 63.3994 919.817 Q64.9272 922.618 64.9272 926.564 Q64.9272 933.026 59.771 937.1 Q54.6147 941.142 46.212 941.142 Q37.8093 941.142 32.6531 937.1 Q27.4968 933.026 27.4968 926.564 Q27.4968 922.618 29.0564 919.817 Q30.5842 916.984 33.7671 915.138 M46.212 935.095 Q52.6732 935.095 56.3653 932.453 Q60.0256 929.779 60.0256 925.132 Q60.0256 920.485 56.3653 917.812 Q52.6732 915.138 46.212 915.138 Q39.7508 915.138 36.0905 917.812 Q32.3984 920.485 32.3984 925.132 Q32.3984 929.779 36.0905 932.453 Q39.7508 935.095 46.212 935.095 Z" fill="#000000" fill-rule="nonzero" fill-opacity="1" /><path clip-path="url(#clip640)" d="M57.2247 864.562 L44.4614 864.562 L44.4614 875.066 L39.1779 875.066 L39.1779 858.197 L59.58 858.197 Q62.2218 861.921 63.5904 866.409 Q64.9272 870.896 64.9272 875.989 Q64.9272 887.129 58.4342 893.431 Q51.9093 899.701 40.2919 899.701 Q28.6427 899.701 22.1496 893.431 Q15.6248 887.129 15.6248 875.989 Q15.6248 871.342 16.7706 867.172 Q17.9164 862.971 20.1444 859.438 L26.9876 859.438 Q23.9639 863.003 22.4361 867.013 Q20.9083 871.024 20.9083 875.448 Q20.9083 884.169 25.7781 888.561 Q30.6479 892.922 40.2919 892.922 Q49.9041 892.922 54.7739 888.561 Q59.6436 884.169 59.6436 875.448 Q59.6436 872.042 59.0707 869.369 Q58.466 866.695 57.2247 864.562 Z" fill="#000000" fill-rule="nonzero" fill-opacity="1" /><path clip-path="url(#clip640)" d="M74.8259 819.621 L79.3773 819.621 L79.3773 853.486 L74.8259 853.486 L74.8259 819.621 Z" fill="#000000" fill-rule="nonzero" fill-opacity="1" /><path clip-path="url(#clip640)" d="M33.7671 790.657 L14.479 790.657 L14.479 784.8 L64.0042 784.8 L64.0042 790.657 L58.657 790.657 Q61.8398 792.503 63.3994 795.335 Q64.9272 798.136 64.9272 802.083 Q64.9272 808.544 59.771 812.618 Q54.6147 816.661 46.212 816.661 Q37.8093 816.661 32.6531 812.618 Q27.4968 808.544 27.4968 802.083 Q27.4968 798.136 29.0564 795.335 Q30.5842 792.503 33.7671 790.657 M46.212 810.613 Q52.6732 810.613 56.3653 807.971 Q60.0256 805.298 60.0256 800.651 Q60.0256 796.004 56.3653 793.33 Q52.6732 790.657 46.212 790.657 Q39.7508 790.657 36.0905 793.33 Q32.3984 796.004 32.3984 800.651 Q32.3984 805.298 36.0905 807.971 Q39.7508 810.613 46.212 810.613 Z" fill="#000000" fill-rule="nonzero" fill-opacity="1" /><path clip-path="url(#clip640)" d="M28.3562 772.737 L28.3562 766.881 L64.0042 766.881 L64.0042 772.737 L28.3562 772.737 M14.479 772.737 L14.479 766.881 L21.895 766.881 L21.895 772.737 L14.479 772.737 Z" fill="#000000" fill-rule="nonzero" fill-opacity="1" /><path clip-path="url(#clip640)" d="M29.4065 731.901 L34.9447 731.901 Q33.6716 734.384 33.035 737.057 Q32.3984 739.731 32.3984 742.596 Q32.3984 746.956 33.7352 749.152 Q35.072 751.317 37.7456 751.317 Q39.7826 751.317 40.9603 749.757 Q42.1061 748.197 43.1565 743.487 L43.6021 741.482 Q44.9389 735.243 47.3897 732.633 Q49.8086 729.991 54.1691 729.991 Q59.1344 729.991 62.0308 733.938 Q64.9272 737.853 64.9272 744.728 Q64.9272 747.593 64.3543 750.712 Q63.8132 753.799 62.6992 757.237 L56.6518 757.237 Q58.3387 753.99 59.198 750.839 Q60.0256 747.688 60.0256 744.601 Q60.0256 740.463 58.6251 738.235 Q57.1929 736.007 54.6147 736.007 Q52.2276 736.007 50.9545 737.63 Q49.6813 739.222 48.5037 744.664 L48.0262 746.701 Q46.8804 752.144 44.5251 754.563 Q42.138 756.982 38.0002 756.982 Q32.9713 756.982 30.2341 753.417 Q27.4968 749.852 27.4968 743.296 Q27.4968 740.049 27.9743 737.185 Q28.4517 734.32 29.4065 731.901 Z" fill="#000000" fill-rule="nonzero" fill-opacity="1" /><path clip-path="url(#clip640)" d="M29.4065 697.94 L34.9447 697.94 Q33.6716 700.423 33.035 703.096 Q32.3984 705.77 32.3984 708.634 Q32.3984 712.995 33.7352 715.191 Q35.072 717.356 37.7456 717.356 Q39.7826 717.356 40.9603 715.796 Q42.1061 714.236 43.1565 709.526 L43.6021 707.52 Q44.9389 701.282 47.3897 698.672 Q49.8086 696.03 54.1691 696.03 Q59.1344 696.03 62.0308 699.977 Q64.9272 703.892 64.9272 710.767 Q64.9272 713.632 64.3543 716.751 Q63.8132 719.838 62.6992 723.276 L56.6518 723.276 Q58.3387 720.029 59.198 716.878 Q60.0256 713.727 60.0256 710.64 Q60.0256 706.502 58.6251 704.274 Q57.1929 702.046 54.6147 702.046 Q52.2276 702.046 50.9545 703.669 Q49.6813 705.261 48.5037 710.703 L48.0262 712.74 Q46.8804 718.183 44.5251 720.602 Q42.138 723.021 38.0002 723.021 Q32.9713 723.021 30.2341 719.456 Q27.4968 715.891 27.4968 709.335 Q27.4968 706.088 27.9743 703.224 Q28.4517 700.359 29.4065 697.94 Z" fill="#000000" fill-rule="nonzero" fill-opacity="1" /><path clip-path="url(#clip640)" d="M16.4842 676.297 L16.4842 670.886 L70.0516 687.437 L70.0516 692.848 L16.4842 676.297 Z" fill="#000000" fill-rule="nonzero" fill-opacity="1" /><path clip-path="url(#clip640)" d="M33.7671 641.285 L14.479 641.285 L14.479 635.429 L64.0042 635.429 L64.0042 641.285 L58.657 641.285 Q61.8398 643.131 63.3994 645.964 Q64.9272 648.765 64.9272 652.712 Q64.9272 659.173 59.771 663.247 Q54.6147 667.289 46.212 667.289 Q37.8093 667.289 32.6531 663.247 Q27.4968 659.173 27.4968 652.712 Q27.4968 648.765 29.0564 645.964 Q30.5842 643.131 33.7671 641.285 M46.212 661.242 Q52.6732 661.242 56.3653 658.6 Q60.0256 655.926 60.0256 651.279 Q60.0256 646.633 56.3653 643.959 Q52.6732 641.285 46.212 641.285 Q39.7508 641.285 36.0905 643.959 Q32.3984 646.633 32.3984 651.279 Q32.3984 655.926 36.0905 658.6 Q39.7508 661.242 46.212 661.242 Z" fill="#000000" fill-rule="nonzero" fill-opacity="1" /><path clip-path="url(#clip640)" d="M18.2347 617.573 L28.3562 617.573 L28.3562 605.51 L32.9077 605.51 L32.9077 617.573 L52.2594 617.573 Q56.6199 617.573 57.8613 616.395 Q59.1026 615.186 59.1026 611.526 L59.1026 605.51 L64.0042 605.51 L64.0042 611.526 Q64.0042 618.305 61.4897 620.883 Q58.9434 623.461 52.2594 623.461 L32.9077 623.461 L32.9077 627.758 L28.3562 627.758 L28.3562 623.461 L18.2347 623.461 L18.2347 617.573 Z" fill="#000000" fill-rule="nonzero" fill-opacity="1" /><path clip-path="url(#clip640)" d="M334.901 18.8205 L334.901 65.8515 L344.785 65.8515 Q357.303 65.8515 363.096 60.1802 Q368.929 54.509 368.929 42.2752 Q368.929 30.1225 363.096 24.4918 Q357.303 18.8205 344.785 18.8205 L334.901 18.8205 M326.718 12.096 L343.53 12.096 Q361.111 12.096 369.334 19.4281 Q377.557 26.7198 377.557 42.2752 Q377.557 57.9117 369.293 65.2439 Q361.03 72.576 343.53 72.576 L326.718 72.576 L326.718 12.096 Z" fill="#000000" fill-rule="nonzero" fill-opacity="1" /><path clip-path="url(#clip640)" d="M429.085 48.0275 L429.085 51.6733 L394.814 51.6733 Q395.3 59.3701 399.432 63.421 Q403.605 67.4314 411.018 67.4314 Q415.312 67.4314 419.322 66.3781 Q423.373 65.3249 427.343 63.2184 L427.343 70.267 Q423.332 71.9684 419.12 72.8596 Q414.907 73.7508 410.572 73.7508 Q399.716 73.7508 393.356 67.4314 Q387.036 61.1119 387.036 50.3365 Q387.036 39.1965 393.032 32.6746 Q399.068 26.1121 409.276 26.1121 Q418.431 26.1121 423.738 32.0264 Q429.085 37.9003 429.085 48.0275 M421.631 45.84 Q421.55 39.7232 418.188 36.0774 Q414.866 32.4315 409.357 32.4315 Q403.118 32.4315 399.351 35.9558 Q395.624 39.4801 395.057 45.8805 L421.631 45.84 Z" fill="#000000" fill-rule="nonzero" fill-opacity="1" /><path clip-path="url(#clip640)" d="M467.609 34.1734 Q466.353 33.4443 464.854 33.1202 Q463.396 32.7556 461.614 32.7556 Q455.294 32.7556 451.891 36.8875 Q448.529 40.9789 448.529 48.6757 L448.529 72.576 L441.035 72.576 L441.035 27.2059 L448.529 27.2059 L448.529 34.2544 Q450.879 30.1225 454.646 28.1376 Q458.413 26.1121 463.801 26.1121 Q464.571 26.1121 465.502 26.2337 Q466.434 26.3147 467.568 26.5172 L467.609 34.1734 Z" fill="#000000" fill-rule="nonzero" fill-opacity="1" /><path clip-path="url(#clip640)" d="M475.427 27.2059 L482.881 27.2059 L482.881 72.576 L475.427 72.576 L475.427 27.2059 M475.427 9.54393 L482.881 9.54393 L482.881 18.9825 L475.427 18.9825 L475.427 9.54393 Z" fill="#000000" fill-rule="nonzero" fill-opacity="1" /><path clip-path="url(#clip640)" d="M493.13 27.2059 L501.029 27.2059 L515.207 65.2844 L529.385 27.2059 L537.284 27.2059 L520.271 72.576 L510.143 72.576 L493.13 27.2059 Z" fill="#000000" fill-rule="nonzero" fill-opacity="1" /><path clip-path="url(#clip640)" d="M568.193 49.7694 Q559.159 49.7694 555.676 51.8354 Q552.192 53.9013 552.192 58.8839 Q552.192 62.8538 554.784 65.2034 Q557.417 67.5124 561.914 67.5124 Q568.112 67.5124 571.839 63.1374 Q575.606 58.7219 575.606 51.4303 L575.606 49.7694 L568.193 49.7694 M583.06 46.6907 L583.06 72.576 L575.606 72.576 L575.606 65.6895 Q573.054 69.8214 569.246 71.8063 Q565.438 73.7508 559.929 73.7508 Q552.961 73.7508 548.83 69.8619 Q544.738 65.9325 544.738 59.3701 Q544.738 51.7138 549.842 47.825 Q554.987 43.9361 565.155 43.9361 L575.606 43.9361 L575.606 43.2069 Q575.606 38.0623 572.203 35.2672 Q568.841 32.4315 562.724 32.4315 Q558.835 32.4315 555.149 33.3632 Q551.463 34.295 548.06 36.1584 L548.06 29.2718 Q552.151 27.692 556 26.9223 Q559.848 26.1121 563.494 26.1121 Q573.337 26.1121 578.199 31.2163 Q583.06 36.3204 583.06 46.6907 Z" fill="#000000" fill-rule="nonzero" fill-opacity="1" /><path clip-path="url(#clip640)" d="M605.785 14.324 L605.785 27.2059 L621.138 27.2059 L621.138 32.9987 L605.785 32.9987 L605.785 57.6282 Q605.785 63.1779 607.284 64.7578 Q608.823 66.3376 613.482 66.3376 L621.138 66.3376 L621.138 72.576 L613.482 72.576 Q604.854 72.576 601.572 69.3758 Q598.291 66.1351 598.291 57.6282 L598.291 32.9987 L592.822 32.9987 L592.822 27.2059 L598.291 27.2059 L598.291 14.324 L605.785 14.324 Z" fill="#000000" fill-rule="nonzero" fill-opacity="1" /><path clip-path="url(#clip640)" d="M630.941 27.2059 L638.395 27.2059 L638.395 72.576 L630.941 72.576 L630.941 27.2059 M630.941 9.54393 L638.395 9.54393 L638.395 18.9825 L630.941 18.9825 L630.941 9.54393 Z" fill="#000000" fill-rule="nonzero" fill-opacity="1" /><path clip-path="url(#clip640)" d="M648.644 27.2059 L656.543 27.2059 L670.721 65.2844 L684.899 27.2059 L692.799 27.2059 L675.785 72.576 L665.658 72.576 L648.644 27.2059 Z" fill="#000000" fill-rule="nonzero" fill-opacity="1" /><path clip-path="url(#clip640)" d="M741.896 48.0275 L741.896 51.6733 L707.625 51.6733 Q708.111 59.3701 712.243 63.421 Q716.415 67.4314 723.829 67.4314 Q728.123 67.4314 732.133 66.3781 Q736.184 65.3249 740.154 63.2184 L740.154 70.267 Q736.143 71.9684 731.93 72.8596 Q727.717 73.7508 723.383 73.7508 Q712.527 73.7508 706.167 67.4314 Q699.847 61.1119 699.847 50.3365 Q699.847 39.1965 705.843 32.6746 Q711.878 26.1121 722.087 26.1121 Q731.242 26.1121 736.548 32.0264 Q741.896 37.9003 741.896 48.0275 M734.442 45.84 Q734.361 39.7232 730.999 36.0774 Q727.677 32.4315 722.168 32.4315 Q715.929 32.4315 712.162 35.9558 Q708.435 39.4801 707.868 45.8805 L734.442 45.84 Z" fill="#000000" fill-rule="nonzero" fill-opacity="1" /><path clip-path="url(#clip640)" d="M798.082 32.4315 Q792.086 32.4315 788.603 37.1306 Q785.119 41.7891 785.119 49.9314 Q785.119 58.0738 788.562 62.7728 Q792.046 67.4314 798.082 67.4314 Q804.036 67.4314 807.52 62.7323 Q811.004 58.0333 811.004 49.9314 Q811.004 41.8701 807.52 37.1711 Q804.036 32.4315 798.082 32.4315 M798.082 26.1121 Q807.804 26.1121 813.354 32.4315 Q818.903 38.7509 818.903 49.9314 Q818.903 61.0714 813.354 67.4314 Q807.804 73.7508 798.082 73.7508 Q788.319 73.7508 782.769 67.4314 Q777.26 61.0714 777.26 49.9314 Q777.26 38.7509 782.769 32.4315 Q788.319 26.1121 798.082 26.1121 Z" fill="#000000" fill-rule="nonzero" fill-opacity="1" /><path clip-path="url(#clip640)" d="M854.227 9.54393 L854.227 15.7418 L847.098 15.7418 Q843.087 15.7418 841.507 17.3622 Q839.968 18.9825 839.968 23.1955 L839.968 27.2059 L852.242 27.2059 L852.242 32.9987 L839.968 32.9987 L839.968 72.576 L832.474 72.576 L832.474 32.9987 L825.344 32.9987 L825.344 27.2059 L832.474 27.2059 L832.474 24.0462 Q832.474 16.471 835.998 13.0277 Q839.522 9.54393 847.179 9.54393 L854.227 9.54393 Z" fill="#000000" fill-rule="nonzero" fill-opacity="1" /><path clip-path="url(#clip640)" d="M878.776 12.096 L929.939 12.096 L929.939 18.9825 L908.469 18.9825 L908.469 72.576 L900.245 72.576 L900.245 18.9825 L878.776 18.9825 L878.776 12.096 Z" fill="#000000" fill-rule="nonzero" fill-opacity="1" /><path clip-path="url(#clip640)" d="M975.228 45.1919 L975.228 72.576 L967.774 72.576 L967.774 45.4349 Q967.774 38.994 965.262 35.7938 Q962.751 32.5936 957.728 32.5936 Q951.692 32.5936 948.208 36.4419 Q944.724 40.2903 944.724 46.9338 L944.724 72.576 L937.23 72.576 L937.23 9.54393 L944.724 9.54393 L944.724 34.2544 Q947.398 30.163 951.003 28.1376 Q954.649 26.1121 959.389 26.1121 Q967.207 26.1121 971.217 30.9732 Q975.228 35.7938 975.228 45.1919 Z" fill="#000000" fill-rule="nonzero" fill-opacity="1" /><path clip-path="url(#clip640)" d="M1028.9 48.0275 L1028.9 51.6733 L994.632 51.6733 Q995.118 59.3701 999.25 63.421 Q1003.42 67.4314 1010.84 67.4314 Q1015.13 67.4314 1019.14 66.3781 Q1023.19 65.3249 1027.16 63.2184 L1027.16 70.267 Q1023.15 71.9684 1018.94 72.8596 Q1014.72 73.7508 1010.39 73.7508 Q999.533 73.7508 993.173 67.4314 Q986.854 61.1119 986.854 50.3365 Q986.854 39.1965 992.849 32.6746 Q998.885 26.1121 1009.09 26.1121 Q1018.25 26.1121 1023.55 32.0264 Q1028.9 37.9003 1028.9 48.0275 M1021.45 45.84 Q1021.37 39.7232 1018.01 36.0774 Q1014.68 32.4315 1009.17 32.4315 Q1002.94 32.4315 999.169 35.9558 Q995.442 39.4801 994.875 45.8805 L1021.45 45.84 Z" fill="#000000" fill-rule="nonzero" fill-opacity="1" /><path clip-path="url(#clip640)" d="M1067.43 34.1734 Q1066.17 33.4443 1064.67 33.1202 Q1063.21 32.7556 1061.43 32.7556 Q1055.11 32.7556 1051.71 36.8875 Q1048.35 40.9789 1048.35 48.6757 L1048.35 72.576 L1040.85 72.576 L1040.85 27.2059 L1048.35 27.2059 L1048.35 34.2544 Q1050.7 30.1225 1054.46 28.1376 Q1058.23 26.1121 1063.62 26.1121 Q1064.39 26.1121 1065.32 26.2337 Q1066.25 26.3147 1067.39 26.5172 L1067.43 34.1734 Z" fill="#000000" fill-rule="nonzero" fill-opacity="1" /><path clip-path="url(#clip640)" d="M1109.11 35.9153 Q1111.91 30.8922 1115.79 28.5022 Q1119.68 26.1121 1124.95 26.1121 Q1132.04 26.1121 1135.89 31.0947 Q1139.73 36.0368 1139.73 45.1919 L1139.73 72.576 L1132.24 72.576 L1132.24 45.4349 Q1132.24 38.913 1129.93 35.7533 Q1127.62 32.5936 1122.88 32.5936 Q1117.09 32.5936 1113.73 36.4419 Q1110.37 40.2903 1110.37 46.9338 L1110.37 72.576 L1102.87 72.576 L1102.87 45.4349 Q1102.87 38.8725 1100.56 35.7533 Q1098.25 32.5936 1093.43 32.5936 Q1087.72 32.5936 1084.36 36.4824 Q1081 40.3308 1081 46.9338 L1081 72.576 L1073.5 72.576 L1073.5 27.2059 L1081 27.2059 L1081 34.2544 Q1083.55 30.082 1087.11 28.0971 Q1090.68 26.1121 1095.58 26.1121 Q1100.52 26.1121 1103.97 28.6237 Q1107.45 31.1352 1109.11 35.9153 Z" fill="#000000" fill-rule="nonzero" fill-opacity="1" /><path clip-path="url(#clip640)" d="M1172.18 32.4315 Q1166.19 32.4315 1162.7 37.1306 Q1159.22 41.7891 1159.22 49.9314 Q1159.22 58.0738 1162.66 62.7728 Q1166.15 67.4314 1172.18 67.4314 Q1178.14 67.4314 1181.62 62.7323 Q1185.11 58.0333 1185.11 49.9314 Q1185.11 41.8701 1181.62 37.1711 Q1178.14 32.4315 1172.18 32.4315 M1172.18 26.1121 Q1181.9 26.1121 1187.45 32.4315 Q1193 38.7509 1193 49.9314 Q1193 61.0714 1187.45 67.4314 Q1181.9 73.7508 1172.18 73.7508 Q1162.42 73.7508 1156.87 67.4314 Q1151.36 61.0714 1151.36 49.9314 Q1151.36 38.7509 1156.87 32.4315 Q1162.42 26.1121 1172.18 26.1121 Z" fill="#000000" fill-rule="nonzero" fill-opacity="1" /><path clip-path="url(#clip640)" d="M1235.21 34.0924 L1235.21 9.54393 L1242.67 9.54393 L1242.67 72.576 L1235.21 72.576 L1235.21 65.7705 Q1232.87 69.8214 1229.26 71.8063 Q1225.7 73.7508 1220.67 73.7508 Q1212.45 73.7508 1207.26 67.1883 Q1202.12 60.6258 1202.12 49.9314 Q1202.12 39.2371 1207.26 32.6746 Q1212.45 26.1121 1220.67 26.1121 Q1225.7 26.1121 1229.26 28.0971 Q1232.87 30.0415 1235.21 34.0924 M1209.82 49.9314 Q1209.82 58.1548 1213.18 62.8538 Q1216.58 67.5124 1222.49 67.5124 Q1228.41 67.5124 1231.81 62.8538 Q1235.21 58.1548 1235.21 49.9314 Q1235.21 41.7081 1231.81 37.0496 Q1228.41 32.3505 1222.49 32.3505 Q1216.58 32.3505 1213.18 37.0496 Q1209.82 41.7081 1209.82 49.9314 Z" fill="#000000" fill-rule="nonzero" fill-opacity="1" /><path clip-path="url(#clip640)" d="M1276.9 76.7889 Q1273.74 84.8907 1270.74 87.3618 Q1267.74 89.8329 1262.72 89.8329 L1256.77 89.8329 L1256.77 83.5945 L1261.14 83.5945 Q1264.22 83.5945 1265.92 82.1361 Q1267.62 80.6778 1269.69 75.2496 L1271.02 71.8468 L1252.67 27.2059 L1260.57 27.2059 L1274.75 62.6918 L1288.93 27.2059 L1296.83 27.2059 L1276.9 76.7889 Z" fill="#000000" fill-rule="nonzero" fill-opacity="1" /><path clip-path="url(#clip640)" d="M1344.83 45.1919 L1344.83 72.576 L1337.38 72.576 L1337.38 45.4349 Q1337.38 38.994 1334.87 35.7938 Q1332.36 32.5936 1327.33 32.5936 Q1321.3 32.5936 1317.81 36.4419 Q1314.33 40.2903 1314.33 46.9338 L1314.33 72.576 L1306.83 72.576 L1306.83 27.2059 L1314.33 27.2059 L1314.33 34.2544 Q1317 30.163 1320.61 28.1376 Q1324.25 26.1121 1328.99 26.1121 Q1336.81 26.1121 1340.82 30.9732 Q1344.83 35.7938 1344.83 45.1919 Z" fill="#000000" fill-rule="nonzero" fill-opacity="1" /><path clip-path="url(#clip640)" d="M1380.32 49.7694 Q1371.28 49.7694 1367.8 51.8354 Q1364.32 53.9013 1364.32 58.8839 Q1364.32 62.8538 1366.91 65.2034 Q1369.54 67.5124 1374.04 67.5124 Q1380.24 67.5124 1383.96 63.1374 Q1387.73 58.7219 1387.73 51.4303 L1387.73 49.7694 L1380.32 49.7694 M1395.18 46.6907 L1395.18 72.576 L1387.73 72.576 L1387.73 65.6895 Q1385.18 69.8214 1381.37 71.8063 Q1377.56 73.7508 1372.05 73.7508 Q1365.09 73.7508 1360.95 69.8619 Q1356.86 65.9325 1356.86 59.3701 Q1356.86 51.7138 1361.97 47.825 Q1367.11 43.9361 1377.28 43.9361 L1387.73 43.9361 L1387.73 43.2069 Q1387.73 38.0623 1384.33 35.2672 Q1380.97 32.4315 1374.85 32.4315 Q1370.96 32.4315 1367.27 33.3632 Q1363.59 34.295 1360.19 36.1584 L1360.19 29.2718 Q1364.28 27.692 1368.12 26.9223 Q1371.97 26.1121 1375.62 26.1121 Q1385.46 26.1121 1390.32 31.2163 Q1395.18 36.3204 1395.18 46.6907 Z" fill="#000000" fill-rule="nonzero" fill-opacity="1" /><path clip-path="url(#clip640)" d="M1445.86 35.9153 Q1448.66 30.8922 1452.55 28.5022 Q1456.43 26.1121 1461.7 26.1121 Q1468.79 26.1121 1472.64 31.0947 Q1476.49 36.0368 1476.49 45.1919 L1476.49 72.576 L1468.99 72.576 L1468.99 45.4349 Q1468.99 38.913 1466.68 35.7533 Q1464.37 32.5936 1459.63 32.5936 Q1453.84 32.5936 1450.48 36.4419 Q1447.12 40.2903 1447.12 46.9338 L1447.12 72.576 L1439.62 72.576 L1439.62 45.4349 Q1439.62 38.8725 1437.31 35.7533 Q1435.01 32.5936 1430.18 32.5936 Q1424.47 32.5936 1421.11 36.4824 Q1417.75 40.3308 1417.75 46.9338 L1417.75 72.576 L1410.25 72.576 L1410.25 27.2059 L1417.75 27.2059 L1417.75 34.2544 Q1420.3 30.082 1423.87 28.0971 Q1427.43 26.1121 1432.33 26.1121 Q1437.27 26.1121 1440.72 28.6237 Q1444.2 31.1352 1445.86 35.9153 Z" fill="#000000" fill-rule="nonzero" fill-opacity="1" /><path clip-path="url(#clip640)" d="M1491.35 27.2059 L1498.81 27.2059 L1498.81 72.576 L1491.35 72.576 L1491.35 27.2059 M1491.35 9.54393 L1498.81 9.54393 L1498.81 18.9825 L1491.35 18.9825 L1491.35 9.54393 Z" fill="#000000" fill-rule="nonzero" fill-opacity="1" /><path clip-path="url(#clip640)" d="M1547.05 28.9478 L1547.05 35.9153 Q1543.89 34.1734 1540.69 33.3227 Q1537.53 32.4315 1534.29 32.4315 Q1527.04 32.4315 1523.03 37.0496 Q1519.02 41.6271 1519.02 49.9314 Q1519.02 58.2358 1523.03 62.8538 Q1527.04 67.4314 1534.29 67.4314 Q1537.53 67.4314 1540.69 66.5807 Q1543.89 65.6895 1547.05 63.9476 L1547.05 70.8341 Q1543.93 72.2924 1540.57 73.0216 Q1537.25 73.7508 1533.48 73.7508 Q1523.23 73.7508 1517.2 67.3098 Q1511.16 60.8689 1511.16 49.9314 Q1511.16 38.832 1517.24 32.472 Q1523.36 26.1121 1533.97 26.1121 Q1537.41 26.1121 1540.69 26.8413 Q1543.97 27.5299 1547.05 28.9478 Z" fill="#000000" fill-rule="nonzero" fill-opacity="1" /><path clip-path="url(#clip640)" d="M1586.71 12.096 L1621.47 12.096 L1621.47 18.9825 L1594.89 18.9825 L1594.89 36.8065 L1618.88 36.8065 L1618.88 43.6931 L1594.89 43.6931 L1594.89 72.576 L1586.71 72.576 L1586.71 12.096 Z" fill="#000000" fill-rule="nonzero" fill-opacity="1" /><path clip-path="url(#clip640)" d="M1634.11 9.54393 L1641.56 9.54393 L1641.56 72.576 L1634.11 72.576 L1634.11 9.54393 Z" fill="#000000" fill-rule="nonzero" fill-opacity="1" /><path clip-path="url(#clip640)" d="M1656.39 54.671 L1656.39 27.2059 L1663.84 27.2059 L1663.84 54.3874 Q1663.84 60.8284 1666.35 64.0691 Q1668.86 67.2693 1673.89 67.2693 Q1679.92 67.2693 1683.41 63.421 Q1686.93 59.5726 1686.93 52.9291 L1686.93 27.2059 L1694.38 27.2059 L1694.38 72.576 L1686.93 72.576 L1686.93 65.6084 Q1684.22 69.7404 1680.61 71.7658 Q1677.05 73.7508 1672.31 73.7508 Q1664.49 73.7508 1660.44 68.8897 Q1656.39 64.0286 1656.39 54.671 M1675.14 26.1121 L1675.14 26.1121 Z" fill="#000000" fill-rule="nonzero" fill-opacity="1" /><path clip-path="url(#clip640)" d="M1747.45 27.2059 L1731.05 49.2833 L1748.3 72.576 L1739.51 72.576 L1726.31 54.752 L1713.1 72.576 L1704.31 72.576 L1721.93 48.8377 L1705.81 27.2059 L1714.6 27.2059 L1726.63 43.369 L1738.66 27.2059 L1747.45 27.2059 Z" fill="#000000" fill-rule="nonzero" fill-opacity="1" /><path clip-path="url(#clip640)" d="M1795.09 48.0275 L1795.09 51.6733 L1760.82 51.6733 Q1761.31 59.3701 1765.44 63.421 Q1769.61 67.4314 1777.02 67.4314 Q1781.32 67.4314 1785.33 66.3781 Q1789.38 65.3249 1793.35 63.2184 L1793.35 70.267 Q1789.34 71.9684 1785.12 72.8596 Q1780.91 73.7508 1776.58 73.7508 Q1765.72 73.7508 1759.36 67.4314 Q1753.04 61.1119 1753.04 50.3365 Q1753.04 39.1965 1759.04 32.6746 Q1765.07 26.1121 1775.28 26.1121 Q1784.44 26.1121 1789.74 32.0264 Q1795.09 37.9003 1795.09 48.0275 M1787.64 45.84 Q1787.56 39.7232 1784.19 36.0774 Q1780.87 32.4315 1775.36 32.4315 Q1769.12 32.4315 1765.36 35.9558 Q1761.63 39.4801 1761.06 45.8805 L1787.64 45.84 Z" fill="#000000" fill-rule="nonzero" fill-opacity="1" /><path clip-path="url(#clip640)" d="M1836.25 28.5427 L1836.25 35.5912 Q1833.09 33.9709 1829.68 33.1607 Q1826.28 32.3505 1822.64 32.3505 Q1817.09 32.3505 1814.29 34.0519 Q1811.54 35.7533 1811.54 39.156 Q1811.54 41.7486 1813.52 43.2475 Q1815.51 44.7058 1821.5 46.0426 L1824.05 46.6097 Q1831.99 48.3111 1835.32 51.4303 Q1838.68 54.509 1838.68 60.0587 Q1838.68 66.3781 1833.65 70.0644 Q1828.67 73.7508 1819.92 73.7508 Q1816.28 73.7508 1812.31 73.0216 Q1808.38 72.3329 1804 70.9151 L1804 63.2184 Q1808.13 65.3654 1812.14 66.4591 Q1816.15 67.5124 1820.08 67.5124 Q1825.35 67.5124 1828.19 65.73 Q1831.02 63.9071 1831.02 60.6258 Q1831.02 57.5877 1828.96 55.9673 Q1826.93 54.3469 1820 52.8481 L1817.41 52.2405 Q1810.48 50.7821 1807.4 47.7845 Q1804.33 44.7463 1804.33 39.4801 Q1804.33 33.0797 1808.86 29.5959 Q1813.4 26.1121 1821.75 26.1121 Q1825.88 26.1121 1829.52 26.7198 Q1833.17 27.3274 1836.25 28.5427 Z" fill="#000000" fill-rule="nonzero" fill-opacity="1" /><path clip-path="url(#clip640)" d="M1894.82 9.62495 Q1889.4 18.942 1886.76 28.0566 Q1884.13 37.1711 1884.13 46.5287 Q1884.13 55.8863 1886.76 65.0818 Q1889.44 74.2369 1894.82 83.5134 L1888.34 83.5134 Q1882.27 73.9938 1879.23 64.7983 Q1876.23 55.6027 1876.23 46.5287 Q1876.23 37.4952 1879.23 28.3401 Q1882.23 19.1851 1888.34 9.62495 L1894.82 9.62495 Z" fill="#000000" fill-rule="nonzero" fill-opacity="1" /><path clip-path="url(#clip640)" d="M1939.14 34.0924 L1939.14 9.54393 L1946.59 9.54393 L1946.59 72.576 L1939.14 72.576 L1939.14 65.7705 Q1936.79 69.8214 1933.19 71.8063 Q1929.62 73.7508 1924.6 73.7508 Q1916.37 73.7508 1911.19 67.1883 Q1906.04 60.6258 1906.04 49.9314 Q1906.04 39.2371 1911.19 32.6746 Q1916.37 26.1121 1924.6 26.1121 Q1929.62 26.1121 1933.19 28.0971 Q1936.79 30.0415 1939.14 34.0924 M1913.74 49.9314 Q1913.74 58.1548 1917.1 62.8538 Q1920.51 67.5124 1926.42 67.5124 Q1932.33 67.5124 1935.74 62.8538 Q1939.14 58.1548 1939.14 49.9314 Q1939.14 41.7081 1935.74 37.0496 Q1932.33 32.3505 1926.42 32.3505 Q1920.51 32.3505 1917.1 37.0496 Q1913.74 41.7081 1913.74 49.9314 Z" fill="#000000" fill-rule="nonzero" fill-opacity="1" /><path clip-path="url(#clip640)" d="M2003.51 63.9476 L2003.51 47.7034 L1990.14 47.7034 L1990.14 40.9789 L2011.61 40.9789 L2011.61 66.9452 Q2006.87 70.3075 2001.16 72.0494 Q1995.45 73.7508 1988.97 73.7508 Q1974.79 73.7508 1966.77 65.4869 Q1958.79 57.1826 1958.79 42.3968 Q1958.79 27.5705 1966.77 19.3066 Q1974.79 11.0023 1988.97 11.0023 Q1994.88 11.0023 2000.19 12.4606 Q2005.53 13.9189 2010.03 16.7545 L2010.03 25.464 Q2005.49 21.6156 2000.39 19.6712 Q1995.29 17.7268 1989.66 17.7268 Q1978.56 17.7268 1972.97 23.9246 Q1967.42 30.1225 1967.42 42.3968 Q1967.42 54.6305 1972.97 60.8284 Q1978.56 67.0263 1989.66 67.0263 Q1993.99 67.0263 1997.39 66.2971 Q2000.8 65.5274 2003.51 63.9476 Z" fill="#000000" fill-rule="nonzero" fill-opacity="1" /><path clip-path="url(#clip640)" d="M2060.71 86.3491 L2060.71 92.1419 L2017.61 92.1419 L2017.61 86.3491 L2060.71 86.3491 Z" fill="#000000" fill-rule="nonzero" fill-opacity="1" /><path clip-path="url(#clip640)" d="M2097.57 34.0924 L2097.57 9.54393 L2105.02 9.54393 L2105.02 72.576 L2097.57 72.576 L2097.57 65.7705 Q2095.22 69.8214 2091.62 71.8063 Q2088.05 73.7508 2083.03 73.7508 Q2074.81 73.7508 2069.62 67.1883 Q2064.48 60.6258 2064.48 49.9314 Q2064.48 39.2371 2069.62 32.6746 Q2074.81 26.1121 2083.03 26.1121 Q2088.05 26.1121 2091.62 28.0971 Q2095.22 30.0415 2097.57 34.0924 M2072.17 49.9314 Q2072.17 58.1548 2075.53 62.8538 Q2078.94 67.5124 2084.85 67.5124 Q2090.77 67.5124 2094.17 62.8538 Q2097.57 58.1548 2097.57 49.9314 Q2097.57 41.7081 2094.17 37.0496 Q2090.77 32.3505 2084.85 32.3505 Q2078.94 32.3505 2075.53 37.0496 Q2072.17 41.7081 2072.17 49.9314 Z" fill="#000000" fill-rule="nonzero" fill-opacity="1" /><path clip-path="url(#clip640)" d="M2120.38 27.2059 L2127.83 27.2059 L2127.83 72.576 L2120.38 72.576 L2120.38 27.2059 M2120.38 9.54393 L2127.83 9.54393 L2127.83 18.9825 L2120.38 18.9825 L2120.38 9.54393 Z" fill="#000000" fill-rule="nonzero" fill-opacity="1" /><path clip-path="url(#clip640)" d="M2172.35 28.5427 L2172.35 35.5912 Q2169.19 33.9709 2165.79 33.1607 Q2162.39 32.3505 2158.74 32.3505 Q2153.19 32.3505 2150.39 34.0519 Q2147.64 35.7533 2147.64 39.156 Q2147.64 41.7486 2149.63 43.2475 Q2151.61 44.7058 2157.61 46.0426 L2160.16 46.6097 Q2168.1 48.3111 2171.42 51.4303 Q2174.78 54.509 2174.78 60.0587 Q2174.78 66.3781 2169.76 70.0644 Q2164.78 73.7508 2156.03 73.7508 Q2152.38 73.7508 2148.41 73.0216 Q2144.48 72.3329 2140.11 70.9151 L2140.11 63.2184 Q2144.24 65.3654 2148.25 66.4591 Q2152.26 67.5124 2156.19 67.5124 Q2161.45 67.5124 2164.29 65.73 Q2167.13 63.9071 2167.13 60.6258 Q2167.13 57.5877 2165.06 55.9673 Q2163.03 54.3469 2156.11 52.8481 L2153.51 52.2405 Q2146.59 50.7821 2143.51 47.7845 Q2140.43 44.7463 2140.43 39.4801 Q2140.43 33.0797 2144.97 29.5959 Q2149.5 26.1121 2157.85 26.1121 Q2161.98 26.1121 2165.63 26.7198 Q2169.27 27.3274 2172.35 28.5427 Z" fill="#000000" fill-rule="nonzero" fill-opacity="1" /><path clip-path="url(#clip640)" d="M2215.57 28.5427 L2215.57 35.5912 Q2212.41 33.9709 2209.01 33.1607 Q2205.61 32.3505 2201.96 32.3505 Q2196.41 32.3505 2193.62 34.0519 Q2190.86 35.7533 2190.86 39.156 Q2190.86 41.7486 2192.85 43.2475 Q2194.83 44.7058 2200.83 46.0426 L2203.38 46.6097 Q2211.32 48.3111 2214.64 51.4303 Q2218 54.509 2218 60.0587 Q2218 66.3781 2212.98 70.0644 Q2208 73.7508 2199.25 73.7508 Q2195.6 73.7508 2191.63 73.0216 Q2187.7 72.3329 2183.33 70.9151 L2183.33 63.2184 Q2187.46 65.3654 2191.47 66.4591 Q2195.48 67.5124 2199.41 67.5124 Q2204.68 67.5124 2207.51 65.73 Q2210.35 63.9071 2210.35 60.6258 Q2210.35 57.5877 2208.28 55.9673 Q2206.26 54.3469 2199.33 52.8481 L2196.74 52.2405 Q2189.81 50.7821 2186.73 47.7845 Q2183.65 44.7463 2183.65 39.4801 Q2183.65 33.0797 2188.19 29.5959 Q2192.73 26.1121 2201.07 26.1121 Q2205.2 26.1121 2208.85 26.7198 Q2212.5 27.3274 2215.57 28.5427 Z" fill="#000000" fill-rule="nonzero" fill-opacity="1" /><path clip-path="url(#clip640)" d="M2228.7 9.62495 L2235.18 9.62495 Q2241.26 19.1851 2244.25 28.3401 Q2247.29 37.4952 2247.29 46.5287 Q2247.29 55.6027 2244.25 64.7983 Q2241.26 73.9938 2235.18 83.5134 L2228.7 83.5134 Q2234.09 74.2369 2236.72 65.0818 Q2239.39 55.8863 2239.39 46.5287 Q2239.39 37.1711 2236.72 28.0566 Q2234.09 18.942 2228.7 9.62495 Z" fill="#000000" fill-rule="nonzero" fill-opacity="1" /><path clip-path="url(#clip640)" d="M2275.49 12.096 L2282.37 12.096 L2261.31 80.2727 L2254.42 80.2727 L2275.49 12.096 Z" fill="#000000" fill-rule="nonzero" fill-opacity="1" /><path clip-path="url(#clip640)" d="M2320.05 34.0924 L2320.05 9.54393 L2327.5 9.54393 L2327.5 72.576 L2320.05 72.576 L2320.05 65.7705 Q2317.7 69.8214 2314.09 71.8063 Q2310.53 73.7508 2305.5 73.7508 Q2297.28 73.7508 2292.1 67.1883 Q2286.95 60.6258 2286.95 49.9314 Q2286.95 39.2371 2292.1 32.6746 Q2297.28 26.1121 2305.5 26.1121 Q2310.53 26.1121 2314.09 28.0971 Q2317.7 30.0415 2320.05 34.0924 M2294.65 49.9314 Q2294.65 58.1548 2298.01 62.8538 Q2301.41 67.5124 2307.33 67.5124 Q2313.24 67.5124 2316.64 62.8538 Q2320.05 58.1548 2320.05 49.9314 Q2320.05 41.7081 2316.64 37.0496 Q2313.24 32.3505 2307.33 32.3505 Q2301.41 32.3505 2298.01 37.0496 Q2294.65 41.7081 2294.65 49.9314 Z" fill="#000000" fill-rule="nonzero" fill-opacity="1" /><path clip-path="url(#clip640)" d="M2350.23 14.324 L2350.23 27.2059 L2365.58 27.2059 L2365.58 32.9987 L2350.23 32.9987 L2350.23 57.6282 Q2350.23 63.1779 2351.72 64.7578 Q2353.26 66.3376 2357.92 66.3376 L2365.58 66.3376 L2365.58 72.576 L2357.92 72.576 Q2349.29 72.576 2346.01 69.3758 Q2342.73 66.1351 2342.73 57.6282 L2342.73 32.9987 L2337.26 32.9987 L2337.26 27.2059 L2342.73 27.2059 L2342.73 14.324 L2350.23 14.324 Z" fill="#000000" fill-rule="nonzero" fill-opacity="1" /><polyline clip-path="url(#clip642)" style="stroke:#009af9; stroke-linecap:round; stroke-linejoin:round; stroke-width:8; stroke-opacity:1; fill:none" points="435.28,808.926 474.04,1302.65 512.8,1333.94 551.561,1339.51 590.321,1343.55 629.082,1347.22 667.842,1350.65 706.602,1353.86 745.363,1356.8 784.123,1359.5 822.884,1362.04 861.644,1364.49 900.404,1366.82 939.165,1369 977.925,1370.98 1016.69,1372.78 1055.45,1374.38 1094.21,1375.75 1132.97,1376.86 1171.73,1377.76 1210.49,1378.67 1249.25,1379.58 1288.01,1380.45 1326.77,1381.27 1365.53,1382.02 1404.29,1382.68 1443.05,1383.22 1481.81,1383.62 1520.57,1383.84 1559.33,1383.91 1598.09,1384.1 1636.85,1384.36 1675.61,1384.67 1714.37,1385 1753.13,1385.3 1791.89,1385.56 1830.65,1385.74 1869.41,1385.81 1908.17,1385.74 1946.93,1385.57 1985.7,1385.56 2024.46,1385.66 2063.22,1385.81 2101.98,1386 2140.74,1386.18 2179.5,1386.32 2218.26,1386.4 2257.02,1386.36 2295.78,1386.16 "/>
<polyline clip-path="url(#clip642)" style="stroke:#e26f46; stroke-linecap:round; stroke-linejoin:round; stroke-width:8; stroke-opacity:1; fill:none" points="435.28,160.256 474.04,788.922 512.8,1030.17 551.561,1144.99 590.321,1209.42 629.082,1250.12 667.842,1278.06 706.602,1298.37 745.363,1313.72 784.123,1325.67 822.884,1335.23 861.644,1343.06 900.404,1349.54 939.165,1354.94 977.925,1359.47 1016.69,1363.28 1055.45,1366.5 1094.21,1369.22 1132.97,1371.51 1171.73,1373.44 1210.49,1375.14 1249.25,1376.63 1288.01,1377.94 1326.77,1379.09 1365.53,1380.08 1404.29,1380.94 1443.05,1381.68 1481.81,1382.29 1520.57,1382.78 1559.33,1383.18 1598.09,1383.56 1636.85,1383.91 1675.61,1384.25 1714.37,1384.55 1753.13,1384.82 1791.89,1385.05 1830.65,1385.24 1869.41,1385.38 1908.17,1385.47 1946.93,1385.51 1985.7,1385.59 2024.46,1385.69 2063.22,1385.79 2101.98,1385.89 2140.74,1385.99 2179.5,1386.07 2218.26,1386.12 2257.02,1386.14 2295.78,1386.12 "/>
<circle clip-path="url(#clip642)" cx="2179.5" cy="1386.34" r="21.6" fill="#ff0000" fill-rule="evenodd" fill-opacity="1" stroke="#000000" stroke-opacity="1" stroke-width="3.2"/>
<circle clip-path="url(#clip642)" cx="2257.02" cy="1386.34" r="21.6" fill="#ff0000" fill-rule="evenodd" fill-opacity="1" stroke="#000000" stroke-opacity="1" stroke-width="3.2"/>
<path clip-path="url(#clip642)" d="M396.519 1362.34 L372.519 1386.34 L396.519 1410.34 L420.519 1386.34 L396.519 1362.34 Z" fill="#0000ff" fill-rule="evenodd" fill-opacity="1" stroke="#000000" stroke-opacity="1" stroke-width="3.2"/>
<path clip-path="url(#clip640)" d="M1658.38 425.996 L2285.65 425.996 L2285.65 166.796 L1658.38 166.796  Z" fill="#ffffff" fill-rule="evenodd" fill-opacity="1"/>
<polyline clip-path="url(#clip640)" style="stroke:#000000; stroke-linecap:round; stroke-linejoin:round; stroke-width:4; stroke-opacity:1; fill:none" points="1658.38,425.996 2285.65,425.996 2285.65,166.796 1658.38,166.796 1658.38,425.996 "/>
<polyline clip-path="url(#clip640)" style="stroke:#009af9; stroke-linecap:round; stroke-linejoin:round; stroke-width:8; stroke-opacity:1; fill:none" points="1680.75,218.636 1814.96,218.636 "/>
<path clip-path="url(#clip640)" d="M1837.33 199.897 L1847.15 199.897 L1847.15 203.208 L1841.59 203.208 L1841.59 238.856 L1847.15 238.856 L1847.15 242.166 L1837.33 242.166 L1837.33 199.897 Z" fill="#000000" fill-rule="nonzero" fill-opacity="1" /><path clip-path="url(#clip640)" d="M1860.25 201.356 L1860.25 214.203 L1856.31 214.203 L1856.31 201.356 L1860.25 201.356 M1869 201.356 L1869 214.203 L1865.06 214.203 L1865.06 201.356 L1869 201.356 Z" fill="#000000" fill-rule="nonzero" fill-opacity="1" /><path clip-path="url(#clip640)" d="M1889.76 205.962 L1880.27 232.027 L1899.28 232.027 L1889.76 205.962 M1873.93 235.916 L1887.12 201.356 L1892.43 201.356 L1905.6 235.916 L1873.93 235.916 Z" fill="#000000" fill-rule="nonzero" fill-opacity="1" /><path clip-path="url(#clip640)" d="M1934.21 230.985 L1934.21 221.703 L1926.57 221.703 L1926.57 217.86 L1938.84 217.86 L1938.84 232.698 Q1936.13 234.619 1932.86 235.615 Q1929.6 236.587 1925.9 236.587 Q1917.8 236.587 1913.21 231.865 Q1908.65 227.119 1908.65 218.67 Q1908.65 210.198 1913.21 205.476 Q1917.8 200.731 1925.9 200.731 Q1929.28 200.731 1932.31 201.564 Q1935.36 202.397 1937.93 204.018 L1937.93 208.995 Q1935.34 206.796 1932.43 205.684 Q1929.51 204.573 1926.29 204.573 Q1919.95 204.573 1916.75 208.115 Q1913.58 211.657 1913.58 218.67 Q1913.58 225.661 1916.75 229.203 Q1919.95 232.744 1926.29 232.744 Q1928.77 232.744 1930.71 232.328 Q1932.66 231.888 1934.21 230.985 Z" fill="#000000" fill-rule="nonzero" fill-opacity="1" /><path clip-path="url(#clip640)" d="M1966.89 243.786 L1966.89 247.096 L1942.26 247.096 L1942.26 243.786 L1966.89 243.786 Z" fill="#000000" fill-rule="nonzero" fill-opacity="1" /><path clip-path="url(#clip640)" d="M1987.96 213.925 L1987.96 199.897 L1992.22 199.897 L1992.22 235.916 L1987.96 235.916 L1987.96 232.027 Q1986.61 234.342 1984.55 235.476 Q1982.52 236.587 1979.65 236.587 Q1974.95 236.587 1971.98 232.837 Q1969.05 229.087 1969.05 222.976 Q1969.05 216.865 1971.98 213.115 Q1974.95 209.365 1979.65 209.365 Q1982.52 209.365 1984.55 210.499 Q1986.61 211.61 1987.96 213.925 M1973.44 222.976 Q1973.44 227.675 1975.36 230.36 Q1977.31 233.022 1980.69 233.022 Q1984.07 233.022 1986.01 230.36 Q1987.96 227.675 1987.96 222.976 Q1987.96 218.277 1986.01 215.615 Q1984.07 212.93 1980.69 212.93 Q1977.31 212.93 1975.36 215.615 Q1973.44 218.277 1973.44 222.976 Z" fill="#000000" fill-rule="nonzero" fill-opacity="1" /><path clip-path="url(#clip640)" d="M2000.99 209.99 L2005.25 209.99 L2005.25 235.916 L2000.99 235.916 L2000.99 209.99 M2000.99 199.897 L2005.25 199.897 L2005.25 205.291 L2000.99 205.291 L2000.99 199.897 Z" fill="#000000" fill-rule="nonzero" fill-opacity="1" /><path clip-path="url(#clip640)" d="M2030.69 210.754 L2030.69 214.782 Q2028.88 213.856 2026.94 213.393 Q2024.99 212.93 2022.91 212.93 Q2019.74 212.93 2018.14 213.902 Q2016.57 214.874 2016.57 216.819 Q2016.57 218.3 2017.7 219.157 Q2018.84 219.99 2022.26 220.754 L2023.72 221.078 Q2028.26 222.05 2030.16 223.832 Q2032.08 225.592 2032.08 228.763 Q2032.08 232.374 2029.21 234.481 Q2026.36 236.587 2021.36 236.587 Q2019.28 236.587 2017.01 236.17 Q2014.76 235.777 2012.26 234.967 L2012.26 230.569 Q2014.62 231.795 2016.92 232.42 Q2019.21 233.022 2021.45 233.022 Q2024.46 233.022 2026.08 232.004 Q2027.7 230.962 2027.7 229.087 Q2027.7 227.351 2026.52 226.425 Q2025.36 225.499 2021.41 224.643 L2019.92 224.295 Q2015.97 223.462 2014.21 221.749 Q2012.45 220.013 2012.45 217.004 Q2012.45 213.346 2015.04 211.356 Q2017.63 209.365 2022.4 209.365 Q2024.76 209.365 2026.85 209.712 Q2028.93 210.059 2030.69 210.754 Z" fill="#000000" fill-rule="nonzero" fill-opacity="1" /><path clip-path="url(#clip640)" d="M2055.39 210.754 L2055.39 214.782 Q2053.58 213.856 2051.64 213.393 Q2049.69 212.93 2047.61 212.93 Q2044.44 212.93 2042.84 213.902 Q2041.27 214.874 2041.27 216.819 Q2041.27 218.3 2042.4 219.157 Q2043.54 219.99 2046.96 220.754 L2048.42 221.078 Q2052.96 222.05 2054.85 223.832 Q2056.78 225.592 2056.78 228.763 Q2056.78 232.374 2053.91 234.481 Q2051.06 236.587 2046.06 236.587 Q2043.98 236.587 2041.71 236.17 Q2039.46 235.777 2036.96 234.967 L2036.96 230.569 Q2039.32 231.795 2041.61 232.42 Q2043.91 233.022 2046.15 233.022 Q2049.16 233.022 2050.78 232.004 Q2052.4 230.962 2052.4 229.087 Q2052.4 227.351 2051.22 226.425 Q2050.06 225.499 2046.1 224.643 L2044.62 224.295 Q2040.67 223.462 2038.91 221.749 Q2037.15 220.013 2037.15 217.004 Q2037.15 213.346 2039.74 211.356 Q2042.33 209.365 2047.1 209.365 Q2049.46 209.365 2051.54 209.712 Q2053.63 210.059 2055.39 210.754 Z" fill="#000000" fill-rule="nonzero" fill-opacity="1" /><path clip-path="url(#clip640)" d="M2062.7 233.369 L2067.42 233.369 L2067.42 219.226 L2062.26 220.175 L2062.26 217.49 L2067.59 216.587 L2070.76 216.587 L2070.76 233.369 L2075.5 233.369 L2075.5 235.916 L2062.7 235.916 L2062.7 233.369 Z" fill="#000000" fill-rule="nonzero" fill-opacity="1" /><path clip-path="url(#clip640)" d="M2086.59 201.356 L2086.59 214.203 L2082.66 214.203 L2082.66 201.356 L2086.59 201.356 M2095.34 201.356 L2095.34 214.203 L2091.41 214.203 L2091.41 201.356 L2095.34 201.356 Z" fill="#000000" fill-rule="nonzero" fill-opacity="1" /><path clip-path="url(#clip640)" d="M2114.32 199.897 L2114.32 242.166 L2104.51 242.166 L2104.51 238.856 L2110.04 238.856 L2110.04 203.208 L2104.51 203.208 L2104.51 199.897 L2114.32 199.897 Z" fill="#000000" fill-rule="nonzero" fill-opacity="1" /><polyline clip-path="url(#clip640)" style="stroke:#e26f46; stroke-linecap:round; stroke-linejoin:round; stroke-width:8; stroke-opacity:1; fill:none" points="1680.75,270.476 1814.96,270.476 "/>
<path clip-path="url(#clip640)" d="M1837.33 251.737 L1847.15 251.737 L1847.15 255.048 L1841.59 255.048 L1841.59 290.696 L1847.15 290.696 L1847.15 294.006 L1837.33 294.006 L1837.33 251.737 Z" fill="#000000" fill-rule="nonzero" fill-opacity="1" /><path clip-path="url(#clip640)" d="M1860.25 253.196 L1860.25 266.043 L1856.31 266.043 L1856.31 253.196 L1860.25 253.196 M1869 253.196 L1869 266.043 L1865.06 266.043 L1865.06 253.196 L1869 253.196 Z" fill="#000000" fill-rule="nonzero" fill-opacity="1" /><path clip-path="url(#clip640)" d="M1889.76 257.802 L1880.27 283.867 L1899.28 283.867 L1889.76 257.802 M1873.93 287.756 L1887.12 253.196 L1892.43 253.196 L1905.6 287.756 L1873.93 287.756 Z" fill="#000000" fill-rule="nonzero" fill-opacity="1" /><path clip-path="url(#clip640)" d="M1934.21 282.825 L1934.21 273.543 L1926.57 273.543 L1926.57 269.7 L1938.84 269.7 L1938.84 284.538 Q1936.13 286.459 1932.86 287.455 Q1929.6 288.427 1925.9 288.427 Q1917.8 288.427 1913.21 283.705 Q1908.65 278.959 1908.65 270.51 Q1908.65 262.038 1913.21 257.316 Q1917.8 252.571 1925.9 252.571 Q1929.28 252.571 1932.31 253.404 Q1935.36 254.237 1937.93 255.858 L1937.93 260.835 Q1935.34 258.636 1932.43 257.524 Q1929.51 256.413 1926.29 256.413 Q1919.95 256.413 1916.75 259.955 Q1913.58 263.497 1913.58 270.51 Q1913.58 277.501 1916.75 281.043 Q1919.95 284.584 1926.29 284.584 Q1928.77 284.584 1930.71 284.168 Q1932.66 283.728 1934.21 282.825 Z" fill="#000000" fill-rule="nonzero" fill-opacity="1" /><path clip-path="url(#clip640)" d="M1966.89 295.626 L1966.89 298.936 L1942.26 298.936 L1942.26 295.626 L1966.89 295.626 Z" fill="#000000" fill-rule="nonzero" fill-opacity="1" /><path clip-path="url(#clip640)" d="M1987.96 265.765 L1987.96 251.737 L1992.22 251.737 L1992.22 287.756 L1987.96 287.756 L1987.96 283.867 Q1986.61 286.182 1984.55 287.316 Q1982.52 288.427 1979.65 288.427 Q1974.95 288.427 1971.98 284.677 Q1969.05 280.927 1969.05 274.816 Q1969.05 268.705 1971.98 264.955 Q1974.95 261.205 1979.65 261.205 Q1982.52 261.205 1984.55 262.339 Q1986.61 263.45 1987.96 265.765 M1973.44 274.816 Q1973.44 279.515 1975.36 282.2 Q1977.31 284.862 1980.69 284.862 Q1984.07 284.862 1986.01 282.2 Q1987.96 279.515 1987.96 274.816 Q1987.96 270.117 1986.01 267.455 Q1984.07 264.77 1980.69 264.77 Q1977.31 264.77 1975.36 267.455 Q1973.44 270.117 1973.44 274.816 Z" fill="#000000" fill-rule="nonzero" fill-opacity="1" /><path clip-path="url(#clip640)" d="M2000.99 261.83 L2005.25 261.83 L2005.25 287.756 L2000.99 287.756 L2000.99 261.83 M2000.99 251.737 L2005.25 251.737 L2005.25 257.131 L2000.99 257.131 L2000.99 251.737 Z" fill="#000000" fill-rule="nonzero" fill-opacity="1" /><path clip-path="url(#clip640)" d="M2030.69 262.594 L2030.69 266.622 Q2028.88 265.696 2026.94 265.233 Q2024.99 264.77 2022.91 264.77 Q2019.74 264.77 2018.14 265.742 Q2016.57 266.714 2016.57 268.659 Q2016.57 270.14 2017.7 270.997 Q2018.84 271.83 2022.26 272.594 L2023.72 272.918 Q2028.26 273.89 2030.16 275.672 Q2032.08 277.432 2032.08 280.603 Q2032.08 284.214 2029.21 286.321 Q2026.36 288.427 2021.36 288.427 Q2019.28 288.427 2017.01 288.01 Q2014.76 287.617 2012.26 286.807 L2012.26 282.409 Q2014.62 283.635 2016.92 284.26 Q2019.21 284.862 2021.45 284.862 Q2024.46 284.862 2026.08 283.844 Q2027.7 282.802 2027.7 280.927 Q2027.7 279.191 2026.52 278.265 Q2025.36 277.339 2021.41 276.483 L2019.92 276.135 Q2015.97 275.302 2014.21 273.589 Q2012.45 271.853 2012.45 268.844 Q2012.45 265.186 2015.04 263.196 Q2017.63 261.205 2022.4 261.205 Q2024.76 261.205 2026.85 261.552 Q2028.93 261.899 2030.69 262.594 Z" fill="#000000" fill-rule="nonzero" fill-opacity="1" /><path clip-path="url(#clip640)" d="M2055.39 262.594 L2055.39 266.622 Q2053.58 265.696 2051.64 265.233 Q2049.69 264.77 2047.61 264.77 Q2044.44 264.77 2042.84 265.742 Q2041.27 266.714 2041.27 268.659 Q2041.27 270.14 2042.4 270.997 Q2043.54 271.83 2046.96 272.594 L2048.42 272.918 Q2052.96 273.89 2054.85 275.672 Q2056.78 277.432 2056.78 280.603 Q2056.78 284.214 2053.91 286.321 Q2051.06 288.427 2046.06 288.427 Q2043.98 288.427 2041.71 288.01 Q2039.46 287.617 2036.96 286.807 L2036.96 282.409 Q2039.32 283.635 2041.61 284.26 Q2043.91 284.862 2046.15 284.862 Q2049.16 284.862 2050.78 283.844 Q2052.4 282.802 2052.4 280.927 Q2052.4 279.191 2051.22 278.265 Q2050.06 277.339 2046.1 276.483 L2044.62 276.135 Q2040.67 275.302 2038.91 273.589 Q2037.15 271.853 2037.15 268.844 Q2037.15 265.186 2039.74 263.196 Q2042.33 261.205 2047.1 261.205 Q2049.46 261.205 2051.54 261.552 Q2053.63 261.899 2055.39 262.594 Z" fill="#000000" fill-rule="nonzero" fill-opacity="1" /><path clip-path="url(#clip640)" d="M2065.29 285.117 L2075.11 285.117 L2075.11 287.756 L2061.27 287.756 L2061.27 285.209 Q2062.05 284.492 2063.51 283.196 Q2071.48 276.135 2071.48 273.959 Q2071.48 272.432 2070.27 271.506 Q2069.07 270.557 2067.1 270.557 Q2065.9 270.557 2064.48 270.973 Q2063.07 271.367 2061.41 272.177 L2061.41 269.33 Q2063.19 268.682 2064.72 268.358 Q2066.27 268.034 2067.59 268.034 Q2070.94 268.034 2072.96 269.561 Q2074.97 271.089 2074.97 273.589 Q2074.97 276.807 2067.31 283.381 Q2066.01 284.492 2065.29 285.117 Z" fill="#000000" fill-rule="nonzero" fill-opacity="1" /><path clip-path="url(#clip640)" d="M2086.59 253.196 L2086.59 266.043 L2082.66 266.043 L2082.66 253.196 L2086.59 253.196 M2095.34 253.196 L2095.34 266.043 L2091.41 266.043 L2091.41 253.196 L2095.34 253.196 Z" fill="#000000" fill-rule="nonzero" fill-opacity="1" /><path clip-path="url(#clip640)" d="M2114.32 251.737 L2114.32 294.006 L2104.51 294.006 L2104.51 290.696 L2110.04 290.696 L2110.04 255.048 L2104.51 255.048 L2104.51 251.737 L2114.32 251.737 Z" fill="#000000" fill-rule="nonzero" fill-opacity="1" /><circle clip-path="url(#clip640)" cx="1747.86" cy="322.316" r="21.2677" fill="#ff0000" fill-rule="evenodd" fill-opacity="1" stroke="#000000" stroke-opacity="1" stroke-width="3.15077"/>
<path clip-path="url(#clip640)" d="M1837.87 305.036 L1865.02 305.036 L1865.02 308.601 L1843.17 335.661 L1865.55 335.661 L1865.55 339.596 L1837.33 339.596 L1837.33 336.031 L1859.18 308.971 L1837.87 308.971 L1837.87 305.036 Z" fill="#000000" fill-rule="nonzero" fill-opacity="1" /><path clip-path="url(#clip640)" d="M1894.32 325.568 L1894.32 327.651 L1874.74 327.651 Q1875.02 332.049 1877.38 334.364 Q1879.76 336.656 1884 336.656 Q1886.45 336.656 1888.74 336.054 Q1891.06 335.452 1893.33 334.249 L1893.33 338.276 Q1891.04 339.248 1888.63 339.758 Q1886.22 340.267 1883.74 340.267 Q1877.54 340.267 1873.91 336.656 Q1870.3 333.045 1870.3 326.887 Q1870.3 320.522 1873.72 316.795 Q1877.17 313.045 1883 313.045 Q1888.24 313.045 1891.27 316.425 Q1894.32 319.781 1894.32 325.568 M1890.06 324.318 Q1890.02 320.823 1888.1 318.739 Q1886.2 316.656 1883.05 316.656 Q1879.49 316.656 1877.33 318.67 Q1875.2 320.684 1874.88 324.341 L1890.06 324.318 Z" fill="#000000" fill-rule="nonzero" fill-opacity="1" /><path clip-path="url(#clip640)" d="M1916.34 317.651 Q1915.62 317.235 1914.76 317.05 Q1913.93 316.841 1912.91 316.841 Q1909.3 316.841 1907.36 319.202 Q1905.43 321.54 1905.43 325.938 L1905.43 339.596 L1901.15 339.596 L1901.15 313.67 L1905.43 313.67 L1905.43 317.698 Q1906.78 315.337 1908.93 314.202 Q1911.08 313.045 1914.16 313.045 Q1914.6 313.045 1915.13 313.114 Q1915.67 313.161 1916.31 313.276 L1916.34 317.651 Z" fill="#000000" fill-rule="nonzero" fill-opacity="1" /><path clip-path="url(#clip640)" d="M1929.81 316.656 Q1926.38 316.656 1924.39 319.341 Q1922.4 322.003 1922.4 326.656 Q1922.4 331.309 1924.37 333.994 Q1926.36 336.656 1929.81 336.656 Q1933.21 336.656 1935.2 333.971 Q1937.19 331.286 1937.19 326.656 Q1937.19 322.05 1935.2 319.364 Q1933.21 316.656 1929.81 316.656 M1929.81 313.045 Q1935.36 313.045 1938.54 316.656 Q1941.71 320.267 1941.71 326.656 Q1941.71 333.022 1938.54 336.656 Q1935.36 340.267 1929.81 340.267 Q1924.23 340.267 1921.06 336.656 Q1917.91 333.022 1917.91 326.656 Q1917.91 320.267 1921.06 316.656 Q1924.23 313.045 1929.81 313.045 Z" fill="#000000" fill-rule="nonzero" fill-opacity="1" /><path clip-path="url(#clip640)" d="M1989.9 307.698 L1989.9 312.628 Q1987.54 310.429 1984.86 309.341 Q1982.19 308.253 1979.18 308.253 Q1973.26 308.253 1970.11 311.888 Q1966.96 315.499 1966.96 322.35 Q1966.96 329.179 1970.11 332.813 Q1973.26 336.424 1979.18 336.424 Q1982.19 336.424 1984.86 335.336 Q1987.54 334.249 1989.9 332.049 L1989.9 336.934 Q1987.45 338.6 1984.69 339.434 Q1981.96 340.267 1978.91 340.267 Q1971.06 340.267 1966.55 335.475 Q1962.03 330.661 1962.03 322.35 Q1962.03 314.017 1966.55 309.226 Q1971.06 304.411 1978.91 304.411 Q1982.01 304.411 1984.74 305.244 Q1987.49 306.054 1989.9 307.698 Z" fill="#000000" fill-rule="nonzero" fill-opacity="1" /><path clip-path="url(#clip640)" d="M2011.96 317.651 Q2011.24 317.235 2010.39 317.05 Q2009.55 316.841 2008.54 316.841 Q2004.92 316.841 2002.98 319.202 Q2001.06 321.54 2001.06 325.938 L2001.06 339.596 L1996.78 339.596 L1996.78 313.67 L2001.06 313.67 L2001.06 317.698 Q2002.4 315.337 2004.55 314.202 Q2006.71 313.045 2009.79 313.045 Q2010.23 313.045 2010.76 313.114 Q2011.29 313.161 2011.94 313.276 L2011.96 317.651 Z" fill="#000000" fill-rule="nonzero" fill-opacity="1" /><path clip-path="url(#clip640)" d="M2025.43 316.656 Q2022.01 316.656 2020.02 319.341 Q2018.03 322.003 2018.03 326.656 Q2018.03 331.309 2019.99 333.994 Q2021.98 336.656 2025.43 336.656 Q2028.84 336.656 2030.83 333.971 Q2032.82 331.286 2032.82 326.656 Q2032.82 322.05 2030.83 319.364 Q2028.84 316.656 2025.43 316.656 M2025.43 313.045 Q2030.99 313.045 2034.16 316.656 Q2037.33 320.267 2037.33 326.656 Q2037.33 333.022 2034.16 336.656 Q2030.99 340.267 2025.43 340.267 Q2019.86 340.267 2016.68 336.656 Q2013.54 333.022 2013.54 326.656 Q2013.54 320.267 2016.68 316.656 Q2019.86 313.045 2025.43 313.045 Z" fill="#000000" fill-rule="nonzero" fill-opacity="1" /><path clip-path="url(#clip640)" d="M2060.92 314.434 L2060.92 318.462 Q2059.11 317.536 2057.17 317.073 Q2055.23 316.61 2053.14 316.61 Q2049.97 316.61 2048.37 317.582 Q2046.8 318.554 2046.8 320.499 Q2046.8 321.98 2047.93 322.837 Q2049.07 323.67 2052.49 324.434 L2053.95 324.758 Q2058.49 325.73 2060.39 327.512 Q2062.31 329.272 2062.31 332.443 Q2062.31 336.054 2059.44 338.161 Q2056.59 340.267 2051.59 340.267 Q2049.51 340.267 2047.24 339.85 Q2044.99 339.457 2042.49 338.647 L2042.49 334.249 Q2044.85 335.475 2047.15 336.1 Q2049.44 336.702 2051.68 336.702 Q2054.69 336.702 2056.31 335.684 Q2057.93 334.642 2057.93 332.767 Q2057.93 331.031 2056.75 330.105 Q2055.6 329.179 2051.64 328.323 L2050.16 327.975 Q2046.2 327.142 2044.44 325.429 Q2042.68 323.693 2042.68 320.684 Q2042.68 317.026 2045.27 315.036 Q2047.86 313.045 2052.63 313.045 Q2054.99 313.045 2057.08 313.392 Q2059.16 313.739 2060.92 314.434 Z" fill="#000000" fill-rule="nonzero" fill-opacity="1" /><path clip-path="url(#clip640)" d="M2085.62 314.434 L2085.62 318.462 Q2083.81 317.536 2081.87 317.073 Q2079.92 316.61 2077.84 316.61 Q2074.67 316.61 2073.07 317.582 Q2071.5 318.554 2071.5 320.499 Q2071.5 321.98 2072.63 322.837 Q2073.77 323.67 2077.19 324.434 L2078.65 324.758 Q2083.19 325.73 2085.09 327.512 Q2087.01 329.272 2087.01 332.443 Q2087.01 336.054 2084.14 338.161 Q2081.29 340.267 2076.29 340.267 Q2074.21 340.267 2071.94 339.85 Q2069.69 339.457 2067.19 338.647 L2067.19 334.249 Q2069.55 335.475 2071.85 336.1 Q2074.14 336.702 2076.38 336.702 Q2079.39 336.702 2081.01 335.684 Q2082.63 334.642 2082.63 332.767 Q2082.63 331.031 2081.45 330.105 Q2080.29 329.179 2076.34 328.323 L2074.85 327.975 Q2070.9 327.142 2069.14 325.429 Q2067.38 323.693 2067.38 320.684 Q2067.38 317.026 2069.97 315.036 Q2072.56 313.045 2077.33 313.045 Q2079.69 313.045 2081.78 313.392 Q2083.86 313.739 2085.62 314.434 Z" fill="#000000" fill-rule="nonzero" fill-opacity="1" /><path clip-path="url(#clip640)" d="M2093.79 313.67 L2098.05 313.67 L2098.05 339.596 L2093.79 339.596 L2093.79 313.67 M2093.79 303.577 L2098.05 303.577 L2098.05 308.971 L2093.79 308.971 L2093.79 303.577 Z" fill="#000000" fill-rule="nonzero" fill-opacity="1" /><path clip-path="url(#clip640)" d="M2128.51 323.948 L2128.51 339.596 L2124.25 339.596 L2124.25 324.087 Q2124.25 320.406 2122.82 318.577 Q2121.38 316.749 2118.51 316.749 Q2115.06 316.749 2113.07 318.948 Q2111.08 321.147 2111.08 324.943 L2111.08 339.596 L2106.8 339.596 L2106.8 313.67 L2111.08 313.67 L2111.08 317.698 Q2112.61 315.36 2114.67 314.202 Q2116.75 313.045 2119.46 313.045 Q2123.93 313.045 2126.22 315.823 Q2128.51 318.577 2128.51 323.948 Z" fill="#000000" fill-rule="nonzero" fill-opacity="1" /><path clip-path="url(#clip640)" d="M2154.07 326.332 Q2154.07 321.702 2152.15 319.156 Q2150.25 316.61 2146.8 316.61 Q2143.37 316.61 2141.45 319.156 Q2139.55 321.702 2139.55 326.332 Q2139.55 330.938 2141.45 333.485 Q2143.37 336.031 2146.8 336.031 Q2150.25 336.031 2152.15 333.485 Q2154.07 330.938 2154.07 326.332 M2158.33 336.378 Q2158.33 342.998 2155.39 346.216 Q2152.45 349.457 2146.38 349.457 Q2144.14 349.457 2142.15 349.11 Q2140.16 348.785 2138.28 348.091 L2138.28 343.948 Q2140.16 344.966 2141.98 345.452 Q2143.81 345.938 2145.71 345.938 Q2149.9 345.938 2151.98 343.739 Q2154.07 341.563 2154.07 337.142 L2154.07 335.036 Q2152.75 337.327 2150.69 338.461 Q2148.63 339.596 2145.76 339.596 Q2140.99 339.596 2138.07 335.961 Q2135.16 332.327 2135.16 326.332 Q2135.16 320.313 2138.07 316.679 Q2140.99 313.045 2145.76 313.045 Q2148.63 313.045 2150.69 314.179 Q2152.75 315.313 2154.07 317.605 L2154.07 313.67 L2158.33 313.67 L2158.33 336.378 Z" fill="#000000" fill-rule="nonzero" fill-opacity="1" /><path clip-path="url(#clip640)" d="M2193.91 309.642 L2184.41 335.707 L2203.42 335.707 L2193.91 309.642 M2178.07 339.596 L2191.27 305.036 L2196.57 305.036 L2209.74 339.596 L2178.07 339.596 Z" fill="#000000" fill-rule="nonzero" fill-opacity="1" /><path clip-path="url(#clip640)" d="M2238.35 334.665 L2238.35 325.383 L2230.71 325.383 L2230.71 321.54 L2242.98 321.54 L2242.98 336.378 Q2240.27 338.299 2237.01 339.295 Q2233.74 340.267 2230.04 340.267 Q2221.94 340.267 2217.35 335.545 Q2212.79 330.799 2212.79 322.35 Q2212.79 313.878 2217.35 309.156 Q2221.94 304.411 2230.04 304.411 Q2233.42 304.411 2236.45 305.244 Q2239.51 306.077 2242.08 307.698 L2242.08 312.675 Q2239.48 310.476 2236.57 309.364 Q2233.65 308.253 2230.43 308.253 Q2224.09 308.253 2220.9 311.795 Q2217.72 315.337 2217.72 322.35 Q2217.72 329.341 2220.9 332.883 Q2224.09 336.424 2230.43 336.424 Q2232.91 336.424 2234.85 336.008 Q2236.8 335.568 2238.35 334.665 Z" fill="#000000" fill-rule="nonzero" fill-opacity="1" /><path clip-path="url(#clip640)" d="M2250.48 337.049 L2255.2 337.049 L2255.2 322.906 L2250.04 323.855 L2250.04 321.17 L2255.36 320.267 L2258.53 320.267 L2258.53 337.049 L2263.28 337.049 L2263.28 339.596 L2250.48 339.596 L2250.48 337.049 Z" fill="#000000" fill-rule="nonzero" fill-opacity="1" /><path clip-path="url(#clip640)" d="M1747.86 350.525 L1724.23 374.156 L1747.86 397.786 L1771.49 374.156 L1747.86 350.525 Z" fill="#0000ff" fill-rule="evenodd" fill-opacity="1" stroke="#000000" stroke-opacity="1" stroke-width="3.15077"/>
<path clip-path="url(#clip640)" d="M1837.87 356.876 L1865.02 356.876 L1865.02 360.441 L1843.17 387.501 L1865.55 387.501 L1865.55 391.436 L1837.33 391.436 L1837.33 387.871 L1859.18 360.811 L1837.87 360.811 L1837.87 356.876 Z" fill="#000000" fill-rule="nonzero" fill-opacity="1" /><path clip-path="url(#clip640)" d="M1894.32 377.408 L1894.32 379.491 L1874.74 379.491 Q1875.02 383.889 1877.38 386.204 Q1879.76 388.496 1884 388.496 Q1886.45 388.496 1888.74 387.894 Q1891.06 387.292 1893.33 386.089 L1893.33 390.116 Q1891.04 391.088 1888.63 391.598 Q1886.22 392.107 1883.74 392.107 Q1877.54 392.107 1873.91 388.496 Q1870.3 384.885 1870.3 378.727 Q1870.3 372.362 1873.72 368.635 Q1877.17 364.885 1883 364.885 Q1888.24 364.885 1891.27 368.265 Q1894.32 371.621 1894.32 377.408 M1890.06 376.158 Q1890.02 372.663 1888.1 370.579 Q1886.2 368.496 1883.05 368.496 Q1879.49 368.496 1877.33 370.51 Q1875.2 372.524 1874.88 376.181 L1890.06 376.158 Z" fill="#000000" fill-rule="nonzero" fill-opacity="1" /><path clip-path="url(#clip640)" d="M1916.34 369.491 Q1915.62 369.075 1914.76 368.89 Q1913.93 368.681 1912.91 368.681 Q1909.3 368.681 1907.36 371.042 Q1905.43 373.38 1905.43 377.778 L1905.43 391.436 L1901.15 391.436 L1901.15 365.51 L1905.43 365.51 L1905.43 369.538 Q1906.78 367.177 1908.93 366.042 Q1911.08 364.885 1914.16 364.885 Q1914.6 364.885 1915.13 364.954 Q1915.67 365.001 1916.31 365.116 L1916.34 369.491 Z" fill="#000000" fill-rule="nonzero" fill-opacity="1" /><path clip-path="url(#clip640)" d="M1929.81 368.496 Q1926.38 368.496 1924.39 371.181 Q1922.4 373.843 1922.4 378.496 Q1922.4 383.149 1924.37 385.834 Q1926.36 388.496 1929.81 388.496 Q1933.21 388.496 1935.2 385.811 Q1937.19 383.126 1937.19 378.496 Q1937.19 373.89 1935.2 371.204 Q1933.21 368.496 1929.81 368.496 M1929.81 364.885 Q1935.36 364.885 1938.54 368.496 Q1941.71 372.107 1941.71 378.496 Q1941.71 384.862 1938.54 388.496 Q1935.36 392.107 1929.81 392.107 Q1924.23 392.107 1921.06 388.496 Q1917.91 384.862 1917.91 378.496 Q1917.91 372.107 1921.06 368.496 Q1924.23 364.885 1929.81 364.885 Z" fill="#000000" fill-rule="nonzero" fill-opacity="1" /><path clip-path="url(#clip640)" d="M1989.9 359.538 L1989.9 364.468 Q1987.54 362.269 1984.86 361.181 Q1982.19 360.093 1979.18 360.093 Q1973.26 360.093 1970.11 363.728 Q1966.96 367.339 1966.96 374.19 Q1966.96 381.019 1970.11 384.653 Q1973.26 388.264 1979.18 388.264 Q1982.19 388.264 1984.86 387.176 Q1987.54 386.089 1989.9 383.889 L1989.9 388.774 Q1987.45 390.44 1984.69 391.274 Q1981.96 392.107 1978.91 392.107 Q1971.06 392.107 1966.55 387.315 Q1962.03 382.501 1962.03 374.19 Q1962.03 365.857 1966.55 361.066 Q1971.06 356.251 1978.91 356.251 Q1982.01 356.251 1984.74 357.084 Q1987.49 357.894 1989.9 359.538 Z" fill="#000000" fill-rule="nonzero" fill-opacity="1" /><path clip-path="url(#clip640)" d="M2011.96 369.491 Q2011.24 369.075 2010.39 368.89 Q2009.55 368.681 2008.54 368.681 Q2004.92 368.681 2002.98 371.042 Q2001.06 373.38 2001.06 377.778 L2001.06 391.436 L1996.78 391.436 L1996.78 365.51 L2001.06 365.51 L2001.06 369.538 Q2002.4 367.177 2004.55 366.042 Q2006.71 364.885 2009.79 364.885 Q2010.23 364.885 2010.76 364.954 Q2011.29 365.001 2011.94 365.116 L2011.96 369.491 Z" fill="#000000" fill-rule="nonzero" fill-opacity="1" /><path clip-path="url(#clip640)" d="M2025.43 368.496 Q2022.01 368.496 2020.02 371.181 Q2018.03 373.843 2018.03 378.496 Q2018.03 383.149 2019.99 385.834 Q2021.98 388.496 2025.43 388.496 Q2028.84 388.496 2030.83 385.811 Q2032.82 383.126 2032.82 378.496 Q2032.82 373.89 2030.83 371.204 Q2028.84 368.496 2025.43 368.496 M2025.43 364.885 Q2030.99 364.885 2034.16 368.496 Q2037.33 372.107 2037.33 378.496 Q2037.33 384.862 2034.16 388.496 Q2030.99 392.107 2025.43 392.107 Q2019.86 392.107 2016.68 388.496 Q2013.54 384.862 2013.54 378.496 Q2013.54 372.107 2016.68 368.496 Q2019.86 364.885 2025.43 364.885 Z" fill="#000000" fill-rule="nonzero" fill-opacity="1" /><path clip-path="url(#clip640)" d="M2060.92 366.274 L2060.92 370.302 Q2059.11 369.376 2057.17 368.913 Q2055.23 368.45 2053.14 368.45 Q2049.97 368.45 2048.37 369.422 Q2046.8 370.394 2046.8 372.339 Q2046.8 373.82 2047.93 374.677 Q2049.07 375.51 2052.49 376.274 L2053.95 376.598 Q2058.49 377.57 2060.39 379.352 Q2062.31 381.112 2062.31 384.283 Q2062.31 387.894 2059.44 390.001 Q2056.59 392.107 2051.59 392.107 Q2049.51 392.107 2047.24 391.69 Q2044.99 391.297 2042.49 390.487 L2042.49 386.089 Q2044.85 387.315 2047.15 387.94 Q2049.44 388.542 2051.68 388.542 Q2054.69 388.542 2056.31 387.524 Q2057.93 386.482 2057.93 384.607 Q2057.93 382.871 2056.75 381.945 Q2055.6 381.019 2051.64 380.163 L2050.16 379.815 Q2046.2 378.982 2044.44 377.269 Q2042.68 375.533 2042.68 372.524 Q2042.68 368.866 2045.27 366.876 Q2047.86 364.885 2052.63 364.885 Q2054.99 364.885 2057.08 365.232 Q2059.16 365.579 2060.92 366.274 Z" fill="#000000" fill-rule="nonzero" fill-opacity="1" /><path clip-path="url(#clip640)" d="M2085.62 366.274 L2085.62 370.302 Q2083.81 369.376 2081.87 368.913 Q2079.92 368.45 2077.84 368.45 Q2074.67 368.45 2073.07 369.422 Q2071.5 370.394 2071.5 372.339 Q2071.5 373.82 2072.63 374.677 Q2073.77 375.51 2077.19 376.274 L2078.65 376.598 Q2083.19 377.57 2085.09 379.352 Q2087.01 381.112 2087.01 384.283 Q2087.01 387.894 2084.14 390.001 Q2081.29 392.107 2076.29 392.107 Q2074.21 392.107 2071.94 391.69 Q2069.69 391.297 2067.19 390.487 L2067.19 386.089 Q2069.55 387.315 2071.85 387.94 Q2074.14 388.542 2076.38 388.542 Q2079.39 388.542 2081.01 387.524 Q2082.63 386.482 2082.63 384.607 Q2082.63 382.871 2081.45 381.945 Q2080.29 381.019 2076.34 380.163 L2074.85 379.815 Q2070.9 378.982 2069.14 377.269 Q2067.38 375.533 2067.38 372.524 Q2067.38 368.866 2069.97 366.876 Q2072.56 364.885 2077.33 364.885 Q2079.69 364.885 2081.78 365.232 Q2083.86 365.579 2085.62 366.274 Z" fill="#000000" fill-rule="nonzero" fill-opacity="1" /><path clip-path="url(#clip640)" d="M2093.79 365.51 L2098.05 365.51 L2098.05 391.436 L2093.79 391.436 L2093.79 365.51 M2093.79 355.417 L2098.05 355.417 L2098.05 360.811 L2093.79 360.811 L2093.79 355.417 Z" fill="#000000" fill-rule="nonzero" fill-opacity="1" /><path clip-path="url(#clip640)" d="M2128.51 375.788 L2128.51 391.436 L2124.25 391.436 L2124.25 375.927 Q2124.25 372.246 2122.82 370.417 Q2121.38 368.589 2118.51 368.589 Q2115.06 368.589 2113.07 370.788 Q2111.08 372.987 2111.08 376.783 L2111.08 391.436 L2106.8 391.436 L2106.8 365.51 L2111.08 365.51 L2111.08 369.538 Q2112.61 367.2 2114.67 366.042 Q2116.75 364.885 2119.46 364.885 Q2123.93 364.885 2126.22 367.663 Q2128.51 370.417 2128.51 375.788 Z" fill="#000000" fill-rule="nonzero" fill-opacity="1" /><path clip-path="url(#clip640)" d="M2154.07 378.172 Q2154.07 373.542 2152.15 370.996 Q2150.25 368.45 2146.8 368.45 Q2143.37 368.45 2141.45 370.996 Q2139.55 373.542 2139.55 378.172 Q2139.55 382.778 2141.45 385.325 Q2143.37 387.871 2146.8 387.871 Q2150.25 387.871 2152.15 385.325 Q2154.07 382.778 2154.07 378.172 M2158.33 388.218 Q2158.33 394.838 2155.39 398.056 Q2152.45 401.297 2146.38 401.297 Q2144.14 401.297 2142.15 400.95 Q2140.16 400.625 2138.28 399.931 L2138.28 395.788 Q2140.16 396.806 2141.98 397.292 Q2143.81 397.778 2145.71 397.778 Q2149.9 397.778 2151.98 395.579 Q2154.07 393.403 2154.07 388.982 L2154.07 386.876 Q2152.75 389.167 2150.69 390.301 Q2148.63 391.436 2145.76 391.436 Q2140.99 391.436 2138.07 387.801 Q2135.16 384.167 2135.16 378.172 Q2135.16 372.153 2138.07 368.519 Q2140.99 364.885 2145.76 364.885 Q2148.63 364.885 2150.69 366.019 Q2152.75 367.153 2154.07 369.445 L2154.07 365.51 L2158.33 365.51 L2158.33 388.218 Z" fill="#000000" fill-rule="nonzero" fill-opacity="1" /><path clip-path="url(#clip640)" d="M2193.91 361.482 L2184.41 387.547 L2203.42 387.547 L2193.91 361.482 M2178.07 391.436 L2191.27 356.876 L2196.57 356.876 L2209.74 391.436 L2178.07 391.436 Z" fill="#000000" fill-rule="nonzero" fill-opacity="1" /><path clip-path="url(#clip640)" d="M2238.35 386.505 L2238.35 377.223 L2230.71 377.223 L2230.71 373.38 L2242.98 373.38 L2242.98 388.218 Q2240.27 390.139 2237.01 391.135 Q2233.74 392.107 2230.04 392.107 Q2221.94 392.107 2217.35 387.385 Q2212.79 382.639 2212.79 374.19 Q2212.79 365.718 2217.35 360.996 Q2221.94 356.251 2230.04 356.251 Q2233.42 356.251 2236.45 357.084 Q2239.51 357.917 2242.08 359.538 L2242.08 364.515 Q2239.48 362.316 2236.57 361.204 Q2233.65 360.093 2230.43 360.093 Q2224.09 360.093 2220.9 363.635 Q2217.72 367.177 2217.72 374.19 Q2217.72 381.181 2220.9 384.723 Q2224.09 388.264 2230.43 388.264 Q2232.91 388.264 2234.85 387.848 Q2236.8 387.408 2238.35 386.505 Z" fill="#000000" fill-rule="nonzero" fill-opacity="1" /><path clip-path="url(#clip640)" d="M2253.07 388.797 L2262.89 388.797 L2262.89 391.436 L2249.04 391.436 L2249.04 388.889 Q2249.83 388.172 2251.29 386.876 Q2259.25 379.815 2259.25 377.639 Q2259.25 376.112 2258.05 375.186 Q2256.84 374.237 2254.88 374.237 Q2253.67 374.237 2252.26 374.653 Q2250.85 375.047 2249.18 375.857 L2249.18 373.01 Q2250.96 372.362 2252.49 372.038 Q2254.04 371.714 2255.36 371.714 Q2258.72 371.714 2260.73 373.241 Q2262.75 374.769 2262.75 377.269 Q2262.75 380.487 2255.09 387.061 Q2253.79 388.172 2253.07 388.797 Z" fill="#000000" fill-rule="nonzero" fill-opacity="1" /></svg>
