<?xml version="1.0" encoding="utf-8"?>
<svg xmlns="http://www.w3.org/2000/svg" xmlns:xlink="http://www.w3.org/1999/xlink" width="600" height="400" viewBox="0 0 2400 1600">
<defs>
  <clipPath id="clip950">
    <rect x="0" y="0" width="2400" height="1600"/>
  </clipPath>
</defs>
<path clip-path="url(#clip950)" d="M0 1600 L2400 1600 L2400 8.88178e-14 L0 8.88178e-14  Z" fill="#ffffff" fill-rule="evenodd" fill-opacity="1"/>
<defs>
  <clipPath id="clip951">
    <rect x="480" y="0" width="1681" height="1600"/>
  </clipPath>
</defs>
<path clip-path="url(#clip950)" d="M302.458 1423.18 L2352.76 1423.18 L2352.76 123.472 L302.458 123.472  Z" fill="#ffffff" fill-rule="evenodd" fill-opacity="1"/>
<defs>
  <clipPath id="clip952">
    <rect x="302" y="123" width="2051" height="1301"/>
  </clipPath>
</defs>
<polyline clip-path="url(#clip952)" style="stroke:#000000; stroke-linecap:round; stroke-linejoin:round; stroke-width:2; stroke-opacity:0.1; fill:none" points="360.486,1423.18 360.486,123.472 "/>
<polyline clip-path="url(#clip952)" style="stroke:#000000; stroke-linecap:round; stroke-linejoin:round; stroke-width:2; stroke-opacity:0.1; fill:none" points="747.334,1423.18 747.334,123.472 "/>
<polyline clip-path="url(#clip952)" style="stroke:#000000; stroke-linecap:round; stroke-linejoin:round; stroke-width:2; stroke-opacity:0.1; fill:none" points="1134.18,1423.18 1134.18,123.472 "/>
<polyline clip-path="url(#clip952)" style="stroke:#000000; stroke-linecap:round; stroke-linejoin:round; stroke-width:2; stroke-opacity:0.1; fill:none" points="1521.03,1423.18 1521.03,123.472 "/>
<polyline clip-path="url(#clip952)" style="stroke:#000000; stroke-linecap:round; stroke-linejoin:round; stroke-width:2; stroke-opacity:0.1; fill:none" points="1907.88,1423.18 1907.88,123.472 "/>
<polyline clip-path="url(#clip952)" style="stroke:#000000; stroke-linecap:round; stroke-linejoin:round; stroke-width:2; stroke-opacity:0.1; fill:none" points="2294.73,1423.18 2294.73,123.472 "/>
<polyline clip-path="url(#clip952)" style="stroke:#000000; stroke-linecap:round; stroke-linejoin:round; stroke-width:2; stroke-opacity:0.1; fill:none" points="302.458,1264.52 2352.76,1264.52 "/>
<polyline clip-path="url(#clip952)" style="stroke:#000000; stroke-linecap:round; stroke-linejoin:round; stroke-width:2; stroke-opacity:0.1; fill:none" points="302.458,988.423 2352.76,988.423 "/>
<polyline clip-path="url(#clip952)" style="stroke:#000000; stroke-linecap:round; stroke-linejoin:round; stroke-width:2; stroke-opacity:0.1; fill:none" points="302.458,712.33 2352.76,712.33 "/>
<polyline clip-path="url(#clip952)" style="stroke:#000000; stroke-linecap:round; stroke-linejoin:round; stroke-width:2; stroke-opacity:0.1; fill:none" points="302.458,436.238 2352.76,436.238 "/>
<polyline clip-path="url(#clip952)" style="stroke:#000000; stroke-linecap:round; stroke-linejoin:round; stroke-width:2; stroke-opacity:0.1; fill:none" points="302.458,160.145 2352.76,160.145 "/>
<polyline clip-path="url(#clip950)" style="stroke:#000000; stroke-linecap:round; stroke-linejoin:round; stroke-width:4; stroke-opacity:1; fill:none" points="302.458,1423.18 2352.76,1423.18 "/>
<polyline clip-path="url(#clip950)" style="stroke:#000000; stroke-linecap:round; stroke-linejoin:round; stroke-width:4; stroke-opacity:1; fill:none" points="360.486,1423.18 360.486,1404.28 "/>
<polyline clip-path="url(#clip950)" style="stroke:#000000; stroke-linecap:round; stroke-linejoin:round; stroke-width:4; stroke-opacity:1; fill:none" points="747.334,1423.18 747.334,1404.28 "/>
<polyline clip-path="url(#clip950)" style="stroke:#000000; stroke-linecap:round; stroke-linejoin:round; stroke-width:4; stroke-opacity:1; fill:none" points="1134.18,1423.18 1134.18,1404.28 "/>
<polyline clip-path="url(#clip950)" style="stroke:#000000; stroke-linecap:round; stroke-linejoin:round; stroke-width:4; stroke-opacity:1; fill:none" points="1521.03,1423.18 1521.03,1404.28 "/>
<polyline clip-path="url(#clip950)" style="stroke:#000000; stroke-linecap:round; stroke-linejoin:round; stroke-width:4; stroke-opacity:1; fill:none" points="1907.88,1423.18 1907.88,1404.28 "/>
<polyline clip-path="url(#clip950)" style="stroke:#000000; stroke-linecap:round; stroke-linejoin:round; stroke-width:4; stroke-opacity:1; fill:none" points="2294.73,1423.18 2294.73,1404.28 "/>
<path clip-path="url(#clip950)" d="M360.486 1454.1 Q356.875 1454.1 355.046 1457.66 Q353.24 1461.2 353.24 1468.33 Q353.24 1475.44 355.046 1479.01 Q356.875 1482.55 360.486 1482.55 Q364.12 1482.55 365.925 1479.01 Q367.754 1475.44 367.754 1468.33 Q367.754 1461.2 365.925 1457.66 Q364.12 1454.1 360.486 1454.1 M360.486 1450.39 Q366.296 1450.39 369.351 1455 Q372.43 1459.58 372.43 1468.33 Q372.43 1477.06 369.351 1481.67 Q366.296 1486.25 360.486 1486.25 Q354.676 1486.25 351.597 1481.67 Q348.541 1477.06 348.541 1468.33 Q348.541 1459.58 351.597 1455 Q354.676 1450.39 360.486 1450.39 Z" fill="#000000" fill-rule="nonzero" fill-opacity="1" /><path clip-path="url(#clip950)" d="M737.716 1481.64 L745.355 1481.64 L745.355 1455.28 L737.045 1456.95 L737.045 1452.69 L745.309 1451.02 L749.985 1451.02 L749.985 1481.64 L757.624 1481.64 L757.624 1485.58 L737.716 1485.58 L737.716 1481.64 Z" fill="#000000" fill-rule="nonzero" fill-opacity="1" /><path clip-path="url(#clip950)" d="M1128.84 1481.64 L1145.16 1481.64 L1145.16 1485.58 L1123.21 1485.58 L1123.21 1481.64 Q1125.87 1478.89 1130.46 1474.26 Q1135.06 1469.61 1136.24 1468.27 Q1138.49 1465.74 1139.37 1464.01 Q1140.27 1462.25 1140.27 1460.56 Q1140.27 1457.8 1138.33 1456.07 Q1136.41 1454.33 1133.3 1454.33 Q1131.1 1454.33 1128.65 1455.09 Q1126.22 1455.86 1123.44 1457.41 L1123.44 1452.69 Q1126.27 1451.55 1128.72 1450.97 Q1131.17 1450.39 1133.21 1450.39 Q1138.58 1450.39 1141.78 1453.08 Q1144.97 1455.77 1144.97 1460.26 Q1144.97 1462.39 1144.16 1464.31 Q1143.37 1466.2 1141.27 1468.8 Q1140.69 1469.47 1137.59 1472.69 Q1134.48 1475.88 1128.84 1481.64 Z" fill="#000000" fill-rule="nonzero" fill-opacity="1" /><path clip-path="url(#clip950)" d="M1525.28 1466.95 Q1528.64 1467.66 1530.51 1469.93 Q1532.41 1472.2 1532.41 1475.53 Q1532.41 1480.65 1528.89 1483.45 Q1525.37 1486.25 1518.89 1486.25 Q1516.71 1486.25 1514.4 1485.81 Q1512.11 1485.39 1509.65 1484.54 L1509.65 1480.02 Q1511.6 1481.16 1513.91 1481.74 Q1516.23 1482.32 1518.75 1482.32 Q1523.15 1482.32 1525.44 1480.58 Q1527.76 1478.84 1527.76 1475.53 Q1527.76 1472.48 1525.6 1470.77 Q1523.47 1469.03 1519.65 1469.03 L1515.63 1469.03 L1515.63 1465.19 L1519.84 1465.19 Q1523.29 1465.19 1525.12 1463.82 Q1526.95 1462.43 1526.95 1459.84 Q1526.95 1457.18 1525.05 1455.77 Q1523.17 1454.33 1519.65 1454.33 Q1517.73 1454.33 1515.53 1454.75 Q1513.33 1455.16 1510.7 1456.04 L1510.7 1451.88 Q1513.36 1451.14 1515.67 1450.77 Q1518.01 1450.39 1520.07 1450.39 Q1525.39 1450.39 1528.5 1452.83 Q1531.6 1455.23 1531.6 1459.35 Q1531.6 1462.22 1529.96 1464.21 Q1528.31 1466.18 1525.28 1466.95 Z" fill="#000000" fill-rule="nonzero" fill-opacity="1" /><path clip-path="url(#clip950)" d="M1910.89 1455.09 L1899.08 1473.54 L1910.89 1473.54 L1910.89 1455.09 M1909.66 1451.02 L1915.54 1451.02 L1915.54 1473.54 L1920.47 1473.54 L1920.47 1477.43 L1915.54 1477.43 L1915.54 1485.58 L1910.89 1485.58 L1910.89 1477.43 L1895.29 1477.43 L1895.29 1472.92 L1909.66 1451.02 Z" fill="#000000" fill-rule="nonzero" fill-opacity="1" /><path clip-path="url(#clip950)" d="M2285.01 1451.02 L2303.36 1451.02 L2303.36 1454.96 L2289.29 1454.96 L2289.29 1463.43 Q2290.31 1463.08 2291.33 1462.92 Q2292.34 1462.73 2293.36 1462.73 Q2299.15 1462.73 2302.53 1465.9 Q2305.91 1469.08 2305.91 1474.49 Q2305.91 1480.07 2302.44 1483.17 Q2298.96 1486.25 2292.65 1486.25 Q2290.47 1486.25 2288.2 1485.88 Q2285.96 1485.51 2283.55 1484.77 L2283.55 1480.07 Q2285.63 1481.2 2287.85 1481.76 Q2290.08 1482.32 2292.55 1482.32 Q2296.56 1482.32 2298.9 1480.21 Q2301.23 1478.1 2301.23 1474.49 Q2301.23 1470.88 2298.9 1468.77 Q2296.56 1466.67 2292.55 1466.67 Q2290.68 1466.67 2288.8 1467.08 Q2286.95 1467.5 2285.01 1468.38 L2285.01 1451.02 Z" fill="#000000" fill-rule="nonzero" fill-opacity="1" /><path clip-path="url(#clip950)" d="M1249.48 1520.52 L1289.68 1520.52 L1289.68 1525.93 L1272.81 1525.93 L1272.81 1568.04 L1266.35 1568.04 L1266.35 1525.93 L1249.48 1525.93 L1249.48 1520.52 Z" fill="#000000" fill-rule="nonzero" fill-opacity="1" /><path clip-path="url(#clip950)" d="M1293.63 1532.4 L1299.49 1532.4 L1299.49 1568.04 L1293.63 1568.04 L1293.63 1532.4 M1293.63 1518.52 L1299.49 1518.52 L1299.49 1525.93 L1293.63 1525.93 L1293.63 1518.52 Z" fill="#000000" fill-rule="nonzero" fill-opacity="1" /><path clip-path="url(#clip950)" d="M1339.5 1539.24 Q1341.69 1535.29 1344.75 1533.41 Q1347.8 1531.54 1351.94 1531.54 Q1357.51 1531.54 1360.53 1535.45 Q1363.56 1539.33 1363.56 1546.53 L1363.56 1568.04 L1357.67 1568.04 L1357.67 1546.72 Q1357.67 1541.59 1355.85 1539.11 Q1354.04 1536.63 1350.32 1536.63 Q1345.77 1536.63 1343.12 1539.65 Q1340.48 1542.68 1340.48 1547.9 L1340.48 1568.04 L1334.59 1568.04 L1334.59 1546.72 Q1334.59 1541.56 1332.78 1539.11 Q1330.97 1536.63 1327.18 1536.63 Q1322.69 1536.63 1320.05 1539.68 Q1317.41 1542.71 1317.41 1547.9 L1317.41 1568.04 L1311.52 1568.04 L1311.52 1532.4 L1317.41 1532.4 L1317.41 1537.93 Q1319.41 1534.66 1322.21 1533.1 Q1325.01 1531.54 1328.86 1531.54 Q1332.75 1531.54 1335.45 1533.51 Q1338.19 1535.48 1339.5 1539.24 Z" fill="#000000" fill-rule="nonzero" fill-opacity="1" /><path clip-path="url(#clip950)" d="M1405.73 1548.76 L1405.73 1551.62 L1378.8 1551.62 Q1379.19 1557.67 1382.43 1560.85 Q1385.71 1564 1391.53 1564 Q1394.91 1564 1398.06 1563.17 Q1401.24 1562.35 1404.36 1560.69 L1404.36 1566.23 Q1401.21 1567.57 1397.9 1568.27 Q1394.59 1568.97 1391.18 1568.97 Q1382.65 1568.97 1377.66 1564 Q1372.69 1559.04 1372.69 1550.57 Q1372.69 1541.82 1377.4 1536.69 Q1382.15 1531.54 1390.17 1531.54 Q1397.36 1531.54 1401.53 1536.18 Q1405.73 1540.8 1405.73 1548.76 M1399.87 1547.04 Q1399.81 1542.23 1397.17 1539.37 Q1394.56 1536.5 1390.23 1536.5 Q1385.33 1536.5 1382.37 1539.27 Q1379.44 1542.04 1378.99 1547.07 L1399.87 1547.04 Z" fill="#000000" fill-rule="nonzero" fill-opacity="1" /><polyline clip-path="url(#clip950)" style="stroke:#000000; stroke-linecap:round; stroke-linejoin:round; stroke-width:4; stroke-opacity:1; fill:none" points="302.458,1423.18 302.458,123.472 "/>
<polyline clip-path="url(#clip950)" style="stroke:#000000; stroke-linecap:round; stroke-linejoin:round; stroke-width:4; stroke-opacity:1; fill:none" points="302.458,1264.52 321.356,1264.52 "/>
<polyline clip-path="url(#clip950)" style="stroke:#000000; stroke-linecap:round; stroke-linejoin:round; stroke-width:4; stroke-opacity:1; fill:none" points="302.458,988.423 321.356,988.423 "/>
<polyline clip-path="url(#clip950)" style="stroke:#000000; stroke-linecap:round; stroke-linejoin:round; stroke-width:4; stroke-opacity:1; fill:none" points="302.458,712.33 321.356,712.33 "/>
<polyline clip-path="url(#clip950)" style="stroke:#000000; stroke-linecap:round; stroke-linejoin:round; stroke-width:4; stroke-opacity:1; fill:none" points="302.458,436.238 321.356,436.238 "/>
<polyline clip-path="url(#clip950)" style="stroke:#000000; stroke-linecap:round; stroke-linejoin:round; stroke-width:4; stroke-opacity:1; fill:none" points="302.458,160.145 321.356,160.145 "/>
<path clip-path="url(#clip950)" d="M114.26 1264.97 L143.936 1264.97 L143.936 1268.9 L114.26 1268.9 L114.26 1264.97 Z" fill="#000000" fill-rule="nonzero" fill-opacity="1" /><path clip-path="url(#clip950)" d="M166.876 1251.31 L155.07 1269.76 L166.876 1269.76 L166.876 1251.31 M165.649 1247.24 L171.528 1247.24 L171.528 1269.76 L176.459 1269.76 L176.459 1273.65 L171.528 1273.65 L171.528 1281.8 L166.876 1281.8 L166.876 1273.65 L151.274 1273.65 L151.274 1269.13 L165.649 1247.24 Z" fill="#000000" fill-rule="nonzero" fill-opacity="1" /><path clip-path="url(#clip950)" d="M194.19 1250.31 Q190.579 1250.31 188.75 1253.88 Q186.945 1257.42 186.945 1264.55 Q186.945 1271.66 188.75 1275.22 Q190.579 1278.76 194.19 1278.76 Q197.825 1278.76 199.63 1275.22 Q201.459 1271.66 201.459 1264.55 Q201.459 1257.42 199.63 1253.88 Q197.825 1250.31 194.19 1250.31 M194.19 1246.61 Q200 1246.61 203.056 1251.22 Q206.135 1255.8 206.135 1264.55 Q206.135 1273.28 203.056 1277.88 Q200 1282.47 194.19 1282.47 Q188.38 1282.47 185.301 1277.88 Q182.246 1273.28 182.246 1264.55 Q182.246 1255.8 185.301 1251.22 Q188.38 1246.61 194.19 1246.61 Z" fill="#000000" fill-rule="nonzero" fill-opacity="1" /><path clip-path="url(#clip950)" d="M224.352 1250.31 Q220.741 1250.31 218.912 1253.88 Q217.107 1257.42 217.107 1264.55 Q217.107 1271.66 218.912 1275.22 Q220.741 1278.76 224.352 1278.76 Q227.986 1278.76 229.792 1275.22 Q231.621 1271.66 231.621 1264.55 Q231.621 1257.42 229.792 1253.88 Q227.986 1250.31 224.352 1250.31 M224.352 1246.61 Q230.162 1246.61 233.218 1251.22 Q236.297 1255.8 236.297 1264.55 Q236.297 1273.28 233.218 1277.88 Q230.162 1282.47 224.352 1282.47 Q218.542 1282.47 215.463 1277.88 Q212.408 1273.28 212.408 1264.55 Q212.408 1255.8 215.463 1251.22 Q218.542 1246.61 224.352 1246.61 Z" fill="#000000" fill-rule="nonzero" fill-opacity="1" /><path clip-path="url(#clip950)" d="M254.514 1250.31 Q250.903 1250.31 249.074 1253.88 Q247.269 1257.42 247.269 1264.55 Q247.269 1271.66 249.074 1275.22 Q250.903 1278.76 254.514 1278.76 Q258.148 1278.76 259.954 1275.22 Q261.783 1271.66 261.783 1264.55 Q261.783 1257.42 259.954 1253.88 Q258.148 1250.31 254.514 1250.31 M254.514 1246.61 Q260.324 1246.61 263.38 1251.22 Q266.458 1255.8 266.458 1264.55 Q266.458 1273.28 263.38 1277.88 Q260.324 1282.47 254.514 1282.47 Q248.704 1282.47 245.625 1277.88 Q242.57 1273.28 242.57 1264.55 Q242.57 1255.8 245.625 1251.22 Q248.704 1246.61 254.514 1246.61 Z" fill="#000000" fill-rule="nonzero" fill-opacity="1" /><path clip-path="url(#clip950)" d="M114.26 988.874 L143.936 988.874 L143.936 992.809 L114.26 992.809 L114.26 988.874 Z" fill="#000000" fill-rule="nonzero" fill-opacity="1" /><path clip-path="url(#clip950)" d="M168.195 987.069 Q171.552 987.786 173.427 990.055 Q175.325 992.323 175.325 995.657 Q175.325 1000.77 171.806 1003.57 Q168.288 1006.37 161.806 1006.37 Q159.63 1006.37 157.315 1005.93 Q155.024 1005.52 152.57 1004.66 L152.57 1000.15 Q154.515 1001.28 156.829 1001.86 Q159.144 1002.44 161.667 1002.44 Q166.065 1002.44 168.357 1000.7 Q170.672 998.967 170.672 995.657 Q170.672 992.601 168.519 990.888 Q166.39 989.152 162.57 989.152 L158.542 989.152 L158.542 985.309 L162.755 985.309 Q166.204 985.309 168.033 983.944 Q169.862 982.555 169.862 979.962 Q169.862 977.3 167.964 975.888 Q166.089 974.453 162.57 974.453 Q160.649 974.453 158.45 974.87 Q156.251 975.286 153.612 976.166 L153.612 971.999 Q156.274 971.259 158.589 970.888 Q160.927 970.518 162.987 970.518 Q168.311 970.518 171.413 972.948 Q174.514 975.356 174.514 979.476 Q174.514 982.347 172.871 984.337 Q171.227 986.305 168.195 987.069 Z" fill="#000000" fill-rule="nonzero" fill-opacity="1" /><path clip-path="url(#clip950)" d="M194.19 974.222 Q190.579 974.222 188.75 977.786 Q186.945 981.328 186.945 988.458 Q186.945 995.564 188.75 999.129 Q190.579 1002.67 194.19 1002.67 Q197.825 1002.67 199.63 999.129 Q201.459 995.564 201.459 988.458 Q201.459 981.328 199.63 977.786 Q197.825 974.222 194.19 974.222 M194.19 970.518 Q200 970.518 203.056 975.124 Q206.135 979.708 206.135 988.458 Q206.135 997.184 203.056 1001.79 Q200 1006.37 194.19 1006.37 Q188.38 1006.37 185.301 1001.79 Q182.246 997.184 182.246 988.458 Q182.246 979.708 185.301 975.124 Q188.38 970.518 194.19 970.518 Z" fill="#000000" fill-rule="nonzero" fill-opacity="1" /><path clip-path="url(#clip950)" d="M224.352 974.222 Q220.741 974.222 218.912 977.786 Q217.107 981.328 217.107 988.458 Q217.107 995.564 218.912 999.129 Q220.741 1002.67 224.352 1002.67 Q227.986 1002.67 229.792 999.129 Q231.621 995.564 231.621 988.458 Q231.621 981.328 229.792 977.786 Q227.986 974.222 224.352 974.222 M224.352 970.518 Q230.162 970.518 233.218 975.124 Q236.297 979.708 236.297 988.458 Q236.297 997.184 233.218 1001.79 Q230.162 1006.37 224.352 1006.37 Q218.542 1006.37 215.463 1001.79 Q212.408 997.184 212.408 988.458 Q212.408 979.708 215.463 975.124 Q218.542 970.518 224.352 970.518 Z" fill="#000000" fill-rule="nonzero" fill-opacity="1" /><path clip-path="url(#clip950)" d="M254.514 974.222 Q250.903 974.222 249.074 977.786 Q247.269 981.328 247.269 988.458 Q247.269 995.564 249.074 999.129 Q250.903 1002.67 254.514 1002.67 Q258.148 1002.67 259.954 999.129 Q261.783 995.564 261.783 988.458 Q261.783 981.328 259.954 977.786 Q258.148 974.222 254.514 974.222 M254.514 970.518 Q260.324 970.518 263.38 975.124 Q266.458 979.708 266.458 988.458 Q266.458 997.184 263.38 1001.79 Q260.324 1006.37 254.514 1006.37 Q248.704 1006.37 245.625 1001.79 Q242.57 997.184 242.57 988.458 Q242.57 979.708 245.625 975.124 Q248.704 970.518 254.514 970.518 Z" fill="#000000" fill-rule="nonzero" fill-opacity="1" /><path clip-path="url(#clip950)" d="M114.26 712.782 L143.936 712.782 L143.936 716.717 L114.26 716.717 L114.26 712.782 Z" fill="#000000" fill-rule="nonzero" fill-opacity="1" /><path clip-path="url(#clip950)" d="M158.056 725.675 L174.376 725.675 L174.376 729.61 L152.431 729.61 L152.431 725.675 Q155.093 722.921 159.677 718.291 Q164.283 713.638 165.464 712.296 Q167.709 709.773 168.589 708.036 Q169.491 706.277 169.491 704.587 Q169.491 701.833 167.547 700.097 Q165.626 698.361 162.524 698.361 Q160.325 698.361 157.871 699.124 Q155.44 699.888 152.663 701.439 L152.663 696.717 Q155.487 695.583 157.94 695.004 Q160.394 694.425 162.431 694.425 Q167.802 694.425 170.996 697.111 Q174.19 699.796 174.19 704.286 Q174.19 706.416 173.38 708.337 Q172.593 710.236 170.487 712.828 Q169.908 713.499 166.806 716.717 Q163.704 719.911 158.056 725.675 Z" fill="#000000" fill-rule="nonzero" fill-opacity="1" /><path clip-path="url(#clip950)" d="M194.19 698.129 Q190.579 698.129 188.75 701.694 Q186.945 705.236 186.945 712.365 Q186.945 719.472 188.75 723.036 Q190.579 726.578 194.19 726.578 Q197.825 726.578 199.63 723.036 Q201.459 719.472 201.459 712.365 Q201.459 705.236 199.63 701.694 Q197.825 698.129 194.19 698.129 M194.19 694.425 Q200 694.425 203.056 699.032 Q206.135 703.615 206.135 712.365 Q206.135 721.092 203.056 725.698 Q200 730.282 194.19 730.282 Q188.38 730.282 185.301 725.698 Q182.246 721.092 182.246 712.365 Q182.246 703.615 185.301 699.032 Q188.38 694.425 194.19 694.425 Z" fill="#000000" fill-rule="nonzero" fill-opacity="1" /><path clip-path="url(#clip950)" d="M224.352 698.129 Q220.741 698.129 218.912 701.694 Q217.107 705.236 217.107 712.365 Q217.107 719.472 218.912 723.036 Q220.741 726.578 224.352 726.578 Q227.986 726.578 229.792 723.036 Q231.621 719.472 231.621 712.365 Q231.621 705.236 229.792 701.694 Q227.986 698.129 224.352 698.129 M224.352 694.425 Q230.162 694.425 233.218 699.032 Q236.297 703.615 236.297 712.365 Q236.297 721.092 233.218 725.698 Q230.162 730.282 224.352 730.282 Q218.542 730.282 215.463 725.698 Q212.408 721.092 212.408 712.365 Q212.408 703.615 215.463 699.032 Q218.542 694.425 224.352 694.425 Z" fill="#000000" fill-rule="nonzero" fill-opacity="1" /><path clip-path="url(#clip950)" d="M254.514 698.129 Q250.903 698.129 249.074 701.694 Q247.269 705.236 247.269 712.365 Q247.269 719.472 249.074 723.036 Q250.903 726.578 254.514 726.578 Q258.148 726.578 259.954 723.036 Q261.783 719.472 261.783 712.365 Q261.783 705.236 259.954 701.694 Q258.148 698.129 254.514 698.129 M254.514 694.425 Q260.324 694.425 263.38 699.032 Q266.458 703.615 266.458 712.365 Q266.458 721.092 263.38 725.698 Q260.324 730.282 254.514 730.282 Q248.704 730.282 245.625 725.698 Q242.57 721.092 242.57 712.365 Q242.57 703.615 245.625 699.032 Q248.704 694.425 254.514 694.425 Z" fill="#000000" fill-rule="nonzero" fill-opacity="1" /><path clip-path="url(#clip950)" d="M114.26 436.689 L143.936 436.689 L143.936 440.624 L114.26 440.624 L114.26 436.689 Z" fill="#000000" fill-rule="nonzero" fill-opacity="1" /><path clip-path="url(#clip950)" d="M154.839 449.583 L162.477 449.583 L162.477 423.217 L154.167 424.884 L154.167 420.625 L162.431 418.958 L167.107 418.958 L167.107 449.583 L174.746 449.583 L174.746 453.518 L154.839 453.518 L154.839 449.583 Z" fill="#000000" fill-rule="nonzero" fill-opacity="1" /><path clip-path="url(#clip950)" d="M194.19 422.037 Q190.579 422.037 188.75 425.601 Q186.945 429.143 186.945 436.273 Q186.945 443.379 188.75 446.944 Q190.579 450.486 194.19 450.486 Q197.825 450.486 199.63 446.944 Q201.459 443.379 201.459 436.273 Q201.459 429.143 199.63 425.601 Q197.825 422.037 194.19 422.037 M194.19 418.333 Q200 418.333 203.056 422.939 Q206.135 427.523 206.135 436.273 Q206.135 444.999 203.056 449.606 Q200 454.189 194.19 454.189 Q188.38 454.189 185.301 449.606 Q182.246 444.999 182.246 436.273 Q182.246 427.523 185.301 422.939 Q188.38 418.333 194.19 418.333 Z" fill="#000000" fill-rule="nonzero" fill-opacity="1" /><path clip-path="url(#clip950)" d="M224.352 422.037 Q220.741 422.037 218.912 425.601 Q217.107 429.143 217.107 436.273 Q217.107 443.379 218.912 446.944 Q220.741 450.486 224.352 450.486 Q227.986 450.486 229.792 446.944 Q231.621 443.379 231.621 436.273 Q231.621 429.143 229.792 425.601 Q227.986 422.037 224.352 422.037 M224.352 418.333 Q230.162 418.333 233.218 422.939 Q236.297 427.523 236.297 436.273 Q236.297 444.999 233.218 449.606 Q230.162 454.189 224.352 454.189 Q218.542 454.189 215.463 449.606 Q212.408 444.999 212.408 436.273 Q212.408 427.523 215.463 422.939 Q218.542 418.333 224.352 418.333 Z" fill="#000000" fill-rule="nonzero" fill-opacity="1" /><path clip-path="url(#clip950)" d="M254.514 422.037 Q250.903 422.037 249.074 425.601 Q247.269 429.143 247.269 436.273 Q247.269 443.379 249.074 446.944 Q250.903 450.486 254.514 450.486 Q258.148 450.486 259.954 446.944 Q261.783 443.379 261.783 436.273 Q261.783 429.143 259.954 425.601 Q258.148 422.037 254.514 422.037 M254.514 418.333 Q260.324 418.333 263.38 422.939 Q266.458 427.523 266.458 436.273 Q266.458 444.999 263.38 449.606 Q260.324 454.189 254.514 454.189 Q248.704 454.189 245.625 449.606 Q242.57 444.999 242.57 436.273 Q242.57 427.523 245.625 422.939 Q248.704 418.333 254.514 418.333 Z" fill="#000000" fill-rule="nonzero" fill-opacity="1" /><path clip-path="url(#clip950)" d="M254.514 145.944 Q250.903 145.944 249.074 149.509 Q247.269 153.051 247.269 160.18 Q247.269 167.287 249.074 170.851 Q250.903 174.393 254.514 174.393 Q258.148 174.393 259.954 170.851 Q261.783 167.287 261.783 160.18 Q261.783 153.051 259.954 149.509 Q258.148 145.944 254.514 145.944 M254.514 142.24 Q260.324 142.24 263.38 146.847 Q266.458 151.43 266.458 160.18 Q266.458 168.907 263.38 173.513 Q260.324 178.097 254.514 178.097 Q248.704 178.097 245.625 173.513 Q242.57 168.907 242.57 160.18 Q242.57 151.43 245.625 146.847 Q248.704 142.24 254.514 142.24 Z" fill="#000000" fill-rule="nonzero" fill-opacity="1" /><path clip-path="url(#clip950)" d="M22.818 913.181 L58.657 926.23 L58.657 900.099 L22.818 913.181 M64.0042 934.951 L16.4842 916.809 L16.4842 909.52 L64.0042 891.41 L64.0042 934.951 Z" fill="#000000" fill-rule="nonzero" fill-opacity="1" /><path clip-path="url(#clip950)" d="M57.2247 852.07 L44.4614 852.07 L44.4614 862.573 L39.1779 862.573 L39.1779 845.704 L59.58 845.704 Q62.2218 849.428 63.5904 853.916 Q64.9272 858.404 64.9272 863.496 Q64.9272 874.636 58.4342 880.938 Q51.9093 887.208 40.2919 887.208 Q28.6427 887.208 22.1496 880.938 Q15.6248 874.636 15.6248 863.496 Q15.6248 858.849 16.7706 854.68 Q17.9164 850.478 20.1444 846.945 L26.9876 846.945 Q23.9639 850.51 22.4361 854.521 Q20.9083 858.531 20.9083 862.955 Q20.9083 871.676 25.7781 876.068 Q30.6479 880.429 40.2919 880.429 Q49.9041 880.429 54.7739 876.068 Q59.6436 871.676 59.6436 862.955 Q59.6436 859.549 59.0707 856.876 Q58.466 854.202 57.2247 852.07 Z" fill="#000000" fill-rule="nonzero" fill-opacity="1" /><path clip-path="url(#clip950)" d="M14.5426 799.425 Q21.8632 803.69 29.0246 805.759 Q36.186 807.828 43.5384 807.828 Q50.8908 807.828 58.1159 805.759 Q65.3091 803.659 72.5979 799.425 L72.5979 804.518 Q65.1182 809.292 57.8931 811.679 Q50.668 814.035 43.5384 814.035 Q36.4406 814.035 29.2474 811.679 Q22.0542 809.324 14.5426 804.518 L14.5426 799.425 Z" fill="#000000" fill-rule="nonzero" fill-opacity="1" /><path clip-path="url(#clip950)" d="M16.4842 787.808 L16.4842 781.379 L60.694 781.379 Q69.2877 781.379 73.1708 784.657 Q77.0539 787.903 77.0539 795.129 L77.0539 797.579 L71.643 797.579 L71.643 795.574 Q71.643 791.309 69.2559 789.559 Q66.8687 787.808 60.694 787.808 L16.4842 787.808 Z" fill="#000000" fill-rule="nonzero" fill-opacity="1" /><path clip-path="url(#clip950)" d="M16.4842 758.43 L16.4842 753.019 L70.0516 769.57 L70.0516 774.981 L16.4842 758.43 Z" fill="#000000" fill-rule="nonzero" fill-opacity="1" /><path clip-path="url(#clip950)" d="M35.1993 719.122 Q31.2526 716.926 29.3747 713.87 Q27.4968 710.815 27.4968 706.677 Q27.4968 701.107 31.4117 698.083 Q35.2948 695.06 42.4881 695.06 L64.0042 695.06 L64.0042 700.948 L42.679 700.948 Q37.5546 700.948 35.072 702.762 Q32.5894 704.576 32.5894 708.3 Q32.5894 712.852 35.6131 715.494 Q38.6368 718.135 43.8567 718.135 L64.0042 718.135 L64.0042 724.024 L42.679 724.024 Q37.5228 724.024 35.072 725.838 Q32.5894 727.652 32.5894 731.44 Q32.5894 735.927 35.6449 738.569 Q38.6686 741.211 43.8567 741.211 L64.0042 741.211 L64.0042 747.099 L28.3562 747.099 L28.3562 741.211 L33.8944 741.211 Q30.616 739.206 29.0564 736.405 Q27.4968 733.604 27.4968 729.753 Q27.4968 725.87 29.4702 723.164 Q31.4436 720.427 35.1993 719.122 Z" fill="#000000" fill-rule="nonzero" fill-opacity="1" /><path clip-path="url(#clip950)" d="M32.4621 669.565 Q32.4621 674.276 36.1542 677.013 Q39.8145 679.75 46.212 679.75 Q52.6095 679.75 56.3017 677.045 Q59.9619 674.307 59.9619 669.565 Q59.9619 664.886 56.2698 662.149 Q52.5777 659.412 46.212 659.412 Q39.8781 659.412 36.186 662.149 Q32.4621 664.886 32.4621 669.565 M27.4968 669.565 Q27.4968 661.926 32.4621 657.566 Q37.4273 653.205 46.212 653.205 Q54.9649 653.205 59.9619 657.566 Q64.9272 661.926 64.9272 669.565 Q64.9272 677.236 59.9619 681.596 Q54.9649 685.925 46.212 685.925 Q37.4273 685.925 32.4621 681.596 Q27.4968 677.236 27.4968 669.565 Z" fill="#000000" fill-rule="nonzero" fill-opacity="1" /><path clip-path="url(#clip950)" d="M14.479 643.497 L14.479 637.641 L64.0042 637.641 L64.0042 643.497 L14.479 643.497 Z" fill="#000000" fill-rule="nonzero" fill-opacity="1" /><path clip-path="url(#clip950)" d="M14.5426 626.31 L14.5426 621.217 Q22.0542 616.443 29.2474 614.088 Q36.4406 611.701 43.5384 611.701 Q50.668 611.701 57.8931 614.088 Q65.1182 616.443 72.5979 621.217 L72.5979 626.31 Q65.3091 622.077 58.1159 620.008 Q50.8908 617.907 43.5384 617.907 Q36.186 617.907 29.0246 620.008 Q21.8632 622.077 14.5426 626.31 Z" fill="#000000" fill-rule="nonzero" fill-opacity="1" /><path clip-path="url(#clip950)" d="M728.985 44.2197 Q731.618 45.1109 734.089 48.0275 Q736.6 50.9442 739.112 56.0483 L747.416 72.576 L738.626 72.576 L730.889 57.061 Q727.891 50.9847 725.055 48.9997 Q722.26 47.0148 717.399 47.0148 L708.487 47.0148 L708.487 72.576 L700.304 72.576 L700.304 12.096 L718.777 12.096 Q729.147 12.096 734.251 16.4305 Q739.355 20.7649 739.355 29.5149 Q739.355 35.2267 736.682 38.994 Q734.048 42.7613 728.985 44.2197 M708.487 18.8205 L708.487 40.2903 L718.777 40.2903 Q724.691 40.2903 727.689 37.5762 Q730.727 34.8216 730.727 29.5149 Q730.727 24.2082 727.689 21.5346 Q724.691 18.8205 718.777 18.8205 L708.487 18.8205 Z" fill="#000000" fill-rule="nonzero" fill-opacity="1" /><path clip-path="url(#clip950)" d="M792.706 48.0275 L792.706 51.6733 L758.435 51.6733 Q758.921 59.3701 763.053 63.421 Q767.225 67.4314 774.638 67.4314 Q778.932 67.4314 782.943 66.3781 Q786.994 65.3249 790.964 63.2184 L790.964 70.267 Q786.953 71.9684 782.74 72.8596 Q778.527 73.7508 774.193 73.7508 Q763.336 73.7508 756.977 67.4314 Q750.657 61.1119 750.657 50.3365 Q750.657 39.1965 756.652 32.6746 Q762.688 26.1121 772.897 26.1121 Q782.052 26.1121 787.358 32.0264 Q792.706 37.9003 792.706 48.0275 M785.252 45.84 Q785.171 39.7232 781.809 36.0774 Q778.487 32.4315 772.978 32.4315 Q766.739 32.4315 762.972 35.9558 Q759.245 39.4801 758.678 45.8805 L785.252 45.84 Z" fill="#000000" fill-rule="nonzero" fill-opacity="1" /><path clip-path="url(#clip950)" d="M825.558 49.7694 Q816.525 49.7694 813.041 51.8354 Q809.557 53.9013 809.557 58.8839 Q809.557 62.8538 812.15 65.2034 Q814.783 67.5124 819.279 67.5124 Q825.477 67.5124 829.204 63.1374 Q832.972 58.7219 832.972 51.4303 L832.972 49.7694 L825.558 49.7694 M840.425 46.6907 L840.425 72.576 L832.972 72.576 L832.972 65.6895 Q830.419 69.8214 826.612 71.8063 Q822.804 73.7508 817.295 73.7508 Q810.327 73.7508 806.195 69.8619 Q802.104 65.9325 802.104 59.3701 Q802.104 51.7138 807.208 47.825 Q812.352 43.9361 822.52 43.9361 L832.972 43.9361 L832.972 43.2069 Q832.972 38.0623 829.569 35.2672 Q826.206 32.4315 820.09 32.4315 Q816.201 32.4315 812.514 33.3632 Q808.828 34.295 805.425 36.1584 L805.425 29.2718 Q809.517 27.692 813.365 26.9223 Q817.213 26.1121 820.859 26.1121 Q830.703 26.1121 835.564 31.2163 Q840.425 36.3204 840.425 46.6907 Z" fill="#000000" fill-rule="nonzero" fill-opacity="1" /><path clip-path="url(#clip950)" d="M888.428 28.9478 L888.428 35.9153 Q885.269 34.1734 882.068 33.3227 Q878.909 32.4315 875.668 32.4315 Q868.417 32.4315 864.407 37.0496 Q860.396 41.6271 860.396 49.9314 Q860.396 58.2358 864.407 62.8538 Q868.417 67.4314 875.668 67.4314 Q878.909 67.4314 882.068 66.5807 Q885.269 65.6895 888.428 63.9476 L888.428 70.8341 Q885.309 72.2924 881.947 73.0216 Q878.625 73.7508 874.858 73.7508 Q864.609 73.7508 858.573 67.3098 Q852.537 60.8689 852.537 49.9314 Q852.537 38.832 858.614 32.472 Q864.731 26.1121 875.344 26.1121 Q878.787 26.1121 882.068 26.8413 Q885.35 27.5299 888.428 28.9478 Z" fill="#000000" fill-rule="nonzero" fill-opacity="1" /><path clip-path="url(#clip950)" d="M908.764 14.324 L908.764 27.2059 L924.117 27.2059 L924.117 32.9987 L908.764 32.9987 L908.764 57.6282 Q908.764 63.1779 910.263 64.7578 Q911.802 66.3376 916.461 66.3376 L924.117 66.3376 L924.117 72.576 L916.461 72.576 Q907.832 72.576 904.551 69.3758 Q901.27 66.1351 901.27 57.6282 L901.27 32.9987 L895.801 32.9987 L895.801 27.2059 L901.27 27.2059 L901.27 14.324 L908.764 14.324 Z" fill="#000000" fill-rule="nonzero" fill-opacity="1" /><path clip-path="url(#clip950)" d="M933.92 27.2059 L941.374 27.2059 L941.374 72.576 L933.92 72.576 L933.92 27.2059 M933.92 9.54393 L941.374 9.54393 L941.374 18.9825 L933.92 18.9825 L933.92 9.54393 Z" fill="#000000" fill-rule="nonzero" fill-opacity="1" /><path clip-path="url(#clip950)" d="M974.551 32.4315 Q968.555 32.4315 965.071 37.1306 Q961.588 41.7891 961.588 49.9314 Q961.588 58.0738 965.031 62.7728 Q968.515 67.4314 974.551 67.4314 Q980.505 67.4314 983.989 62.7323 Q987.473 58.0333 987.473 49.9314 Q987.473 41.8701 983.989 37.1711 Q980.505 32.4315 974.551 32.4315 M974.551 26.1121 Q984.273 26.1121 989.823 32.4315 Q995.372 38.7509 995.372 49.9314 Q995.372 61.0714 989.823 67.4314 Q984.273 73.7508 974.551 73.7508 Q964.788 73.7508 959.238 67.4314 Q953.729 61.0714 953.729 49.9314 Q953.729 38.7509 959.238 32.4315 Q964.788 26.1121 974.551 26.1121 Z" fill="#000000" fill-rule="nonzero" fill-opacity="1" /><path clip-path="url(#clip950)" d="M1045.44 45.1919 L1045.44 72.576 L1037.99 72.576 L1037.99 45.4349 Q1037.99 38.994 1035.48 35.7938 Q1032.96 32.5936 1027.94 32.5936 Q1021.91 32.5936 1018.42 36.4419 Q1014.94 40.2903 1014.94 46.9338 L1014.94 72.576 L1007.44 72.576 L1007.44 27.2059 L1014.94 27.2059 L1014.94 34.2544 Q1017.61 30.163 1021.22 28.1376 Q1024.86 26.1121 1029.6 26.1121 Q1037.42 26.1121 1041.43 30.9732 Q1045.44 35.7938 1045.44 45.1919 Z" fill="#000000" fill-rule="nonzero" fill-opacity="1" /><path clip-path="url(#clip950)" d="M1087 12.096 L1121.76 12.096 L1121.76 18.9825 L1095.19 18.9825 L1095.19 36.8065 L1119.17 36.8065 L1119.17 43.6931 L1095.19 43.6931 L1095.19 72.576 L1087 72.576 L1087 12.096 Z" fill="#000000" fill-rule="nonzero" fill-opacity="1" /><path clip-path="url(#clip950)" d="M1154.65 34.1734 Q1153.4 33.4443 1151.9 33.1202 Q1150.44 32.7556 1148.66 32.7556 Q1142.34 32.7556 1138.94 36.8875 Q1135.57 40.9789 1135.57 48.6757 L1135.57 72.576 L1128.08 72.576 L1128.08 27.2059 L1135.57 27.2059 L1135.57 34.2544 Q1137.92 30.1225 1141.69 28.1376 Q1145.46 26.1121 1150.85 26.1121 Q1151.62 26.1121 1152.55 26.2337 Q1153.48 26.3147 1154.61 26.5172 L1154.65 34.1734 Z" fill="#000000" fill-rule="nonzero" fill-opacity="1" /><path clip-path="url(#clip950)" d="M1199.46 48.0275 L1199.46 51.6733 L1165.19 51.6733 Q1165.67 59.3701 1169.8 63.421 Q1173.98 67.4314 1181.39 67.4314 Q1185.68 67.4314 1189.69 66.3781 Q1193.75 65.3249 1197.71 63.2184 L1197.71 70.267 Q1193.7 71.9684 1189.49 72.8596 Q1185.28 73.7508 1180.94 73.7508 Q1170.09 73.7508 1163.73 67.4314 Q1157.41 61.1119 1157.41 50.3365 Q1157.41 39.1965 1163.4 32.6746 Q1169.44 26.1121 1179.65 26.1121 Q1188.8 26.1121 1194.11 32.0264 Q1199.46 37.9003 1199.46 48.0275 M1192 45.84 Q1191.92 39.7232 1188.56 36.0774 Q1185.24 32.4315 1179.73 32.4315 Q1173.49 32.4315 1169.72 35.9558 Q1166 39.4801 1165.43 45.8805 L1192 45.84 Z" fill="#000000" fill-rule="nonzero" fill-opacity="1" /><path clip-path="url(#clip950)" d="M1250.5 48.0275 L1250.5 51.6733 L1216.23 51.6733 Q1216.71 59.3701 1220.85 63.421 Q1225.02 67.4314 1232.43 67.4314 Q1236.73 67.4314 1240.74 66.3781 Q1244.79 65.3249 1248.76 63.2184 L1248.76 70.267 Q1244.75 71.9684 1240.53 72.8596 Q1236.32 73.7508 1231.99 73.7508 Q1221.13 73.7508 1214.77 67.4314 Q1208.45 61.1119 1208.45 50.3365 Q1208.45 39.1965 1214.45 32.6746 Q1220.48 26.1121 1230.69 26.1121 Q1239.84 26.1121 1245.15 32.0264 Q1250.5 37.9003 1250.5 48.0275 M1243.04 45.84 Q1242.96 39.7232 1239.6 36.0774 Q1236.28 32.4315 1230.77 32.4315 Q1224.53 32.4315 1220.76 35.9558 Q1217.04 39.4801 1216.47 45.8805 L1243.04 45.84 Z" fill="#000000" fill-rule="nonzero" fill-opacity="1" /><path clip-path="url(#clip950)" d="M1289.43 12.096 L1327.67 12.096 L1327.67 18.9825 L1297.61 18.9825 L1297.61 36.8875 L1326.41 36.8875 L1326.41 43.7741 L1297.61 43.7741 L1297.61 65.6895 L1328.4 65.6895 L1328.4 72.576 L1289.43 72.576 L1289.43 12.096 Z" fill="#000000" fill-rule="nonzero" fill-opacity="1" /><path clip-path="url(#clip950)" d="M1379.24 45.1919 L1379.24 72.576 L1371.78 72.576 L1371.78 45.4349 Q1371.78 38.994 1369.27 35.7938 Q1366.76 32.5936 1361.74 32.5936 Q1355.7 32.5936 1352.22 36.4419 Q1348.73 40.2903 1348.73 46.9338 L1348.73 72.576 L1341.24 72.576 L1341.24 27.2059 L1348.73 27.2059 L1348.73 34.2544 Q1351.41 30.163 1355.01 28.1376 Q1358.66 26.1121 1363.4 26.1121 Q1371.22 26.1121 1375.23 30.9732 Q1379.24 35.7938 1379.24 45.1919 Z" fill="#000000" fill-rule="nonzero" fill-opacity="1" /><path clip-path="url(#clip950)" d="M1432.91 48.0275 L1432.91 51.6733 L1398.64 51.6733 Q1399.13 59.3701 1403.26 63.421 Q1407.43 67.4314 1414.84 67.4314 Q1419.14 67.4314 1423.15 66.3781 Q1427.2 65.3249 1431.17 63.2184 L1431.17 70.267 Q1427.16 71.9684 1422.95 72.8596 Q1418.73 73.7508 1414.4 73.7508 Q1403.54 73.7508 1397.18 67.4314 Q1390.86 61.1119 1390.86 50.3365 Q1390.86 39.1965 1396.86 32.6746 Q1402.89 26.1121 1413.1 26.1121 Q1422.26 26.1121 1427.56 32.0264 Q1432.91 37.9003 1432.91 48.0275 M1425.46 45.84 Q1425.38 39.7232 1422.01 36.0774 Q1418.69 32.4315 1413.18 32.4315 Q1406.94 32.4315 1403.18 35.9558 Q1399.45 39.4801 1398.88 45.8805 L1425.46 45.84 Z" fill="#000000" fill-rule="nonzero" fill-opacity="1" /><path clip-path="url(#clip950)" d="M1471.43 34.1734 Q1470.18 33.4443 1468.68 33.1202 Q1467.22 32.7556 1465.44 32.7556 Q1459.12 32.7556 1455.72 36.8875 Q1452.35 40.9789 1452.35 48.6757 L1452.35 72.576 L1444.86 72.576 L1444.86 27.2059 L1452.35 27.2059 L1452.35 34.2544 Q1454.7 30.1225 1458.47 28.1376 Q1462.24 26.1121 1467.63 26.1121 Q1468.4 26.1121 1469.33 26.2337 Q1470.26 26.3147 1471.39 26.5172 L1471.43 34.1734 Z" fill="#000000" fill-rule="nonzero" fill-opacity="1" /><path clip-path="url(#clip950)" d="M1507.65 49.3643 Q1507.65 41.2625 1504.29 36.8065 Q1500.97 32.3505 1494.93 32.3505 Q1488.93 32.3505 1485.57 36.8065 Q1482.25 41.2625 1482.25 49.3643 Q1482.25 57.4256 1485.57 61.8816 Q1488.93 66.3376 1494.93 66.3376 Q1500.97 66.3376 1504.29 61.8816 Q1507.65 57.4256 1507.65 49.3643 M1515.1 66.9452 Q1515.1 78.5308 1509.96 84.1616 Q1504.81 89.8329 1494.2 89.8329 Q1490.27 89.8329 1486.79 89.2252 Q1483.3 88.6581 1480.02 87.4428 L1480.02 80.1917 Q1483.3 81.9741 1486.5 82.8248 Q1489.7 83.6755 1493.03 83.6755 Q1500.36 83.6755 1504 79.8271 Q1507.65 76.0193 1507.65 68.282 L1507.65 64.5957 Q1505.34 68.6061 1501.74 70.5911 Q1498.13 72.576 1493.11 72.576 Q1484.76 72.576 1479.66 66.2161 Q1474.55 59.8562 1474.55 49.3643 Q1474.55 38.832 1479.66 32.472 Q1484.76 26.1121 1493.11 26.1121 Q1498.13 26.1121 1501.74 28.0971 Q1505.34 30.082 1507.65 34.0924 L1507.65 27.2059 L1515.1 27.2059 L1515.1 66.9452 Z" fill="#000000" fill-rule="nonzero" fill-opacity="1" /><path clip-path="url(#clip950)" d="M1549.33 76.7889 Q1546.17 84.8907 1543.18 87.3618 Q1540.18 89.8329 1535.16 89.8329 L1529.2 89.8329 L1529.2 83.5945 L1533.58 83.5945 Q1536.65 83.5945 1538.36 82.1361 Q1540.06 80.6778 1542.12 75.2496 L1543.46 71.8468 L1525.11 27.2059 L1533.01 27.2059 L1547.19 62.6918 L1561.36 27.2059 L1569.26 27.2059 L1549.33 76.7889 Z" fill="#000000" fill-rule="nonzero" fill-opacity="1" /><path clip-path="url(#clip950)" d="M1651.54 16.7545 L1651.54 25.383 Q1647.41 21.5346 1642.71 19.6307 Q1638.05 17.7268 1632.78 17.7268 Q1622.41 17.7268 1616.9 24.0867 Q1611.39 30.4061 1611.39 42.3968 Q1611.39 54.3469 1616.9 60.7069 Q1622.41 67.0263 1632.78 67.0263 Q1638.05 67.0263 1642.71 65.1223 Q1647.41 63.2184 1651.54 59.3701 L1651.54 67.9175 Q1647.24 70.8341 1642.42 72.2924 Q1637.64 73.7508 1632.3 73.7508 Q1618.56 73.7508 1610.66 65.3654 Q1602.76 56.9395 1602.76 42.3968 Q1602.76 27.8135 1610.66 19.4281 Q1618.56 11.0023 1632.3 11.0023 Q1637.72 11.0023 1642.5 12.4606 Q1647.32 13.8784 1651.54 16.7545 Z" fill="#000000" fill-rule="nonzero" fill-opacity="1" /><path clip-path="url(#clip950)" d="M1701.57 45.1919 L1701.57 72.576 L1694.11 72.576 L1694.11 45.4349 Q1694.11 38.994 1691.6 35.7938 Q1689.09 32.5936 1684.07 32.5936 Q1678.03 32.5936 1674.55 36.4419 Q1671.06 40.2903 1671.06 46.9338 L1671.06 72.576 L1663.57 72.576 L1663.57 9.54393 L1671.06 9.54393 L1671.06 34.2544 Q1673.74 30.163 1677.34 28.1376 Q1680.99 26.1121 1685.73 26.1121 Q1693.55 26.1121 1697.56 30.9732 Q1701.57 35.7938 1701.57 45.1919 Z" fill="#000000" fill-rule="nonzero" fill-opacity="1" /><path clip-path="url(#clip950)" d="M1737.05 49.7694 Q1728.02 49.7694 1724.54 51.8354 Q1721.05 53.9013 1721.05 58.8839 Q1721.05 62.8538 1723.64 65.2034 Q1726.28 67.5124 1730.77 67.5124 Q1736.97 67.5124 1740.7 63.1374 Q1744.47 58.7219 1744.47 51.4303 L1744.47 49.7694 L1737.05 49.7694 M1751.92 46.6907 L1751.92 72.576 L1744.47 72.576 L1744.47 65.6895 Q1741.91 69.8214 1738.11 71.8063 Q1734.3 73.7508 1728.79 73.7508 Q1721.82 73.7508 1717.69 69.8619 Q1713.6 65.9325 1713.6 59.3701 Q1713.6 51.7138 1718.7 47.825 Q1723.85 43.9361 1734.01 43.9361 L1744.47 43.9361 L1744.47 43.2069 Q1744.47 38.0623 1741.06 35.2672 Q1737.7 32.4315 1731.58 32.4315 Q1727.69 32.4315 1724.01 33.3632 Q1720.32 34.295 1716.92 36.1584 L1716.92 29.2718 Q1721.01 27.692 1724.86 26.9223 Q1728.71 26.1121 1732.35 26.1121 Q1742.2 26.1121 1747.06 31.2163 Q1751.92 36.3204 1751.92 46.6907 Z" fill="#000000" fill-rule="nonzero" fill-opacity="1" /><path clip-path="url(#clip950)" d="M1804.99 45.1919 L1804.99 72.576 L1797.53 72.576 L1797.53 45.4349 Q1797.53 38.994 1795.02 35.7938 Q1792.51 32.5936 1787.49 32.5936 Q1781.45 32.5936 1777.97 36.4419 Q1774.48 40.2903 1774.48 46.9338 L1774.48 72.576 L1766.99 72.576 L1766.99 27.2059 L1774.48 27.2059 L1774.48 34.2544 Q1777.16 30.163 1780.76 28.1376 Q1784.41 26.1121 1789.15 26.1121 Q1796.97 26.1121 1800.98 30.9732 Q1804.99 35.7938 1804.99 45.1919 Z" fill="#000000" fill-rule="nonzero" fill-opacity="1" /><path clip-path="url(#clip950)" d="M1849.71 49.3643 Q1849.71 41.2625 1846.35 36.8065 Q1843.02 32.3505 1836.99 32.3505 Q1830.99 32.3505 1827.63 36.8065 Q1824.31 41.2625 1824.31 49.3643 Q1824.31 57.4256 1827.63 61.8816 Q1830.99 66.3376 1836.99 66.3376 Q1843.02 66.3376 1846.35 61.8816 Q1849.71 57.4256 1849.71 49.3643 M1857.16 66.9452 Q1857.16 78.5308 1852.02 84.1616 Q1846.87 89.8329 1836.26 89.8329 Q1832.33 89.8329 1828.85 89.2252 Q1825.36 88.6581 1822.08 87.4428 L1822.08 80.1917 Q1825.36 81.9741 1828.56 82.8248 Q1831.76 83.6755 1835.08 83.6755 Q1842.42 83.6755 1846.06 79.8271 Q1849.71 76.0193 1849.71 68.282 L1849.71 64.5957 Q1847.4 68.6061 1843.79 70.5911 Q1840.19 72.576 1835.17 72.576 Q1826.82 72.576 1821.72 66.2161 Q1816.61 59.8562 1816.61 49.3643 Q1816.61 38.832 1821.72 32.472 Q1826.82 26.1121 1835.17 26.1121 Q1840.19 26.1121 1843.79 28.0971 Q1847.4 30.082 1849.71 34.0924 L1849.71 27.2059 L1857.16 27.2059 L1857.16 66.9452 Z" fill="#000000" fill-rule="nonzero" fill-opacity="1" /><path clip-path="url(#clip950)" d="M1911.32 48.0275 L1911.32 51.6733 L1877.05 51.6733 Q1877.54 59.3701 1881.67 63.421 Q1885.84 67.4314 1893.26 67.4314 Q1897.55 67.4314 1901.56 66.3781 Q1905.61 65.3249 1909.58 63.2184 L1909.58 70.267 Q1905.57 71.9684 1901.36 72.8596 Q1897.14 73.7508 1892.81 73.7508 Q1881.95 73.7508 1875.59 67.4314 Q1869.27 61.1119 1869.27 50.3365 Q1869.27 39.1965 1875.27 32.6746 Q1881.31 26.1121 1891.51 26.1121 Q1900.67 26.1121 1905.98 32.0264 Q1911.32 37.9003 1911.32 48.0275 M1903.87 45.84 Q1903.79 39.7232 1900.43 36.0774 Q1897.1 32.4315 1891.59 32.4315 Q1885.36 32.4315 1881.59 35.9558 Q1877.86 39.4801 1877.29 45.8805 L1903.87 45.84 Z" fill="#000000" fill-rule="nonzero" fill-opacity="1" /><path clip-path="url(#clip950)" d="M1952.48 28.5427 L1952.48 35.5912 Q1949.32 33.9709 1945.92 33.1607 Q1942.51 32.3505 1938.87 32.3505 Q1933.32 32.3505 1930.52 34.0519 Q1927.77 35.7533 1927.77 39.156 Q1927.77 41.7486 1929.75 43.2475 Q1931.74 44.7058 1937.73 46.0426 L1940.29 46.6097 Q1948.23 48.3111 1951.55 51.4303 Q1954.91 54.509 1954.91 60.0587 Q1954.91 66.3781 1949.89 70.0644 Q1944.9 73.7508 1936.15 73.7508 Q1932.51 73.7508 1928.54 73.0216 Q1924.61 72.3329 1920.23 70.9151 L1920.23 63.2184 Q1924.37 65.3654 1928.38 66.4591 Q1932.39 67.5124 1936.32 67.5124 Q1941.58 67.5124 1944.42 65.73 Q1947.25 63.9071 1947.25 60.6258 Q1947.25 57.5877 1945.19 55.9673 Q1943.16 54.3469 1936.24 52.8481 L1933.64 52.2405 Q1926.72 50.7821 1923.64 47.7845 Q1920.56 44.7463 1920.56 39.4801 Q1920.56 33.0797 1925.1 29.5959 Q1929.63 26.1121 1937.98 26.1121 Q1942.11 26.1121 1945.75 26.7198 Q1949.4 27.3274 1952.48 28.5427 Z" fill="#000000" fill-rule="nonzero" fill-opacity="1" /><polyline clip-path="url(#clip952)" style="stroke:#009af9; stroke-linecap:round; stroke-linejoin:round; stroke-width:8; stroke-opacity:1; fill:none" points="360.486,1386.4 399.171,838.367 437.855,528.408 476.54,464.355 515.225,425.434 553.91,392.869 592.595,364.377 631.28,339.257 669.965,317.102 708.649,297.561 747.334,280.322 786.019,265.13 824.704,251.76 863.389,239.995 902.074,229.643 940.759,220.557 979.443,212.613 1018.13,205.674 1056.81,199.614 1095.5,194.324 1134.18,189.709 1172.87,185.688 1211.55,182.192 1250.24,179.159 1288.92,176.534 1327.61,174.268 1366.29,172.318 1404.98,170.645 1443.66,169.215 1482.35,167.999 1521.03,166.968 1559.72,166.097 1598.4,165.364 1637.09,164.747 1675.77,164.226 1714.46,163.784 1753.14,163.401 1791.83,163.061 1830.51,162.747 1869.2,162.443 1907.88,162.135 1946.56,161.837 1985.25,161.556 2023.93,161.294 2062.62,161.054 2101.3,160.839 2139.99,160.65 2178.67,160.49 2217.36,160.358 2256.04,160.256 2294.73,160.612 "/>
<polyline clip-path="url(#clip952)" style="stroke:#e26f46; stroke-linecap:round; stroke-linejoin:round; stroke-width:8; stroke-opacity:1; fill:none" points="360.486,1233.68 399.171,642.225 437.855,768.412 476.54,742.896 515.225,669.083 553.91,594.564 592.595,529.528 631.28,474.591 669.965,428.429 708.649,389.555 747.334,356.685 786.019,328.781 824.704,305.017 863.389,284.721 902.074,267.346 940.759,252.451 979.443,239.672 1018.13,228.693 1056.81,219.251 1095.5,211.122 1134.18,204.119 1172.87,198.083 1211.55,192.879 1250.24,188.393 1288.92,184.524 1327.61,181.188 1366.29,178.312 1404.98,175.833 1443.66,173.698 1482.35,171.859 1521.03,170.277 1559.72,168.915 1598.4,167.743 1637.09,166.735 1675.77,165.868 1714.46,165.12 1753.14,164.473 1791.83,163.912 1830.51,163.422 1869.2,162.99 1907.88,162.605 1946.56,162.265 1985.25,161.964 2023.93,161.7 2062.62,161.468 2101.3,161.266 2139.99,161.091 2178.67,160.939 2217.36,160.811 2256.04,160.702 2294.73,160.72 "/>
<path clip-path="url(#clip950)" d="M1994.18 322.316 L2284.41 322.316 L2284.41 166.796 L1994.18 166.796  Z" fill="#ffffff" fill-rule="evenodd" fill-opacity="1"/>
<polyline clip-path="url(#clip950)" style="stroke:#000000; stroke-linecap:round; stroke-linejoin:round; stroke-width:4; stroke-opacity:1; fill:none" points="1994.18,322.316 2284.41,322.316 2284.41,166.796 1994.18,166.796 1994.18,322.316 "/>
<polyline clip-path="url(#clip950)" style="stroke:#009af9; stroke-linecap:round; stroke-linejoin:round; stroke-width:8; stroke-opacity:1; fill:none" points="2016.96,218.636 2153.64,218.636 "/>
<path clip-path="url(#clip950)" d="M2192.26 205.962 L2182.77 232.027 L2201.77 232.027 L2192.26 205.962 M2176.42 235.916 L2189.62 201.356 L2194.92 201.356 L2208.09 235.916 L2176.42 235.916 Z" fill="#000000" fill-rule="nonzero" fill-opacity="1" /><path clip-path="url(#clip950)" d="M2236.7 230.985 L2236.7 221.703 L2229.06 221.703 L2229.06 217.86 L2241.33 217.86 L2241.33 232.698 Q2238.62 234.619 2235.36 235.615 Q2232.09 236.587 2228.39 236.587 Q2220.29 236.587 2215.71 231.865 Q2211.15 227.119 2211.15 218.67 Q2211.15 210.198 2215.71 205.476 Q2220.29 200.731 2228.39 200.731 Q2231.77 200.731 2234.8 201.564 Q2237.86 202.397 2240.43 204.018 L2240.43 208.995 Q2237.84 206.796 2234.92 205.684 Q2232 204.573 2228.78 204.573 Q2222.44 204.573 2219.25 208.115 Q2216.08 211.657 2216.08 218.67 Q2216.08 225.661 2219.25 229.203 Q2222.44 232.744 2228.78 232.744 Q2231.26 232.744 2233.21 232.328 Q2235.15 231.888 2236.7 230.985 Z" fill="#000000" fill-rule="nonzero" fill-opacity="1" /><path clip-path="url(#clip950)" d="M2248.83 233.369 L2253.55 233.369 L2253.55 219.226 L2248.39 220.175 L2248.39 217.49 L2253.71 216.587 L2256.89 216.587 L2256.89 233.369 L2261.63 233.369 L2261.63 235.916 L2248.83 235.916 L2248.83 233.369 Z" fill="#000000" fill-rule="nonzero" fill-opacity="1" /><polyline clip-path="url(#clip950)" style="stroke:#e26f46; stroke-linecap:round; stroke-linejoin:round; stroke-width:8; stroke-opacity:1; fill:none" points="2016.96,270.476 2153.64,270.476 "/>
<path clip-path="url(#clip950)" d="M2192.26 257.802 L2182.77 283.867 L2201.77 283.867 L2192.26 257.802 M2176.42 287.756 L2189.62 253.196 L2194.92 253.196 L2208.09 287.756 L2176.42 287.756 Z" fill="#000000" fill-rule="nonzero" fill-opacity="1" /><path clip-path="url(#clip950)" d="M2236.7 282.825 L2236.7 273.543 L2229.06 273.543 L2229.06 269.7 L2241.33 269.7 L2241.33 284.538 Q2238.62 286.459 2235.36 287.455 Q2232.09 288.427 2228.39 288.427 Q2220.29 288.427 2215.71 283.705 Q2211.15 278.959 2211.15 270.51 Q2211.15 262.038 2215.71 257.316 Q2220.29 252.571 2228.39 252.571 Q2231.77 252.571 2234.8 253.404 Q2237.86 254.237 2240.43 255.858 L2240.43 260.835 Q2237.84 258.636 2234.92 257.524 Q2232 256.413 2228.78 256.413 Q2222.44 256.413 2219.25 259.955 Q2216.08 263.497 2216.08 270.51 Q2216.08 277.501 2219.25 281.043 Q2222.44 284.584 2228.78 284.584 Q2231.26 284.584 2233.21 284.168 Q2235.15 283.728 2236.7 282.825 Z" fill="#000000" fill-rule="nonzero" fill-opacity="1" /><path clip-path="url(#clip950)" d="M2251.42 285.117 L2261.24 285.117 L2261.24 287.756 L2247.4 287.756 L2247.4 285.209 Q2248.18 284.492 2249.64 283.196 Q2257.6 276.135 2257.6 273.959 Q2257.6 272.432 2256.4 271.506 Q2255.2 270.557 2253.23 270.557 Q2252.03 270.557 2250.61 270.973 Q2249.2 271.367 2247.53 272.177 L2247.53 269.33 Q2249.32 268.682 2250.84 268.358 Q2252.4 268.034 2253.71 268.034 Q2257.07 268.034 2259.09 269.561 Q2261.1 271.089 2261.1 273.589 Q2261.1 276.807 2253.44 283.381 Q2252.14 284.492 2251.42 285.117 Z" fill="#000000" fill-rule="nonzero" fill-opacity="1" /></svg>
