<?xml version="1.0" encoding="utf-8"?>
<svg xmlns="http://www.w3.org/2000/svg" xmlns:xlink="http://www.w3.org/1999/xlink" width="600" height="400" viewBox="0 0 2400 1600">
<defs>
  <clipPath id="clip520">
    <rect x="0" y="0" width="2400" height="1600"/>
  </clipPath>
</defs>
<path clip-path="url(#clip520)" d="M0 1600 L2400 1600 L2400 8.88178e-14 L0 8.88178e-14  Z" fill="#ffffff" fill-rule="evenodd" fill-opacity="1"/>
<defs>
  <clipPath id="clip521">
    <rect x="480" y="0" width="1681" height="1600"/>
  </clipPath>
</defs>
<path clip-path="url(#clip520)" d="M332.62 1423.18 L2352.76 1423.18 L2352.76 123.472 L332.62 123.472  Z" fill="#ffffff" fill-rule="evenodd" fill-opacity="1"/>
<defs>
  <clipPath id="clip522">
    <rect x="332" y="123" width="2021" height="1301"/>
  </clipPath>
</defs>
<polyline clip-path="url(#clip522)" style="stroke:#000000; stroke-linecap:round; stroke-linejoin:round; stroke-width:2; stroke-opacity:0.1; fill:none" points="389.794,1423.18 389.794,123.472 "/>
<polyline clip-path="url(#clip522)" style="stroke:#000000; stroke-linecap:round; stroke-linejoin:round; stroke-width:2; stroke-opacity:0.1; fill:none" points="770.952,1423.18 770.952,123.472 "/>
<polyline clip-path="url(#clip522)" style="stroke:#000000; stroke-linecap:round; stroke-linejoin:round; stroke-width:2; stroke-opacity:0.1; fill:none" points="1152.11,1423.18 1152.11,123.472 "/>
<polyline clip-path="url(#clip522)" style="stroke:#000000; stroke-linecap:round; stroke-linejoin:round; stroke-width:2; stroke-opacity:0.1; fill:none" points="1533.27,1423.18 1533.27,123.472 "/>
<polyline clip-path="url(#clip522)" style="stroke:#000000; stroke-linecap:round; stroke-linejoin:round; stroke-width:2; stroke-opacity:0.1; fill:none" points="1914.42,1423.18 1914.42,123.472 "/>
<polyline clip-path="url(#clip522)" style="stroke:#000000; stroke-linecap:round; stroke-linejoin:round; stroke-width:2; stroke-opacity:0.1; fill:none" points="2295.58,1423.18 2295.58,123.472 "/>
<polyline clip-path="url(#clip522)" style="stroke:#000000; stroke-linecap:round; stroke-linejoin:round; stroke-width:2; stroke-opacity:0.1; fill:none" points="332.62,1363.59 2352.76,1363.59 "/>
<polyline clip-path="url(#clip522)" style="stroke:#000000; stroke-linecap:round; stroke-linejoin:round; stroke-width:2; stroke-opacity:0.1; fill:none" points="332.62,1062.62 2352.76,1062.62 "/>
<polyline clip-path="url(#clip522)" style="stroke:#000000; stroke-linecap:round; stroke-linejoin:round; stroke-width:2; stroke-opacity:0.1; fill:none" points="332.62,761.644 2352.76,761.644 "/>
<polyline clip-path="url(#clip522)" style="stroke:#000000; stroke-linecap:round; stroke-linejoin:round; stroke-width:2; stroke-opacity:0.1; fill:none" points="332.62,460.671 2352.76,460.671 "/>
<polyline clip-path="url(#clip522)" style="stroke:#000000; stroke-linecap:round; stroke-linejoin:round; stroke-width:2; stroke-opacity:0.1; fill:none" points="332.62,159.699 2352.76,159.699 "/>
<polyline clip-path="url(#clip520)" style="stroke:#000000; stroke-linecap:round; stroke-linejoin:round; stroke-width:4; stroke-opacity:1; fill:none" points="332.62,1423.18 2352.76,1423.18 "/>
<polyline clip-path="url(#clip520)" style="stroke:#000000; stroke-linecap:round; stroke-linejoin:round; stroke-width:4; stroke-opacity:1; fill:none" points="389.794,1423.18 389.794,1404.28 "/>
<polyline clip-path="url(#clip520)" style="stroke:#000000; stroke-linecap:round; stroke-linejoin:round; stroke-width:4; stroke-opacity:1; fill:none" points="770.952,1423.18 770.952,1404.28 "/>
<polyline clip-path="url(#clip520)" style="stroke:#000000; stroke-linecap:round; stroke-linejoin:round; stroke-width:4; stroke-opacity:1; fill:none" points="1152.11,1423.18 1152.11,1404.28 "/>
<polyline clip-path="url(#clip520)" style="stroke:#000000; stroke-linecap:round; stroke-linejoin:round; stroke-width:4; stroke-opacity:1; fill:none" points="1533.27,1423.18 1533.27,1404.28 "/>
<polyline clip-path="url(#clip520)" style="stroke:#000000; stroke-linecap:round; stroke-linejoin:round; stroke-width:4; stroke-opacity:1; fill:none" points="1914.42,1423.18 1914.42,1404.28 "/>
<polyline clip-path="url(#clip520)" style="stroke:#000000; stroke-linecap:round; stroke-linejoin:round; stroke-width:4; stroke-opacity:1; fill:none" points="2295.58,1423.18 2295.58,1404.28 "/>
<path clip-path="url(#clip520)" d="M389.794 1454.1 Q386.183 1454.1 384.354 1457.66 Q382.549 1461.2 382.549 1468.33 Q382.549 1475.44 384.354 1479.01 Q386.183 1482.55 389.794 1482.55 Q393.428 1482.55 395.234 1479.01 Q397.062 1475.44 397.062 1468.33 Q397.062 1461.2 395.234 1457.66 Q393.428 1454.1 389.794 1454.1 M389.794 1450.39 Q395.604 1450.39 398.66 1455 Q401.738 1459.58 401.738 1468.33 Q401.738 1477.06 398.66 1481.67 Q395.604 1486.25 389.794 1486.25 Q383.984 1486.25 380.905 1481.67 Q377.85 1477.06 377.85 1468.33 Q377.85 1459.58 380.905 1455 Q383.984 1450.39 389.794 1450.39 Z" fill="#000000" fill-rule="nonzero" fill-opacity="1" /><path clip-path="url(#clip520)" d="M761.334 1481.64 L768.972 1481.64 L768.972 1455.28 L760.662 1456.95 L760.662 1452.69 L768.926 1451.02 L773.602 1451.02 L773.602 1481.64 L781.241 1481.64 L781.241 1485.58 L761.334 1485.58 L761.334 1481.64 Z" fill="#000000" fill-rule="nonzero" fill-opacity="1" /><path clip-path="url(#clip520)" d="M1146.76 1481.64 L1163.08 1481.64 L1163.08 1485.58 L1141.14 1485.58 L1141.14 1481.64 Q1143.8 1478.89 1148.38 1474.26 Q1152.99 1469.61 1154.17 1468.27 Q1156.41 1465.74 1157.29 1464.01 Q1158.2 1462.25 1158.2 1460.56 Q1158.2 1457.8 1156.25 1456.07 Q1154.33 1454.33 1151.23 1454.33 Q1149.03 1454.33 1146.58 1455.09 Q1144.15 1455.86 1141.37 1457.41 L1141.37 1452.69 Q1144.19 1451.55 1146.65 1450.97 Q1149.1 1450.39 1151.14 1450.39 Q1156.51 1450.39 1159.7 1453.08 Q1162.9 1455.77 1162.9 1460.26 Q1162.9 1462.39 1162.09 1464.31 Q1161.3 1466.2 1159.19 1468.8 Q1158.61 1469.47 1155.51 1472.69 Q1152.41 1475.88 1146.76 1481.64 Z" fill="#000000" fill-rule="nonzero" fill-opacity="1" /><path clip-path="url(#clip520)" d="M1537.51 1466.95 Q1540.87 1467.66 1542.75 1469.93 Q1544.64 1472.2 1544.64 1475.53 Q1544.64 1480.65 1541.13 1483.45 Q1537.61 1486.25 1531.13 1486.25 Q1528.95 1486.25 1526.64 1485.81 Q1524.34 1485.39 1521.89 1484.54 L1521.89 1480.02 Q1523.83 1481.16 1526.15 1481.74 Q1528.46 1482.32 1530.99 1482.32 Q1535.38 1482.32 1537.68 1480.58 Q1539.99 1478.84 1539.99 1475.53 Q1539.99 1472.48 1537.84 1470.77 Q1535.71 1469.03 1531.89 1469.03 L1527.86 1469.03 L1527.86 1465.19 L1532.07 1465.19 Q1535.52 1465.19 1537.35 1463.82 Q1539.18 1462.43 1539.18 1459.84 Q1539.18 1457.18 1537.28 1455.77 Q1535.41 1454.33 1531.89 1454.33 Q1529.97 1454.33 1527.77 1454.75 Q1525.57 1455.16 1522.93 1456.04 L1522.93 1451.88 Q1525.59 1451.14 1527.91 1450.77 Q1530.25 1450.39 1532.31 1450.39 Q1537.63 1450.39 1540.73 1452.83 Q1543.83 1455.23 1543.83 1459.35 Q1543.83 1462.22 1542.19 1464.21 Q1540.55 1466.18 1537.51 1466.95 Z" fill="#000000" fill-rule="nonzero" fill-opacity="1" /><path clip-path="url(#clip520)" d="M1917.43 1455.09 L1905.63 1473.54 L1917.43 1473.54 L1917.43 1455.09 M1916.21 1451.02 L1922.09 1451.02 L1922.09 1473.54 L1927.02 1473.54 L1927.02 1477.43 L1922.09 1477.43 L1922.09 1485.58 L1917.43 1485.58 L1917.43 1477.43 L1901.83 1477.43 L1901.83 1472.92 L1916.21 1451.02 Z" fill="#000000" fill-rule="nonzero" fill-opacity="1" /><path clip-path="url(#clip520)" d="M2285.86 1451.02 L2304.22 1451.02 L2304.22 1454.96 L2290.14 1454.96 L2290.14 1463.43 Q2291.16 1463.08 2292.18 1462.92 Q2293.2 1462.73 2294.22 1462.73 Q2300 1462.73 2303.38 1465.9 Q2306.76 1469.08 2306.76 1474.49 Q2306.76 1480.07 2303.29 1483.17 Q2299.82 1486.25 2293.5 1486.25 Q2291.32 1486.25 2289.05 1485.88 Q2286.81 1485.51 2284.4 1484.77 L2284.4 1480.07 Q2286.49 1481.2 2288.71 1481.76 Q2290.93 1482.32 2293.41 1482.32 Q2297.41 1482.32 2299.75 1480.21 Q2302.09 1478.1 2302.09 1474.49 Q2302.09 1470.88 2299.75 1468.77 Q2297.41 1466.67 2293.41 1466.67 Q2291.53 1466.67 2289.66 1467.08 Q2287.8 1467.5 2285.86 1468.38 L2285.86 1451.02 Z" fill="#000000" fill-rule="nonzero" fill-opacity="1" /><path clip-path="url(#clip520)" d="M1264.56 1520.52 L1304.76 1520.52 L1304.76 1525.93 L1287.9 1525.93 L1287.9 1568.04 L1281.43 1568.04 L1281.43 1525.93 L1264.56 1525.93 L1264.56 1520.52 Z" fill="#000000" fill-rule="nonzero" fill-opacity="1" /><path clip-path="url(#clip520)" d="M1308.71 1532.4 L1314.57 1532.4 L1314.57 1568.04 L1308.71 1568.04 L1308.71 1532.4 M1308.71 1518.52 L1314.57 1518.52 L1314.57 1525.93 L1308.71 1525.93 L1308.71 1518.52 Z" fill="#000000" fill-rule="nonzero" fill-opacity="1" /><path clip-path="url(#clip520)" d="M1354.58 1539.24 Q1356.77 1535.29 1359.83 1533.41 Q1362.88 1531.54 1367.02 1531.54 Q1372.59 1531.54 1375.61 1535.45 Q1378.64 1539.33 1378.64 1546.53 L1378.64 1568.04 L1372.75 1568.04 L1372.75 1546.72 Q1372.75 1541.59 1370.94 1539.11 Q1369.12 1536.63 1365.4 1536.63 Q1360.85 1536.63 1358.2 1539.65 Q1355.56 1542.68 1355.56 1547.9 L1355.56 1568.04 L1349.67 1568.04 L1349.67 1546.72 Q1349.67 1541.56 1347.86 1539.11 Q1346.05 1536.63 1342.26 1536.63 Q1337.77 1536.63 1335.13 1539.68 Q1332.49 1542.71 1332.49 1547.9 L1332.49 1568.04 L1326.6 1568.04 L1326.6 1532.4 L1332.49 1532.4 L1332.49 1537.93 Q1334.49 1534.66 1337.29 1533.1 Q1340.09 1531.54 1343.95 1531.54 Q1347.83 1531.54 1350.53 1533.51 Q1353.27 1535.48 1354.58 1539.24 Z" fill="#000000" fill-rule="nonzero" fill-opacity="1" /><path clip-path="url(#clip520)" d="M1420.81 1548.76 L1420.81 1551.62 L1393.88 1551.62 Q1394.27 1557.67 1397.51 1560.85 Q1400.79 1564 1406.62 1564 Q1409.99 1564 1413.14 1563.17 Q1416.32 1562.35 1419.44 1560.69 L1419.44 1566.23 Q1416.29 1567.57 1412.98 1568.27 Q1409.67 1568.97 1406.27 1568.97 Q1397.74 1568.97 1392.74 1564 Q1387.77 1559.04 1387.77 1550.57 Q1387.77 1541.82 1392.48 1536.69 Q1397.23 1531.54 1405.25 1531.54 Q1412.44 1531.54 1416.61 1536.18 Q1420.81 1540.8 1420.81 1548.76 M1414.95 1547.04 Q1414.89 1542.23 1412.25 1539.37 Q1409.64 1536.5 1405.31 1536.5 Q1400.41 1536.5 1397.45 1539.27 Q1394.52 1542.04 1394.08 1547.07 L1414.95 1547.04 Z" fill="#000000" fill-rule="nonzero" fill-opacity="1" /><polyline clip-path="url(#clip520)" style="stroke:#000000; stroke-linecap:round; stroke-linejoin:round; stroke-width:4; stroke-opacity:1; fill:none" points="332.62,1423.18 332.62,123.472 "/>
<polyline clip-path="url(#clip520)" style="stroke:#000000; stroke-linecap:round; stroke-linejoin:round; stroke-width:4; stroke-opacity:1; fill:none" points="332.62,1363.59 351.518,1363.59 "/>
<polyline clip-path="url(#clip520)" style="stroke:#000000; stroke-linecap:round; stroke-linejoin:round; stroke-width:4; stroke-opacity:1; fill:none" points="332.62,1062.62 351.518,1062.62 "/>
<polyline clip-path="url(#clip520)" style="stroke:#000000; stroke-linecap:round; stroke-linejoin:round; stroke-width:4; stroke-opacity:1; fill:none" points="332.62,761.644 351.518,761.644 "/>
<polyline clip-path="url(#clip520)" style="stroke:#000000; stroke-linecap:round; stroke-linejoin:round; stroke-width:4; stroke-opacity:1; fill:none" points="332.62,460.671 351.518,460.671 "/>
<polyline clip-path="url(#clip520)" style="stroke:#000000; stroke-linecap:round; stroke-linejoin:round; stroke-width:4; stroke-opacity:1; fill:none" points="332.62,159.699 351.518,159.699 "/>
<path clip-path="url(#clip520)" d="M114.26 1364.04 L143.936 1364.04 L143.936 1367.98 L114.26 1367.98 L114.26 1364.04 Z" fill="#000000" fill-rule="nonzero" fill-opacity="1" /><path clip-path="url(#clip520)" d="M154.839 1376.93 L162.477 1376.93 L162.477 1350.57 L154.167 1352.23 L154.167 1347.98 L162.431 1346.31 L167.107 1346.31 L167.107 1376.93 L174.746 1376.93 L174.746 1380.87 L154.839 1380.87 L154.839 1376.93 Z" fill="#000000" fill-rule="nonzero" fill-opacity="1" /><path clip-path="url(#clip520)" d="M194.19 1349.39 Q190.579 1349.39 188.75 1352.95 Q186.945 1356.49 186.945 1363.62 Q186.945 1370.73 188.75 1374.29 Q190.579 1377.84 194.19 1377.84 Q197.825 1377.84 199.63 1374.29 Q201.459 1370.73 201.459 1363.62 Q201.459 1356.49 199.63 1352.95 Q197.825 1349.39 194.19 1349.39 M194.19 1345.68 Q200 1345.68 203.056 1350.29 Q206.135 1354.87 206.135 1363.62 Q206.135 1372.35 203.056 1376.96 Q200 1381.54 194.19 1381.54 Q188.38 1381.54 185.301 1376.96 Q182.246 1372.35 182.246 1363.62 Q182.246 1354.87 185.301 1350.29 Q188.38 1345.68 194.19 1345.68 Z" fill="#000000" fill-rule="nonzero" fill-opacity="1" /><path clip-path="url(#clip520)" d="M224.352 1349.39 Q220.741 1349.39 218.912 1352.95 Q217.107 1356.49 217.107 1363.62 Q217.107 1370.73 218.912 1374.29 Q220.741 1377.84 224.352 1377.84 Q227.986 1377.84 229.792 1374.29 Q231.621 1370.73 231.621 1363.62 Q231.621 1356.49 229.792 1352.95 Q227.986 1349.39 224.352 1349.39 M224.352 1345.68 Q230.162 1345.68 233.218 1350.29 Q236.297 1354.87 236.297 1363.62 Q236.297 1372.35 233.218 1376.96 Q230.162 1381.54 224.352 1381.54 Q218.542 1381.54 215.463 1376.96 Q212.408 1372.35 212.408 1363.62 Q212.408 1354.87 215.463 1350.29 Q218.542 1345.68 224.352 1345.68 Z" fill="#000000" fill-rule="nonzero" fill-opacity="1" /><path clip-path="url(#clip520)" d="M254.514 1349.39 Q250.903 1349.39 249.074 1352.95 Q247.269 1356.49 247.269 1363.62 Q247.269 1370.73 249.074 1374.29 Q250.903 1377.84 254.514 1377.84 Q258.148 1377.84 259.954 1374.29 Q261.783 1370.73 261.783 1363.62 Q261.783 1356.49 259.954 1352.95 Q258.148 1349.39 254.514 1349.39 M254.514 1345.68 Q260.324 1345.68 263.38 1350.29 Q266.458 1354.87 266.458 1363.62 Q266.458 1372.35 263.38 1376.96 Q260.324 1381.54 254.514 1381.54 Q248.704 1381.54 245.625 1376.96 Q242.57 1372.35 242.57 1363.62 Q242.57 1354.87 245.625 1350.29 Q248.704 1345.68 254.514 1345.68 Z" fill="#000000" fill-rule="nonzero" fill-opacity="1" /><path clip-path="url(#clip520)" d="M284.676 1349.39 Q281.065 1349.39 279.236 1352.95 Q277.431 1356.49 277.431 1363.62 Q277.431 1370.73 279.236 1374.29 Q281.065 1377.84 284.676 1377.84 Q288.31 1377.84 290.116 1374.29 Q291.944 1370.73 291.944 1363.62 Q291.944 1356.49 290.116 1352.95 Q288.31 1349.39 284.676 1349.39 M284.676 1345.68 Q290.486 1345.68 293.542 1350.29 Q296.62 1354.87 296.62 1363.62 Q296.62 1372.35 293.542 1376.96 Q290.486 1381.54 284.676 1381.54 Q278.866 1381.54 275.787 1376.96 Q272.732 1372.35 272.732 1363.62 Q272.732 1354.87 275.787 1350.29 Q278.866 1345.68 284.676 1345.68 Z" fill="#000000" fill-rule="nonzero" fill-opacity="1" /><path clip-path="url(#clip520)" d="M144.422 1063.07 L174.098 1063.07 L174.098 1067 L144.422 1067 L144.422 1063.07 Z" fill="#000000" fill-rule="nonzero" fill-opacity="1" /><path clip-path="url(#clip520)" d="M183.01 1045.34 L205.232 1045.34 L205.232 1047.33 L192.686 1079.9 L187.801 1079.9 L199.607 1049.27 L183.01 1049.27 L183.01 1045.34 Z" fill="#000000" fill-rule="nonzero" fill-opacity="1" /><path clip-path="url(#clip520)" d="M214.399 1045.34 L232.755 1045.34 L232.755 1049.27 L218.681 1049.27 L218.681 1057.74 Q219.699 1057.4 220.718 1057.23 Q221.736 1057.05 222.755 1057.05 Q228.542 1057.05 231.922 1060.22 Q235.301 1063.39 235.301 1068.81 Q235.301 1074.39 231.829 1077.49 Q228.357 1080.57 222.037 1080.57 Q219.861 1080.57 217.593 1080.2 Q215.348 1079.83 212.94 1079.09 L212.94 1074.39 Q215.024 1075.52 217.246 1076.08 Q219.468 1076.63 221.945 1076.63 Q225.949 1076.63 228.287 1074.53 Q230.625 1072.42 230.625 1068.81 Q230.625 1065.2 228.287 1063.09 Q225.949 1060.98 221.945 1060.98 Q220.07 1060.98 218.195 1061.4 Q216.343 1061.82 214.399 1062.7 L214.399 1045.34 Z" fill="#000000" fill-rule="nonzero" fill-opacity="1" /><path clip-path="url(#clip520)" d="M254.514 1048.41 Q250.903 1048.41 249.074 1051.98 Q247.269 1055.52 247.269 1062.65 Q247.269 1069.76 249.074 1073.32 Q250.903 1076.86 254.514 1076.86 Q258.148 1076.86 259.954 1073.32 Q261.783 1069.76 261.783 1062.65 Q261.783 1055.52 259.954 1051.98 Q258.148 1048.41 254.514 1048.41 M254.514 1044.71 Q260.324 1044.71 263.38 1049.32 Q266.458 1053.9 266.458 1062.65 Q266.458 1071.38 263.38 1075.98 Q260.324 1080.57 254.514 1080.57 Q248.704 1080.57 245.625 1075.98 Q242.57 1071.38 242.57 1062.65 Q242.57 1053.9 245.625 1049.32 Q248.704 1044.71 254.514 1044.71 Z" fill="#000000" fill-rule="nonzero" fill-opacity="1" /><path clip-path="url(#clip520)" d="M284.676 1048.41 Q281.065 1048.41 279.236 1051.98 Q277.431 1055.52 277.431 1062.65 Q277.431 1069.76 279.236 1073.32 Q281.065 1076.86 284.676 1076.86 Q288.31 1076.86 290.116 1073.32 Q291.944 1069.76 291.944 1062.65 Q291.944 1055.52 290.116 1051.98 Q288.31 1048.41 284.676 1048.41 M284.676 1044.71 Q290.486 1044.71 293.542 1049.32 Q296.62 1053.9 296.62 1062.65 Q296.62 1071.38 293.542 1075.98 Q290.486 1080.57 284.676 1080.57 Q278.866 1080.57 275.787 1075.98 Q272.732 1071.38 272.732 1062.65 Q272.732 1053.9 275.787 1049.32 Q278.866 1044.71 284.676 1044.71 Z" fill="#000000" fill-rule="nonzero" fill-opacity="1" /><path clip-path="url(#clip520)" d="M144.422 762.095 L174.098 762.095 L174.098 766.03 L144.422 766.03 L144.422 762.095 Z" fill="#000000" fill-rule="nonzero" fill-opacity="1" /><path clip-path="url(#clip520)" d="M184.237 744.364 L202.593 744.364 L202.593 748.299 L188.519 748.299 L188.519 756.771 Q189.538 756.424 190.556 756.262 Q191.575 756.076 192.593 756.076 Q198.38 756.076 201.76 759.248 Q205.139 762.419 205.139 767.836 Q205.139 773.414 201.667 776.516 Q198.195 779.595 191.875 779.595 Q189.7 779.595 187.431 779.225 Q185.186 778.854 182.778 778.113 L182.778 773.414 Q184.862 774.549 187.084 775.104 Q189.306 775.66 191.783 775.66 Q195.787 775.66 198.125 773.553 Q200.463 771.447 200.463 767.836 Q200.463 764.225 198.125 762.118 Q195.787 760.012 191.783 760.012 Q189.908 760.012 188.033 760.428 Q186.181 760.845 184.237 761.725 L184.237 744.364 Z" fill="#000000" fill-rule="nonzero" fill-opacity="1" /><path clip-path="url(#clip520)" d="M224.352 747.442 Q220.741 747.442 218.912 751.007 Q217.107 754.549 217.107 761.678 Q217.107 768.785 218.912 772.35 Q220.741 775.891 224.352 775.891 Q227.986 775.891 229.792 772.35 Q231.621 768.785 231.621 761.678 Q231.621 754.549 229.792 751.007 Q227.986 747.442 224.352 747.442 M224.352 743.739 Q230.162 743.739 233.218 748.345 Q236.297 752.928 236.297 761.678 Q236.297 770.405 233.218 775.012 Q230.162 779.595 224.352 779.595 Q218.542 779.595 215.463 775.012 Q212.408 770.405 212.408 761.678 Q212.408 752.928 215.463 748.345 Q218.542 743.739 224.352 743.739 Z" fill="#000000" fill-rule="nonzero" fill-opacity="1" /><path clip-path="url(#clip520)" d="M254.514 747.442 Q250.903 747.442 249.074 751.007 Q247.269 754.549 247.269 761.678 Q247.269 768.785 249.074 772.35 Q250.903 775.891 254.514 775.891 Q258.148 775.891 259.954 772.35 Q261.783 768.785 261.783 761.678 Q261.783 754.549 259.954 751.007 Q258.148 747.442 254.514 747.442 M254.514 743.739 Q260.324 743.739 263.38 748.345 Q266.458 752.928 266.458 761.678 Q266.458 770.405 263.38 775.012 Q260.324 779.595 254.514 779.595 Q248.704 779.595 245.625 775.012 Q242.57 770.405 242.57 761.678 Q242.57 752.928 245.625 748.345 Q248.704 743.739 254.514 743.739 Z" fill="#000000" fill-rule="nonzero" fill-opacity="1" /><path clip-path="url(#clip520)" d="M284.676 747.442 Q281.065 747.442 279.236 751.007 Q277.431 754.549 277.431 761.678 Q277.431 768.785 279.236 772.35 Q281.065 775.891 284.676 775.891 Q288.31 775.891 290.116 772.35 Q291.944 768.785 291.944 761.678 Q291.944 754.549 290.116 751.007 Q288.31 747.442 284.676 747.442 M284.676 743.739 Q290.486 743.739 293.542 748.345 Q296.62 752.928 296.62 761.678 Q296.62 770.405 293.542 775.012 Q290.486 779.595 284.676 779.595 Q278.866 779.595 275.787 775.012 Q272.732 770.405 272.732 761.678 Q272.732 752.928 275.787 748.345 Q278.866 743.739 284.676 743.739 Z" fill="#000000" fill-rule="nonzero" fill-opacity="1" /><path clip-path="url(#clip520)" d="M144.422 461.122 L174.098 461.122 L174.098 465.058 L144.422 465.058 L144.422 461.122 Z" fill="#000000" fill-rule="nonzero" fill-opacity="1" /><path clip-path="url(#clip520)" d="M188.218 474.016 L204.537 474.016 L204.537 477.951 L182.593 477.951 L182.593 474.016 Q185.255 471.261 189.838 466.632 Q194.445 461.979 195.625 460.636 Q197.871 458.113 198.75 456.377 Q199.653 454.618 199.653 452.928 Q199.653 450.173 197.709 448.437 Q195.787 446.701 192.686 446.701 Q190.487 446.701 188.033 447.465 Q185.602 448.229 182.825 449.78 L182.825 445.058 Q185.649 443.923 188.102 443.345 Q190.556 442.766 192.593 442.766 Q197.963 442.766 201.158 445.451 Q204.352 448.136 204.352 452.627 Q204.352 454.757 203.542 456.678 Q202.755 458.576 200.649 461.169 Q200.07 461.84 196.968 465.058 Q193.866 468.252 188.218 474.016 Z" fill="#000000" fill-rule="nonzero" fill-opacity="1" /><path clip-path="url(#clip520)" d="M214.399 443.391 L232.755 443.391 L232.755 447.326 L218.681 447.326 L218.681 455.798 Q219.699 455.451 220.718 455.289 Q221.736 455.104 222.755 455.104 Q228.542 455.104 231.922 458.275 Q235.301 461.447 235.301 466.863 Q235.301 472.442 231.829 475.544 Q228.357 478.622 222.037 478.622 Q219.861 478.622 217.593 478.252 Q215.348 477.882 212.94 477.141 L212.94 472.442 Q215.024 473.576 217.246 474.132 Q219.468 474.687 221.945 474.687 Q225.949 474.687 228.287 472.581 Q230.625 470.474 230.625 466.863 Q230.625 463.252 228.287 461.146 Q225.949 459.039 221.945 459.039 Q220.07 459.039 218.195 459.456 Q216.343 459.872 214.399 460.752 L214.399 443.391 Z" fill="#000000" fill-rule="nonzero" fill-opacity="1" /><path clip-path="url(#clip520)" d="M254.514 446.47 Q250.903 446.47 249.074 450.035 Q247.269 453.576 247.269 460.706 Q247.269 467.812 249.074 471.377 Q250.903 474.919 254.514 474.919 Q258.148 474.919 259.954 471.377 Q261.783 467.812 261.783 460.706 Q261.783 453.576 259.954 450.035 Q258.148 446.47 254.514 446.47 M254.514 442.766 Q260.324 442.766 263.38 447.373 Q266.458 451.956 266.458 460.706 Q266.458 469.433 263.38 474.039 Q260.324 478.622 254.514 478.622 Q248.704 478.622 245.625 474.039 Q242.57 469.433 242.57 460.706 Q242.57 451.956 245.625 447.373 Q248.704 442.766 254.514 442.766 Z" fill="#000000" fill-rule="nonzero" fill-opacity="1" /><path clip-path="url(#clip520)" d="M284.676 446.47 Q281.065 446.47 279.236 450.035 Q277.431 453.576 277.431 460.706 Q277.431 467.812 279.236 471.377 Q281.065 474.919 284.676 474.919 Q288.31 474.919 290.116 471.377 Q291.944 467.812 291.944 460.706 Q291.944 453.576 290.116 450.035 Q288.31 446.47 284.676 446.47 M284.676 442.766 Q290.486 442.766 293.542 447.373 Q296.62 451.956 296.62 460.706 Q296.62 469.433 293.542 474.039 Q290.486 478.622 284.676 478.622 Q278.866 478.622 275.787 474.039 Q272.732 469.433 272.732 460.706 Q272.732 451.956 275.787 447.373 Q278.866 442.766 284.676 442.766 Z" fill="#000000" fill-rule="nonzero" fill-opacity="1" /><path clip-path="url(#clip520)" d="M284.676 145.497 Q281.065 145.497 279.236 149.062 Q277.431 152.604 277.431 159.733 Q277.431 166.84 279.236 170.404 Q281.065 173.946 284.676 173.946 Q288.31 173.946 290.116 170.404 Q291.944 166.84 291.944 159.733 Q291.944 152.604 290.116 149.062 Q288.31 145.497 284.676 145.497 M284.676 141.794 Q290.486 141.794 293.542 146.4 Q296.62 150.983 296.62 159.733 Q296.62 168.46 293.542 173.066 Q290.486 177.65 284.676 177.65 Q278.866 177.65 275.787 173.066 Q272.732 168.46 272.732 159.733 Q272.732 150.983 275.787 146.4 Q278.866 141.794 284.676 141.794 Z" fill="#000000" fill-rule="nonzero" fill-opacity="1" /><path clip-path="url(#clip520)" d="M22.818 913.181 L58.657 926.23 L58.657 900.099 L22.818 913.181 M64.0042 934.951 L16.4842 916.809 L16.4842 909.52 L64.0042 891.41 L64.0042 934.951 Z" fill="#000000" fill-rule="nonzero" fill-opacity="1" /><path clip-path="url(#clip520)" d="M57.2247 852.07 L44.4614 852.07 L44.4614 862.573 L39.1779 862.573 L39.1779 845.704 L59.58 845.704 Q62.2218 849.428 63.5904 853.916 Q64.9272 858.404 64.9272 863.496 Q64.9272 874.636 58.4342 880.938 Q51.9093 887.208 40.2919 887.208 Q28.6427 887.208 22.1496 880.938 Q15.6248 874.636 15.6248 863.496 Q15.6248 858.849 16.7706 854.68 Q17.9164 850.478 20.1444 846.945 L26.9876 846.945 Q23.9639 850.51 22.4361 854.521 Q20.9083 858.531 20.9083 862.955 Q20.9083 871.676 25.7781 876.068 Q30.6479 880.429 40.2919 880.429 Q49.9041 880.429 54.7739 876.068 Q59.6436 871.676 59.6436 862.955 Q59.6436 859.549 59.0707 856.876 Q58.466 854.202 57.2247 852.07 Z" fill="#000000" fill-rule="nonzero" fill-opacity="1" /><path clip-path="url(#clip520)" d="M14.5426 799.425 Q21.8632 803.69 29.0246 805.759 Q36.186 807.828 43.5384 807.828 Q50.8908 807.828 58.1159 805.759 Q65.3091 803.659 72.5979 799.425 L72.5979 804.518 Q65.1182 809.292 57.8931 811.679 Q50.668 814.035 43.5384 814.035 Q36.4406 814.035 29.2474 811.679 Q22.0542 809.324 14.5426 804.518 L14.5426 799.425 Z" fill="#000000" fill-rule="nonzero" fill-opacity="1" /><path clip-path="url(#clip520)" d="M16.4842 787.808 L16.4842 781.379 L60.694 781.379 Q69.2877 781.379 73.1708 784.657 Q77.0539 787.903 77.0539 795.129 L77.0539 797.579 L71.643 797.579 L71.643 795.574 Q71.643 791.309 69.2559 789.559 Q66.8687 787.808 60.694 787.808 L16.4842 787.808 Z" fill="#000000" fill-rule="nonzero" fill-opacity="1" /><path clip-path="url(#clip520)" d="M16.4842 758.43 L16.4842 753.019 L70.0516 769.57 L70.0516 774.981 L16.4842 758.43 Z" fill="#000000" fill-rule="nonzero" fill-opacity="1" /><path clip-path="url(#clip520)" d="M35.1993 719.122 Q31.2526 716.926 29.3747 713.87 Q27.4968 710.815 27.4968 706.677 Q27.4968 701.107 31.4117 698.083 Q35.2948 695.06 42.4881 695.06 L64.0042 695.06 L64.0042 700.948 L42.679 700.948 Q37.5546 700.948 35.072 702.762 Q32.5894 704.576 32.5894 708.3 Q32.5894 712.852 35.6131 715.494 Q38.6368 718.135 43.8567 718.135 L64.0042 718.135 L64.0042 724.024 L42.679 724.024 Q37.5228 724.024 35.072 725.838 Q32.5894 727.652 32.5894 731.44 Q32.5894 735.927 35.6449 738.569 Q38.6686 741.211 43.8567 741.211 L64.0042 741.211 L64.0042 747.099 L28.3562 747.099 L28.3562 741.211 L33.8944 741.211 Q30.616 739.206 29.0564 736.405 Q27.4968 733.604 27.4968 729.753 Q27.4968 725.87 29.4702 723.164 Q31.4436 720.427 35.1993 719.122 Z" fill="#000000" fill-rule="nonzero" fill-opacity="1" /><path clip-path="url(#clip520)" d="M32.4621 669.565 Q32.4621 674.276 36.1542 677.013 Q39.8145 679.75 46.212 679.75 Q52.6095 679.75 56.3017 677.045 Q59.9619 674.307 59.9619 669.565 Q59.9619 664.886 56.2698 662.149 Q52.5777 659.412 46.212 659.412 Q39.8781 659.412 36.186 662.149 Q32.4621 664.886 32.4621 669.565 M27.4968 669.565 Q27.4968 661.926 32.4621 657.566 Q37.4273 653.205 46.212 653.205 Q54.9649 653.205 59.9619 657.566 Q64.9272 661.926 64.9272 669.565 Q64.9272 677.236 59.9619 681.596 Q54.9649 685.925 46.212 685.925 Q37.4273 685.925 32.4621 681.596 Q27.4968 677.236 27.4968 669.565 Z" fill="#000000" fill-rule="nonzero" fill-opacity="1" /><path clip-path="url(#clip520)" d="M14.479 643.497 L14.479 637.641 L64.0042 637.641 L64.0042 643.497 L14.479 643.497 Z" fill="#000000" fill-rule="nonzero" fill-opacity="1" /><path clip-path="url(#clip520)" d="M14.5426 626.31 L14.5426 621.217 Q22.0542 616.443 29.2474 614.088 Q36.4406 611.701 43.5384 611.701 Q50.668 611.701 57.8931 614.088 Q65.1182 616.443 72.5979 621.217 L72.5979 626.31 Q65.3091 622.077 58.1159 620.008 Q50.8908 617.907 43.5384 617.907 Q36.186 617.907 29.0246 620.008 Q21.8632 622.077 14.5426 626.31 Z" fill="#000000" fill-rule="nonzero" fill-opacity="1" /><path clip-path="url(#clip520)" d="M744.066 44.2197 Q746.699 45.1109 749.17 48.0275 Q751.681 50.9442 754.193 56.0483 L762.497 72.576 L753.707 72.576 L745.97 57.061 Q742.972 50.9847 740.136 48.9997 Q737.341 47.0148 732.48 47.0148 L723.568 47.0148 L723.568 72.576 L715.385 72.576 L715.385 12.096 L733.857 12.096 Q744.228 12.096 749.332 16.4305 Q754.436 20.7649 754.436 29.5149 Q754.436 35.2267 751.762 38.994 Q749.129 42.7613 744.066 44.2197 M723.568 18.8205 L723.568 40.2903 L733.857 40.2903 Q739.772 40.2903 742.769 37.5762 Q745.808 34.8216 745.808 29.5149 Q745.808 24.2082 742.769 21.5346 Q739.772 18.8205 733.857 18.8205 L723.568 18.8205 Z" fill="#000000" fill-rule="nonzero" fill-opacity="1" /><path clip-path="url(#clip520)" d="M807.786 48.0275 L807.786 51.6733 L773.516 51.6733 Q774.002 59.3701 778.134 63.421 Q782.306 67.4314 789.719 67.4314 Q794.013 67.4314 798.024 66.3781 Q802.075 65.3249 806.045 63.2184 L806.045 70.267 Q802.034 71.9684 797.821 72.8596 Q793.608 73.7508 789.274 73.7508 Q778.417 73.7508 772.057 67.4314 Q765.738 61.1119 765.738 50.3365 Q765.738 39.1965 771.733 32.6746 Q777.769 26.1121 787.978 26.1121 Q797.133 26.1121 802.439 32.0264 Q807.786 37.9003 807.786 48.0275 M800.333 45.84 Q800.252 39.7232 796.89 36.0774 Q793.568 32.4315 788.059 32.4315 Q781.82 32.4315 778.053 35.9558 Q774.326 39.4801 773.759 45.8805 L800.333 45.84 Z" fill="#000000" fill-rule="nonzero" fill-opacity="1" /><path clip-path="url(#clip520)" d="M840.639 49.7694 Q831.606 49.7694 828.122 51.8354 Q824.638 53.9013 824.638 58.8839 Q824.638 62.8538 827.231 65.2034 Q829.864 67.5124 834.36 67.5124 Q840.558 67.5124 844.285 63.1374 Q848.052 58.7219 848.052 51.4303 L848.052 49.7694 L840.639 49.7694 M855.506 46.6907 L855.506 72.576 L848.052 72.576 L848.052 65.6895 Q845.5 69.8214 841.693 71.8063 Q837.885 73.7508 832.375 73.7508 Q825.408 73.7508 821.276 69.8619 Q817.185 65.9325 817.185 59.3701 Q817.185 51.7138 822.289 47.825 Q827.433 43.9361 837.601 43.9361 L848.052 43.9361 L848.052 43.2069 Q848.052 38.0623 844.65 35.2672 Q841.287 32.4315 835.171 32.4315 Q831.282 32.4315 827.595 33.3632 Q823.909 34.295 820.506 36.1584 L820.506 29.2718 Q824.598 27.692 828.446 26.9223 Q832.294 26.1121 835.94 26.1121 Q845.784 26.1121 850.645 31.2163 Q855.506 36.3204 855.506 46.6907 Z" fill="#000000" fill-rule="nonzero" fill-opacity="1" /><path clip-path="url(#clip520)" d="M903.509 28.9478 L903.509 35.9153 Q900.35 34.1734 897.149 33.3227 Q893.99 32.4315 890.749 32.4315 Q883.498 32.4315 879.487 37.0496 Q875.477 41.6271 875.477 49.9314 Q875.477 58.2358 879.487 62.8538 Q883.498 67.4314 890.749 67.4314 Q893.99 67.4314 897.149 66.5807 Q900.35 65.6895 903.509 63.9476 L903.509 70.8341 Q900.39 72.2924 897.028 73.0216 Q893.706 73.7508 889.939 73.7508 Q879.69 73.7508 873.654 67.3098 Q867.618 60.8689 867.618 49.9314 Q867.618 38.832 873.695 32.472 Q879.812 26.1121 890.425 26.1121 Q893.868 26.1121 897.149 26.8413 Q900.431 27.5299 903.509 28.9478 Z" fill="#000000" fill-rule="nonzero" fill-opacity="1" /><path clip-path="url(#clip520)" d="M923.845 14.324 L923.845 27.2059 L939.198 27.2059 L939.198 32.9987 L923.845 32.9987 L923.845 57.6282 Q923.845 63.1779 925.344 64.7578 Q926.883 66.3376 931.542 66.3376 L939.198 66.3376 L939.198 72.576 L931.542 72.576 Q922.913 72.576 919.632 69.3758 Q916.351 66.1351 916.351 57.6282 L916.351 32.9987 L910.882 32.9987 L910.882 27.2059 L916.351 27.2059 L916.351 14.324 L923.845 14.324 Z" fill="#000000" fill-rule="nonzero" fill-opacity="1" /><path clip-path="url(#clip520)" d="M949.001 27.2059 L956.455 27.2059 L956.455 72.576 L949.001 72.576 L949.001 27.2059 M949.001 9.54393 L956.455 9.54393 L956.455 18.9825 L949.001 18.9825 L949.001 9.54393 Z" fill="#000000" fill-rule="nonzero" fill-opacity="1" /><path clip-path="url(#clip520)" d="M989.632 32.4315 Q983.636 32.4315 980.152 37.1306 Q976.669 41.7891 976.669 49.9314 Q976.669 58.0738 980.112 62.7728 Q983.596 67.4314 989.632 67.4314 Q995.586 67.4314 999.07 62.7323 Q1002.55 58.0333 1002.55 49.9314 Q1002.55 41.8701 999.07 37.1711 Q995.586 32.4315 989.632 32.4315 M989.632 26.1121 Q999.354 26.1121 1004.9 32.4315 Q1010.45 38.7509 1010.45 49.9314 Q1010.45 61.0714 1004.9 67.4314 Q999.354 73.7508 989.632 73.7508 Q979.869 73.7508 974.319 67.4314 Q968.81 61.0714 968.81 49.9314 Q968.81 38.7509 974.319 32.4315 Q979.869 26.1121 989.632 26.1121 Z" fill="#000000" fill-rule="nonzero" fill-opacity="1" /><path clip-path="url(#clip520)" d="M1060.52 45.1919 L1060.52 72.576 L1053.07 72.576 L1053.07 45.4349 Q1053.07 38.994 1050.56 35.7938 Q1048.05 32.5936 1043.02 32.5936 Q1036.99 32.5936 1033.5 36.4419 Q1030.02 40.2903 1030.02 46.9338 L1030.02 72.576 L1022.52 72.576 L1022.52 27.2059 L1030.02 27.2059 L1030.02 34.2544 Q1032.69 30.163 1036.3 28.1376 Q1039.94 26.1121 1044.68 26.1121 Q1052.5 26.1121 1056.51 30.9732 Q1060.52 35.7938 1060.52 45.1919 Z" fill="#000000" fill-rule="nonzero" fill-opacity="1" /><path clip-path="url(#clip520)" d="M1102.08 12.096 L1136.84 12.096 L1136.84 18.9825 L1110.27 18.9825 L1110.27 36.8065 L1134.25 36.8065 L1134.25 43.6931 L1110.27 43.6931 L1110.27 72.576 L1102.08 72.576 L1102.08 12.096 Z" fill="#000000" fill-rule="nonzero" fill-opacity="1" /><path clip-path="url(#clip520)" d="M1169.73 34.1734 Q1168.48 33.4443 1166.98 33.1202 Q1165.52 32.7556 1163.74 32.7556 Q1157.42 32.7556 1154.02 36.8875 Q1150.65 40.9789 1150.65 48.6757 L1150.65 72.576 L1143.16 72.576 L1143.16 27.2059 L1150.65 27.2059 L1150.65 34.2544 Q1153 30.1225 1156.77 28.1376 Q1160.54 26.1121 1165.93 26.1121 Q1166.7 26.1121 1167.63 26.2337 Q1168.56 26.3147 1169.69 26.5172 L1169.73 34.1734 Z" fill="#000000" fill-rule="nonzero" fill-opacity="1" /><path clip-path="url(#clip520)" d="M1214.54 48.0275 L1214.54 51.6733 L1180.27 51.6733 Q1180.75 59.3701 1184.89 63.421 Q1189.06 67.4314 1196.47 67.4314 Q1200.76 67.4314 1204.78 66.3781 Q1208.83 65.3249 1212.8 63.2184 L1212.8 70.267 Q1208.79 71.9684 1204.57 72.8596 Q1200.36 73.7508 1196.03 73.7508 Q1185.17 73.7508 1178.81 67.4314 Q1172.49 61.1119 1172.49 50.3365 Q1172.49 39.1965 1178.48 32.6746 Q1184.52 26.1121 1194.73 26.1121 Q1203.88 26.1121 1209.19 32.0264 Q1214.54 37.9003 1214.54 48.0275 M1207.08 45.84 Q1207 39.7232 1203.64 36.0774 Q1200.32 32.4315 1194.81 32.4315 Q1188.57 32.4315 1184.8 35.9558 Q1181.08 39.4801 1180.51 45.8805 L1207.08 45.84 Z" fill="#000000" fill-rule="nonzero" fill-opacity="1" /><path clip-path="url(#clip520)" d="M1265.58 48.0275 L1265.58 51.6733 L1231.31 51.6733 Q1231.79 59.3701 1235.93 63.421 Q1240.1 67.4314 1247.51 67.4314 Q1251.81 67.4314 1255.82 66.3781 Q1259.87 65.3249 1263.84 63.2184 L1263.84 70.267 Q1259.83 71.9684 1255.61 72.8596 Q1251.4 73.7508 1247.07 73.7508 Q1236.21 73.7508 1229.85 67.4314 Q1223.53 61.1119 1223.53 50.3365 Q1223.53 39.1965 1229.53 32.6746 Q1235.56 26.1121 1245.77 26.1121 Q1254.93 26.1121 1260.23 32.0264 Q1265.58 37.9003 1265.58 48.0275 M1258.13 45.84 Q1258.04 39.7232 1254.68 36.0774 Q1251.36 32.4315 1245.85 32.4315 Q1239.61 32.4315 1235.85 35.9558 Q1232.12 39.4801 1231.55 45.8805 L1258.13 45.84 Z" fill="#000000" fill-rule="nonzero" fill-opacity="1" /><path clip-path="url(#clip520)" d="M1304.51 12.096 L1342.75 12.096 L1342.75 18.9825 L1312.69 18.9825 L1312.69 36.8875 L1341.49 36.8875 L1341.49 43.7741 L1312.69 43.7741 L1312.69 65.6895 L1343.48 65.6895 L1343.48 72.576 L1304.51 72.576 L1304.51 12.096 Z" fill="#000000" fill-rule="nonzero" fill-opacity="1" /><path clip-path="url(#clip520)" d="M1394.32 45.1919 L1394.32 72.576 L1386.86 72.576 L1386.86 45.4349 Q1386.86 38.994 1384.35 35.7938 Q1381.84 32.5936 1376.82 32.5936 Q1370.78 32.5936 1367.3 36.4419 Q1363.81 40.2903 1363.81 46.9338 L1363.81 72.576 L1356.32 72.576 L1356.32 27.2059 L1363.81 27.2059 L1363.81 34.2544 Q1366.49 30.163 1370.09 28.1376 Q1373.74 26.1121 1378.48 26.1121 Q1386.3 26.1121 1390.31 30.9732 Q1394.32 35.7938 1394.32 45.1919 Z" fill="#000000" fill-rule="nonzero" fill-opacity="1" /><path clip-path="url(#clip520)" d="M1447.99 48.0275 L1447.99 51.6733 L1413.72 51.6733 Q1414.21 59.3701 1418.34 63.421 Q1422.51 67.4314 1429.92 67.4314 Q1434.22 67.4314 1438.23 66.3781 Q1442.28 65.3249 1446.25 63.2184 L1446.25 70.267 Q1442.24 71.9684 1438.03 72.8596 Q1433.81 73.7508 1429.48 73.7508 Q1418.62 73.7508 1412.26 67.4314 Q1405.94 61.1119 1405.94 50.3365 Q1405.94 39.1965 1411.94 32.6746 Q1417.97 26.1121 1428.18 26.1121 Q1437.34 26.1121 1442.64 32.0264 Q1447.99 37.9003 1447.99 48.0275 M1440.54 45.84 Q1440.46 39.7232 1437.09 36.0774 Q1433.77 32.4315 1428.26 32.4315 Q1422.03 32.4315 1418.26 35.9558 Q1414.53 39.4801 1413.96 45.8805 L1440.54 45.84 Z" fill="#000000" fill-rule="nonzero" fill-opacity="1" /><path clip-path="url(#clip520)" d="M1486.52 34.1734 Q1485.26 33.4443 1483.76 33.1202 Q1482.3 32.7556 1480.52 32.7556 Q1474.2 32.7556 1470.8 36.8875 Q1467.44 40.9789 1467.44 48.6757 L1467.44 72.576 L1459.94 72.576 L1459.94 27.2059 L1467.44 27.2059 L1467.44 34.2544 Q1469.79 30.1225 1473.55 28.1376 Q1477.32 26.1121 1482.71 26.1121 Q1483.48 26.1121 1484.41 26.2337 Q1485.34 26.3147 1486.47 26.5172 L1486.52 34.1734 Z" fill="#000000" fill-rule="nonzero" fill-opacity="1" /><path clip-path="url(#clip520)" d="M1522.73 49.3643 Q1522.73 41.2625 1519.37 36.8065 Q1516.05 32.3505 1510.01 32.3505 Q1504.02 32.3505 1500.65 36.8065 Q1497.33 41.2625 1497.33 49.3643 Q1497.33 57.4256 1500.65 61.8816 Q1504.02 66.3376 1510.01 66.3376 Q1516.05 66.3376 1519.37 61.8816 Q1522.73 57.4256 1522.73 49.3643 M1530.18 66.9452 Q1530.18 78.5308 1525.04 84.1616 Q1519.89 89.8329 1509.28 89.8329 Q1505.35 89.8329 1501.87 89.2252 Q1498.38 88.6581 1495.1 87.4428 L1495.1 80.1917 Q1498.38 81.9741 1501.58 82.8248 Q1504.79 83.6755 1508.11 83.6755 Q1515.44 83.6755 1519.08 79.8271 Q1522.73 76.0193 1522.73 68.282 L1522.73 64.5957 Q1520.42 68.6061 1516.82 70.5911 Q1513.21 72.576 1508.19 72.576 Q1499.84 72.576 1494.74 66.2161 Q1489.63 59.8562 1489.63 49.3643 Q1489.63 38.832 1494.74 32.472 Q1499.84 26.1121 1508.19 26.1121 Q1513.21 26.1121 1516.82 28.0971 Q1520.42 30.082 1522.73 34.0924 L1522.73 27.2059 L1530.18 27.2059 L1530.18 66.9452 Z" fill="#000000" fill-rule="nonzero" fill-opacity="1" /><path clip-path="url(#clip520)" d="M1564.41 76.7889 Q1561.25 84.8907 1558.26 87.3618 Q1555.26 89.8329 1550.24 89.8329 L1544.28 89.8329 L1544.28 83.5945 L1548.66 83.5945 Q1551.74 83.5945 1553.44 82.1361 Q1555.14 80.6778 1557.2 75.2496 L1558.54 71.8468 L1540.19 27.2059 L1548.09 27.2059 L1562.27 62.6918 L1576.45 27.2059 L1584.34 27.2059 L1564.41 76.7889 Z" fill="#000000" fill-rule="nonzero" fill-opacity="1" /><path clip-path="url(#clip520)" d="M1666.62 16.7545 L1666.62 25.383 Q1662.49 21.5346 1657.79 19.6307 Q1653.13 17.7268 1647.86 17.7268 Q1637.49 17.7268 1631.98 24.0867 Q1626.47 30.4061 1626.47 42.3968 Q1626.47 54.3469 1631.98 60.7069 Q1637.49 67.0263 1647.86 67.0263 Q1653.13 67.0263 1657.79 65.1223 Q1662.49 63.2184 1666.62 59.3701 L1666.62 67.9175 Q1662.32 70.8341 1657.5 72.2924 Q1652.72 73.7508 1647.38 73.7508 Q1633.64 73.7508 1625.75 65.3654 Q1617.85 56.9395 1617.85 42.3968 Q1617.85 27.8135 1625.75 19.4281 Q1633.64 11.0023 1647.38 11.0023 Q1652.81 11.0023 1657.59 12.4606 Q1662.41 13.8784 1666.62 16.7545 Z" fill="#000000" fill-rule="nonzero" fill-opacity="1" /><path clip-path="url(#clip520)" d="M1716.65 45.1919 L1716.65 72.576 L1709.19 72.576 L1709.19 45.4349 Q1709.19 38.994 1706.68 35.7938 Q1704.17 32.5936 1699.15 32.5936 Q1693.11 32.5936 1689.63 36.4419 Q1686.14 40.2903 1686.14 46.9338 L1686.14 72.576 L1678.65 72.576 L1678.65 9.54393 L1686.14 9.54393 L1686.14 34.2544 Q1688.82 30.163 1692.42 28.1376 Q1696.07 26.1121 1700.81 26.1121 Q1708.63 26.1121 1712.64 30.9732 Q1716.65 35.7938 1716.65 45.1919 Z" fill="#000000" fill-rule="nonzero" fill-opacity="1" /><path clip-path="url(#clip520)" d="M1752.13 49.7694 Q1743.1 49.7694 1739.62 51.8354 Q1736.13 53.9013 1736.13 58.8839 Q1736.13 62.8538 1738.72 65.2034 Q1741.36 67.5124 1745.85 67.5124 Q1752.05 67.5124 1755.78 63.1374 Q1759.55 58.7219 1759.55 51.4303 L1759.55 49.7694 L1752.13 49.7694 M1767 46.6907 L1767 72.576 L1759.55 72.576 L1759.55 65.6895 Q1756.99 69.8214 1753.19 71.8063 Q1749.38 73.7508 1743.87 73.7508 Q1736.9 73.7508 1732.77 69.8619 Q1728.68 65.9325 1728.68 59.3701 Q1728.68 51.7138 1733.78 47.825 Q1738.93 43.9361 1749.1 43.9361 L1759.55 43.9361 L1759.55 43.2069 Q1759.55 38.0623 1756.14 35.2672 Q1752.78 32.4315 1746.66 32.4315 Q1742.78 32.4315 1739.09 33.3632 Q1735.4 34.295 1732 36.1584 L1732 29.2718 Q1736.09 27.692 1739.94 26.9223 Q1743.79 26.1121 1747.43 26.1121 Q1757.28 26.1121 1762.14 31.2163 Q1767 36.3204 1767 46.6907 Z" fill="#000000" fill-rule="nonzero" fill-opacity="1" /><path clip-path="url(#clip520)" d="M1820.07 45.1919 L1820.07 72.576 L1812.61 72.576 L1812.61 45.4349 Q1812.61 38.994 1810.1 35.7938 Q1807.59 32.5936 1802.57 32.5936 Q1796.53 32.5936 1793.05 36.4419 Q1789.56 40.2903 1789.56 46.9338 L1789.56 72.576 L1782.07 72.576 L1782.07 27.2059 L1789.56 27.2059 L1789.56 34.2544 Q1792.24 30.163 1795.84 28.1376 Q1799.49 26.1121 1804.23 26.1121 Q1812.05 26.1121 1816.06 30.9732 Q1820.07 35.7938 1820.07 45.1919 Z" fill="#000000" fill-rule="nonzero" fill-opacity="1" /><path clip-path="url(#clip520)" d="M1864.79 49.3643 Q1864.79 41.2625 1861.43 36.8065 Q1858.1 32.3505 1852.07 32.3505 Q1846.07 32.3505 1842.71 36.8065 Q1839.39 41.2625 1839.39 49.3643 Q1839.39 57.4256 1842.71 61.8816 Q1846.07 66.3376 1852.07 66.3376 Q1858.1 66.3376 1861.43 61.8816 Q1864.79 57.4256 1864.79 49.3643 M1872.24 66.9452 Q1872.24 78.5308 1867.1 84.1616 Q1861.95 89.8329 1851.34 89.8329 Q1847.41 89.8329 1843.93 89.2252 Q1840.44 88.6581 1837.16 87.4428 L1837.16 80.1917 Q1840.44 81.9741 1843.64 82.8248 Q1846.84 83.6755 1850.17 83.6755 Q1857.5 83.6755 1861.14 79.8271 Q1864.79 76.0193 1864.79 68.282 L1864.79 64.5957 Q1862.48 68.6061 1858.87 70.5911 Q1855.27 72.576 1850.25 72.576 Q1841.9 72.576 1836.8 66.2161 Q1831.69 59.8562 1831.69 49.3643 Q1831.69 38.832 1836.8 32.472 Q1841.9 26.1121 1850.25 26.1121 Q1855.27 26.1121 1858.87 28.0971 Q1862.48 30.082 1864.79 34.0924 L1864.79 27.2059 L1872.24 27.2059 L1872.24 66.9452 Z" fill="#000000" fill-rule="nonzero" fill-opacity="1" /><path clip-path="url(#clip520)" d="M1926.4 48.0275 L1926.4 51.6733 L1892.13 51.6733 Q1892.62 59.3701 1896.75 63.421 Q1900.92 67.4314 1908.34 67.4314 Q1912.63 67.4314 1916.64 66.3781 Q1920.69 65.3249 1924.66 63.2184 L1924.66 70.267 Q1920.65 71.9684 1916.44 72.8596 Q1912.22 73.7508 1907.89 73.7508 Q1897.03 73.7508 1890.67 67.4314 Q1884.35 61.1119 1884.35 50.3365 Q1884.35 39.1965 1890.35 32.6746 Q1896.39 26.1121 1906.59 26.1121 Q1915.75 26.1121 1921.06 32.0264 Q1926.4 37.9003 1926.4 48.0275 M1918.95 45.84 Q1918.87 39.7232 1915.51 36.0774 Q1912.18 32.4315 1906.68 32.4315 Q1900.44 32.4315 1896.67 35.9558 Q1892.94 39.4801 1892.38 45.8805 L1918.95 45.84 Z" fill="#000000" fill-rule="nonzero" fill-opacity="1" /><path clip-path="url(#clip520)" d="M1967.56 28.5427 L1967.56 35.5912 Q1964.4 33.9709 1961 33.1607 Q1957.6 32.3505 1953.95 32.3505 Q1948.4 32.3505 1945.6 34.0519 Q1942.85 35.7533 1942.85 39.156 Q1942.85 41.7486 1944.83 43.2475 Q1946.82 44.7058 1952.82 46.0426 L1955.37 46.6097 Q1963.31 48.3111 1966.63 51.4303 Q1969.99 54.509 1969.99 60.0587 Q1969.99 66.3781 1964.97 70.0644 Q1959.99 73.7508 1951.24 73.7508 Q1947.59 73.7508 1943.62 73.0216 Q1939.69 72.3329 1935.32 70.9151 L1935.32 63.2184 Q1939.45 65.3654 1943.46 66.4591 Q1947.47 67.5124 1951.4 67.5124 Q1956.66 67.5124 1959.5 65.73 Q1962.33 63.9071 1962.33 60.6258 Q1962.33 57.5877 1960.27 55.9673 Q1958.24 54.3469 1951.32 52.8481 L1948.72 52.2405 Q1941.8 50.7821 1938.72 47.7845 Q1935.64 44.7463 1935.64 39.4801 Q1935.64 33.0797 1940.18 29.5959 Q1944.71 26.1121 1953.06 26.1121 Q1957.19 26.1121 1960.84 26.7198 Q1964.48 27.3274 1967.56 28.5427 Z" fill="#000000" fill-rule="nonzero" fill-opacity="1" /><polyline clip-path="url(#clip522)" style="stroke:#009af9; stroke-linecap:round; stroke-linejoin:round; stroke-width:8; stroke-opacity:1; fill:none" points="427.91,581.998 466.025,375.228 504.141,345.257 542.257,326.492 580.373,309.722 618.489,294.399 656.604,280.388 694.72,267.607 732.836,255.975 770.952,245.398 809.067,235.785 847.183,227.082 885.299,219.256 923.415,212.267 961.53,206.055 999.646,200.556 1037.76,195.7 1075.88,191.415 1113.99,187.62 1152.11,184.224 1190.23,181.149 1228.34,178.402 1266.46,175.979 1304.57,173.869 1342.69,172.053 1380.8,170.507 1418.92,169.196 1457.04,168.079 1495.15,167.104 1533.27,166.207 1571.38,165.338 1609.5,164.534 1647.61,163.826 1685.73,163.228 1723.85,162.746 1761.96,162.373 1800.08,162.093 1838.19,161.879 1876.31,161.689 1914.42,161.472 1952.54,161.197 1990.66,160.918 2028.77,160.672 2066.89,160.482 2105,160.359 2143.12,160.3 2181.23,160.293 2219.35,160.313 2257.47,160.32 2295.58,160.256 "/>
<polyline clip-path="url(#clip522)" style="stroke:#e26f46; stroke-linecap:round; stroke-linejoin:round; stroke-width:8; stroke-opacity:1; fill:none" points="427.91,1386.4 466.025,947.34 504.141,733.407 542.257,605.865 580.373,519.437 618.489,456.081 656.604,407.3 694.72,368.523 732.836,337.019 770.952,311.013 809.067,289.286 847.183,270.984 885.299,255.483 923.415,242.304 961.53,231.059 999.646,221.435 1037.76,213.176 1075.88,206.072 1113.99,199.942 1152.11,194.631 1190.23,190.011 1228.34,185.999 1266.46,182.522 1304.57,179.514 1342.69,176.916 1380.8,174.674 1418.92,172.741 1457.04,171.069 1495.15,169.617 1533.27,168.342 1571.38,167.209 1609.5,166.211 1647.61,165.341 1685.73,164.59 1723.85,163.948 1761.96,163.403 1800.08,162.942 1838.19,162.548 1876.31,162.204 1914.42,161.891 1952.54,161.594 1990.66,161.325 2028.77,161.091 2066.89,160.893 2105,160.732 2143.12,160.606 2181.23,160.508 2219.35,160.43 2257.47,160.359 2295.58,160.278 "/>
<path clip-path="url(#clip520)" d="M1998.2 322.316 L2285.42 322.316 L2285.42 166.796 L1998.2 166.796  Z" fill="#ffffff" fill-rule="evenodd" fill-opacity="1"/>
<polyline clip-path="url(#clip520)" style="stroke:#000000; stroke-linecap:round; stroke-linejoin:round; stroke-width:4; stroke-opacity:1; fill:none" points="1998.2,322.316 2285.42,322.316 2285.42,166.796 1998.2,166.796 1998.2,322.316 "/>
<polyline clip-path="url(#clip520)" style="stroke:#009af9; stroke-linecap:round; stroke-linejoin:round; stroke-width:8; stroke-opacity:1; fill:none" points="2020.64,218.636 2155.32,218.636 "/>
<path clip-path="url(#clip520)" d="M2193.6 205.962 L2184.11 232.027 L2203.11 232.027 L2193.6 205.962 M2177.76 235.916 L2190.96 201.356 L2196.26 201.356 L2209.43 235.916 L2177.76 235.916 Z" fill="#000000" fill-rule="nonzero" fill-opacity="1" /><path clip-path="url(#clip520)" d="M2238.04 230.985 L2238.04 221.703 L2230.4 221.703 L2230.4 217.86 L2242.67 217.86 L2242.67 232.698 Q2239.96 234.619 2236.7 235.615 Q2233.44 236.587 2229.73 236.587 Q2221.63 236.587 2217.05 231.865 Q2212.49 227.119 2212.49 218.67 Q2212.49 210.198 2217.05 205.476 Q2221.63 200.731 2229.73 200.731 Q2233.11 200.731 2236.14 201.564 Q2239.2 202.397 2241.77 204.018 L2241.77 208.995 Q2239.18 206.796 2236.26 205.684 Q2233.34 204.573 2230.13 204.573 Q2223.78 204.573 2220.59 208.115 Q2217.42 211.657 2217.42 218.67 Q2217.42 225.661 2220.59 229.203 Q2223.78 232.744 2230.13 232.744 Q2232.6 232.744 2234.55 232.328 Q2236.49 231.888 2238.04 230.985 Z" fill="#000000" fill-rule="nonzero" fill-opacity="1" /><path clip-path="url(#clip520)" d="M2250.17 233.369 L2254.89 233.369 L2254.89 219.226 L2249.73 220.175 L2249.73 217.49 L2255.06 216.587 L2258.23 216.587 L2258.23 233.369 L2262.97 233.369 L2262.97 235.916 L2250.17 235.916 L2250.17 233.369 Z" fill="#000000" fill-rule="nonzero" fill-opacity="1" /><polyline clip-path="url(#clip520)" style="stroke:#e26f46; stroke-linecap:round; stroke-linejoin:round; stroke-width:8; stroke-opacity:1; fill:none" points="2020.64,270.476 2155.32,270.476 "/>
<path clip-path="url(#clip520)" d="M2193.6 257.802 L2184.11 283.867 L2203.11 283.867 L2193.6 257.802 M2177.76 287.756 L2190.96 253.196 L2196.26 253.196 L2209.43 287.756 L2177.76 287.756 Z" fill="#000000" fill-rule="nonzero" fill-opacity="1" /><path clip-path="url(#clip520)" d="M2238.04 282.825 L2238.04 273.543 L2230.4 273.543 L2230.4 269.7 L2242.67 269.7 L2242.67 284.538 Q2239.96 286.459 2236.7 287.455 Q2233.44 288.427 2229.73 288.427 Q2221.63 288.427 2217.05 283.705 Q2212.49 278.959 2212.49 270.51 Q2212.49 262.038 2217.05 257.316 Q2221.63 252.571 2229.73 252.571 Q2233.11 252.571 2236.14 253.404 Q2239.2 254.237 2241.77 255.858 L2241.77 260.835 Q2239.18 258.636 2236.26 257.524 Q2233.34 256.413 2230.13 256.413 Q2223.78 256.413 2220.59 259.955 Q2217.42 263.497 2217.42 270.51 Q2217.42 277.501 2220.59 281.043 Q2223.78 284.584 2230.13 284.584 Q2232.6 284.584 2234.55 284.168 Q2236.49 283.728 2238.04 282.825 Z" fill="#000000" fill-rule="nonzero" fill-opacity="1" /><path clip-path="url(#clip520)" d="M2252.76 285.117 L2262.58 285.117 L2262.58 287.756 L2248.74 287.756 L2248.74 285.209 Q2249.52 284.492 2250.98 283.196 Q2258.94 276.135 2258.94 273.959 Q2258.94 272.432 2257.74 271.506 Q2256.54 270.557 2254.57 270.557 Q2253.37 270.557 2251.95 270.973 Q2250.54 271.367 2248.87 272.177 L2248.87 269.33 Q2250.66 268.682 2252.19 268.358 Q2253.74 268.034 2255.06 268.034 Q2258.41 268.034 2260.43 269.561 Q2262.44 271.089 2262.44 273.589 Q2262.44 276.807 2254.78 283.381 Q2253.48 284.492 2252.76 285.117 Z" fill="#000000" fill-rule="nonzero" fill-opacity="1" /></svg>
