<?xml version="1.0" encoding="utf-8"?>
<svg xmlns="http://www.w3.org/2000/svg" xmlns:xlink="http://www.w3.org/1999/xlink" width="600" height="400" viewBox="0 0 2400 1600">
<defs>
  <clipPath id="clip480">
    <rect x="0" y="0" width="2400" height="1600"/>
  </clipPath>
</defs>
<path clip-path="url(#clip480)" d="M0 1600 L2400 1600 L2400 8.88178e-14 L0 8.88178e-14  Z" fill="#ffffff" fill-rule="evenodd" fill-opacity="1"/>
<defs>
  <clipPath id="clip481">
    <rect x="480" y="0" width="1681" height="1600"/>
  </clipPath>
</defs>
<path clip-path="url(#clip480)" d="M202.227 1423.18 L2352.76 1423.18 L2352.76 123.472 L202.227 123.472  Z" fill="#ffffff" fill-rule="evenodd" fill-opacity="1"/>
<defs>
  <clipPath id="clip482">
    <rect x="202" y="123" width="2152" height="1301"/>
  </clipPath>
</defs>
<polyline clip-path="url(#clip482)" style="stroke:#000000; stroke-linecap:round; stroke-linejoin:round; stroke-width:2; stroke-opacity:0.1; fill:none" points="263.091,1423.18 263.091,123.472 "/>
<polyline clip-path="url(#clip482)" style="stroke:#000000; stroke-linecap:round; stroke-linejoin:round; stroke-width:2; stroke-opacity:0.1; fill:none" points="668.852,1423.18 668.852,123.472 "/>
<polyline clip-path="url(#clip482)" style="stroke:#000000; stroke-linecap:round; stroke-linejoin:round; stroke-width:2; stroke-opacity:0.1; fill:none" points="1074.61,1423.18 1074.61,123.472 "/>
<polyline clip-path="url(#clip482)" style="stroke:#000000; stroke-linecap:round; stroke-linejoin:round; stroke-width:2; stroke-opacity:0.1; fill:none" points="1480.37,1423.18 1480.37,123.472 "/>
<polyline clip-path="url(#clip482)" style="stroke:#000000; stroke-linecap:round; stroke-linejoin:round; stroke-width:2; stroke-opacity:0.1; fill:none" points="1886.13,1423.18 1886.13,123.472 "/>
<polyline clip-path="url(#clip482)" style="stroke:#000000; stroke-linecap:round; stroke-linejoin:round; stroke-width:2; stroke-opacity:0.1; fill:none" points="2291.89,1423.18 2291.89,123.472 "/>
<polyline clip-path="url(#clip482)" style="stroke:#000000; stroke-linecap:round; stroke-linejoin:round; stroke-width:2; stroke-opacity:0.1; fill:none" points="202.227,1386.45 2352.76,1386.45 "/>
<polyline clip-path="url(#clip482)" style="stroke:#000000; stroke-linecap:round; stroke-linejoin:round; stroke-width:2; stroke-opacity:0.1; fill:none" points="202.227,1041.96 2352.76,1041.96 "/>
<polyline clip-path="url(#clip482)" style="stroke:#000000; stroke-linecap:round; stroke-linejoin:round; stroke-width:2; stroke-opacity:0.1; fill:none" points="202.227,697.47 2352.76,697.47 "/>
<polyline clip-path="url(#clip482)" style="stroke:#000000; stroke-linecap:round; stroke-linejoin:round; stroke-width:2; stroke-opacity:0.1; fill:none" points="202.227,352.981 2352.76,352.981 "/>
<polyline clip-path="url(#clip480)" style="stroke:#000000; stroke-linecap:round; stroke-linejoin:round; stroke-width:4; stroke-opacity:1; fill:none" points="202.227,1423.18 2352.76,1423.18 "/>
<polyline clip-path="url(#clip480)" style="stroke:#000000; stroke-linecap:round; stroke-linejoin:round; stroke-width:4; stroke-opacity:1; fill:none" points="263.091,1423.18 263.091,1404.28 "/>
<polyline clip-path="url(#clip480)" style="stroke:#000000; stroke-linecap:round; stroke-linejoin:round; stroke-width:4; stroke-opacity:1; fill:none" points="668.852,1423.18 668.852,1404.28 "/>
<polyline clip-path="url(#clip480)" style="stroke:#000000; stroke-linecap:round; stroke-linejoin:round; stroke-width:4; stroke-opacity:1; fill:none" points="1074.61,1423.18 1074.61,1404.28 "/>
<polyline clip-path="url(#clip480)" style="stroke:#000000; stroke-linecap:round; stroke-linejoin:round; stroke-width:4; stroke-opacity:1; fill:none" points="1480.37,1423.18 1480.37,1404.28 "/>
<polyline clip-path="url(#clip480)" style="stroke:#000000; stroke-linecap:round; stroke-linejoin:round; stroke-width:4; stroke-opacity:1; fill:none" points="1886.13,1423.18 1886.13,1404.28 "/>
<polyline clip-path="url(#clip480)" style="stroke:#000000; stroke-linecap:round; stroke-linejoin:round; stroke-width:4; stroke-opacity:1; fill:none" points="2291.89,1423.18 2291.89,1404.28 "/>
<path clip-path="url(#clip480)" d="M263.091 1454.1 Q259.48 1454.1 257.652 1457.66 Q255.846 1461.2 255.846 1468.33 Q255.846 1475.44 257.652 1479.01 Q259.48 1482.55 263.091 1482.55 Q266.726 1482.55 268.531 1479.01 Q270.36 1475.44 270.36 1468.33 Q270.36 1461.2 268.531 1457.66 Q266.726 1454.1 263.091 1454.1 M263.091 1450.39 Q268.902 1450.39 271.957 1455 Q275.036 1459.58 275.036 1468.33 Q275.036 1477.06 271.957 1481.67 Q268.902 1486.25 263.091 1486.25 Q257.281 1486.25 254.203 1481.67 Q251.147 1477.06 251.147 1468.33 Q251.147 1459.58 254.203 1455 Q257.281 1450.39 263.091 1450.39 Z" fill="#000000" fill-rule="nonzero" fill-opacity="1" /><path clip-path="url(#clip480)" d="M659.234 1481.64 L666.872 1481.64 L666.872 1455.28 L658.562 1456.95 L658.562 1452.69 L666.826 1451.02 L671.502 1451.02 L671.502 1481.64 L679.141 1481.64 L679.141 1485.58 L659.234 1485.58 L659.234 1481.64 Z" fill="#000000" fill-rule="nonzero" fill-opacity="1" /><path clip-path="url(#clip480)" d="M1069.26 1481.64 L1085.58 1481.64 L1085.58 1485.58 L1063.64 1485.58 L1063.64 1481.64 Q1066.3 1478.89 1070.88 1474.26 Q1075.49 1469.61 1076.67 1468.27 Q1078.92 1465.74 1079.8 1464.01 Q1080.7 1462.25 1080.7 1460.56 Q1080.7 1457.8 1078.76 1456.07 Q1076.83 1454.33 1073.73 1454.33 Q1071.53 1454.33 1069.08 1455.09 Q1066.65 1455.86 1063.87 1457.41 L1063.87 1452.69 Q1066.7 1451.55 1069.15 1450.97 Q1071.6 1450.39 1073.64 1450.39 Q1079.01 1450.39 1082.2 1453.08 Q1085.4 1455.77 1085.4 1460.26 Q1085.4 1462.39 1084.59 1464.31 Q1083.8 1466.2 1081.69 1468.8 Q1081.12 1469.47 1078.01 1472.69 Q1074.91 1475.88 1069.26 1481.64 Z" fill="#000000" fill-rule="nonzero" fill-opacity="1" /><path clip-path="url(#clip480)" d="M1484.62 1466.95 Q1487.98 1467.66 1489.85 1469.93 Q1491.75 1472.2 1491.75 1475.53 Q1491.75 1480.65 1488.23 1483.45 Q1484.71 1486.25 1478.23 1486.25 Q1476.05 1486.25 1473.74 1485.81 Q1471.45 1485.39 1468.99 1484.54 L1468.99 1480.02 Q1470.94 1481.16 1473.25 1481.74 Q1475.57 1482.32 1478.09 1482.32 Q1482.49 1482.32 1484.78 1480.58 Q1487.1 1478.84 1487.1 1475.53 Q1487.1 1472.48 1484.94 1470.77 Q1482.81 1469.03 1478.99 1469.03 L1474.97 1469.03 L1474.97 1465.19 L1479.18 1465.19 Q1482.63 1465.19 1484.46 1463.82 Q1486.29 1462.43 1486.29 1459.84 Q1486.29 1457.18 1484.39 1455.77 Q1482.51 1454.33 1478.99 1454.33 Q1477.07 1454.33 1474.87 1454.75 Q1472.68 1455.16 1470.04 1456.04 L1470.04 1451.88 Q1472.7 1451.14 1475.01 1450.77 Q1477.35 1450.39 1479.41 1450.39 Q1484.74 1450.39 1487.84 1452.83 Q1490.94 1455.23 1490.94 1459.35 Q1490.94 1462.22 1489.3 1464.21 Q1487.65 1466.18 1484.62 1466.95 Z" fill="#000000" fill-rule="nonzero" fill-opacity="1" /><path clip-path="url(#clip480)" d="M1889.14 1455.09 L1877.34 1473.54 L1889.14 1473.54 L1889.14 1455.09 M1887.91 1451.02 L1893.79 1451.02 L1893.79 1473.54 L1898.72 1473.54 L1898.72 1477.43 L1893.79 1477.43 L1893.79 1485.58 L1889.14 1485.58 L1889.14 1477.43 L1873.54 1477.43 L1873.54 1472.92 L1887.91 1451.02 Z" fill="#000000" fill-rule="nonzero" fill-opacity="1" /><path clip-path="url(#clip480)" d="M2282.17 1451.02 L2300.53 1451.02 L2300.53 1454.96 L2286.45 1454.96 L2286.45 1463.43 Q2287.47 1463.08 2288.49 1462.92 Q2289.51 1462.73 2290.53 1462.73 Q2296.31 1462.73 2299.69 1465.9 Q2303.07 1469.08 2303.07 1474.49 Q2303.07 1480.07 2299.6 1483.17 Q2296.13 1486.25 2289.81 1486.25 Q2287.63 1486.25 2285.36 1485.88 Q2283.12 1485.51 2280.71 1484.77 L2280.71 1480.07 Q2282.79 1481.2 2285.02 1481.76 Q2287.24 1482.32 2289.72 1482.32 Q2293.72 1482.32 2296.06 1480.21 Q2298.4 1478.1 2298.4 1474.49 Q2298.4 1470.88 2296.06 1468.77 Q2293.72 1466.67 2289.72 1466.67 Q2287.84 1466.67 2285.97 1467.08 Q2284.11 1467.5 2282.17 1468.38 L2282.17 1451.02 Z" fill="#000000" fill-rule="nonzero" fill-opacity="1" /><path clip-path="url(#clip480)" d="M1199.37 1520.52 L1239.57 1520.52 L1239.57 1525.93 L1222.7 1525.93 L1222.7 1568.04 L1216.24 1568.04 L1216.24 1525.93 L1199.37 1525.93 L1199.37 1520.52 Z" fill="#000000" fill-rule="nonzero" fill-opacity="1" /><path clip-path="url(#clip480)" d="M1243.51 1532.4 L1249.37 1532.4 L1249.37 1568.04 L1243.51 1568.04 L1243.51 1532.4 M1243.51 1518.52 L1249.37 1518.52 L1249.37 1525.93 L1243.51 1525.93 L1243.51 1518.52 Z" fill="#000000" fill-rule="nonzero" fill-opacity="1" /><path clip-path="url(#clip480)" d="M1289.38 1539.24 Q1291.58 1535.29 1294.63 1533.41 Q1297.69 1531.54 1301.82 1531.54 Q1307.39 1531.54 1310.42 1535.45 Q1313.44 1539.33 1313.44 1546.53 L1313.44 1568.04 L1307.55 1568.04 L1307.55 1546.72 Q1307.55 1541.59 1305.74 1539.11 Q1303.93 1536.63 1300.2 1536.63 Q1295.65 1536.63 1293.01 1539.65 Q1290.37 1542.68 1290.37 1547.9 L1290.37 1568.04 L1284.48 1568.04 L1284.48 1546.72 Q1284.48 1541.56 1282.66 1539.11 Q1280.85 1536.63 1277.06 1536.63 Q1272.57 1536.63 1269.93 1539.68 Q1267.29 1542.71 1267.29 1547.9 L1267.29 1568.04 L1261.4 1568.04 L1261.4 1532.4 L1267.29 1532.4 L1267.29 1537.93 Q1269.3 1534.66 1272.1 1533.1 Q1274.9 1531.54 1278.75 1531.54 Q1282.63 1531.54 1285.34 1533.51 Q1288.07 1535.48 1289.38 1539.24 Z" fill="#000000" fill-rule="nonzero" fill-opacity="1" /><path clip-path="url(#clip480)" d="M1355.61 1548.76 L1355.61 1551.62 L1328.69 1551.62 Q1329.07 1557.67 1332.32 1560.85 Q1335.59 1564 1341.42 1564 Q1344.79 1564 1347.94 1563.17 Q1351.13 1562.35 1354.25 1560.69 L1354.25 1566.23 Q1351.1 1567.57 1347.79 1568.27 Q1344.47 1568.97 1341.07 1568.97 Q1332.54 1568.97 1327.54 1564 Q1322.58 1559.04 1322.58 1550.57 Q1322.58 1541.82 1327.29 1536.69 Q1332.03 1531.54 1340.05 1531.54 Q1347.24 1531.54 1351.41 1536.18 Q1355.61 1540.8 1355.61 1548.76 M1349.76 1547.04 Q1349.69 1542.23 1347.05 1539.37 Q1344.44 1536.5 1340.11 1536.5 Q1335.21 1536.5 1332.25 1539.27 Q1329.32 1542.04 1328.88 1547.07 L1349.76 1547.04 Z" fill="#000000" fill-rule="nonzero" fill-opacity="1" /><polyline clip-path="url(#clip480)" style="stroke:#000000; stroke-linecap:round; stroke-linejoin:round; stroke-width:4; stroke-opacity:1; fill:none" points="202.227,1423.18 202.227,123.472 "/>
<polyline clip-path="url(#clip480)" style="stroke:#000000; stroke-linecap:round; stroke-linejoin:round; stroke-width:4; stroke-opacity:1; fill:none" points="202.227,1386.45 221.125,1386.45 "/>
<polyline clip-path="url(#clip480)" style="stroke:#000000; stroke-linecap:round; stroke-linejoin:round; stroke-width:4; stroke-opacity:1; fill:none" points="202.227,1041.96 221.125,1041.96 "/>
<polyline clip-path="url(#clip480)" style="stroke:#000000; stroke-linecap:round; stroke-linejoin:round; stroke-width:4; stroke-opacity:1; fill:none" points="202.227,697.47 221.125,697.47 "/>
<polyline clip-path="url(#clip480)" style="stroke:#000000; stroke-linecap:round; stroke-linejoin:round; stroke-width:4; stroke-opacity:1; fill:none" points="202.227,352.981 221.125,352.981 "/>
<path clip-path="url(#clip480)" d="M154.283 1372.25 Q150.672 1372.25 148.843 1375.81 Q147.038 1379.35 147.038 1386.48 Q147.038 1393.59 148.843 1397.15 Q150.672 1400.69 154.283 1400.69 Q157.917 1400.69 159.723 1397.15 Q161.552 1393.59 161.552 1386.48 Q161.552 1379.35 159.723 1375.81 Q157.917 1372.25 154.283 1372.25 M154.283 1368.54 Q160.093 1368.54 163.149 1373.15 Q166.227 1377.73 166.227 1386.48 Q166.227 1395.21 163.149 1399.81 Q160.093 1404.4 154.283 1404.4 Q148.473 1404.4 145.394 1399.81 Q142.339 1395.21 142.339 1386.48 Q142.339 1377.73 145.394 1373.15 Q148.473 1368.54 154.283 1368.54 Z" fill="#000000" fill-rule="nonzero" fill-opacity="1" /><path clip-path="url(#clip480)" d="M145.325 1024.68 L163.681 1024.68 L163.681 1028.61 L149.607 1028.61 L149.607 1037.09 Q150.626 1036.74 151.644 1036.58 Q152.663 1036.39 153.681 1036.39 Q159.468 1036.39 162.848 1039.56 Q166.227 1042.73 166.227 1048.15 Q166.227 1053.73 162.755 1056.83 Q159.283 1059.91 152.964 1059.91 Q150.788 1059.91 148.519 1059.54 Q146.274 1059.17 143.866 1058.43 L143.866 1053.73 Q145.95 1054.86 148.172 1055.42 Q150.394 1055.97 152.871 1055.97 Q156.876 1055.97 159.214 1053.87 Q161.552 1051.76 161.552 1048.15 Q161.552 1044.54 159.214 1042.43 Q156.876 1040.33 152.871 1040.33 Q150.996 1040.33 149.121 1040.74 Q147.269 1041.16 145.325 1042.04 L145.325 1024.68 Z" fill="#000000" fill-rule="nonzero" fill-opacity="1" /><path clip-path="url(#clip480)" d="M114.931 710.815 L122.57 710.815 L122.57 684.449 L114.26 686.116 L114.26 681.857 L122.524 680.19 L127.2 680.19 L127.2 710.815 L134.839 710.815 L134.839 714.75 L114.931 714.75 L114.931 710.815 Z" fill="#000000" fill-rule="nonzero" fill-opacity="1" /><path clip-path="url(#clip480)" d="M154.283 683.269 Q150.672 683.269 148.843 686.833 Q147.038 690.375 147.038 697.505 Q147.038 704.611 148.843 708.176 Q150.672 711.718 154.283 711.718 Q157.917 711.718 159.723 708.176 Q161.552 704.611 161.552 697.505 Q161.552 690.375 159.723 686.833 Q157.917 683.269 154.283 683.269 M154.283 679.565 Q160.093 679.565 163.149 684.171 Q166.227 688.755 166.227 697.505 Q166.227 706.231 163.149 710.838 Q160.093 715.421 154.283 715.421 Q148.473 715.421 145.394 710.838 Q142.339 706.231 142.339 697.505 Q142.339 688.755 145.394 684.171 Q148.473 679.565 154.283 679.565 Z" fill="#000000" fill-rule="nonzero" fill-opacity="1" /><path clip-path="url(#clip480)" d="M115.927 366.326 L123.566 366.326 L123.566 339.961 L115.256 341.627 L115.256 337.368 L123.519 335.701 L128.195 335.701 L128.195 366.326 L135.834 366.326 L135.834 370.261 L115.927 370.261 L115.927 366.326 Z" fill="#000000" fill-rule="nonzero" fill-opacity="1" /><path clip-path="url(#clip480)" d="M145.325 335.701 L163.681 335.701 L163.681 339.637 L149.607 339.637 L149.607 348.109 Q150.626 347.762 151.644 347.6 Q152.663 347.414 153.681 347.414 Q159.468 347.414 162.848 350.586 Q166.227 353.757 166.227 359.174 Q166.227 364.752 162.755 367.854 Q159.283 370.933 152.964 370.933 Q150.788 370.933 148.519 370.562 Q146.274 370.192 143.866 369.451 L143.866 364.752 Q145.95 365.886 148.172 366.442 Q150.394 366.998 152.871 366.998 Q156.876 366.998 159.214 364.891 Q161.552 362.785 161.552 359.174 Q161.552 355.562 159.214 353.456 Q156.876 351.35 152.871 351.35 Q150.996 351.35 149.121 351.766 Q147.269 352.183 145.325 353.062 L145.325 335.701 Z" fill="#000000" fill-rule="nonzero" fill-opacity="1" /><path clip-path="url(#clip480)" d="M16.4842 836.808 L16.4842 809.499 L21.895 809.499 L21.895 830.379 L35.8996 830.379 L35.8996 811.536 L41.3104 811.536 L41.3104 830.379 L64.0042 830.379 L64.0042 836.808 L16.4842 836.808 Z" fill="#000000" fill-rule="nonzero" fill-opacity="1" /><path clip-path="url(#clip480)" d="M14.479 799.569 L14.479 793.712 L64.0042 793.712 L64.0042 799.569 L14.479 799.569 Z" fill="#000000" fill-rule="nonzero" fill-opacity="1" /><path clip-path="url(#clip480)" d="M49.9359 782.063 L28.3562 782.063 L28.3562 776.206 L49.7131 776.206 Q54.7739 776.206 57.3202 774.233 Q59.8346 772.26 59.8346 768.313 Q59.8346 763.571 56.8109 760.833 Q53.7872 758.064 48.5673 758.064 L28.3562 758.064 L28.3562 752.208 L64.0042 752.208 L64.0042 758.064 L58.5296 758.064 Q61.7762 760.197 63.3676 763.029 Q64.9272 765.83 64.9272 769.554 Q64.9272 775.697 61.1078 778.88 Q57.2883 782.063 49.9359 782.063 M27.4968 767.326 L27.4968 767.326 Z" fill="#000000" fill-rule="nonzero" fill-opacity="1" /><path clip-path="url(#clip480)" d="M28.3562 710.512 L45.7028 723.403 L64.0042 709.844 L64.0042 716.751 L49.9996 727.127 L64.0042 737.503 L64.0042 744.41 L45.3526 730.564 L28.3562 743.232 L28.3562 736.325 L41.0558 726.872 L28.3562 717.419 L28.3562 710.512 Z" fill="#000000" fill-rule="nonzero" fill-opacity="1" /><path clip-path="url(#clip480)" d="M1022.53 12.096 L1057.28 12.096 L1057.28 18.9825 L1030.71 18.9825 L1030.71 36.8065 L1054.69 36.8065 L1054.69 43.6931 L1030.71 43.6931 L1030.71 72.576 L1022.53 72.576 L1022.53 12.096 Z" fill="#000000" fill-rule="nonzero" fill-opacity="1" /><path clip-path="url(#clip480)" d="M1069.92 9.54393 L1077.38 9.54393 L1077.38 72.576 L1069.92 72.576 L1069.92 9.54393 Z" fill="#000000" fill-rule="nonzero" fill-opacity="1" /><path clip-path="url(#clip480)" d="M1092.2 54.671 L1092.2 27.2059 L1099.66 27.2059 L1099.66 54.3874 Q1099.66 60.8284 1102.17 64.0691 Q1104.68 67.2693 1109.7 67.2693 Q1115.74 67.2693 1119.22 63.421 Q1122.75 59.5726 1122.75 52.9291 L1122.75 27.2059 L1130.2 27.2059 L1130.2 72.576 L1122.75 72.576 L1122.75 65.6084 Q1120.03 69.7404 1116.43 71.7658 Q1112.86 73.7508 1108.12 73.7508 Q1100.31 73.7508 1096.25 68.8897 Q1092.2 64.0286 1092.2 54.671 M1110.96 26.1121 L1110.96 26.1121 Z" fill="#000000" fill-rule="nonzero" fill-opacity="1" /><path clip-path="url(#clip480)" d="M1183.27 27.2059 L1166.86 49.2833 L1184.12 72.576 L1175.33 72.576 L1162.12 54.752 L1148.92 72.576 L1140.13 72.576 L1157.75 48.8377 L1141.62 27.2059 L1150.41 27.2059 L1162.45 43.369 L1174.48 27.2059 L1183.27 27.2059 Z" fill="#000000" fill-rule="nonzero" fill-opacity="1" /><path clip-path="url(#clip480)" d="M1230.91 48.0275 L1230.91 51.6733 L1196.64 51.6733 Q1197.12 59.3701 1201.25 63.421 Q1205.43 67.4314 1212.84 67.4314 Q1217.13 67.4314 1221.14 66.3781 Q1225.19 65.3249 1229.16 63.2184 L1229.16 70.267 Q1225.15 71.9684 1220.94 72.8596 Q1216.73 73.7508 1212.39 73.7508 Q1201.54 73.7508 1195.18 67.4314 Q1188.86 61.1119 1188.86 50.3365 Q1188.86 39.1965 1194.85 32.6746 Q1200.89 26.1121 1211.1 26.1121 Q1220.25 26.1121 1225.56 32.0264 Q1230.91 37.9003 1230.91 48.0275 M1223.45 45.84 Q1223.37 39.7232 1220.01 36.0774 Q1216.69 32.4315 1211.18 32.4315 Q1204.94 32.4315 1201.17 35.9558 Q1197.45 39.4801 1196.88 45.8805 L1223.45 45.84 Z" fill="#000000" fill-rule="nonzero" fill-opacity="1" /><path clip-path="url(#clip480)" d="M1272.06 28.5427 L1272.06 35.5912 Q1268.9 33.9709 1265.5 33.1607 Q1262.1 32.3505 1258.45 32.3505 Q1252.9 32.3505 1250.11 34.0519 Q1247.35 35.7533 1247.35 39.156 Q1247.35 41.7486 1249.34 43.2475 Q1251.32 44.7058 1257.32 46.0426 L1259.87 46.6097 Q1267.81 48.3111 1271.13 51.4303 Q1274.49 54.509 1274.49 60.0587 Q1274.49 66.3781 1269.47 70.0644 Q1264.49 73.7508 1255.74 73.7508 Q1252.09 73.7508 1248.12 73.0216 Q1244.19 72.3329 1239.82 70.9151 L1239.82 63.2184 Q1243.95 65.3654 1247.96 66.4591 Q1251.97 67.5124 1255.9 67.5124 Q1261.17 67.5124 1264 65.73 Q1266.84 63.9071 1266.84 60.6258 Q1266.84 57.5877 1264.77 55.9673 Q1262.75 54.3469 1255.82 52.8481 L1253.23 52.2405 Q1246.3 50.7821 1243.22 47.7845 Q1240.14 44.7463 1240.14 39.4801 Q1240.14 33.0797 1244.68 29.5959 Q1249.22 26.1121 1257.56 26.1121 Q1261.69 26.1121 1265.34 26.7198 Q1268.98 27.3274 1272.06 28.5427 Z" fill="#000000" fill-rule="nonzero" fill-opacity="1" /><path clip-path="url(#clip480)" d="M1328.65 72.576 L1305.56 12.096 L1314.11 12.096 L1333.27 63.0159 L1352.47 12.096 L1360.98 12.096 L1337.93 72.576 L1328.65 72.576 Z" fill="#000000" fill-rule="nonzero" fill-opacity="1" /><path clip-path="url(#clip480)" d="M1367.99 68.12 L1376.25 68.12 L1376.25 43.369 L1367.22 45.0299 L1367.22 40.3308 L1376.54 38.7509 L1382.09 38.7509 L1382.09 68.12 L1390.39 68.12 L1390.39 72.576 L1367.99 72.576 L1367.99 68.12 Z" fill="#000000" fill-rule="nonzero" fill-opacity="1" /><path clip-path="url(#clip480)" d="M1404.65 62.2867 L1413.2 62.2867 L1413.2 69.2543 L1406.55 82.2172 L1401.33 82.2172 L1404.65 69.2543 L1404.65 62.2867 Z" fill="#000000" fill-rule="nonzero" fill-opacity="1" /><path clip-path="url(#clip480)" d="M1471.41 72.576 L1448.32 12.096 L1456.87 12.096 L1476.03 63.0159 L1495.23 12.096 L1503.73 12.096 L1480.69 72.576 L1471.41 72.576 Z" fill="#000000" fill-rule="nonzero" fill-opacity="1" /><path clip-path="url(#clip480)" d="M1515.28 67.958 L1532.46 67.958 L1532.46 72.576 L1508.23 72.576 L1508.23 68.12 Q1509.61 66.8642 1512.16 64.5957 Q1526.1 52.2405 1526.1 48.4326 Q1526.1 45.759 1523.99 44.1387 Q1521.88 42.4778 1518.44 42.4778 Q1516.33 42.4778 1513.86 43.2069 Q1511.39 43.8956 1508.47 45.3134 L1508.47 40.3308 Q1511.59 39.1965 1514.27 38.6294 Q1516.98 38.0623 1519.29 38.0623 Q1525.16 38.0623 1528.69 40.7359 Q1532.21 43.4095 1532.21 47.7845 Q1532.21 53.4152 1518.8 64.9198 Q1516.54 66.8642 1515.28 67.958 Z" fill="#000000" fill-rule="nonzero" fill-opacity="1" /><polyline clip-path="url(#clip482)" style="stroke:#009af9; stroke-linecap:round; stroke-linejoin:round; stroke-width:8; stroke-opacity:1; fill:none" points="303.667,160.256 344.244,891.619 384.82,1004.83 425.396,1078.3 465.972,1135.43 506.548,1180.7 547.124,1216.87 587.7,1245.97 628.276,1269.54 668.852,1288.72 709.428,1304.41 750.004,1317.3 790.58,1327.96 831.156,1336.82 871.732,1344.24 912.308,1350.46 952.884,1355.7 993.46,1360.14 1034.04,1363.89 1074.61,1367.07 1115.19,1369.75 1155.76,1372.03 1196.34,1373.98 1236.92,1375.65 1277.49,1377.1 1318.07,1378.36 1358.64,1379.46 1399.22,1380.41 1439.8,1381.24 1480.37,1381.94 1520.95,1382.52 1561.52,1383.02 1602.1,1383.44 1642.68,1383.82 1683.25,1384.16 1723.83,1384.46 1764.4,1384.74 1804.98,1384.98 1845.56,1385.2 1886.13,1385.37 1926.71,1385.5 1967.28,1385.6 2007.86,1385.69 2048.44,1385.77 2089.01,1385.85 2129.59,1385.93 2170.16,1386.02 2210.74,1386.1 2251.32,1386.17 2291.89,1386.21 "/>
<polyline clip-path="url(#clip482)" style="stroke:#e26f46; stroke-linecap:round; stroke-linejoin:round; stroke-width:8; stroke-opacity:1; fill:none" points="303.667,479.347 344.244,1018.92 384.82,1198.03 425.396,1271.88 465.972,1309.18 506.548,1330.81 547.124,1344.59 587.7,1353.99 628.276,1360.7 668.852,1365.68 709.428,1369.48 750.004,1372.44 790.58,1374.79 831.156,1376.67 871.732,1378.21 912.308,1379.47 952.884,1380.51 993.46,1381.39 1034.04,1382.12 1074.61,1382.74 1115.19,1383.26 1155.76,1383.7 1196.34,1384.08 1236.92,1384.4 1277.49,1384.68 1318.07,1384.92 1358.64,1385.12 1399.22,1385.3 1439.8,1385.45 1480.37,1385.59 1520.95,1385.7 1561.52,1385.8 1602.1,1385.88 1642.68,1385.95 1683.25,1386.02 1723.83,1386.07 1764.4,1386.12 1804.98,1386.17 1845.56,1386.2 1886.13,1386.24 1926.71,1386.26 1967.28,1386.29 2007.86,1386.31 2048.44,1386.32 2089.01,1386.34 2129.59,1386.35 2170.16,1386.37 2210.74,1386.38 2251.32,1386.39 2291.89,1386.4 "/>
<path clip-path="url(#clip480)" d="M2017.55 322.316 L2281.07 322.316 L2281.07 166.796 L2017.55 166.796  Z" fill="#ffffff" fill-rule="evenodd" fill-opacity="1"/>
<polyline clip-path="url(#clip480)" style="stroke:#000000; stroke-linecap:round; stroke-linejoin:round; stroke-width:4; stroke-opacity:1; fill:none" points="2017.55,322.316 2281.07,322.316 2281.07,166.796 2017.55,166.796 2017.55,322.316 "/>
<polyline clip-path="url(#clip480)" style="stroke:#009af9; stroke-linecap:round; stroke-linejoin:round; stroke-width:8; stroke-opacity:1; fill:none" points="2041.44,218.636 2184.81,218.636 "/>
<path clip-path="url(#clip480)" d="M2221.9 235.916 L2208.7 201.356 L2213.59 201.356 L2224.54 230.453 L2235.51 201.356 L2240.37 201.356 L2227.2 235.916 L2221.9 235.916 Z" fill="#000000" fill-rule="nonzero" fill-opacity="1" /><path clip-path="url(#clip480)" d="M2244.38 233.369 L2249.1 233.369 L2249.1 219.226 L2243.94 220.175 L2243.94 217.49 L2249.26 216.587 L2252.43 216.587 L2252.43 233.369 L2257.18 233.369 L2257.18 235.916 L2244.38 235.916 L2244.38 233.369 Z" fill="#000000" fill-rule="nonzero" fill-opacity="1" /><polyline clip-path="url(#clip480)" style="stroke:#e26f46; stroke-linecap:round; stroke-linejoin:round; stroke-width:8; stroke-opacity:1; fill:none" points="2041.44,270.476 2184.81,270.476 "/>
<path clip-path="url(#clip480)" d="M2221.9 287.756 L2208.7 253.196 L2213.59 253.196 L2224.54 282.293 L2235.51 253.196 L2240.37 253.196 L2227.2 287.756 L2221.9 287.756 Z" fill="#000000" fill-rule="nonzero" fill-opacity="1" /><path clip-path="url(#clip480)" d="M2246.97 285.117 L2256.78 285.117 L2256.78 287.756 L2242.94 287.756 L2242.94 285.209 Q2243.73 284.492 2245.19 283.196 Q2253.15 276.135 2253.15 273.959 Q2253.15 272.432 2251.95 271.506 Q2250.74 270.557 2248.77 270.557 Q2247.57 270.557 2246.16 270.973 Q2244.75 271.367 2243.08 272.177 L2243.08 269.33 Q2244.86 268.682 2246.39 268.358 Q2247.94 268.034 2249.26 268.034 Q2252.62 268.034 2254.63 269.561 Q2256.64 271.089 2256.64 273.589 Q2256.64 276.807 2248.98 283.381 Q2247.69 284.492 2246.97 285.117 Z" fill="#000000" fill-rule="nonzero" fill-opacity="1" /></svg>
