<?xml version="1.0" encoding="utf-8"?>
<svg xmlns="http://www.w3.org/2000/svg" xmlns:xlink="http://www.w3.org/1999/xlink" width="600" height="400" viewBox="0 0 2400 1600">
<defs>
  <clipPath id="clip910">
    <rect x="0" y="0" width="2400" height="1600"/>
  </clipPath>
</defs>
<path clip-path="url(#clip910)" d="M0 1600 L2400 1600 L2400 8.88178e-14 L0 8.88178e-14  Z" fill="#ffffff" fill-rule="evenodd" fill-opacity="1"/>
<defs>
  <clipPath id="clip911">
    <rect x="480" y="0" width="1681" height="1600"/>
  </clipPath>
</defs>
<path clip-path="url(#clip910)" d="M272.297 1423.18 L2352.76 1423.18 L2352.76 123.472 L272.297 123.472  Z" fill="#ffffff" fill-rule="evenodd" fill-opacity="1"/>
<defs>
  <clipPath id="clip912">
    <rect x="272" y="123" width="2081" height="1301"/>
  </clipPath>
</defs>
<polyline clip-path="url(#clip912)" style="stroke:#000000; stroke-linecap:round; stroke-linejoin:round; stroke-width:2; stroke-opacity:0.1; fill:none" points="331.177,1423.18 331.177,123.472 "/>
<polyline clip-path="url(#clip912)" style="stroke:#000000; stroke-linecap:round; stroke-linejoin:round; stroke-width:2; stroke-opacity:0.1; fill:none" points="723.717,1423.18 723.717,123.472 "/>
<polyline clip-path="url(#clip912)" style="stroke:#000000; stroke-linecap:round; stroke-linejoin:round; stroke-width:2; stroke-opacity:0.1; fill:none" points="1116.26,1423.18 1116.26,123.472 "/>
<polyline clip-path="url(#clip912)" style="stroke:#000000; stroke-linecap:round; stroke-linejoin:round; stroke-width:2; stroke-opacity:0.1; fill:none" points="1508.8,1423.18 1508.8,123.472 "/>
<polyline clip-path="url(#clip912)" style="stroke:#000000; stroke-linecap:round; stroke-linejoin:round; stroke-width:2; stroke-opacity:0.1; fill:none" points="1901.34,1423.18 1901.34,123.472 "/>
<polyline clip-path="url(#clip912)" style="stroke:#000000; stroke-linecap:round; stroke-linejoin:round; stroke-width:2; stroke-opacity:0.1; fill:none" points="2293.87,1423.18 2293.87,123.472 "/>
<polyline clip-path="url(#clip912)" style="stroke:#000000; stroke-linecap:round; stroke-linejoin:round; stroke-width:2; stroke-opacity:0.1; fill:none" points="272.297,1189.69 2352.76,1189.69 "/>
<polyline clip-path="url(#clip912)" style="stroke:#000000; stroke-linecap:round; stroke-linejoin:round; stroke-width:2; stroke-opacity:0.1; fill:none" points="272.297,943.813 2352.76,943.813 "/>
<polyline clip-path="url(#clip912)" style="stroke:#000000; stroke-linecap:round; stroke-linejoin:round; stroke-width:2; stroke-opacity:0.1; fill:none" points="272.297,697.934 2352.76,697.934 "/>
<polyline clip-path="url(#clip912)" style="stroke:#000000; stroke-linecap:round; stroke-linejoin:round; stroke-width:2; stroke-opacity:0.1; fill:none" points="272.297,452.055 2352.76,452.055 "/>
<polyline clip-path="url(#clip912)" style="stroke:#000000; stroke-linecap:round; stroke-linejoin:round; stroke-width:2; stroke-opacity:0.1; fill:none" points="272.297,206.175 2352.76,206.175 "/>
<polyline clip-path="url(#clip910)" style="stroke:#000000; stroke-linecap:round; stroke-linejoin:round; stroke-width:4; stroke-opacity:1; fill:none" points="272.297,1423.18 2352.76,1423.18 "/>
<polyline clip-path="url(#clip910)" style="stroke:#000000; stroke-linecap:round; stroke-linejoin:round; stroke-width:4; stroke-opacity:1; fill:none" points="331.177,1423.18 331.177,1404.28 "/>
<polyline clip-path="url(#clip910)" style="stroke:#000000; stroke-linecap:round; stroke-linejoin:round; stroke-width:4; stroke-opacity:1; fill:none" points="723.717,1423.18 723.717,1404.28 "/>
<polyline clip-path="url(#clip910)" style="stroke:#000000; stroke-linecap:round; stroke-linejoin:round; stroke-width:4; stroke-opacity:1; fill:none" points="1116.26,1423.18 1116.26,1404.28 "/>
<polyline clip-path="url(#clip910)" style="stroke:#000000; stroke-linecap:round; stroke-linejoin:round; stroke-width:4; stroke-opacity:1; fill:none" points="1508.8,1423.18 1508.8,1404.28 "/>
<polyline clip-path="url(#clip910)" style="stroke:#000000; stroke-linecap:round; stroke-linejoin:round; stroke-width:4; stroke-opacity:1; fill:none" points="1901.34,1423.18 1901.34,1404.28 "/>
<polyline clip-path="url(#clip910)" style="stroke:#000000; stroke-linecap:round; stroke-linejoin:round; stroke-width:4; stroke-opacity:1; fill:none" points="2293.87,1423.18 2293.87,1404.28 "/>
<path clip-path="url(#clip910)" d="M331.177 1454.1 Q327.566 1454.1 325.738 1457.66 Q323.932 1461.2 323.932 1468.33 Q323.932 1475.44 325.738 1479.01 Q327.566 1482.55 331.177 1482.55 Q334.812 1482.55 336.617 1479.01 Q338.446 1475.44 338.446 1468.33 Q338.446 1461.2 336.617 1457.66 Q334.812 1454.1 331.177 1454.1 M331.177 1450.39 Q336.988 1450.39 340.043 1455 Q343.122 1459.58 343.122 1468.33 Q343.122 1477.06 340.043 1481.67 Q336.988 1486.25 331.177 1486.25 Q325.367 1486.25 322.289 1481.67 Q319.233 1477.06 319.233 1468.33 Q319.233 1459.58 322.289 1455 Q325.367 1450.39 331.177 1450.39 Z" fill="#000000" fill-rule="nonzero" fill-opacity="1" /><path clip-path="url(#clip910)" d="M714.099 1481.64 L721.738 1481.64 L721.738 1455.28 L713.428 1456.95 L713.428 1452.69 L721.692 1451.02 L726.367 1451.02 L726.367 1481.64 L734.006 1481.64 L734.006 1485.58 L714.099 1485.58 L714.099 1481.64 Z" fill="#000000" fill-rule="nonzero" fill-opacity="1" /><path clip-path="url(#clip910)" d="M1110.91 1481.64 L1127.23 1481.64 L1127.23 1485.58 L1105.28 1485.58 L1105.28 1481.64 Q1107.95 1478.89 1112.53 1474.26 Q1117.14 1469.61 1118.32 1468.27 Q1120.56 1465.74 1121.44 1464.01 Q1122.34 1462.25 1122.34 1460.56 Q1122.34 1457.8 1120.4 1456.07 Q1118.48 1454.33 1115.38 1454.33 Q1113.18 1454.33 1110.72 1455.09 Q1108.29 1455.86 1105.52 1457.41 L1105.52 1452.69 Q1108.34 1451.55 1110.79 1450.97 Q1113.25 1450.39 1115.28 1450.39 Q1120.65 1450.39 1123.85 1453.08 Q1127.04 1455.77 1127.04 1460.26 Q1127.04 1462.39 1126.23 1464.31 Q1125.45 1466.2 1123.34 1468.8 Q1122.76 1469.47 1119.66 1472.69 Q1116.56 1475.88 1110.91 1481.64 Z" fill="#000000" fill-rule="nonzero" fill-opacity="1" /><path clip-path="url(#clip910)" d="M1513.04 1466.95 Q1516.4 1467.66 1518.28 1469.93 Q1520.17 1472.2 1520.17 1475.53 Q1520.17 1480.65 1516.65 1483.45 Q1513.14 1486.25 1506.65 1486.25 Q1504.48 1486.25 1502.16 1485.81 Q1499.87 1485.39 1497.42 1484.54 L1497.42 1480.02 Q1499.36 1481.16 1501.68 1481.74 Q1503.99 1482.32 1506.52 1482.32 Q1510.91 1482.32 1513.21 1480.58 Q1515.52 1478.84 1515.52 1475.53 Q1515.52 1472.48 1513.37 1470.77 Q1511.24 1469.03 1507.42 1469.03 L1503.39 1469.03 L1503.39 1465.19 L1507.6 1465.19 Q1511.05 1465.19 1512.88 1463.82 Q1514.71 1462.43 1514.71 1459.84 Q1514.71 1457.18 1512.81 1455.77 Q1510.94 1454.33 1507.42 1454.33 Q1505.5 1454.33 1503.3 1454.75 Q1501.1 1455.16 1498.46 1456.04 L1498.46 1451.88 Q1501.12 1451.14 1503.44 1450.77 Q1505.78 1450.39 1507.84 1450.39 Q1513.16 1450.39 1516.26 1452.83 Q1519.36 1455.23 1519.36 1459.35 Q1519.36 1462.22 1517.72 1464.21 Q1516.08 1466.18 1513.04 1466.95 Z" fill="#000000" fill-rule="nonzero" fill-opacity="1" /><path clip-path="url(#clip910)" d="M1904.34 1455.09 L1892.54 1473.54 L1904.34 1473.54 L1904.34 1455.09 M1903.12 1451.02 L1909 1451.02 L1909 1473.54 L1913.93 1473.54 L1913.93 1477.43 L1909 1477.43 L1909 1485.58 L1904.34 1485.58 L1904.34 1477.43 L1888.74 1477.43 L1888.74 1472.92 L1903.12 1451.02 Z" fill="#000000" fill-rule="nonzero" fill-opacity="1" /><path clip-path="url(#clip910)" d="M2284.15 1451.02 L2302.51 1451.02 L2302.51 1454.96 L2288.44 1454.96 L2288.44 1463.43 Q2289.45 1463.08 2290.47 1462.92 Q2291.49 1462.73 2292.51 1462.73 Q2298.3 1462.73 2301.68 1465.9 Q2305.06 1469.08 2305.06 1474.49 Q2305.06 1480.07 2301.58 1483.17 Q2298.11 1486.25 2291.79 1486.25 Q2289.62 1486.25 2287.35 1485.88 Q2285.1 1485.51 2282.69 1484.77 L2282.69 1480.07 Q2284.78 1481.2 2287 1481.76 Q2289.22 1482.32 2291.7 1482.32 Q2295.7 1482.32 2298.04 1480.21 Q2300.38 1478.1 2300.38 1474.49 Q2300.38 1470.88 2298.04 1468.77 Q2295.7 1466.67 2291.7 1466.67 Q2289.82 1466.67 2287.95 1467.08 Q2286.1 1467.5 2284.15 1468.38 L2284.15 1451.02 Z" fill="#000000" fill-rule="nonzero" fill-opacity="1" /><path clip-path="url(#clip910)" d="M1234.4 1520.52 L1274.6 1520.52 L1274.6 1525.93 L1257.73 1525.93 L1257.73 1568.04 L1251.27 1568.04 L1251.27 1525.93 L1234.4 1525.93 L1234.4 1520.52 Z" fill="#000000" fill-rule="nonzero" fill-opacity="1" /><path clip-path="url(#clip910)" d="M1278.55 1532.4 L1284.41 1532.4 L1284.41 1568.04 L1278.55 1568.04 L1278.55 1532.4 M1278.55 1518.52 L1284.41 1518.52 L1284.41 1525.93 L1278.55 1525.93 L1278.55 1518.52 Z" fill="#000000" fill-rule="nonzero" fill-opacity="1" /><path clip-path="url(#clip910)" d="M1324.41 1539.24 Q1326.61 1535.29 1329.67 1533.41 Q1332.72 1531.54 1336.86 1531.54 Q1342.43 1531.54 1345.45 1535.45 Q1348.48 1539.33 1348.48 1546.53 L1348.48 1568.04 L1342.59 1568.04 L1342.59 1546.72 Q1342.59 1541.59 1340.77 1539.11 Q1338.96 1536.63 1335.24 1536.63 Q1330.68 1536.63 1328.04 1539.65 Q1325.4 1542.68 1325.4 1547.9 L1325.4 1568.04 L1319.51 1568.04 L1319.51 1546.72 Q1319.51 1541.56 1317.7 1539.11 Q1315.88 1536.63 1312.1 1536.63 Q1307.61 1536.63 1304.97 1539.68 Q1302.33 1542.71 1302.33 1547.9 L1302.33 1568.04 L1296.44 1568.04 L1296.44 1532.4 L1302.33 1532.4 L1302.33 1537.93 Q1304.33 1534.66 1307.13 1533.1 Q1309.93 1531.54 1313.78 1531.54 Q1317.67 1531.54 1320.37 1533.51 Q1323.11 1535.48 1324.41 1539.24 Z" fill="#000000" fill-rule="nonzero" fill-opacity="1" /><path clip-path="url(#clip910)" d="M1390.65 1548.76 L1390.65 1551.62 L1363.72 1551.62 Q1364.1 1557.67 1367.35 1560.85 Q1370.63 1564 1376.45 1564 Q1379.83 1564 1382.98 1563.17 Q1386.16 1562.35 1389.28 1560.69 L1389.28 1566.23 Q1386.13 1567.57 1382.82 1568.27 Q1379.51 1568.97 1376.1 1568.97 Q1367.57 1568.97 1362.58 1564 Q1357.61 1559.04 1357.61 1550.57 Q1357.61 1541.82 1362.32 1536.69 Q1367.06 1531.54 1375.09 1531.54 Q1382.28 1531.54 1386.45 1536.18 Q1390.65 1540.8 1390.65 1548.76 M1384.79 1547.04 Q1384.73 1542.23 1382.09 1539.37 Q1379.48 1536.5 1375.15 1536.5 Q1370.25 1536.5 1367.29 1539.27 Q1364.36 1542.04 1363.91 1547.07 L1384.79 1547.04 Z" fill="#000000" fill-rule="nonzero" fill-opacity="1" /><polyline clip-path="url(#clip910)" style="stroke:#000000; stroke-linecap:round; stroke-linejoin:round; stroke-width:4; stroke-opacity:1; fill:none" points="272.297,1423.18 272.297,123.472 "/>
<polyline clip-path="url(#clip910)" style="stroke:#000000; stroke-linecap:round; stroke-linejoin:round; stroke-width:4; stroke-opacity:1; fill:none" points="272.297,1189.69 291.194,1189.69 "/>
<polyline clip-path="url(#clip910)" style="stroke:#000000; stroke-linecap:round; stroke-linejoin:round; stroke-width:4; stroke-opacity:1; fill:none" points="272.297,943.813 291.194,943.813 "/>
<polyline clip-path="url(#clip910)" style="stroke:#000000; stroke-linecap:round; stroke-linejoin:round; stroke-width:4; stroke-opacity:1; fill:none" points="272.297,697.934 291.194,697.934 "/>
<polyline clip-path="url(#clip910)" style="stroke:#000000; stroke-linecap:round; stroke-linejoin:round; stroke-width:4; stroke-opacity:1; fill:none" points="272.297,452.055 291.194,452.055 "/>
<polyline clip-path="url(#clip910)" style="stroke:#000000; stroke-linecap:round; stroke-linejoin:round; stroke-width:4; stroke-opacity:1; fill:none" points="272.297,206.175 291.194,206.175 "/>
<path clip-path="url(#clip910)" d="M114.26 1190.14 L143.936 1190.14 L143.936 1194.08 L114.26 1194.08 L114.26 1190.14 Z" fill="#000000" fill-rule="nonzero" fill-opacity="1" /><path clip-path="url(#clip910)" d="M158.056 1203.04 L174.376 1203.04 L174.376 1206.97 L152.431 1206.97 L152.431 1203.04 Q155.093 1200.28 159.677 1195.65 Q164.283 1191 165.464 1189.66 Q167.709 1187.13 168.589 1185.4 Q169.491 1183.64 169.491 1181.95 Q169.491 1179.19 167.547 1177.46 Q165.626 1175.72 162.524 1175.72 Q160.325 1175.72 157.871 1176.49 Q155.44 1177.25 152.663 1178.8 L152.663 1174.08 Q155.487 1172.94 157.94 1172.37 Q160.394 1171.79 162.431 1171.79 Q167.802 1171.79 170.996 1174.47 Q174.19 1177.16 174.19 1181.65 Q174.19 1183.78 173.38 1185.7 Q172.593 1187.6 170.487 1190.19 Q169.908 1190.86 166.806 1194.08 Q163.704 1197.27 158.056 1203.04 Z" fill="#000000" fill-rule="nonzero" fill-opacity="1" /><path clip-path="url(#clip910)" d="M194.19 1175.49 Q190.579 1175.49 188.75 1179.06 Q186.945 1182.6 186.945 1189.73 Q186.945 1196.83 188.75 1200.4 Q190.579 1203.94 194.19 1203.94 Q197.825 1203.94 199.63 1200.4 Q201.459 1196.83 201.459 1189.73 Q201.459 1182.6 199.63 1179.06 Q197.825 1175.49 194.19 1175.49 M194.19 1171.79 Q200 1171.79 203.056 1176.39 Q206.135 1180.98 206.135 1189.73 Q206.135 1198.45 203.056 1203.06 Q200 1207.64 194.19 1207.64 Q188.38 1207.64 185.301 1203.06 Q182.246 1198.45 182.246 1189.73 Q182.246 1180.98 185.301 1176.39 Q188.38 1171.79 194.19 1171.79 Z" fill="#000000" fill-rule="nonzero" fill-opacity="1" /><path clip-path="url(#clip910)" d="M224.352 1175.49 Q220.741 1175.49 218.912 1179.06 Q217.107 1182.6 217.107 1189.73 Q217.107 1196.83 218.912 1200.4 Q220.741 1203.94 224.352 1203.94 Q227.986 1203.94 229.792 1200.4 Q231.621 1196.83 231.621 1189.73 Q231.621 1182.6 229.792 1179.06 Q227.986 1175.49 224.352 1175.49 M224.352 1171.79 Q230.162 1171.79 233.218 1176.39 Q236.297 1180.98 236.297 1189.73 Q236.297 1198.45 233.218 1203.06 Q230.162 1207.64 224.352 1207.64 Q218.542 1207.64 215.463 1203.06 Q212.408 1198.45 212.408 1189.73 Q212.408 1180.98 215.463 1176.39 Q218.542 1171.79 224.352 1171.79 Z" fill="#000000" fill-rule="nonzero" fill-opacity="1" /><path clip-path="url(#clip910)" d="M114.26 944.264 L143.936 944.264 L143.936 948.2 L114.26 948.2 L114.26 944.264 Z" fill="#000000" fill-rule="nonzero" fill-opacity="1" /><path clip-path="url(#clip910)" d="M154.839 957.158 L162.477 957.158 L162.477 930.792 L154.167 932.459 L154.167 928.2 L162.431 926.533 L167.107 926.533 L167.107 957.158 L174.746 957.158 L174.746 961.093 L154.839 961.093 L154.839 957.158 Z" fill="#000000" fill-rule="nonzero" fill-opacity="1" /><path clip-path="url(#clip910)" d="M184.237 926.533 L202.593 926.533 L202.593 930.468 L188.519 930.468 L188.519 938.94 Q189.538 938.593 190.556 938.431 Q191.575 938.246 192.593 938.246 Q198.38 938.246 201.76 941.417 Q205.139 944.589 205.139 950.005 Q205.139 955.584 201.667 958.686 Q198.195 961.764 191.875 961.764 Q189.7 961.764 187.431 961.394 Q185.186 961.024 182.778 960.283 L182.778 955.584 Q184.862 956.718 187.084 957.274 Q189.306 957.829 191.783 957.829 Q195.787 957.829 198.125 955.723 Q200.463 953.616 200.463 950.005 Q200.463 946.394 198.125 944.288 Q195.787 942.181 191.783 942.181 Q189.908 942.181 188.033 942.598 Q186.181 943.014 184.237 943.894 L184.237 926.533 Z" fill="#000000" fill-rule="nonzero" fill-opacity="1" /><path clip-path="url(#clip910)" d="M224.352 929.612 Q220.741 929.612 218.912 933.177 Q217.107 936.718 217.107 943.848 Q217.107 950.954 218.912 954.519 Q220.741 958.061 224.352 958.061 Q227.986 958.061 229.792 954.519 Q231.621 950.954 231.621 943.848 Q231.621 936.718 229.792 933.177 Q227.986 929.612 224.352 929.612 M224.352 925.908 Q230.162 925.908 233.218 930.515 Q236.297 935.098 236.297 943.848 Q236.297 952.575 233.218 957.181 Q230.162 961.764 224.352 961.764 Q218.542 961.764 215.463 957.181 Q212.408 952.575 212.408 943.848 Q212.408 935.098 215.463 930.515 Q218.542 925.908 224.352 925.908 Z" fill="#000000" fill-rule="nonzero" fill-opacity="1" /><path clip-path="url(#clip910)" d="M114.26 698.385 L143.936 698.385 L143.936 702.32 L114.26 702.32 L114.26 698.385 Z" fill="#000000" fill-rule="nonzero" fill-opacity="1" /><path clip-path="url(#clip910)" d="M154.839 711.279 L162.477 711.279 L162.477 684.913 L154.167 686.58 L154.167 682.321 L162.431 680.654 L167.107 680.654 L167.107 711.279 L174.746 711.279 L174.746 715.214 L154.839 715.214 L154.839 711.279 Z" fill="#000000" fill-rule="nonzero" fill-opacity="1" /><path clip-path="url(#clip910)" d="M194.19 683.733 Q190.579 683.733 188.75 687.297 Q186.945 690.839 186.945 697.969 Q186.945 705.075 188.75 708.64 Q190.579 712.181 194.19 712.181 Q197.825 712.181 199.63 708.64 Q201.459 705.075 201.459 697.969 Q201.459 690.839 199.63 687.297 Q197.825 683.733 194.19 683.733 M194.19 680.029 Q200 680.029 203.056 684.635 Q206.135 689.219 206.135 697.969 Q206.135 706.695 203.056 711.302 Q200 715.885 194.19 715.885 Q188.38 715.885 185.301 711.302 Q182.246 706.695 182.246 697.969 Q182.246 689.219 185.301 684.635 Q188.38 680.029 194.19 680.029 Z" fill="#000000" fill-rule="nonzero" fill-opacity="1" /><path clip-path="url(#clip910)" d="M224.352 683.733 Q220.741 683.733 218.912 687.297 Q217.107 690.839 217.107 697.969 Q217.107 705.075 218.912 708.64 Q220.741 712.181 224.352 712.181 Q227.986 712.181 229.792 708.64 Q231.621 705.075 231.621 697.969 Q231.621 690.839 229.792 687.297 Q227.986 683.733 224.352 683.733 M224.352 680.029 Q230.162 680.029 233.218 684.635 Q236.297 689.219 236.297 697.969 Q236.297 706.695 233.218 711.302 Q230.162 715.885 224.352 715.885 Q218.542 715.885 215.463 711.302 Q212.408 706.695 212.408 697.969 Q212.408 689.219 215.463 684.635 Q218.542 680.029 224.352 680.029 Z" fill="#000000" fill-rule="nonzero" fill-opacity="1" /><path clip-path="url(#clip910)" d="M144.422 452.506 L174.098 452.506 L174.098 456.441 L144.422 456.441 L144.422 452.506 Z" fill="#000000" fill-rule="nonzero" fill-opacity="1" /><path clip-path="url(#clip910)" d="M184.237 434.775 L202.593 434.775 L202.593 438.71 L188.519 438.71 L188.519 447.182 Q189.538 446.835 190.556 446.673 Q191.575 446.488 192.593 446.488 Q198.38 446.488 201.76 449.659 Q205.139 452.83 205.139 458.247 Q205.139 463.825 201.667 466.927 Q198.195 470.006 191.875 470.006 Q189.7 470.006 187.431 469.636 Q185.186 469.265 182.778 468.524 L182.778 463.825 Q184.862 464.96 187.084 465.515 Q189.306 466.071 191.783 466.071 Q195.787 466.071 198.125 463.964 Q200.463 461.858 200.463 458.247 Q200.463 454.636 198.125 452.529 Q195.787 450.423 191.783 450.423 Q189.908 450.423 188.033 450.839 Q186.181 451.256 184.237 452.136 L184.237 434.775 Z" fill="#000000" fill-rule="nonzero" fill-opacity="1" /><path clip-path="url(#clip910)" d="M224.352 437.853 Q220.741 437.853 218.912 441.418 Q217.107 444.96 217.107 452.089 Q217.107 459.196 218.912 462.761 Q220.741 466.302 224.352 466.302 Q227.986 466.302 229.792 462.761 Q231.621 459.196 231.621 452.089 Q231.621 444.96 229.792 441.418 Q227.986 437.853 224.352 437.853 M224.352 434.15 Q230.162 434.15 233.218 438.756 Q236.297 443.339 236.297 452.089 Q236.297 460.816 233.218 465.423 Q230.162 470.006 224.352 470.006 Q218.542 470.006 215.463 465.423 Q212.408 460.816 212.408 452.089 Q212.408 443.339 215.463 438.756 Q218.542 434.15 224.352 434.15 Z" fill="#000000" fill-rule="nonzero" fill-opacity="1" /><path clip-path="url(#clip910)" d="M224.352 191.974 Q220.741 191.974 218.912 195.539 Q217.107 199.081 217.107 206.21 Q217.107 213.317 218.912 216.881 Q220.741 220.423 224.352 220.423 Q227.986 220.423 229.792 216.881 Q231.621 213.317 231.621 206.21 Q231.621 199.081 229.792 195.539 Q227.986 191.974 224.352 191.974 M224.352 188.27 Q230.162 188.27 233.218 192.877 Q236.297 197.46 236.297 206.21 Q236.297 214.937 233.218 219.543 Q230.162 224.127 224.352 224.127 Q218.542 224.127 215.463 219.543 Q212.408 214.937 212.408 206.21 Q212.408 197.46 215.463 192.877 Q218.542 188.27 224.352 188.27 Z" fill="#000000" fill-rule="nonzero" fill-opacity="1" /><path clip-path="url(#clip910)" d="M16.4842 836.808 L16.4842 809.499 L21.895 809.499 L21.895 830.379 L35.8996 830.379 L35.8996 811.536 L41.3104 811.536 L41.3104 830.379 L64.0042 830.379 L64.0042 836.808 L16.4842 836.808 Z" fill="#000000" fill-rule="nonzero" fill-opacity="1" /><path clip-path="url(#clip910)" d="M14.479 799.569 L14.479 793.712 L64.0042 793.712 L64.0042 799.569 L14.479 799.569 Z" fill="#000000" fill-rule="nonzero" fill-opacity="1" /><path clip-path="url(#clip910)" d="M49.9359 782.063 L28.3562 782.063 L28.3562 776.206 L49.7131 776.206 Q54.7739 776.206 57.3202 774.233 Q59.8346 772.26 59.8346 768.313 Q59.8346 763.571 56.8109 760.833 Q53.7872 758.064 48.5673 758.064 L28.3562 758.064 L28.3562 752.208 L64.0042 752.208 L64.0042 758.064 L58.5296 758.064 Q61.7762 760.197 63.3676 763.029 Q64.9272 765.83 64.9272 769.554 Q64.9272 775.697 61.1078 778.88 Q57.2883 782.063 49.9359 782.063 M27.4968 767.326 L27.4968 767.326 Z" fill="#000000" fill-rule="nonzero" fill-opacity="1" /><path clip-path="url(#clip910)" d="M28.3562 710.512 L45.7028 723.403 L64.0042 709.844 L64.0042 716.751 L49.9996 727.127 L64.0042 737.503 L64.0042 744.41 L45.3526 730.564 L28.3562 743.232 L28.3562 736.325 L41.0558 726.872 L28.3562 717.419 L28.3562 710.512 Z" fill="#000000" fill-rule="nonzero" fill-opacity="1" /><path clip-path="url(#clip910)" d="M1057.56 12.096 L1092.32 12.096 L1092.32 18.9825 L1065.75 18.9825 L1065.75 36.8065 L1089.73 36.8065 L1089.73 43.6931 L1065.75 43.6931 L1065.75 72.576 L1057.56 72.576 L1057.56 12.096 Z" fill="#000000" fill-rule="nonzero" fill-opacity="1" /><path clip-path="url(#clip910)" d="M1104.96 9.54393 L1112.41 9.54393 L1112.41 72.576 L1104.96 72.576 L1104.96 9.54393 Z" fill="#000000" fill-rule="nonzero" fill-opacity="1" /><path clip-path="url(#clip910)" d="M1127.24 54.671 L1127.24 27.2059 L1134.69 27.2059 L1134.69 54.3874 Q1134.69 60.8284 1137.2 64.0691 Q1139.71 67.2693 1144.74 67.2693 Q1150.77 67.2693 1154.26 63.421 Q1157.78 59.5726 1157.78 52.9291 L1157.78 27.2059 L1165.24 27.2059 L1165.24 72.576 L1157.78 72.576 L1157.78 65.6084 Q1155.07 69.7404 1151.46 71.7658 Q1147.9 73.7508 1143.16 73.7508 Q1135.34 73.7508 1131.29 68.8897 Q1127.24 64.0286 1127.24 54.671 M1145.99 26.1121 L1145.99 26.1121 Z" fill="#000000" fill-rule="nonzero" fill-opacity="1" /><path clip-path="url(#clip910)" d="M1218.3 27.2059 L1201.9 49.2833 L1219.15 72.576 L1210.36 72.576 L1197.16 54.752 L1183.95 72.576 L1175.16 72.576 L1192.78 48.8377 L1176.66 27.2059 L1185.45 27.2059 L1197.48 43.369 L1209.51 27.2059 L1218.3 27.2059 Z" fill="#000000" fill-rule="nonzero" fill-opacity="1" /><path clip-path="url(#clip910)" d="M1265.94 48.0275 L1265.94 51.6733 L1231.67 51.6733 Q1232.16 59.3701 1236.29 63.421 Q1240.46 67.4314 1247.87 67.4314 Q1252.17 67.4314 1256.18 66.3781 Q1260.23 65.3249 1264.2 63.2184 L1264.2 70.267 Q1260.19 71.9684 1255.98 72.8596 Q1251.76 73.7508 1247.43 73.7508 Q1236.57 73.7508 1230.21 67.4314 Q1223.89 61.1119 1223.89 50.3365 Q1223.89 39.1965 1229.89 32.6746 Q1235.92 26.1121 1246.13 26.1121 Q1255.29 26.1121 1260.59 32.0264 Q1265.94 37.9003 1265.94 48.0275 M1258.49 45.84 Q1258.41 39.7232 1255.04 36.0774 Q1251.72 32.4315 1246.21 32.4315 Q1239.97 32.4315 1236.21 35.9558 Q1232.48 39.4801 1231.91 45.8805 L1258.49 45.84 Z" fill="#000000" fill-rule="nonzero" fill-opacity="1" /><path clip-path="url(#clip910)" d="M1307.1 28.5427 L1307.1 35.5912 Q1303.94 33.9709 1300.54 33.1607 Q1297.13 32.3505 1293.49 32.3505 Q1287.94 32.3505 1285.14 34.0519 Q1282.39 35.7533 1282.39 39.156 Q1282.39 41.7486 1284.37 43.2475 Q1286.36 44.7058 1292.35 46.0426 L1294.9 46.6097 Q1302.84 48.3111 1306.17 51.4303 Q1309.53 54.509 1309.53 60.0587 Q1309.53 66.3781 1304.51 70.0644 Q1299.52 73.7508 1290.77 73.7508 Q1287.13 73.7508 1283.16 73.0216 Q1279.23 72.3329 1274.85 70.9151 L1274.85 63.2184 Q1278.98 65.3654 1283 66.4591 Q1287.01 67.5124 1290.93 67.5124 Q1296.2 67.5124 1299.04 65.73 Q1301.87 63.9071 1301.87 60.6258 Q1301.87 57.5877 1299.81 55.9673 Q1297.78 54.3469 1290.85 52.8481 L1288.26 52.2405 Q1281.33 50.7821 1278.26 47.7845 Q1275.18 44.7463 1275.18 39.4801 Q1275.18 33.0797 1279.71 29.5959 Q1284.25 26.1121 1292.6 26.1121 Q1296.73 26.1121 1300.37 26.7198 Q1304.02 27.3274 1307.1 28.5427 Z" fill="#000000" fill-rule="nonzero" fill-opacity="1" /><path clip-path="url(#clip910)" d="M1363.69 72.576 L1340.6 12.096 L1349.15 12.096 L1368.31 63.0159 L1387.51 12.096 L1396.02 12.096 L1372.97 72.576 L1363.69 72.576 Z" fill="#000000" fill-rule="nonzero" fill-opacity="1" /><path clip-path="url(#clip910)" d="M1403.02 68.12 L1411.29 68.12 L1411.29 43.369 L1402.25 45.0299 L1402.25 40.3308 L1411.57 38.7509 L1417.12 38.7509 L1417.12 68.12 L1425.42 68.12 L1425.42 72.576 L1403.02 72.576 L1403.02 68.12 Z" fill="#000000" fill-rule="nonzero" fill-opacity="1" /><path clip-path="url(#clip910)" d="M1439.68 62.2867 L1448.23 62.2867 L1448.23 69.2543 L1441.59 82.2172 L1436.36 82.2172 L1439.68 69.2543 L1439.68 62.2867 Z" fill="#000000" fill-rule="nonzero" fill-opacity="1" /><path clip-path="url(#clip910)" d="M1506.44 72.576 L1483.35 12.096 L1491.9 12.096 L1511.06 63.0159 L1530.26 12.096 L1538.77 12.096 L1515.72 72.576 L1506.44 72.576 Z" fill="#000000" fill-rule="nonzero" fill-opacity="1" /><path clip-path="url(#clip910)" d="M1550.31 67.958 L1567.49 67.958 L1567.49 72.576 L1543.27 72.576 L1543.27 68.12 Q1544.64 66.8642 1547.2 64.5957 Q1561.13 52.2405 1561.13 48.4326 Q1561.13 45.759 1559.02 44.1387 Q1556.92 42.4778 1553.47 42.4778 Q1551.37 42.4778 1548.9 43.2069 Q1546.43 43.8956 1543.51 45.3134 L1543.51 40.3308 Q1546.63 39.1965 1549.3 38.6294 Q1552.02 38.0623 1554.32 38.0623 Q1560.2 38.0623 1563.72 40.7359 Q1567.25 43.4095 1567.25 47.7845 Q1567.25 53.4152 1553.84 64.9198 Q1551.57 66.8642 1550.31 67.958 Z" fill="#000000" fill-rule="nonzero" fill-opacity="1" /><polyline clip-path="url(#clip912)" style="stroke:#009af9; stroke-linecap:round; stroke-linejoin:round; stroke-width:8; stroke-opacity:1; fill:none" points="331.177,1386.4 370.431,160.256 409.685,177.838 448.939,184.485 488.193,188.782 527.447,192.022 566.701,194.558 605.955,196.577 645.209,198.202 684.463,199.521 723.717,200.598 762.971,201.484 802.225,202.216 841.479,202.823 880.733,203.329 919.987,203.753 959.241,204.109 998.495,204.409 1037.75,204.664 1077,204.879 1116.26,205.063 1155.51,205.219 1194.76,205.352 1234.02,205.466 1273.27,205.564 1312.53,205.648 1351.78,205.72 1391.03,205.782 1430.29,205.836 1469.54,205.883 1508.8,205.923 1548.05,205.958 1587.3,205.989 1626.56,206.016 1665.81,206.039 1705.07,206.059 1744.32,206.076 1783.57,206.091 1822.83,206.103 1862.08,206.114 1901.34,206.122 1940.59,206.129 1979.84,206.135 2019.1,206.139 2058.35,206.143 2097.61,206.146 2136.86,206.149 2176.11,206.151 2215.37,206.154 2254.62,206.156 2293.87,206.163 "/>
<polyline clip-path="url(#clip912)" style="stroke:#e26f46; stroke-linecap:round; stroke-linejoin:round; stroke-width:8; stroke-opacity:1; fill:none" points="331.177,489.428 370.431,227.326 409.685,208.731 448.939,203.012 488.193,202.266 527.447,202.71 566.701,203.3 605.955,203.817 645.209,204.236 684.463,204.571 723.717,204.84 762.971,205.057 802.225,205.235 841.479,205.381 880.733,205.502 919.987,205.603 959.241,205.688 998.495,205.759 1037.75,205.819 1077,205.87 1116.26,205.914 1155.51,205.951 1194.76,205.982 1234.02,206.009 1273.27,206.032 1312.53,206.052 1351.78,206.069 1391.03,206.084 1430.29,206.096 1469.54,206.107 1508.8,206.117 1548.05,206.125 1587.3,206.132 1626.56,206.138 1665.81,206.143 1705.07,206.147 1744.32,206.151 1783.57,206.155 1822.83,206.157 1862.08,206.16 1901.34,206.162 1940.59,206.164 1979.84,206.165 2019.1,206.167 2058.35,206.168 2097.61,206.169 2136.86,206.17 2176.11,206.17 2215.37,206.171 2254.62,206.172 2293.87,206.172 "/>
<path clip-path="url(#clip910)" d="M2026.89 322.316 L2283.41 322.316 L2283.41 166.796 L2026.89 166.796  Z" fill="#ffffff" fill-rule="evenodd" fill-opacity="1"/>
<polyline clip-path="url(#clip910)" style="stroke:#000000; stroke-linecap:round; stroke-linejoin:round; stroke-width:4; stroke-opacity:1; fill:none" points="2026.89,322.316 2283.41,322.316 2283.41,166.796 2026.89,166.796 2026.89,322.316 "/>
<polyline clip-path="url(#clip910)" style="stroke:#009af9; stroke-linecap:round; stroke-linejoin:round; stroke-width:8; stroke-opacity:1; fill:none" points="2050.01,218.636 2188.7,218.636 "/>
<path clip-path="url(#clip910)" d="M2225.01 235.916 L2211.82 201.356 L2216.7 201.356 L2227.65 230.453 L2238.62 201.356 L2243.49 201.356 L2230.31 235.916 L2225.01 235.916 Z" fill="#000000" fill-rule="nonzero" fill-opacity="1" /><path clip-path="url(#clip910)" d="M2247.49 233.369 L2252.21 233.369 L2252.21 219.226 L2247.05 220.175 L2247.05 217.49 L2252.37 216.587 L2255.55 216.587 L2255.55 233.369 L2260.29 233.369 L2260.29 235.916 L2247.49 235.916 L2247.49 233.369 Z" fill="#000000" fill-rule="nonzero" fill-opacity="1" /><polyline clip-path="url(#clip910)" style="stroke:#e26f46; stroke-linecap:round; stroke-linejoin:round; stroke-width:8; stroke-opacity:1; fill:none" points="2050.01,270.476 2188.7,270.476 "/>
<path clip-path="url(#clip910)" d="M2225.01 287.756 L2211.82 253.196 L2216.7 253.196 L2227.65 282.293 L2238.62 253.196 L2243.49 253.196 L2230.31 287.756 L2225.01 287.756 Z" fill="#000000" fill-rule="nonzero" fill-opacity="1" /><path clip-path="url(#clip910)" d="M2250.08 285.117 L2259.9 285.117 L2259.9 287.756 L2246.06 287.756 L2246.06 285.209 Q2246.84 284.492 2248.3 283.196 Q2256.26 276.135 2256.26 273.959 Q2256.26 272.432 2255.06 271.506 Q2253.86 270.557 2251.89 270.557 Q2250.68 270.557 2249.27 270.973 Q2247.86 271.367 2246.19 272.177 L2246.19 269.33 Q2247.98 268.682 2249.5 268.358 Q2251.05 268.034 2252.37 268.034 Q2255.73 268.034 2257.74 269.561 Q2259.76 271.089 2259.76 273.589 Q2259.76 276.807 2252.1 283.381 Q2250.8 284.492 2250.08 285.117 Z" fill="#000000" fill-rule="nonzero" fill-opacity="1" /></svg>
