<?xml version="1.0" encoding="utf-8"?>
<svg xmlns="http://www.w3.org/2000/svg" xmlns:xlink="http://www.w3.org/1999/xlink" width="600" height="400" viewBox="0 0 2400 1600">
<defs>
  <clipPath id="clip990">
    <rect x="0" y="0" width="2400" height="1600"/>
  </clipPath>
</defs>
<path clip-path="url(#clip990)" d="M0 1600 L2400 1600 L2400 8.88178e-14 L0 8.88178e-14  Z" fill="#ffffff" fill-rule="evenodd" fill-opacity="1"/>
<defs>
  <clipPath id="clip991">
    <rect x="480" y="0" width="1681" height="1600"/>
  </clipPath>
</defs>
<path clip-path="url(#clip990)" d="M276.876 1423.18 L2352.76 1423.18 L2352.76 123.472 L276.876 123.472  Z" fill="#ffffff" fill-rule="evenodd" fill-opacity="1"/>
<defs>
  <clipPath id="clip992">
    <rect x="276" y="123" width="2077" height="1301"/>
  </clipPath>
</defs>
<polyline clip-path="url(#clip992)" style="stroke:#000000; stroke-linecap:round; stroke-linejoin:round; stroke-width:2; stroke-opacity:0.1; fill:none" points="335.627,1423.18 335.627,123.472 "/>
<polyline clip-path="url(#clip992)" style="stroke:#000000; stroke-linecap:round; stroke-linejoin:round; stroke-width:2; stroke-opacity:0.1; fill:none" points="727.302,1423.18 727.302,123.472 "/>
<polyline clip-path="url(#clip992)" style="stroke:#000000; stroke-linecap:round; stroke-linejoin:round; stroke-width:2; stroke-opacity:0.1; fill:none" points="1118.98,1423.18 1118.98,123.472 "/>
<polyline clip-path="url(#clip992)" style="stroke:#000000; stroke-linecap:round; stroke-linejoin:round; stroke-width:2; stroke-opacity:0.1; fill:none" points="1510.65,1423.18 1510.65,123.472 "/>
<polyline clip-path="url(#clip992)" style="stroke:#000000; stroke-linecap:round; stroke-linejoin:round; stroke-width:2; stroke-opacity:0.1; fill:none" points="1902.33,1423.18 1902.33,123.472 "/>
<polyline clip-path="url(#clip992)" style="stroke:#000000; stroke-linecap:round; stroke-linejoin:round; stroke-width:2; stroke-opacity:0.1; fill:none" points="2294,1423.18 2294,123.472 "/>
<polyline clip-path="url(#clip992)" style="stroke:#000000; stroke-linecap:round; stroke-linejoin:round; stroke-width:2; stroke-opacity:0.1; fill:none" points="276.876,1185.54 2352.76,1185.54 "/>
<polyline clip-path="url(#clip992)" style="stroke:#000000; stroke-linecap:round; stroke-linejoin:round; stroke-width:2; stroke-opacity:0.1; fill:none" points="276.876,683.417 2352.76,683.417 "/>
<polyline clip-path="url(#clip992)" style="stroke:#000000; stroke-linecap:round; stroke-linejoin:round; stroke-width:2; stroke-opacity:0.1; fill:none" points="276.876,181.289 2352.76,181.289 "/>
<polyline clip-path="url(#clip990)" style="stroke:#000000; stroke-linecap:round; stroke-linejoin:round; stroke-width:4; stroke-opacity:1; fill:none" points="276.876,1423.18 2352.76,1423.18 "/>
<polyline clip-path="url(#clip990)" style="stroke:#000000; stroke-linecap:round; stroke-linejoin:round; stroke-width:4; stroke-opacity:1; fill:none" points="335.627,1423.18 335.627,1404.28 "/>
<polyline clip-path="url(#clip990)" style="stroke:#000000; stroke-linecap:round; stroke-linejoin:round; stroke-width:4; stroke-opacity:1; fill:none" points="727.302,1423.18 727.302,1404.28 "/>
<polyline clip-path="url(#clip990)" style="stroke:#000000; stroke-linecap:round; stroke-linejoin:round; stroke-width:4; stroke-opacity:1; fill:none" points="1118.98,1423.18 1118.98,1404.28 "/>
<polyline clip-path="url(#clip990)" style="stroke:#000000; stroke-linecap:round; stroke-linejoin:round; stroke-width:4; stroke-opacity:1; fill:none" points="1510.65,1423.18 1510.65,1404.28 "/>
<polyline clip-path="url(#clip990)" style="stroke:#000000; stroke-linecap:round; stroke-linejoin:round; stroke-width:4; stroke-opacity:1; fill:none" points="1902.33,1423.18 1902.33,1404.28 "/>
<polyline clip-path="url(#clip990)" style="stroke:#000000; stroke-linecap:round; stroke-linejoin:round; stroke-width:4; stroke-opacity:1; fill:none" points="2294,1423.18 2294,1404.28 "/>
<path clip-path="url(#clip990)" d="M335.627 1454.1 Q332.016 1454.1 330.187 1457.66 Q328.382 1461.2 328.382 1468.33 Q328.382 1475.44 330.187 1479.01 Q332.016 1482.55 335.627 1482.55 Q339.261 1482.55 341.067 1479.01 Q342.895 1475.44 342.895 1468.33 Q342.895 1461.2 341.067 1457.66 Q339.261 1454.1 335.627 1454.1 M335.627 1450.39 Q341.437 1450.39 344.493 1455 Q347.571 1459.58 347.571 1468.33 Q347.571 1477.06 344.493 1481.67 Q341.437 1486.25 335.627 1486.25 Q329.817 1486.25 326.738 1481.67 Q323.682 1477.06 323.682 1468.33 Q323.682 1459.58 326.738 1455 Q329.817 1450.39 335.627 1450.39 Z" fill="#000000" fill-rule="nonzero" fill-opacity="1" /><path clip-path="url(#clip990)" d="M717.684 1481.64 L725.323 1481.64 L725.323 1455.28 L717.013 1456.95 L717.013 1452.69 L725.277 1451.02 L729.953 1451.02 L729.953 1481.64 L737.592 1481.64 L737.592 1485.58 L717.684 1485.58 L717.684 1481.64 Z" fill="#000000" fill-rule="nonzero" fill-opacity="1" /><path clip-path="url(#clip990)" d="M1113.63 1481.64 L1129.95 1481.64 L1129.95 1485.58 L1108.01 1485.58 L1108.01 1481.64 Q1110.67 1478.89 1115.25 1474.26 Q1119.86 1469.61 1121.04 1468.27 Q1123.28 1465.74 1124.16 1464.01 Q1125.07 1462.25 1125.07 1460.56 Q1125.07 1457.8 1123.12 1456.07 Q1121.2 1454.33 1118.1 1454.33 Q1115.9 1454.33 1113.45 1455.09 Q1111.02 1455.86 1108.24 1457.41 L1108.24 1452.69 Q1111.06 1451.55 1113.52 1450.97 Q1115.97 1450.39 1118.01 1450.39 Q1123.38 1450.39 1126.57 1453.08 Q1129.76 1455.77 1129.76 1460.26 Q1129.76 1462.39 1128.95 1464.31 Q1128.17 1466.2 1126.06 1468.8 Q1125.48 1469.47 1122.38 1472.69 Q1119.28 1475.88 1113.63 1481.64 Z" fill="#000000" fill-rule="nonzero" fill-opacity="1" /><path clip-path="url(#clip990)" d="M1514.9 1466.95 Q1518.26 1467.66 1520.13 1469.93 Q1522.03 1472.2 1522.03 1475.53 Q1522.03 1480.65 1518.51 1483.45 Q1514.99 1486.25 1508.51 1486.25 Q1506.34 1486.25 1504.02 1485.81 Q1501.73 1485.39 1499.28 1484.54 L1499.28 1480.02 Q1501.22 1481.16 1503.54 1481.74 Q1505.85 1482.32 1508.37 1482.32 Q1512.77 1482.32 1515.06 1480.58 Q1517.38 1478.84 1517.38 1475.53 Q1517.38 1472.48 1515.23 1470.77 Q1513.1 1469.03 1509.28 1469.03 L1505.25 1469.03 L1505.25 1465.19 L1509.46 1465.19 Q1512.91 1465.19 1514.74 1463.82 Q1516.57 1462.43 1516.57 1459.84 Q1516.57 1457.18 1514.67 1455.77 Q1512.79 1454.33 1509.28 1454.33 Q1507.35 1454.33 1505.16 1454.75 Q1502.96 1455.16 1500.32 1456.04 L1500.32 1451.88 Q1502.98 1451.14 1505.29 1450.77 Q1507.63 1450.39 1509.69 1450.39 Q1515.02 1450.39 1518.12 1452.83 Q1521.22 1455.23 1521.22 1459.35 Q1521.22 1462.22 1519.58 1464.21 Q1517.93 1466.18 1514.9 1466.95 Z" fill="#000000" fill-rule="nonzero" fill-opacity="1" /><path clip-path="url(#clip990)" d="M1905.34 1455.09 L1893.53 1473.54 L1905.34 1473.54 L1905.34 1455.09 M1904.11 1451.02 L1909.99 1451.02 L1909.99 1473.54 L1914.92 1473.54 L1914.92 1477.43 L1909.99 1477.43 L1909.99 1485.58 L1905.34 1485.58 L1905.34 1477.43 L1889.74 1477.43 L1889.74 1472.92 L1904.11 1451.02 Z" fill="#000000" fill-rule="nonzero" fill-opacity="1" /><path clip-path="url(#clip990)" d="M2284.28 1451.02 L2302.64 1451.02 L2302.64 1454.96 L2288.56 1454.96 L2288.56 1463.43 Q2289.58 1463.08 2290.6 1462.92 Q2291.62 1462.73 2292.64 1462.73 Q2298.43 1462.73 2301.81 1465.9 Q2305.19 1469.08 2305.19 1474.49 Q2305.19 1480.07 2301.71 1483.17 Q2298.24 1486.25 2291.92 1486.25 Q2289.75 1486.25 2287.48 1485.88 Q2285.23 1485.51 2282.82 1484.77 L2282.82 1480.07 Q2284.91 1481.2 2287.13 1481.76 Q2289.35 1482.32 2291.83 1482.32 Q2295.83 1482.32 2298.17 1480.21 Q2300.51 1478.1 2300.51 1474.49 Q2300.51 1470.88 2298.17 1468.77 Q2295.83 1466.67 2291.83 1466.67 Q2289.95 1466.67 2288.08 1467.08 Q2286.23 1467.5 2284.28 1468.38 L2284.28 1451.02 Z" fill="#000000" fill-rule="nonzero" fill-opacity="1" /><path clip-path="url(#clip990)" d="M1236.69 1520.52 L1276.89 1520.52 L1276.89 1525.93 L1260.02 1525.93 L1260.02 1568.04 L1253.56 1568.04 L1253.56 1525.93 L1236.69 1525.93 L1236.69 1520.52 Z" fill="#000000" fill-rule="nonzero" fill-opacity="1" /><path clip-path="url(#clip990)" d="M1280.84 1532.4 L1286.7 1532.4 L1286.7 1568.04 L1280.84 1568.04 L1280.84 1532.4 M1280.84 1518.52 L1286.7 1518.52 L1286.7 1525.93 L1280.84 1525.93 L1280.84 1518.52 Z" fill="#000000" fill-rule="nonzero" fill-opacity="1" /><path clip-path="url(#clip990)" d="M1326.7 1539.24 Q1328.9 1535.29 1331.96 1533.41 Q1335.01 1531.54 1339.15 1531.54 Q1344.72 1531.54 1347.74 1535.45 Q1350.77 1539.33 1350.77 1546.53 L1350.77 1568.04 L1344.88 1568.04 L1344.88 1546.72 Q1344.88 1541.59 1343.06 1539.11 Q1341.25 1536.63 1337.53 1536.63 Q1332.97 1536.63 1330.33 1539.65 Q1327.69 1542.68 1327.69 1547.9 L1327.69 1568.04 L1321.8 1568.04 L1321.8 1546.72 Q1321.8 1541.56 1319.99 1539.11 Q1318.17 1536.63 1314.39 1536.63 Q1309.9 1536.63 1307.26 1539.68 Q1304.61 1542.71 1304.61 1547.9 L1304.61 1568.04 L1298.73 1568.04 L1298.73 1532.4 L1304.61 1532.4 L1304.61 1537.93 Q1306.62 1534.66 1309.42 1533.1 Q1312.22 1531.54 1316.07 1531.54 Q1319.96 1531.54 1322.66 1533.51 Q1325.4 1535.48 1326.7 1539.24 Z" fill="#000000" fill-rule="nonzero" fill-opacity="1" /><path clip-path="url(#clip990)" d="M1392.94 1548.76 L1392.94 1551.62 L1366.01 1551.62 Q1366.39 1557.67 1369.64 1560.85 Q1372.92 1564 1378.74 1564 Q1382.12 1564 1385.27 1563.17 Q1388.45 1562.35 1391.57 1560.69 L1391.57 1566.23 Q1388.42 1567.57 1385.11 1568.27 Q1381.8 1568.97 1378.39 1568.97 Q1369.86 1568.97 1364.87 1564 Q1359.9 1559.04 1359.9 1550.57 Q1359.9 1541.82 1364.61 1536.69 Q1369.35 1531.54 1377.37 1531.54 Q1384.57 1531.54 1388.74 1536.18 Q1392.94 1540.8 1392.94 1548.76 M1387.08 1547.04 Q1387.02 1542.23 1384.38 1539.37 Q1381.77 1536.5 1377.44 1536.5 Q1372.54 1536.5 1369.58 1539.27 Q1366.65 1542.04 1366.2 1547.07 L1387.08 1547.04 Z" fill="#000000" fill-rule="nonzero" fill-opacity="1" /><polyline clip-path="url(#clip990)" style="stroke:#000000; stroke-linecap:round; stroke-linejoin:round; stroke-width:4; stroke-opacity:1; fill:none" points="276.876,1423.18 276.876,123.472 "/>
<polyline clip-path="url(#clip990)" style="stroke:#000000; stroke-linecap:round; stroke-linejoin:round; stroke-width:4; stroke-opacity:1; fill:none" points="276.876,1185.54 295.773,1185.54 "/>
<polyline clip-path="url(#clip990)" style="stroke:#000000; stroke-linecap:round; stroke-linejoin:round; stroke-width:4; stroke-opacity:1; fill:none" points="276.876,683.417 295.773,683.417 "/>
<polyline clip-path="url(#clip990)" style="stroke:#000000; stroke-linecap:round; stroke-linejoin:round; stroke-width:4; stroke-opacity:1; fill:none" points="276.876,181.289 295.773,181.289 "/>
<path clip-path="url(#clip990)" d="M114.931 1205.34 L122.57 1205.34 L122.57 1178.97 L114.26 1180.64 L114.26 1176.38 L122.524 1174.71 L127.2 1174.71 L127.2 1205.34 L134.839 1205.34 L134.839 1209.27 L114.931 1209.27 L114.931 1205.34 Z" fill="#000000" fill-rule="nonzero" fill-opacity="1" /><path clip-path="url(#clip990)" d="M154.283 1177.79 Q150.672 1177.79 148.843 1181.36 Q147.038 1184.9 147.038 1192.03 Q147.038 1199.13 148.843 1202.7 Q150.672 1206.24 154.283 1206.24 Q157.917 1206.24 159.723 1202.7 Q161.552 1199.13 161.552 1192.03 Q161.552 1184.9 159.723 1181.36 Q157.917 1177.79 154.283 1177.79 M154.283 1174.09 Q160.093 1174.09 163.149 1178.69 Q166.227 1183.28 166.227 1192.03 Q166.227 1200.75 163.149 1205.36 Q160.093 1209.94 154.283 1209.94 Q148.473 1209.94 145.394 1205.36 Q142.339 1200.75 142.339 1192.03 Q142.339 1183.28 145.394 1178.69 Q148.473 1174.09 154.283 1174.09 Z" fill="#000000" fill-rule="nonzero" fill-opacity="1" /><path clip-path="url(#clip990)" d="M166.227 1168.19 L190.339 1168.19 L190.339 1171.39 L166.227 1171.39 L166.227 1168.19 Z" fill="#000000" fill-rule="nonzero" fill-opacity="1" /><path clip-path="url(#clip990)" d="M199.197 1178.66 L205.404 1178.66 L205.404 1157.24 L198.652 1158.6 L198.652 1155.14 L205.366 1153.78 L209.166 1153.78 L209.166 1178.66 L215.372 1178.66 L215.372 1181.86 L199.197 1181.86 L199.197 1178.66 Z" fill="#000000" fill-rule="nonzero" fill-opacity="1" /><path clip-path="url(#clip990)" d="M231.171 1156.28 Q228.237 1156.28 226.751 1159.18 Q225.284 1162.06 225.284 1167.85 Q225.284 1173.62 226.751 1176.52 Q228.237 1179.4 231.171 1179.4 Q234.124 1179.4 235.591 1176.52 Q237.076 1173.62 237.076 1167.85 Q237.076 1162.06 235.591 1159.18 Q234.124 1156.28 231.171 1156.28 M231.171 1153.27 Q235.891 1153.27 238.374 1157.02 Q240.876 1160.74 240.876 1167.85 Q240.876 1174.94 238.374 1178.68 Q235.891 1182.41 231.171 1182.41 Q226.45 1182.41 223.949 1178.68 Q221.466 1174.94 221.466 1167.85 Q221.466 1160.74 223.949 1157.02 Q226.45 1153.27 231.171 1153.27 Z" fill="#000000" fill-rule="nonzero" fill-opacity="1" /><path clip-path="url(#clip990)" d="M140.247 703.209 L147.886 703.209 L147.886 676.844 L139.575 678.51 L139.575 674.251 L147.839 672.584 L152.515 672.584 L152.515 703.209 L160.154 703.209 L160.154 707.144 L140.247 707.144 L140.247 703.209 Z" fill="#000000" fill-rule="nonzero" fill-opacity="1" /><path clip-path="url(#clip990)" d="M179.598 675.663 Q175.987 675.663 174.159 679.228 Q172.353 682.77 172.353 689.899 Q172.353 697.006 174.159 700.57 Q175.987 704.112 179.598 704.112 Q183.233 704.112 185.038 700.57 Q186.867 697.006 186.867 689.899 Q186.867 682.77 185.038 679.228 Q183.233 675.663 179.598 675.663 M179.598 671.959 Q185.409 671.959 188.464 676.566 Q191.543 681.149 191.543 689.899 Q191.543 698.626 188.464 703.232 Q185.409 707.816 179.598 707.816 Q173.788 707.816 170.71 703.232 Q167.654 698.626 167.654 689.899 Q167.654 681.149 170.71 676.566 Q173.788 671.959 179.598 671.959 Z" fill="#000000" fill-rule="nonzero" fill-opacity="1" /><path clip-path="url(#clip990)" d="M191.543 666.061 L215.654 666.061 L215.654 669.258 L191.543 669.258 L191.543 666.061 Z" fill="#000000" fill-rule="nonzero" fill-opacity="1" /><path clip-path="url(#clip990)" d="M223.892 651.654 L238.807 651.654 L238.807 654.851 L227.372 654.851 L227.372 661.735 Q228.199 661.453 229.027 661.321 Q229.854 661.171 230.682 661.171 Q235.384 661.171 238.13 663.747 Q240.876 666.324 240.876 670.725 Q240.876 675.258 238.054 677.778 Q235.233 680.279 230.099 680.279 Q228.331 680.279 226.488 679.979 Q224.663 679.678 222.707 679.076 L222.707 675.258 Q224.4 676.179 226.205 676.631 Q228.011 677.082 230.023 677.082 Q233.277 677.082 235.177 675.371 Q237.076 673.659 237.076 670.725 Q237.076 667.791 235.177 666.08 Q233.277 664.368 230.023 664.368 Q228.5 664.368 226.977 664.707 Q225.472 665.045 223.892 665.76 L223.892 651.654 Z" fill="#000000" fill-rule="nonzero" fill-opacity="1" /><path clip-path="url(#clip990)" d="M170.17 201.082 L177.809 201.082 L177.809 174.716 L169.499 176.383 L169.499 172.123 L177.762 170.457 L182.438 170.457 L182.438 201.082 L190.077 201.082 L190.077 205.017 L170.17 205.017 L170.17 201.082 Z" fill="#000000" fill-rule="nonzero" fill-opacity="1" /><path clip-path="url(#clip990)" d="M209.522 173.535 Q205.91 173.535 204.082 177.1 Q202.276 180.642 202.276 187.771 Q202.276 194.878 204.082 198.443 Q205.91 201.984 209.522 201.984 Q213.156 201.984 214.961 198.443 Q216.79 194.878 216.79 187.771 Q216.79 180.642 214.961 177.1 Q213.156 173.535 209.522 173.535 M209.522 169.832 Q215.332 169.832 218.387 174.438 Q221.466 179.021 221.466 187.771 Q221.466 196.498 218.387 201.105 Q215.332 205.688 209.522 205.688 Q203.711 205.688 200.633 201.105 Q197.577 196.498 197.577 187.771 Q197.577 179.021 200.633 174.438 Q203.711 169.832 209.522 169.832 Z" fill="#000000" fill-rule="nonzero" fill-opacity="1" /><path clip-path="url(#clip990)" d="M231.171 152.028 Q228.237 152.028 226.751 154.924 Q225.284 157.802 225.284 163.595 Q225.284 169.368 226.751 172.265 Q228.237 175.142 231.171 175.142 Q234.124 175.142 235.591 172.265 Q237.076 169.368 237.076 163.595 Q237.076 157.802 235.591 154.924 Q234.124 152.028 231.171 152.028 M231.171 149.018 Q235.891 149.018 238.374 152.761 Q240.876 156.485 240.876 163.595 Q240.876 170.685 238.374 174.428 Q235.891 178.152 231.171 178.152 Q226.45 178.152 223.949 174.428 Q221.466 170.685 221.466 163.595 Q221.466 156.485 223.949 152.761 Q226.45 149.018 231.171 149.018 Z" fill="#000000" fill-rule="nonzero" fill-opacity="1" /><path clip-path="url(#clip990)" d="M16.4842 827.673 L16.4842 821.244 L60.694 821.244 Q69.2877 821.244 73.1708 824.522 Q77.0539 827.769 77.0539 834.994 L77.0539 837.445 L71.643 837.445 L71.643 835.439 Q71.643 831.174 69.2559 829.424 Q66.8687 827.673 60.694 827.673 L16.4842 827.673 Z" fill="#000000" fill-rule="nonzero" fill-opacity="1" /><path clip-path="url(#clip990)" d="M19.858 795.972 L29.7885 795.972 L29.7885 784.8 L32.8122 784.8 L32.8122 795.972 L42.7427 795.972 L42.7427 799.314 L32.8122 799.314 L32.8122 810.486 L29.7885 810.486 L29.7885 799.314 L19.858 799.314 L19.858 795.972 Z" fill="#000000" fill-rule="nonzero" fill-opacity="1" /><path clip-path="url(#clip990)" d="M16.4842 763.889 L16.4842 758.478 L70.0516 775.029 L70.0516 780.44 L16.4842 763.889 Z" fill="#000000" fill-rule="nonzero" fill-opacity="1" /><path clip-path="url(#clip990)" d="M16.4842 752.08 L16.4842 745.651 L60.694 745.651 Q69.2877 745.651 73.1708 748.929 Q77.0539 752.176 77.0539 759.401 L77.0539 761.852 L71.643 761.852 L71.643 759.847 Q71.643 755.582 69.2559 753.831 Q66.8687 752.08 60.694 752.08 L16.4842 752.08 Z" fill="#000000" fill-rule="nonzero" fill-opacity="1" /><path clip-path="url(#clip990)" d="M29.7885 734.893 L29.7885 709.207 L32.8122 709.207 L32.8122 734.893 L29.7885 734.893 Z" fill="#000000" fill-rule="nonzero" fill-opacity="1" /><path clip-path="url(#clip990)" d="M754.535 12.096 L789.292 12.096 L789.292 18.9825 L762.718 18.9825 L762.718 36.8065 L786.699 36.8065 L786.699 43.6931 L762.718 43.6931 L762.718 72.576 L754.535 72.576 L754.535 12.096 Z" fill="#000000" fill-rule="nonzero" fill-opacity="1" /><path clip-path="url(#clip990)" d="M816.554 32.4315 Q810.559 32.4315 807.075 37.1306 Q803.592 41.7891 803.592 49.9314 Q803.592 58.0738 807.035 62.7728 Q810.519 67.4314 816.554 67.4314 Q822.509 67.4314 825.993 62.7323 Q829.477 58.0333 829.477 49.9314 Q829.477 41.8701 825.993 37.1711 Q822.509 32.4315 816.554 32.4315 M816.554 26.1121 Q826.277 26.1121 831.826 32.4315 Q837.376 38.7509 837.376 49.9314 Q837.376 61.0714 831.826 67.4314 Q826.277 73.7508 816.554 73.7508 Q806.792 73.7508 801.242 67.4314 Q795.733 61.0714 795.733 49.9314 Q795.733 38.7509 801.242 32.4315 Q806.792 26.1121 816.554 26.1121 Z" fill="#000000" fill-rule="nonzero" fill-opacity="1" /><path clip-path="url(#clip990)" d="M876.022 34.1734 Q874.766 33.4443 873.267 33.1202 Q871.809 32.7556 870.026 32.7556 Q863.707 32.7556 860.304 36.8875 Q856.942 40.9789 856.942 48.6757 L856.942 72.576 L849.448 72.576 L849.448 27.2059 L856.942 27.2059 L856.942 34.2544 Q859.292 30.1225 863.059 28.1376 Q866.826 26.1121 872.214 26.1121 Q872.984 26.1121 873.915 26.2337 Q874.847 26.3147 875.981 26.5172 L876.022 34.1734 Z" fill="#000000" fill-rule="nonzero" fill-opacity="1" /><path clip-path="url(#clip990)" d="M879.506 27.2059 L886.959 27.2059 L896.276 62.6108 L905.553 27.2059 L914.343 27.2059 L923.66 62.6108 L932.937 27.2059 L940.391 27.2059 L928.521 72.576 L919.731 72.576 L909.968 35.3887 L900.165 72.576 L891.375 72.576 L879.506 27.2059 Z" fill="#000000" fill-rule="nonzero" fill-opacity="1" /><path clip-path="url(#clip990)" d="M972.312 49.7694 Q963.278 49.7694 959.794 51.8354 Q956.311 53.9013 956.311 58.8839 Q956.311 62.8538 958.903 65.2034 Q961.536 67.5124 966.033 67.5124 Q972.231 67.5124 975.958 63.1374 Q979.725 58.7219 979.725 51.4303 L979.725 49.7694 L972.312 49.7694 M987.179 46.6907 L987.179 72.576 L979.725 72.576 L979.725 65.6895 Q977.173 69.8214 973.365 71.8063 Q969.557 73.7508 964.048 73.7508 Q957.08 73.7508 952.948 69.8619 Q948.857 65.9325 948.857 59.3701 Q948.857 51.7138 953.961 47.825 Q959.106 43.9361 969.274 43.9361 L979.725 43.9361 L979.725 43.2069 Q979.725 38.0623 976.322 35.2672 Q972.96 32.4315 966.843 32.4315 Q962.954 32.4315 959.268 33.3632 Q955.582 34.295 952.179 36.1584 L952.179 29.2718 Q956.27 27.692 960.119 26.9223 Q963.967 26.1121 967.613 26.1121 Q977.456 26.1121 982.317 31.2163 Q987.179 36.3204 987.179 46.6907 Z" fill="#000000" fill-rule="nonzero" fill-opacity="1" /><path clip-path="url(#clip990)" d="M1028.82 34.1734 Q1027.57 33.4443 1026.07 33.1202 Q1024.61 32.7556 1022.83 32.7556 Q1016.51 32.7556 1013.1 36.8875 Q1009.74 40.9789 1009.74 48.6757 L1009.74 72.576 L1002.25 72.576 L1002.25 27.2059 L1009.74 27.2059 L1009.74 34.2544 Q1012.09 30.1225 1015.86 28.1376 Q1019.63 26.1121 1025.01 26.1121 Q1025.78 26.1121 1026.72 26.2337 Q1027.65 26.3147 1028.78 26.5172 L1028.82 34.1734 Z" fill="#000000" fill-rule="nonzero" fill-opacity="1" /><path clip-path="url(#clip990)" d="M1065.04 34.0924 L1065.04 9.54393 L1072.49 9.54393 L1072.49 72.576 L1065.04 72.576 L1065.04 65.7705 Q1062.69 69.8214 1059.08 71.8063 Q1055.52 73.7508 1050.49 73.7508 Q1042.27 73.7508 1037.09 67.1883 Q1031.94 60.6258 1031.94 49.9314 Q1031.94 39.2371 1037.09 32.6746 Q1042.27 26.1121 1050.49 26.1121 Q1055.52 26.1121 1059.08 28.0971 Q1062.69 30.0415 1065.04 34.0924 M1039.64 49.9314 Q1039.64 58.1548 1043 62.8538 Q1046.4 67.5124 1052.32 67.5124 Q1058.23 67.5124 1061.63 62.8538 Q1065.04 58.1548 1065.04 49.9314 Q1065.04 41.7081 1061.63 37.0496 Q1058.23 32.3505 1052.32 32.3505 Q1046.4 32.3505 1043 37.0496 Q1039.64 41.7081 1039.64 49.9314 Z" fill="#000000" fill-rule="nonzero" fill-opacity="1" /><path clip-path="url(#clip990)" d="M1101.09 12.096 L1107.98 12.096 L1086.91 80.2727 L1080.03 80.2727 L1101.09 12.096 Z" fill="#000000" fill-rule="nonzero" fill-opacity="1" /><path clip-path="url(#clip990)" d="M1144.8 44.2197 Q1147.43 45.1109 1149.9 48.0275 Q1152.41 50.9442 1154.93 56.0483 L1163.23 72.576 L1154.44 72.576 L1146.7 57.061 Q1143.71 50.9847 1140.87 48.9997 Q1138.07 47.0148 1133.21 47.0148 L1124.3 47.0148 L1124.3 72.576 L1116.12 72.576 L1116.12 12.096 L1134.59 12.096 Q1144.96 12.096 1150.07 16.4305 Q1155.17 20.7649 1155.17 29.5149 Q1155.17 35.2267 1152.5 38.994 Q1149.86 42.7613 1144.8 44.2197 M1124.3 18.8205 L1124.3 40.2903 L1134.59 40.2903 Q1140.51 40.2903 1143.5 37.5762 Q1146.54 34.8216 1146.54 29.5149 Q1146.54 24.2082 1143.5 21.5346 Q1140.51 18.8205 1134.59 18.8205 L1124.3 18.8205 Z" fill="#000000" fill-rule="nonzero" fill-opacity="1" /><path clip-path="url(#clip990)" d="M1208.52 48.0275 L1208.52 51.6733 L1174.25 51.6733 Q1174.74 59.3701 1178.87 63.421 Q1183.04 67.4314 1190.45 67.4314 Q1194.75 67.4314 1198.76 66.3781 Q1202.81 65.3249 1206.78 63.2184 L1206.78 70.267 Q1202.77 71.9684 1198.55 72.8596 Q1194.34 73.7508 1190.01 73.7508 Q1179.15 73.7508 1172.79 67.4314 Q1166.47 61.1119 1166.47 50.3365 Q1166.47 39.1965 1172.47 32.6746 Q1178.5 26.1121 1188.71 26.1121 Q1197.87 26.1121 1203.17 32.0264 Q1208.52 37.9003 1208.52 48.0275 M1201.07 45.84 Q1200.99 39.7232 1197.62 36.0774 Q1194.3 32.4315 1188.79 32.4315 Q1182.55 32.4315 1178.79 35.9558 Q1175.06 39.4801 1174.49 45.8805 L1201.07 45.84 Z" fill="#000000" fill-rule="nonzero" fill-opacity="1" /><path clip-path="url(#clip990)" d="M1215.41 27.2059 L1223.31 27.2059 L1237.48 65.2844 L1251.66 27.2059 L1259.56 27.2059 L1242.55 72.576 L1232.42 72.576 L1215.41 27.2059 Z" fill="#000000" fill-rule="nonzero" fill-opacity="1" /><path clip-path="url(#clip990)" d="M1308.66 48.0275 L1308.66 51.6733 L1274.39 51.6733 Q1274.87 59.3701 1279.01 63.421 Q1283.18 67.4314 1290.59 67.4314 Q1294.89 67.4314 1298.9 66.3781 Q1302.95 65.3249 1306.92 63.2184 L1306.92 70.267 Q1302.91 71.9684 1298.69 72.8596 Q1294.48 73.7508 1290.15 73.7508 Q1279.29 73.7508 1272.93 67.4314 Q1266.61 61.1119 1266.61 50.3365 Q1266.61 39.1965 1272.61 32.6746 Q1278.64 26.1121 1288.85 26.1121 Q1298 26.1121 1303.31 32.0264 Q1308.66 37.9003 1308.66 48.0275 M1301.2 45.84 Q1301.12 39.7232 1297.76 36.0774 Q1294.44 32.4315 1288.93 32.4315 Q1282.69 32.4315 1278.92 35.9558 Q1275.2 39.4801 1274.63 45.8805 L1301.2 45.84 Z" fill="#000000" fill-rule="nonzero" fill-opacity="1" /><path clip-path="url(#clip990)" d="M1347.18 34.1734 Q1345.93 33.4443 1344.43 33.1202 Q1342.97 32.7556 1341.19 32.7556 Q1334.87 32.7556 1331.46 36.8875 Q1328.1 40.9789 1328.1 48.6757 L1328.1 72.576 L1320.61 72.576 L1320.61 27.2059 L1328.1 27.2059 L1328.1 34.2544 Q1330.45 30.1225 1334.22 28.1376 Q1337.99 26.1121 1343.37 26.1121 Q1344.14 26.1121 1345.08 26.2337 Q1346.01 26.3147 1347.14 26.5172 L1347.18 34.1734 Z" fill="#000000" fill-rule="nonzero" fill-opacity="1" /><path clip-path="url(#clip990)" d="M1383.92 28.5427 L1383.92 35.5912 Q1380.76 33.9709 1377.36 33.1607 Q1373.96 32.3505 1370.31 32.3505 Q1364.76 32.3505 1361.97 34.0519 Q1359.21 35.7533 1359.21 39.156 Q1359.21 41.7486 1361.2 43.2475 Q1363.18 44.7058 1369.18 46.0426 L1371.73 46.6097 Q1379.67 48.3111 1382.99 51.4303 Q1386.35 54.509 1386.35 60.0587 Q1386.35 66.3781 1381.33 70.0644 Q1376.35 73.7508 1367.6 73.7508 Q1363.95 73.7508 1359.98 73.0216 Q1356.05 72.3329 1351.68 70.9151 L1351.68 63.2184 Q1355.81 65.3654 1359.82 66.4591 Q1363.83 67.5124 1367.76 67.5124 Q1373.03 67.5124 1375.86 65.73 Q1378.7 63.9071 1378.7 60.6258 Q1378.7 57.5877 1376.63 55.9673 Q1374.61 54.3469 1367.68 52.8481 L1365.09 52.2405 Q1358.16 50.7821 1355.08 47.7845 Q1352 44.7463 1352 39.4801 Q1352 33.0797 1356.54 29.5959 Q1361.08 26.1121 1369.42 26.1121 Q1373.55 26.1121 1377.2 26.7198 Q1380.85 27.3274 1383.92 28.5427 Z" fill="#000000" fill-rule="nonzero" fill-opacity="1" /><path clip-path="url(#clip990)" d="M1437.03 48.0275 L1437.03 51.6733 L1402.76 51.6733 Q1403.25 59.3701 1407.38 63.421 Q1411.55 67.4314 1418.96 67.4314 Q1423.26 67.4314 1427.27 66.3781 Q1431.32 65.3249 1435.29 63.2184 L1435.29 70.267 Q1431.28 71.9684 1427.07 72.8596 Q1422.85 73.7508 1418.52 73.7508 Q1407.66 73.7508 1401.3 67.4314 Q1394.98 61.1119 1394.98 50.3365 Q1394.98 39.1965 1400.98 32.6746 Q1407.01 26.1121 1417.22 26.1121 Q1426.38 26.1121 1431.68 32.0264 Q1437.03 37.9003 1437.03 48.0275 M1429.58 45.84 Q1429.5 39.7232 1426.13 36.0774 Q1422.81 32.4315 1417.3 32.4315 Q1411.07 32.4315 1407.3 35.9558 Q1403.57 39.4801 1403 45.8805 L1429.58 45.84 Z" fill="#000000" fill-rule="nonzero" fill-opacity="1" /><path clip-path="url(#clip990)" d="M1475.96 12.096 L1510.72 12.096 L1510.72 18.9825 L1484.14 18.9825 L1484.14 36.8065 L1508.12 36.8065 L1508.12 43.6931 L1484.14 43.6931 L1484.14 72.576 L1475.96 72.576 L1475.96 12.096 Z" fill="#000000" fill-rule="nonzero" fill-opacity="1" /><path clip-path="url(#clip990)" d="M1523.36 9.54393 L1530.81 9.54393 L1530.81 72.576 L1523.36 72.576 L1523.36 9.54393 Z" fill="#000000" fill-rule="nonzero" fill-opacity="1" /><path clip-path="url(#clip990)" d="M1545.64 54.671 L1545.64 27.2059 L1553.09 27.2059 L1553.09 54.3874 Q1553.09 60.8284 1555.6 64.0691 Q1558.11 67.2693 1563.14 67.2693 Q1569.17 67.2693 1572.66 63.421 Q1576.18 59.5726 1576.18 52.9291 L1576.18 27.2059 L1583.63 27.2059 L1583.63 72.576 L1576.18 72.576 L1576.18 65.6084 Q1573.47 69.7404 1569.86 71.7658 Q1566.3 73.7508 1561.56 73.7508 Q1553.74 73.7508 1549.69 68.8897 Q1545.64 64.0286 1545.64 54.671 M1564.39 26.1121 L1564.39 26.1121 Z" fill="#000000" fill-rule="nonzero" fill-opacity="1" /><path clip-path="url(#clip990)" d="M1636.7 27.2059 L1620.29 49.2833 L1637.55 72.576 L1628.76 72.576 L1615.55 54.752 L1602.35 72.576 L1593.56 72.576 L1611.18 48.8377 L1595.06 27.2059 L1603.85 27.2059 L1615.88 43.369 L1627.91 27.2059 L1636.7 27.2059 Z" fill="#000000" fill-rule="nonzero" fill-opacity="1" /><path clip-path="url(#clip990)" d="M1703.46 44.2197 Q1706.09 45.1109 1708.56 48.0275 Q1711.08 50.9442 1713.59 56.0483 L1721.89 72.576 L1713.1 72.576 L1705.36 57.061 Q1702.37 50.9847 1699.53 48.9997 Q1696.73 47.0148 1691.87 47.0148 L1682.96 47.0148 L1682.96 72.576 L1674.78 72.576 L1674.78 12.096 L1693.25 12.096 Q1703.62 12.096 1708.73 16.4305 Q1713.83 20.7649 1713.83 29.5149 Q1713.83 35.2267 1711.16 38.994 Q1708.52 42.7613 1703.46 44.2197 M1682.96 18.8205 L1682.96 40.2903 L1693.25 40.2903 Q1699.17 40.2903 1702.16 37.5762 Q1705.2 34.8216 1705.2 29.5149 Q1705.2 24.2082 1702.16 21.5346 Q1699.17 18.8205 1693.25 18.8205 L1682.96 18.8205 Z" fill="#000000" fill-rule="nonzero" fill-opacity="1" /><path clip-path="url(#clip990)" d="M1750.9 49.7694 Q1741.86 49.7694 1738.38 51.8354 Q1734.89 53.9013 1734.89 58.8839 Q1734.89 62.8538 1737.49 65.2034 Q1740.12 67.5124 1744.62 67.5124 Q1750.81 67.5124 1754.54 63.1374 Q1758.31 58.7219 1758.31 51.4303 L1758.31 49.7694 L1750.9 49.7694 M1765.76 46.6907 L1765.76 72.576 L1758.31 72.576 L1758.31 65.6895 Q1755.76 69.8214 1751.95 71.8063 Q1748.14 73.7508 1742.63 73.7508 Q1735.66 73.7508 1731.53 69.8619 Q1727.44 65.9325 1727.44 59.3701 Q1727.44 51.7138 1732.54 47.825 Q1737.69 43.9361 1747.86 43.9361 L1758.31 43.9361 L1758.31 43.2069 Q1758.31 38.0623 1754.91 35.2672 Q1751.54 32.4315 1745.43 32.4315 Q1741.54 32.4315 1737.85 33.3632 Q1734.17 34.295 1730.76 36.1584 L1730.76 29.2718 Q1734.85 27.692 1738.7 26.9223 Q1742.55 26.1121 1746.2 26.1121 Q1756.04 26.1121 1760.9 31.2163 Q1765.76 36.3204 1765.76 46.6907 Z" fill="#000000" fill-rule="nonzero" fill-opacity="1" /><path clip-path="url(#clip990)" d="M1788.49 14.324 L1788.49 27.2059 L1803.84 27.2059 L1803.84 32.9987 L1788.49 32.9987 L1788.49 57.6282 Q1788.49 63.1779 1789.99 64.7578 Q1791.53 66.3376 1796.18 66.3376 L1803.84 66.3376 L1803.84 72.576 L1796.18 72.576 Q1787.56 72.576 1784.27 69.3758 Q1780.99 66.1351 1780.99 57.6282 L1780.99 32.9987 L1775.53 32.9987 L1775.53 27.2059 L1780.99 27.2059 L1780.99 14.324 L1788.49 14.324 Z" fill="#000000" fill-rule="nonzero" fill-opacity="1" /><path clip-path="url(#clip990)" d="M1813.64 27.2059 L1821.1 27.2059 L1821.1 72.576 L1813.64 72.576 L1813.64 27.2059 M1813.64 9.54393 L1821.1 9.54393 L1821.1 18.9825 L1813.64 18.9825 L1813.64 9.54393 Z" fill="#000000" fill-rule="nonzero" fill-opacity="1" /><path clip-path="url(#clip990)" d="M1854.27 32.4315 Q1848.28 32.4315 1844.8 37.1306 Q1841.31 41.7891 1841.31 49.9314 Q1841.31 58.0738 1844.75 62.7728 Q1848.24 67.4314 1854.27 67.4314 Q1860.23 67.4314 1863.71 62.7323 Q1867.2 58.0333 1867.2 49.9314 Q1867.2 41.8701 1863.71 37.1711 Q1860.23 32.4315 1854.27 32.4315 M1854.27 26.1121 Q1864 26.1121 1869.55 32.4315 Q1875.1 38.7509 1875.1 49.9314 Q1875.1 61.0714 1869.55 67.4314 Q1864 73.7508 1854.27 73.7508 Q1844.51 73.7508 1838.96 67.4314 Q1833.45 61.0714 1833.45 49.9314 Q1833.45 38.7509 1838.96 32.4315 Q1844.51 26.1121 1854.27 26.1121 Z" fill="#000000" fill-rule="nonzero" fill-opacity="1" /><polyline clip-path="url(#clip992)" style="stroke:#009af9; stroke-linecap:round; stroke-linejoin:round; stroke-width:8; stroke-opacity:1; fill:none" points="335.627,1386.4 374.794,160.467 413.962,160.256 453.13,163.079 492.297,165.36 531.465,167.311 570.632,169.021 609.8,170.532 648.967,171.87 688.135,173.053 727.302,174.097 766.47,175.015 805.637,175.822 844.805,176.528 883.973,177.145 923.14,177.685 962.308,178.156 1001.48,178.567 1040.64,178.925 1079.81,179.237 1118.98,179.508 1158.15,179.743 1197.31,179.947 1236.48,180.125 1275.65,180.279 1314.82,180.413 1353.98,180.529 1393.15,180.631 1432.32,180.719 1471.49,180.796 1510.65,180.863 1549.82,180.922 1588.99,180.973 1628.16,181.017 1667.32,181.056 1706.49,181.09 1745.66,181.119 1784.83,181.144 1823.99,181.166 1863.16,181.183 1902.33,181.198 1941.5,181.209 1980.66,181.219 2019.83,181.227 2059,181.234 2098.17,181.239 2137.33,181.244 2176.5,181.248 2215.67,181.252 2254.84,181.255 2294,181.268 "/>
<polyline clip-path="url(#clip992)" style="stroke:#e26f46; stroke-linecap:round; stroke-linejoin:round; stroke-width:8; stroke-opacity:1; fill:none" points="335.627,1386.4 374.794,206.804 413.962,183.924 453.13,178.122 492.297,177.269 531.465,177.592 570.632,178.112 609.8,178.6 648.967,179.017 688.135,179.365 727.302,179.655 766.47,179.897 805.637,180.1 844.805,180.272 883.973,180.417 923.14,180.541 962.308,180.646 1001.48,180.736 1040.64,180.813 1079.81,180.879 1118.98,180.936 1158.15,180.984 1197.31,181.026 1236.48,181.062 1275.65,181.093 1314.82,181.12 1353.98,181.143 1393.15,181.163 1432.32,181.18 1471.49,181.195 1510.65,181.208 1549.82,181.219 1588.99,181.228 1628.16,181.237 1667.32,181.244 1706.49,181.25 1745.66,181.256 1784.83,181.26 1823.99,181.264 1863.16,181.268 1902.33,181.271 1941.5,181.273 1980.66,181.275 2019.83,181.277 2059,181.279 2098.17,181.28 2137.33,181.281 2176.5,181.282 2215.67,181.283 2254.84,181.284 2294,181.285 "/>
<path clip-path="url(#clip990)" d="M2031.27 322.316 L2283.56 322.316 L2283.56 166.796 L2031.27 166.796  Z" fill="#ffffff" fill-rule="evenodd" fill-opacity="1"/>
<polyline clip-path="url(#clip990)" style="stroke:#000000; stroke-linecap:round; stroke-linejoin:round; stroke-width:4; stroke-opacity:1; fill:none" points="2031.27,322.316 2283.56,322.316 2283.56,166.796 2031.27,166.796 2031.27,322.316 "/>
<polyline clip-path="url(#clip990)" style="stroke:#009af9; stroke-linecap:round; stroke-linejoin:round; stroke-width:8; stroke-opacity:1; fill:none" points="2054.34,218.636 2192.73,218.636 "/>
<path clip-path="url(#clip990)" d="M2232.18 219.712 Q2233.69 220.221 2235.1 221.888 Q2236.54 223.555 2237.97 226.471 L2242.72 235.916 L2237.69 235.916 L2233.27 227.05 Q2231.56 223.578 2229.94 222.444 Q2228.34 221.309 2225.56 221.309 L2220.47 221.309 L2220.47 235.916 L2215.8 235.916 L2215.8 201.356 L2226.35 201.356 Q2232.28 201.356 2235.19 203.833 Q2238.11 206.309 2238.11 211.309 Q2238.11 214.573 2236.58 216.726 Q2235.08 218.879 2232.18 219.712 M2220.47 205.198 L2220.47 217.467 L2226.35 217.467 Q2229.73 217.467 2231.44 215.916 Q2233.18 214.342 2233.18 211.309 Q2233.18 208.277 2231.44 206.749 Q2229.73 205.198 2226.35 205.198 L2220.47 205.198 Z" fill="#000000" fill-rule="nonzero" fill-opacity="1" /><path clip-path="url(#clip990)" d="M2247.69 233.369 L2252.42 233.369 L2252.42 219.226 L2247.25 220.175 L2247.25 217.49 L2252.58 216.587 L2255.75 216.587 L2255.75 233.369 L2260.49 233.369 L2260.49 235.916 L2247.69 235.916 L2247.69 233.369 Z" fill="#000000" fill-rule="nonzero" fill-opacity="1" /><polyline clip-path="url(#clip990)" style="stroke:#e26f46; stroke-linecap:round; stroke-linejoin:round; stroke-width:8; stroke-opacity:1; fill:none" points="2054.34,270.476 2192.73,270.476 "/>
<path clip-path="url(#clip990)" d="M2232.18 271.552 Q2233.69 272.061 2235.1 273.728 Q2236.54 275.395 2237.97 278.311 L2242.72 287.756 L2237.69 287.756 L2233.27 278.89 Q2231.56 275.418 2229.94 274.284 Q2228.34 273.149 2225.56 273.149 L2220.47 273.149 L2220.47 287.756 L2215.8 287.756 L2215.8 253.196 L2226.35 253.196 Q2232.28 253.196 2235.19 255.673 Q2238.11 258.149 2238.11 263.149 Q2238.11 266.413 2236.58 268.566 Q2235.08 270.719 2232.18 271.552 M2220.47 257.038 L2220.47 269.307 L2226.35 269.307 Q2229.73 269.307 2231.44 267.756 Q2233.18 266.182 2233.18 263.149 Q2233.18 260.117 2231.44 258.589 Q2229.73 257.038 2226.35 257.038 L2220.47 257.038 Z" fill="#000000" fill-rule="nonzero" fill-opacity="1" /><path clip-path="url(#clip990)" d="M2250.29 285.117 L2260.1 285.117 L2260.1 287.756 L2246.26 287.756 L2246.26 285.209 Q2247.05 284.492 2248.5 283.196 Q2256.47 276.135 2256.47 273.959 Q2256.47 272.432 2255.26 271.506 Q2254.06 270.557 2252.09 270.557 Q2250.89 270.557 2249.48 270.973 Q2248.06 271.367 2246.4 272.177 L2246.4 269.33 Q2248.18 268.682 2249.71 268.358 Q2251.26 268.034 2252.58 268.034 Q2255.93 268.034 2257.95 269.561 Q2259.96 271.089 2259.96 273.589 Q2259.96 276.807 2252.3 283.381 Q2251 284.492 2250.29 285.117 Z" fill="#000000" fill-rule="nonzero" fill-opacity="1" /></svg>
