<?xml version="1.0" encoding="utf-8"?>
<svg xmlns="http://www.w3.org/2000/svg" xmlns:xlink="http://www.w3.org/1999/xlink" width="600" height="400" viewBox="0 0 2400 1600">
<defs>
  <clipPath id="clip030">
    <rect x="0" y="0" width="2400" height="1600"/>
  </clipPath>
</defs>
<path clip-path="url(#clip030)" d="M0 1600 L2400 1600 L2400 8.88178e-14 L0 8.88178e-14  Z" fill="#ffffff" fill-rule="evenodd" fill-opacity="1"/>
<defs>
  <clipPath id="clip031">
    <rect x="480" y="0" width="1681" height="1600"/>
  </clipPath>
</defs>
<path clip-path="url(#clip030)" d="M272.297 1423.18 L2352.76 1423.18 L2352.76 123.472 L272.297 123.472  Z" fill="#ffffff" fill-rule="evenodd" fill-opacity="1"/>
<defs>
  <clipPath id="clip032">
    <rect x="272" y="123" width="2081" height="1301"/>
  </clipPath>
</defs>
<polyline clip-path="url(#clip032)" style="stroke:#000000; stroke-linecap:round; stroke-linejoin:round; stroke-width:2; stroke-opacity:0.1; fill:none" points="331.177,1423.18 331.177,123.472 "/>
<polyline clip-path="url(#clip032)" style="stroke:#000000; stroke-linecap:round; stroke-linejoin:round; stroke-width:2; stroke-opacity:0.1; fill:none" points="723.717,1423.18 723.717,123.472 "/>
<polyline clip-path="url(#clip032)" style="stroke:#000000; stroke-linecap:round; stroke-linejoin:round; stroke-width:2; stroke-opacity:0.1; fill:none" points="1116.26,1423.18 1116.26,123.472 "/>
<polyline clip-path="url(#clip032)" style="stroke:#000000; stroke-linecap:round; stroke-linejoin:round; stroke-width:2; stroke-opacity:0.1; fill:none" points="1508.8,1423.18 1508.8,123.472 "/>
<polyline clip-path="url(#clip032)" style="stroke:#000000; stroke-linecap:round; stroke-linejoin:round; stroke-width:2; stroke-opacity:0.1; fill:none" points="1901.34,1423.18 1901.34,123.472 "/>
<polyline clip-path="url(#clip032)" style="stroke:#000000; stroke-linecap:round; stroke-linejoin:round; stroke-width:2; stroke-opacity:0.1; fill:none" points="2293.87,1423.18 2293.87,123.472 "/>
<polyline clip-path="url(#clip032)" style="stroke:#000000; stroke-linecap:round; stroke-linejoin:round; stroke-width:2; stroke-opacity:0.1; fill:none" points="272.297,1189.69 2352.76,1189.69 "/>
<polyline clip-path="url(#clip032)" style="stroke:#000000; stroke-linecap:round; stroke-linejoin:round; stroke-width:2; stroke-opacity:0.1; fill:none" points="272.297,943.813 2352.76,943.813 "/>
<polyline clip-path="url(#clip032)" style="stroke:#000000; stroke-linecap:round; stroke-linejoin:round; stroke-width:2; stroke-opacity:0.1; fill:none" points="272.297,697.934 2352.76,697.934 "/>
<polyline clip-path="url(#clip032)" style="stroke:#000000; stroke-linecap:round; stroke-linejoin:round; stroke-width:2; stroke-opacity:0.1; fill:none" points="272.297,452.055 2352.76,452.055 "/>
<polyline clip-path="url(#clip032)" style="stroke:#000000; stroke-linecap:round; stroke-linejoin:round; stroke-width:2; stroke-opacity:0.1; fill:none" points="272.297,206.175 2352.76,206.175 "/>
<polyline clip-path="url(#clip030)" style="stroke:#000000; stroke-linecap:round; stroke-linejoin:round; stroke-width:4; stroke-opacity:1; fill:none" points="272.297,1423.18 2352.76,1423.18 "/>
<polyline clip-path="url(#clip030)" style="stroke:#000000; stroke-linecap:round; stroke-linejoin:round; stroke-width:4; stroke-opacity:1; fill:none" points="331.177,1423.18 331.177,1404.28 "/>
<polyline clip-path="url(#clip030)" style="stroke:#000000; stroke-linecap:round; stroke-linejoin:round; stroke-width:4; stroke-opacity:1; fill:none" points="723.717,1423.18 723.717,1404.28 "/>
<polyline clip-path="url(#clip030)" style="stroke:#000000; stroke-linecap:round; stroke-linejoin:round; stroke-width:4; stroke-opacity:1; fill:none" points="1116.26,1423.18 1116.26,1404.28 "/>
<polyline clip-path="url(#clip030)" style="stroke:#000000; stroke-linecap:round; stroke-linejoin:round; stroke-width:4; stroke-opacity:1; fill:none" points="1508.8,1423.18 1508.8,1404.28 "/>
<polyline clip-path="url(#clip030)" style="stroke:#000000; stroke-linecap:round; stroke-linejoin:round; stroke-width:4; stroke-opacity:1; fill:none" points="1901.34,1423.18 1901.34,1404.28 "/>
<polyline clip-path="url(#clip030)" style="stroke:#000000; stroke-linecap:round; stroke-linejoin:round; stroke-width:4; stroke-opacity:1; fill:none" points="2293.87,1423.18 2293.87,1404.28 "/>
<path clip-path="url(#clip030)" d="M331.177 1454.1 Q327.566 1454.1 325.738 1457.66 Q323.932 1461.2 323.932 1468.33 Q323.932 1475.44 325.738 1479.01 Q327.566 1482.55 331.177 1482.55 Q334.812 1482.55 336.617 1479.01 Q338.446 1475.44 338.446 1468.33 Q338.446 1461.2 336.617 1457.66 Q334.812 1454.1 331.177 1454.1 M331.177 1450.39 Q336.988 1450.39 340.043 1455 Q343.122 1459.58 343.122 1468.33 Q343.122 1477.06 340.043 1481.67 Q336.988 1486.25 331.177 1486.25 Q325.367 1486.25 322.289 1481.67 Q319.233 1477.06 319.233 1468.33 Q319.233 1459.58 322.289 1455 Q325.367 1450.39 331.177 1450.39 Z" fill="#000000" fill-rule="nonzero" fill-opacity="1" /><path clip-path="url(#clip030)" d="M714.099 1481.64 L721.738 1481.64 L721.738 1455.28 L713.428 1456.95 L713.428 1452.69 L721.692 1451.02 L726.367 1451.02 L726.367 1481.64 L734.006 1481.64 L734.006 1485.58 L714.099 1485.58 L714.099 1481.64 Z" fill="#000000" fill-rule="nonzero" fill-opacity="1" /><path clip-path="url(#clip030)" d="M1110.91 1481.64 L1127.23 1481.64 L1127.23 1485.58 L1105.28 1485.58 L1105.28 1481.64 Q1107.95 1478.89 1112.53 1474.26 Q1117.14 1469.61 1118.32 1468.27 Q1120.56 1465.74 1121.44 1464.01 Q1122.34 1462.25 1122.34 1460.56 Q1122.34 1457.8 1120.4 1456.07 Q1118.48 1454.33 1115.38 1454.33 Q1113.18 1454.33 1110.72 1455.09 Q1108.29 1455.86 1105.52 1457.41 L1105.52 1452.69 Q1108.34 1451.55 1110.79 1450.97 Q1113.25 1450.39 1115.28 1450.39 Q1120.65 1450.39 1123.85 1453.08 Q1127.04 1455.77 1127.04 1460.26 Q1127.04 1462.39 1126.23 1464.31 Q1125.45 1466.2 1123.34 1468.8 Q1122.76 1469.47 1119.66 1472.69 Q1116.56 1475.88 1110.91 1481.64 Z" fill="#000000" fill-rule="nonzero" fill-opacity="1" /><path clip-path="url(#clip030)" d="M1513.04 1466.95 Q1516.4 1467.66 1518.28 1469.93 Q1520.17 1472.2 1520.17 1475.53 Q1520.17 1480.65 1516.65 1483.45 Q1513.14 1486.25 1506.65 1486.25 Q1504.48 1486.25 1502.16 1485.81 Q1499.87 1485.39 1497.42 1484.54 L1497.42 1480.02 Q1499.36 1481.16 1501.68 1481.74 Q1503.99 1482.32 1506.52 1482.32 Q1510.91 1482.32 1513.21 1480.58 Q1515.52 1478.84 1515.52 1475.53 Q1515.52 1472.48 1513.37 1470.77 Q1511.24 1469.03 1507.42 1469.03 L1503.39 1469.03 L1503.39 1465.19 L1507.6 1465.19 Q1511.05 1465.19 1512.88 1463.82 Q1514.71 1462.43 1514.71 1459.84 Q1514.71 1457.18 1512.81 1455.77 Q1510.94 1454.33 1507.42 1454.33 Q1505.5 1454.33 1503.3 1454.75 Q1501.1 1455.16 1498.46 1456.04 L1498.46 1451.88 Q1501.12 1451.14 1503.44 1450.77 Q1505.78 1450.39 1507.84 1450.39 Q1513.16 1450.39 1516.26 1452.83 Q1519.36 1455.23 1519.36 1459.35 Q1519.36 1462.22 1517.72 1464.21 Q1516.08 1466.18 1513.04 1466.95 Z" fill="#000000" fill-rule="nonzero" fill-opacity="1" /><path clip-path="url(#clip030)" d="M1904.34 1455.09 L1892.54 1473.54 L1904.34 1473.54 L1904.34 1455.09 M1903.12 1451.02 L1909 1451.02 L1909 1473.54 L1913.93 1473.54 L1913.93 1477.43 L1909 1477.43 L1909 1485.58 L1904.34 1485.58 L1904.34 1477.43 L1888.74 1477.43 L1888.74 1472.92 L1903.12 1451.02 Z" fill="#000000" fill-rule="nonzero" fill-opacity="1" /><path clip-path="url(#clip030)" d="M2284.15 1451.02 L2302.51 1451.02 L2302.51 1454.96 L2288.44 1454.96 L2288.44 1463.43 Q2289.45 1463.08 2290.47 1462.92 Q2291.49 1462.73 2292.51 1462.73 Q2298.3 1462.73 2301.68 1465.9 Q2305.06 1469.08 2305.06 1474.49 Q2305.06 1480.07 2301.58 1483.17 Q2298.11 1486.25 2291.79 1486.25 Q2289.62 1486.25 2287.35 1485.88 Q2285.1 1485.51 2282.69 1484.77 L2282.69 1480.07 Q2284.78 1481.2 2287 1481.76 Q2289.22 1482.32 2291.7 1482.32 Q2295.7 1482.32 2298.04 1480.21 Q2300.38 1478.1 2300.38 1474.49 Q2300.38 1470.88 2298.04 1468.77 Q2295.7 1466.67 2291.7 1466.67 Q2289.82 1466.67 2287.95 1467.08 Q2286.1 1467.5 2284.15 1468.38 L2284.15 1451.02 Z" fill="#000000" fill-rule="nonzero" fill-opacity="1" /><path clip-path="url(#clip030)" d="M1234.4 1520.52 L1274.6 1520.52 L1274.6 1525.93 L1257.73 1525.93 L1257.73 1568.04 L1251.27 1568.04 L1251.27 1525.93 L1234.4 1525.93 L1234.4 1520.52 Z" fill="#000000" fill-rule="nonzero" fill-opacity="1" /><path clip-path="url(#clip030)" d="M1278.55 1532.4 L1284.41 1532.4 L1284.41 1568.04 L1278.55 1568.04 L1278.55 1532.4 M1278.55 1518.52 L1284.41 1518.52 L1284.41 1525.93 L1278.55 1525.93 L1278.55 1518.52 Z" fill="#000000" fill-rule="nonzero" fill-opacity="1" /><path clip-path="url(#clip030)" d="M1324.41 1539.24 Q1326.61 1535.29 1329.67 1533.41 Q1332.72 1531.54 1336.86 1531.54 Q1342.43 1531.54 1345.45 1535.45 Q1348.48 1539.33 1348.48 1546.53 L1348.48 1568.04 L1342.59 1568.04 L1342.59 1546.72 Q1342.59 1541.59 1340.77 1539.11 Q1338.96 1536.63 1335.24 1536.63 Q1330.68 1536.63 1328.04 1539.65 Q1325.4 1542.68 1325.4 1547.9 L1325.4 1568.04 L1319.51 1568.04 L1319.51 1546.72 Q1319.51 1541.56 1317.7 1539.11 Q1315.88 1536.63 1312.1 1536.63 Q1307.61 1536.63 1304.97 1539.68 Q1302.33 1542.71 1302.33 1547.9 L1302.33 1568.04 L1296.44 1568.04 L1296.44 1532.4 L1302.33 1532.4 L1302.33 1537.93 Q1304.33 1534.66 1307.13 1533.1 Q1309.93 1531.54 1313.78 1531.54 Q1317.67 1531.54 1320.37 1533.51 Q1323.11 1535.48 1324.41 1539.24 Z" fill="#000000" fill-rule="nonzero" fill-opacity="1" /><path clip-path="url(#clip030)" d="M1390.65 1548.76 L1390.65 1551.62 L1363.72 1551.62 Q1364.1 1557.67 1367.35 1560.85 Q1370.63 1564 1376.45 1564 Q1379.83 1564 1382.98 1563.17 Q1386.16 1562.35 1389.28 1560.69 L1389.28 1566.23 Q1386.13 1567.57 1382.82 1568.27 Q1379.51 1568.97 1376.1 1568.97 Q1367.57 1568.97 1362.58 1564 Q1357.61 1559.04 1357.61 1550.57 Q1357.61 1541.82 1362.32 1536.69 Q1367.06 1531.54 1375.09 1531.54 Q1382.28 1531.54 1386.45 1536.18 Q1390.65 1540.8 1390.65 1548.76 M1384.79 1547.04 Q1384.73 1542.23 1382.09 1539.37 Q1379.48 1536.5 1375.15 1536.5 Q1370.25 1536.5 1367.29 1539.27 Q1364.36 1542.04 1363.91 1547.07 L1384.79 1547.04 Z" fill="#000000" fill-rule="nonzero" fill-opacity="1" /><polyline clip-path="url(#clip030)" style="stroke:#000000; stroke-linecap:round; stroke-linejoin:round; stroke-width:4; stroke-opacity:1; fill:none" points="272.297,1423.18 272.297,123.472 "/>
<polyline clip-path="url(#clip030)" style="stroke:#000000; stroke-linecap:round; stroke-linejoin:round; stroke-width:4; stroke-opacity:1; fill:none" points="272.297,1189.69 291.194,1189.69 "/>
<polyline clip-path="url(#clip030)" style="stroke:#000000; stroke-linecap:round; stroke-linejoin:round; stroke-width:4; stroke-opacity:1; fill:none" points="272.297,943.813 291.194,943.813 "/>
<polyline clip-path="url(#clip030)" style="stroke:#000000; stroke-linecap:round; stroke-linejoin:round; stroke-width:4; stroke-opacity:1; fill:none" points="272.297,697.934 291.194,697.934 "/>
<polyline clip-path="url(#clip030)" style="stroke:#000000; stroke-linecap:round; stroke-linejoin:round; stroke-width:4; stroke-opacity:1; fill:none" points="272.297,452.055 291.194,452.055 "/>
<polyline clip-path="url(#clip030)" style="stroke:#000000; stroke-linecap:round; stroke-linejoin:round; stroke-width:4; stroke-opacity:1; fill:none" points="272.297,206.175 291.194,206.175 "/>
<path clip-path="url(#clip030)" d="M114.26 1190.14 L143.936 1190.14 L143.936 1194.08 L114.26 1194.08 L114.26 1190.14 Z" fill="#000000" fill-rule="nonzero" fill-opacity="1" /><path clip-path="url(#clip030)" d="M158.056 1203.04 L174.376 1203.04 L174.376 1206.97 L152.431 1206.97 L152.431 1203.04 Q155.093 1200.28 159.677 1195.65 Q164.283 1191 165.464 1189.66 Q167.709 1187.13 168.589 1185.4 Q169.491 1183.64 169.491 1181.95 Q169.491 1179.19 167.547 1177.46 Q165.626 1175.72 162.524 1175.72 Q160.325 1175.72 157.871 1176.49 Q155.44 1177.25 152.663 1178.8 L152.663 1174.08 Q155.487 1172.94 157.94 1172.37 Q160.394 1171.79 162.431 1171.79 Q167.802 1171.79 170.996 1174.47 Q174.19 1177.16 174.19 1181.65 Q174.19 1183.78 173.38 1185.7 Q172.593 1187.6 170.487 1190.19 Q169.908 1190.86 166.806 1194.08 Q163.704 1197.27 158.056 1203.04 Z" fill="#000000" fill-rule="nonzero" fill-opacity="1" /><path clip-path="url(#clip030)" d="M194.19 1175.49 Q190.579 1175.49 188.75 1179.06 Q186.945 1182.6 186.945 1189.73 Q186.945 1196.83 188.75 1200.4 Q190.579 1203.94 194.19 1203.94 Q197.825 1203.94 199.63 1200.4 Q201.459 1196.83 201.459 1189.73 Q201.459 1182.6 199.63 1179.06 Q197.825 1175.49 194.19 1175.49 M194.19 1171.79 Q200 1171.79 203.056 1176.39 Q206.135 1180.98 206.135 1189.73 Q206.135 1198.45 203.056 1203.06 Q200 1207.64 194.19 1207.64 Q188.38 1207.64 185.301 1203.06 Q182.246 1198.45 182.246 1189.73 Q182.246 1180.98 185.301 1176.39 Q188.38 1171.79 194.19 1171.79 Z" fill="#000000" fill-rule="nonzero" fill-opacity="1" /><path clip-path="url(#clip030)" d="M224.352 1175.49 Q220.741 1175.49 218.912 1179.06 Q217.107 1182.6 217.107 1189.73 Q217.107 1196.83 218.912 1200.4 Q220.741 1203.94 224.352 1203.94 Q227.986 1203.94 229.792 1200.4 Q231.621 1196.83 231.621 1189.73 Q231.621 1182.6 229.792 1179.06 Q227.986 1175.49 224.352 1175.49 M224.352 1171.79 Q230.162 1171.79 233.218 1176.39 Q236.297 1180.98 236.297 1189.73 Q236.297 1198.45 233.218 1203.06 Q230.162 1207.64 224.352 1207.64 Q218.542 1207.64 215.463 1203.06 Q212.408 1198.45 212.408 1189.73 Q212.408 1180.98 215.463 1176.39 Q218.542 1171.79 224.352 1171.79 Z" fill="#000000" fill-rule="nonzero" fill-opacity="1" /><path clip-path="url(#clip030)" d="M114.26 944.264 L143.936 944.264 L143.936 948.2 L114.26 948.2 L114.26 944.264 Z" fill="#000000" fill-rule="nonzero" fill-opacity="1" /><path clip-path="url(#clip030)" d="M154.839 957.158 L162.477 957.158 L162.477 930.792 L154.167 932.459 L154.167 928.2 L162.431 926.533 L167.107 926.533 L167.107 957.158 L174.746 957.158 L174.746 961.093 L154.839 961.093 L154.839 957.158 Z" fill="#000000" fill-rule="nonzero" fill-opacity="1" /><path clip-path="url(#clip030)" d="M184.237 926.533 L202.593 926.533 L202.593 930.468 L188.519 930.468 L188.519 938.94 Q189.538 938.593 190.556 938.431 Q191.575 938.246 192.593 938.246 Q198.38 938.246 201.76 941.417 Q205.139 944.589 205.139 950.005 Q205.139 955.584 201.667 958.686 Q198.195 961.764 191.875 961.764 Q189.7 961.764 187.431 961.394 Q185.186 961.024 182.778 960.283 L182.778 955.584 Q184.862 956.718 187.084 957.274 Q189.306 957.829 191.783 957.829 Q195.787 957.829 198.125 955.723 Q200.463 953.616 200.463 950.005 Q200.463 946.394 198.125 944.288 Q195.787 942.181 191.783 942.181 Q189.908 942.181 188.033 942.598 Q186.181 943.014 184.237 943.894 L184.237 926.533 Z" fill="#000000" fill-rule="nonzero" fill-opacity="1" /><path clip-path="url(#clip030)" d="M224.352 929.612 Q220.741 929.612 218.912 933.177 Q217.107 936.718 217.107 943.848 Q217.107 950.954 218.912 954.519 Q220.741 958.061 224.352 958.061 Q227.986 958.061 229.792 954.519 Q231.621 950.954 231.621 943.848 Q231.621 936.718 229.792 933.177 Q227.986 929.612 224.352 929.612 M224.352 925.908 Q230.162 925.908 233.218 930.515 Q236.297 935.098 236.297 943.848 Q236.297 952.575 233.218 957.181 Q230.162 961.764 224.352 961.764 Q218.542 961.764 215.463 957.181 Q212.408 952.575 212.408 943.848 Q212.408 935.098 215.463 930.515 Q218.542 925.908 224.352 925.908 Z" fill="#000000" fill-rule="nonzero" fill-opacity="1" /><path clip-path="url(#clip030)" d="M114.26 698.385 L143.936 698.385 L143.936 702.32 L114.26 702.32 L114.26 698.385 Z" fill="#000000" fill-rule="nonzero" fill-opacity="1" /><path clip-path="url(#clip030)" d="M154.839 711.279 L162.477 711.279 L162.477 684.913 L154.167 686.58 L154.167 682.321 L162.431 680.654 L167.107 680.654 L167.107 711.279 L174.746 711.279 L174.746 715.214 L154.839 715.214 L154.839 711.279 Z" fill="#000000" fill-rule="nonzero" fill-opacity="1" /><path clip-path="url(#clip030)" d="M194.19 683.733 Q190.579 683.733 188.75 687.297 Q186.945 690.839 186.945 697.969 Q186.945 705.075 188.75 708.64 Q190.579 712.181 194.19 712.181 Q197.825 712.181 199.63 708.64 Q201.459 705.075 201.459 697.969 Q201.459 690.839 199.63 687.297 Q197.825 683.733 194.19 683.733 M194.19 680.029 Q200 680.029 203.056 684.635 Q206.135 689.219 206.135 697.969 Q206.135 706.695 203.056 711.302 Q200 715.885 194.19 715.885 Q188.38 715.885 185.301 711.302 Q182.246 706.695 182.246 697.969 Q182.246 689.219 185.301 684.635 Q188.38 680.029 194.19 680.029 Z" fill="#000000" fill-rule="nonzero" fill-opacity="1" /><path clip-path="url(#clip030)" d="M224.352 683.733 Q220.741 683.733 218.912 687.297 Q217.107 690.839 217.107 697.969 Q217.107 705.075 218.912 708.64 Q220.741 712.181 224.352 712.181 Q227.986 712.181 229.792 708.64 Q231.621 705.075 231.621 697.969 Q231.621 690.839 229.792 687.297 Q227.986 683.733 224.352 683.733 M224.352 680.029 Q230.162 680.029 233.218 684.635 Q236.297 689.219 236.297 697.969 Q236.297 706.695 233.218 711.302 Q230.162 715.885 224.352 715.885 Q218.542 715.885 215.463 711.302 Q212.408 706.695 212.408 697.969 Q212.408 689.219 215.463 684.635 Q218.542 680.029 224.352 680.029 Z" fill="#000000" fill-rule="nonzero" fill-opacity="1" /><path clip-path="url(#clip030)" d="M144.422 452.506 L174.098 452.506 L174.098 456.441 L144.422 456.441 L144.422 452.506 Z" fill="#000000" fill-rule="nonzero" fill-opacity="1" /><path clip-path="url(#clip030)" d="M184.237 434.775 L202.593 434.775 L202.593 438.71 L188.519 438.71 L188.519 447.182 Q189.538 446.835 190.556 446.673 Q191.575 446.488 192.593 446.488 Q198.38 446.488 201.76 449.659 Q205.139 452.83 205.139 458.247 Q205.139 463.825 201.667 466.927 Q198.195 470.006 191.875 470.006 Q189.7 470.006 187.431 469.636 Q185.186 469.265 182.778 468.524 L182.778 463.825 Q184.862 464.96 187.084 465.515 Q189.306 466.071 191.783 466.071 Q195.787 466.071 198.125 463.964 Q200.463 461.858 200.463 458.247 Q200.463 454.636 198.125 452.529 Q195.787 450.423 191.783 450.423 Q189.908 450.423 188.033 450.839 Q186.181 451.256 184.237 452.136 L184.237 434.775 Z" fill="#000000" fill-rule="nonzero" fill-opacity="1" /><path clip-path="url(#clip030)" d="M224.352 437.853 Q220.741 437.853 218.912 441.418 Q217.107 444.96 217.107 452.089 Q217.107 459.196 218.912 462.761 Q220.741 466.302 224.352 466.302 Q227.986 466.302 229.792 462.761 Q231.621 459.196 231.621 452.089 Q231.621 444.96 229.792 441.418 Q227.986 437.853 224.352 437.853 M224.352 434.15 Q230.162 434.15 233.218 438.756 Q236.297 443.339 236.297 452.089 Q236.297 460.816 233.218 465.423 Q230.162 470.006 224.352 470.006 Q218.542 470.006 215.463 465.423 Q212.408 460.816 212.408 452.089 Q212.408 443.339 215.463 438.756 Q218.542 434.15 224.352 434.15 Z" fill="#000000" fill-rule="nonzero" fill-opacity="1" /><path clip-path="url(#clip030)" d="M224.352 191.974 Q220.741 191.974 218.912 195.539 Q217.107 199.081 217.107 206.21 Q217.107 213.317 218.912 216.881 Q220.741 220.423 224.352 220.423 Q227.986 220.423 229.792 216.881 Q231.621 213.317 231.621 206.21 Q231.621 199.081 229.792 195.539 Q227.986 191.974 224.352 191.974 M224.352 188.27 Q230.162 188.27 233.218 192.877 Q236.297 197.46 236.297 206.21 Q236.297 214.937 233.218 219.543 Q230.162 224.127 224.352 224.127 Q218.542 224.127 215.463 219.543 Q212.408 214.937 212.408 206.21 Q212.408 197.46 215.463 192.877 Q218.542 188.27 224.352 188.27 Z" fill="#000000" fill-rule="nonzero" fill-opacity="1" /><path clip-path="url(#clip030)" d="M16.4842 836.808 L16.4842 809.499 L21.895 809.499 L21.895 830.379 L35.8996 830.379 L35.8996 811.536 L41.3104 811.536 L41.3104 830.379 L64.0042 830.379 L64.0042 836.808 L16.4842 836.808 Z" fill="#000000" fill-rule="nonzero" fill-opacity="1" /><path clip-path="url(#clip030)" d="M14.479 799.569 L14.479 793.712 L64.0042 793.712 L64.0042 799.569 L14.479 799.569 Z" fill="#000000" fill-rule="nonzero" fill-opacity="1" /><path clip-path="url(#clip030)" d="M49.9359 782.063 L28.3562 782.063 L28.3562 776.206 L49.7131 776.206 Q54.7739 776.206 57.3202 774.233 Q59.8346 772.26 59.8346 768.313 Q59.8346 763.571 56.8109 760.833 Q53.7872 758.064 48.5673 758.064 L28.3562 758.064 L28.3562 752.208 L64.0042 752.208 L64.0042 758.064 L58.5296 758.064 Q61.7762 760.197 63.3676 763.029 Q64.9272 765.83 64.9272 769.554 Q64.9272 775.697 61.1078 778.88 Q57.2883 782.063 49.9359 782.063 M27.4968 767.326 L27.4968 767.326 Z" fill="#000000" fill-rule="nonzero" fill-opacity="1" /><path clip-path="url(#clip030)" d="M28.3562 710.512 L45.7028 723.403 L64.0042 709.844 L64.0042 716.751 L49.9996 727.127 L64.0042 737.503 L64.0042 744.41 L45.3526 730.564 L28.3562 743.232 L28.3562 736.325 L41.0558 726.872 L28.3562 717.419 L28.3562 710.512 Z" fill="#000000" fill-rule="nonzero" fill-opacity="1" /><path clip-path="url(#clip030)" d="M429.976 12.096 L481.139 12.096 L481.139 18.9825 L459.669 18.9825 L459.669 72.576 L451.446 72.576 L451.446 18.9825 L429.976 18.9825 L429.976 12.096 Z" fill="#000000" fill-rule="nonzero" fill-opacity="1" /><path clip-path="url(#clip030)" d="M526.428 45.1919 L526.428 72.576 L518.974 72.576 L518.974 45.4349 Q518.974 38.994 516.463 35.7938 Q513.951 32.5936 508.928 32.5936 Q502.892 32.5936 499.408 36.4419 Q495.925 40.2903 495.925 46.9338 L495.925 72.576 L488.431 72.576 L488.431 9.54393 L495.925 9.54393 L495.925 34.2544 Q498.598 30.163 502.204 28.1376 Q505.849 26.1121 510.589 26.1121 Q518.407 26.1121 522.418 30.9732 Q526.428 35.7938 526.428 45.1919 Z" fill="#000000" fill-rule="nonzero" fill-opacity="1" /><path clip-path="url(#clip030)" d="M580.102 48.0275 L580.102 51.6733 L545.832 51.6733 Q546.318 59.3701 550.45 63.421 Q554.622 67.4314 562.035 67.4314 Q566.329 67.4314 570.34 66.3781 Q574.391 65.3249 578.361 63.2184 L578.361 70.267 Q574.35 71.9684 570.137 72.8596 Q565.924 73.7508 561.59 73.7508 Q550.733 73.7508 544.374 67.4314 Q538.054 61.1119 538.054 50.3365 Q538.054 39.1965 544.049 32.6746 Q550.085 26.1121 560.294 26.1121 Q569.449 26.1121 574.755 32.0264 Q580.102 37.9003 580.102 48.0275 M572.649 45.84 Q572.568 39.7232 569.206 36.0774 Q565.884 32.4315 560.375 32.4315 Q554.136 32.4315 550.369 35.9558 Q546.642 39.4801 546.075 45.8805 L572.649 45.84 Z" fill="#000000" fill-rule="nonzero" fill-opacity="1" /><path clip-path="url(#clip030)" d="M618.627 34.1734 Q617.371 33.4443 615.872 33.1202 Q614.414 32.7556 612.631 32.7556 Q606.312 32.7556 602.909 36.8875 Q599.547 40.9789 599.547 48.6757 L599.547 72.576 L592.053 72.576 L592.053 27.2059 L599.547 27.2059 L599.547 34.2544 Q601.896 30.1225 605.664 28.1376 Q609.431 26.1121 614.819 26.1121 Q615.588 26.1121 616.52 26.2337 Q617.452 26.3147 618.586 26.5172 L618.627 34.1734 Z" fill="#000000" fill-rule="nonzero" fill-opacity="1" /><path clip-path="url(#clip030)" d="M660.31 35.9153 Q663.106 30.8922 666.994 28.5022 Q670.883 26.1121 676.149 26.1121 Q683.239 26.1121 687.087 31.0947 Q690.935 36.0368 690.935 45.1919 L690.935 72.576 L683.441 72.576 L683.441 45.4349 Q683.441 38.913 681.132 35.7533 Q678.823 32.5936 674.083 32.5936 Q668.291 32.5936 664.928 36.4419 Q661.566 40.2903 661.566 46.9338 L661.566 72.576 L654.072 72.576 L654.072 45.4349 Q654.072 38.8725 651.763 35.7533 Q649.454 32.5936 644.633 32.5936 Q638.922 32.5936 635.559 36.4824 Q632.197 40.3308 632.197 46.9338 L632.197 72.576 L624.703 72.576 L624.703 27.2059 L632.197 27.2059 L632.197 34.2544 Q634.749 30.082 638.314 28.0971 Q641.879 26.1121 646.78 26.1121 Q651.722 26.1121 655.166 28.6237 Q658.65 31.1352 660.31 35.9153 Z" fill="#000000" fill-rule="nonzero" fill-opacity="1" /><path clip-path="url(#clip030)" d="M723.383 32.4315 Q717.388 32.4315 713.904 37.1306 Q710.42 41.7891 710.42 49.9314 Q710.42 58.0738 713.863 62.7728 Q717.347 67.4314 723.383 67.4314 Q729.338 67.4314 732.822 62.7323 Q736.305 58.0333 736.305 49.9314 Q736.305 41.8701 732.822 37.1711 Q729.338 32.4315 723.383 32.4315 M723.383 26.1121 Q733.105 26.1121 738.655 32.4315 Q744.205 38.7509 744.205 49.9314 Q744.205 61.0714 738.655 67.4314 Q733.105 73.7508 723.383 73.7508 Q713.62 73.7508 708.071 67.4314 Q702.561 61.0714 702.561 49.9314 Q702.561 38.7509 708.071 32.4315 Q713.62 26.1121 723.383 26.1121 Z" fill="#000000" fill-rule="nonzero" fill-opacity="1" /><path clip-path="url(#clip030)" d="M786.415 34.0924 L786.415 9.54393 L793.869 9.54393 L793.869 72.576 L786.415 72.576 L786.415 65.7705 Q784.066 69.8214 780.46 71.8063 Q776.895 73.7508 771.872 73.7508 Q763.649 73.7508 758.464 67.1883 Q753.319 60.6258 753.319 49.9314 Q753.319 39.2371 758.464 32.6746 Q763.649 26.1121 771.872 26.1121 Q776.895 26.1121 780.46 28.0971 Q784.066 30.0415 786.415 34.0924 M761.016 49.9314 Q761.016 58.1548 764.378 62.8538 Q767.781 67.5124 773.695 67.5124 Q779.61 67.5124 783.012 62.8538 Q786.415 58.1548 786.415 49.9314 Q786.415 41.7081 783.012 37.0496 Q779.61 32.3505 773.695 32.3505 Q767.781 32.3505 764.378 37.0496 Q761.016 41.7081 761.016 49.9314 Z" fill="#000000" fill-rule="nonzero" fill-opacity="1" /><path clip-path="url(#clip030)" d="M828.099 76.7889 Q824.939 84.8907 821.941 87.3618 Q818.944 89.8329 813.921 89.8329 L807.966 89.8329 L807.966 83.5945 L812.341 83.5945 Q815.42 83.5945 817.121 82.1361 Q818.822 80.6778 820.888 75.2496 L822.225 71.8468 L803.874 27.2059 L811.774 27.2059 L825.952 62.6918 L840.13 27.2059 L848.029 27.2059 L828.099 76.7889 Z" fill="#000000" fill-rule="nonzero" fill-opacity="1" /><path clip-path="url(#clip030)" d="M896.033 45.1919 L896.033 72.576 L888.579 72.576 L888.579 45.4349 Q888.579 38.994 886.067 35.7938 Q883.556 32.5936 878.533 32.5936 Q872.497 32.5936 869.013 36.4419 Q865.529 40.2903 865.529 46.9338 L865.529 72.576 L858.035 72.576 L858.035 27.2059 L865.529 27.2059 L865.529 34.2544 Q868.203 30.163 871.808 28.1376 Q875.454 26.1121 880.193 26.1121 Q888.012 26.1121 892.022 30.9732 Q896.033 35.7938 896.033 45.1919 Z" fill="#000000" fill-rule="nonzero" fill-opacity="1" /><path clip-path="url(#clip030)" d="M931.518 49.7694 Q922.485 49.7694 919.001 51.8354 Q915.517 53.9013 915.517 58.8839 Q915.517 62.8538 918.11 65.2034 Q920.743 67.5124 925.24 67.5124 Q931.437 67.5124 935.164 63.1374 Q938.932 58.7219 938.932 51.4303 L938.932 49.7694 L931.518 49.7694 M946.385 46.6907 L946.385 72.576 L938.932 72.576 L938.932 65.6895 Q936.38 69.8214 932.572 71.8063 Q928.764 73.7508 923.255 73.7508 Q916.287 73.7508 912.155 69.8619 Q908.064 65.9325 908.064 59.3701 Q908.064 51.7138 913.168 47.825 Q918.312 43.9361 928.48 43.9361 L938.932 43.9361 L938.932 43.2069 Q938.932 38.0623 935.529 35.2672 Q932.167 32.4315 926.05 32.4315 Q922.161 32.4315 918.475 33.3632 Q914.788 34.295 911.385 36.1584 L911.385 29.2718 Q915.477 27.692 919.325 26.9223 Q923.174 26.1121 926.819 26.1121 Q936.663 26.1121 941.524 31.2163 Q946.385 36.3204 946.385 46.6907 Z" fill="#000000" fill-rule="nonzero" fill-opacity="1" /><path clip-path="url(#clip030)" d="M997.062 35.9153 Q999.857 30.8922 1003.75 28.5022 Q1007.63 26.1121 1012.9 26.1121 Q1019.99 26.1121 1023.84 31.0947 Q1027.69 36.0368 1027.69 45.1919 L1027.69 72.576 L1020.19 72.576 L1020.19 45.4349 Q1020.19 38.913 1017.88 35.7533 Q1015.57 32.5936 1010.84 32.5936 Q1005.04 32.5936 1001.68 36.4419 Q998.318 40.2903 998.318 46.9338 L998.318 72.576 L990.824 72.576 L990.824 45.4349 Q990.824 38.8725 988.515 35.7533 Q986.206 32.5936 981.385 32.5936 Q975.673 32.5936 972.311 36.4824 Q968.949 40.3308 968.949 46.9338 L968.949 72.576 L961.455 72.576 L961.455 27.2059 L968.949 27.2059 L968.949 34.2544 Q971.501 30.082 975.066 28.0971 Q978.63 26.1121 983.532 26.1121 Q988.474 26.1121 991.917 28.6237 Q995.401 31.1352 997.062 35.9153 Z" fill="#000000" fill-rule="nonzero" fill-opacity="1" /><path clip-path="url(#clip030)" d="M1042.55 27.2059 L1050.01 27.2059 L1050.01 72.576 L1042.55 72.576 L1042.55 27.2059 M1042.55 9.54393 L1050.01 9.54393 L1050.01 18.9825 L1042.55 18.9825 L1042.55 9.54393 Z" fill="#000000" fill-rule="nonzero" fill-opacity="1" /><path clip-path="url(#clip030)" d="M1098.25 28.9478 L1098.25 35.9153 Q1095.09 34.1734 1091.89 33.3227 Q1088.73 32.4315 1085.49 32.4315 Q1078.24 32.4315 1074.23 37.0496 Q1070.22 41.6271 1070.22 49.9314 Q1070.22 58.2358 1074.23 62.8538 Q1078.24 67.4314 1085.49 67.4314 Q1088.73 67.4314 1091.89 66.5807 Q1095.09 65.6895 1098.25 63.9476 L1098.25 70.8341 Q1095.13 72.2924 1091.77 73.0216 Q1088.45 73.7508 1084.68 73.7508 Q1074.43 73.7508 1068.4 67.3098 Q1062.36 60.8689 1062.36 49.9314 Q1062.36 38.832 1068.44 32.472 Q1074.56 26.1121 1085.17 26.1121 Q1088.61 26.1121 1091.89 26.8413 Q1095.17 27.5299 1098.25 28.9478 Z" fill="#000000" fill-rule="nonzero" fill-opacity="1" /><path clip-path="url(#clip030)" d="M1137.91 12.096 L1172.67 12.096 L1172.67 18.9825 L1146.09 18.9825 L1146.09 36.8065 L1170.08 36.8065 L1170.08 43.6931 L1146.09 43.6931 L1146.09 72.576 L1137.91 72.576 L1137.91 12.096 Z" fill="#000000" fill-rule="nonzero" fill-opacity="1" /><path clip-path="url(#clip030)" d="M1185.31 9.54393 L1192.76 9.54393 L1192.76 72.576 L1185.31 72.576 L1185.31 9.54393 Z" fill="#000000" fill-rule="nonzero" fill-opacity="1" /><path clip-path="url(#clip030)" d="M1207.59 54.671 L1207.59 27.2059 L1215.04 27.2059 L1215.04 54.3874 Q1215.04 60.8284 1217.55 64.0691 Q1220.06 67.2693 1225.09 67.2693 Q1231.12 67.2693 1234.61 63.421 Q1238.13 59.5726 1238.13 52.9291 L1238.13 27.2059 L1245.59 27.2059 L1245.59 72.576 L1238.13 72.576 L1238.13 65.6084 Q1235.42 69.7404 1231.81 71.7658 Q1228.25 73.7508 1223.51 73.7508 Q1215.69 73.7508 1211.64 68.8897 Q1207.59 64.0286 1207.59 54.671 M1226.34 26.1121 L1226.34 26.1121 Z" fill="#000000" fill-rule="nonzero" fill-opacity="1" /><path clip-path="url(#clip030)" d="M1298.65 27.2059 L1282.25 49.2833 L1299.5 72.576 L1290.71 72.576 L1277.51 54.752 L1264.3 72.576 L1255.51 72.576 L1273.13 48.8377 L1257.01 27.2059 L1265.8 27.2059 L1277.83 43.369 L1289.86 27.2059 L1298.65 27.2059 Z" fill="#000000" fill-rule="nonzero" fill-opacity="1" /><path clip-path="url(#clip030)" d="M1346.29 48.0275 L1346.29 51.6733 L1312.02 51.6733 Q1312.51 59.3701 1316.64 63.421 Q1320.81 67.4314 1328.22 67.4314 Q1332.52 67.4314 1336.53 66.3781 Q1340.58 65.3249 1344.55 63.2184 L1344.55 70.267 Q1340.54 71.9684 1336.33 72.8596 Q1332.11 73.7508 1327.78 73.7508 Q1316.92 73.7508 1310.56 67.4314 Q1304.24 61.1119 1304.24 50.3365 Q1304.24 39.1965 1310.24 32.6746 Q1316.27 26.1121 1326.48 26.1121 Q1335.64 26.1121 1340.94 32.0264 Q1346.29 37.9003 1346.29 48.0275 M1338.84 45.84 Q1338.76 39.7232 1335.39 36.0774 Q1332.07 32.4315 1326.56 32.4315 Q1320.32 32.4315 1316.56 35.9558 Q1312.83 39.4801 1312.26 45.8805 L1338.84 45.84 Z" fill="#000000" fill-rule="nonzero" fill-opacity="1" /><path clip-path="url(#clip030)" d="M1387.45 28.5427 L1387.45 35.5912 Q1384.29 33.9709 1380.89 33.1607 Q1377.48 32.3505 1373.84 32.3505 Q1368.29 32.3505 1365.49 34.0519 Q1362.74 35.7533 1362.74 39.156 Q1362.74 41.7486 1364.72 43.2475 Q1366.71 44.7058 1372.7 46.0426 L1375.25 46.6097 Q1383.19 48.3111 1386.52 51.4303 Q1389.88 54.509 1389.88 60.0587 Q1389.88 66.3781 1384.86 70.0644 Q1379.87 73.7508 1371.12 73.7508 Q1367.48 73.7508 1363.51 73.0216 Q1359.58 72.3329 1355.2 70.9151 L1355.2 63.2184 Q1359.33 65.3654 1363.34 66.4591 Q1367.36 67.5124 1371.28 67.5124 Q1376.55 67.5124 1379.39 65.73 Q1382.22 63.9071 1382.22 60.6258 Q1382.22 57.5877 1380.16 55.9673 Q1378.13 54.3469 1371.2 52.8481 L1368.61 52.2405 Q1361.68 50.7821 1358.61 47.7845 Q1355.53 44.7463 1355.53 39.4801 Q1355.53 33.0797 1360.06 29.5959 Q1364.6 26.1121 1372.95 26.1121 Q1377.08 26.1121 1380.72 26.7198 Q1384.37 27.3274 1387.45 28.5427 Z" fill="#000000" fill-rule="nonzero" fill-opacity="1" /><path clip-path="url(#clip030)" d="M1414.99 12.096 L1421.88 12.096 L1400.82 80.2727 L1393.93 80.2727 L1414.99 12.096 Z" fill="#000000" fill-rule="nonzero" fill-opacity="1" /><path clip-path="url(#clip030)" d="M1438.21 18.8205 L1438.21 65.8515 L1448.09 65.8515 Q1460.61 65.8515 1466.4 60.1802 Q1472.23 54.509 1472.23 42.2752 Q1472.23 30.1225 1466.4 24.4918 Q1460.61 18.8205 1448.09 18.8205 L1438.21 18.8205 M1430.02 12.096 L1446.83 12.096 Q1464.41 12.096 1472.64 19.4281 Q1480.86 26.7198 1480.86 42.2752 Q1480.86 57.9117 1472.6 65.2439 Q1464.33 72.576 1446.83 72.576 L1430.02 72.576 L1430.02 12.096 Z" fill="#000000" fill-rule="nonzero" fill-opacity="1" /><path clip-path="url(#clip030)" d="M1493.58 27.2059 L1501.04 27.2059 L1501.04 72.576 L1493.58 72.576 L1493.58 27.2059 M1493.58 9.54393 L1501.04 9.54393 L1501.04 18.9825 L1493.58 18.9825 L1493.58 9.54393 Z" fill="#000000" fill-rule="nonzero" fill-opacity="1" /><path clip-path="url(#clip030)" d="M1545.55 28.5427 L1545.55 35.5912 Q1542.39 33.9709 1538.99 33.1607 Q1535.59 32.3505 1531.94 32.3505 Q1526.39 32.3505 1523.6 34.0519 Q1520.84 35.7533 1520.84 39.156 Q1520.84 41.7486 1522.83 43.2475 Q1524.81 44.7058 1530.81 46.0426 L1533.36 46.6097 Q1541.3 48.3111 1544.62 51.4303 Q1547.99 54.509 1547.99 60.0587 Q1547.99 66.3781 1542.96 70.0644 Q1537.98 73.7508 1529.23 73.7508 Q1525.58 73.7508 1521.61 73.0216 Q1517.68 72.3329 1513.31 70.9151 L1513.31 63.2184 Q1517.44 65.3654 1521.45 66.4591 Q1525.46 67.5124 1529.39 67.5124 Q1534.66 67.5124 1537.49 65.73 Q1540.33 63.9071 1540.33 60.6258 Q1540.33 57.5877 1538.26 55.9673 Q1536.24 54.3469 1529.31 52.8481 L1526.72 52.2405 Q1519.79 50.7821 1516.71 47.7845 Q1513.63 44.7463 1513.63 39.4801 Q1513.63 33.0797 1518.17 29.5959 Q1522.71 26.1121 1531.05 26.1121 Q1535.18 26.1121 1538.83 26.7198 Q1542.48 27.3274 1545.55 28.5427 Z" fill="#000000" fill-rule="nonzero" fill-opacity="1" /><path clip-path="url(#clip030)" d="M1588.78 28.5427 L1588.78 35.5912 Q1585.62 33.9709 1582.22 33.1607 Q1578.81 32.3505 1575.17 32.3505 Q1569.62 32.3505 1566.82 34.0519 Q1564.07 35.7533 1564.07 39.156 Q1564.07 41.7486 1566.05 43.2475 Q1568.04 44.7058 1574.03 46.0426 L1576.58 46.6097 Q1584.52 48.3111 1587.85 51.4303 Q1591.21 54.509 1591.21 60.0587 Q1591.21 66.3781 1586.19 70.0644 Q1581.2 73.7508 1572.45 73.7508 Q1568.81 73.7508 1564.84 73.0216 Q1560.91 72.3329 1556.53 70.9151 L1556.53 63.2184 Q1560.66 65.3654 1564.67 66.4591 Q1568.69 67.5124 1572.61 67.5124 Q1577.88 67.5124 1580.72 65.73 Q1583.55 63.9071 1583.55 60.6258 Q1583.55 57.5877 1581.49 55.9673 Q1579.46 54.3469 1572.53 52.8481 L1569.94 52.2405 Q1563.01 50.7821 1559.94 47.7845 Q1556.86 44.7463 1556.86 39.4801 Q1556.86 33.0797 1561.39 29.5959 Q1565.93 26.1121 1574.28 26.1121 Q1578.41 26.1121 1582.05 26.7198 Q1585.7 27.3274 1588.78 28.5427 Z" fill="#000000" fill-rule="nonzero" fill-opacity="1" /><path clip-path="url(#clip030)" d="M1603.08 27.2059 L1610.53 27.2059 L1610.53 72.576 L1603.08 72.576 L1603.08 27.2059 M1603.08 9.54393 L1610.53 9.54393 L1610.53 18.9825 L1603.08 18.9825 L1603.08 9.54393 Z" fill="#000000" fill-rule="nonzero" fill-opacity="1" /><path clip-path="url(#clip030)" d="M1633.34 65.7705 L1633.34 89.8329 L1625.84 89.8329 L1625.84 27.2059 L1633.34 27.2059 L1633.34 34.0924 Q1635.69 30.0415 1639.25 28.0971 Q1642.86 26.1121 1647.84 26.1121 Q1656.1 26.1121 1661.25 32.6746 Q1666.43 39.2371 1666.43 49.9314 Q1666.43 60.6258 1661.25 67.1883 Q1656.1 73.7508 1647.84 73.7508 Q1642.86 73.7508 1639.25 71.8063 Q1635.69 69.8214 1633.34 65.7705 M1658.7 49.9314 Q1658.7 41.7081 1655.29 37.0496 Q1651.93 32.3505 1646.02 32.3505 Q1640.1 32.3505 1636.7 37.0496 Q1633.34 41.7081 1633.34 49.9314 Q1633.34 58.1548 1636.7 62.8538 Q1640.1 67.5124 1646.02 67.5124 Q1651.93 67.5124 1655.29 62.8538 Q1658.7 58.1548 1658.7 49.9314 Z" fill="#000000" fill-rule="nonzero" fill-opacity="1" /><path clip-path="url(#clip030)" d="M1699.41 49.7694 Q1690.37 49.7694 1686.89 51.8354 Q1683.41 53.9013 1683.41 58.8839 Q1683.41 62.8538 1686 65.2034 Q1688.63 67.5124 1693.13 67.5124 Q1699.33 67.5124 1703.05 63.1374 Q1706.82 58.7219 1706.82 51.4303 L1706.82 49.7694 L1699.41 49.7694 M1714.27 46.6907 L1714.27 72.576 L1706.82 72.576 L1706.82 65.6895 Q1704.27 69.8214 1700.46 71.8063 Q1696.65 73.7508 1691.14 73.7508 Q1684.18 73.7508 1680.04 69.8619 Q1675.95 65.9325 1675.95 59.3701 Q1675.95 51.7138 1681.06 47.825 Q1686.2 43.9361 1696.37 43.9361 L1706.82 43.9361 L1706.82 43.2069 Q1706.82 38.0623 1703.42 35.2672 Q1700.06 32.4315 1693.94 32.4315 Q1690.05 32.4315 1686.36 33.3632 Q1682.68 34.295 1679.27 36.1584 L1679.27 29.2718 Q1683.37 27.692 1687.21 26.9223 Q1691.06 26.1121 1694.71 26.1121 Q1704.55 26.1121 1709.41 31.2163 Q1714.27 36.3204 1714.27 46.6907 Z" fill="#000000" fill-rule="nonzero" fill-opacity="1" /><path clip-path="url(#clip030)" d="M1737 14.324 L1737 27.2059 L1752.35 27.2059 L1752.35 32.9987 L1737 32.9987 L1737 57.6282 Q1737 63.1779 1738.5 64.7578 Q1740.04 66.3376 1744.7 66.3376 L1752.35 66.3376 L1752.35 72.576 L1744.7 72.576 Q1736.07 72.576 1732.79 69.3758 Q1729.51 66.1351 1729.51 57.6282 L1729.51 32.9987 L1724.04 32.9987 L1724.04 27.2059 L1729.51 27.2059 L1729.51 14.324 L1737 14.324 Z" fill="#000000" fill-rule="nonzero" fill-opacity="1" /><path clip-path="url(#clip030)" d="M1762.16 27.2059 L1769.61 27.2059 L1769.61 72.576 L1762.16 72.576 L1762.16 27.2059 M1762.16 9.54393 L1769.61 9.54393 L1769.61 18.9825 L1762.16 18.9825 L1762.16 9.54393 Z" fill="#000000" fill-rule="nonzero" fill-opacity="1" /><path clip-path="url(#clip030)" d="M1802.79 32.4315 Q1796.79 32.4315 1793.31 37.1306 Q1789.82 41.7891 1789.82 49.9314 Q1789.82 58.0738 1793.27 62.7728 Q1796.75 67.4314 1802.79 67.4314 Q1808.74 67.4314 1812.23 62.7323 Q1815.71 58.0333 1815.71 49.9314 Q1815.71 41.8701 1812.23 37.1711 Q1808.74 32.4315 1802.79 32.4315 M1802.79 26.1121 Q1812.51 26.1121 1818.06 32.4315 Q1823.61 38.7509 1823.61 49.9314 Q1823.61 61.0714 1818.06 67.4314 Q1812.51 73.7508 1802.79 73.7508 Q1793.02 73.7508 1787.47 67.4314 Q1781.97 61.0714 1781.97 49.9314 Q1781.97 38.7509 1787.47 32.4315 Q1793.02 26.1121 1802.79 26.1121 Z" fill="#000000" fill-rule="nonzero" fill-opacity="1" /><path clip-path="url(#clip030)" d="M1873.68 45.1919 L1873.68 72.576 L1866.22 72.576 L1866.22 45.4349 Q1866.22 38.994 1863.71 35.7938 Q1861.2 32.5936 1856.18 32.5936 Q1850.14 32.5936 1846.66 36.4419 Q1843.17 40.2903 1843.17 46.9338 L1843.17 72.576 L1835.68 72.576 L1835.68 27.2059 L1843.17 27.2059 L1843.17 34.2544 Q1845.85 30.163 1849.45 28.1376 Q1853.1 26.1121 1857.84 26.1121 Q1865.66 26.1121 1869.67 30.9732 Q1873.68 35.7938 1873.68 45.1919 Z" fill="#000000" fill-rule="nonzero" fill-opacity="1" /><path clip-path="url(#clip030)" d="M1915.24 12.096 L1953.48 12.096 L1953.48 18.9825 L1923.42 18.9825 L1923.42 36.8875 L1952.22 36.8875 L1952.22 43.7741 L1923.42 43.7741 L1923.42 65.6895 L1954.21 65.6895 L1954.21 72.576 L1915.24 72.576 L1915.24 12.096 Z" fill="#000000" fill-rule="nonzero" fill-opacity="1" /><path clip-path="url(#clip030)" d="M2005.05 45.1919 L2005.05 72.576 L1997.59 72.576 L1997.59 45.4349 Q1997.59 38.994 1995.08 35.7938 Q1992.57 32.5936 1987.55 32.5936 Q1981.51 32.5936 1978.03 36.4419 Q1974.55 40.2903 1974.55 46.9338 L1974.55 72.576 L1967.05 72.576 L1967.05 27.2059 L1974.55 27.2059 L1974.55 34.2544 Q1977.22 30.163 1980.82 28.1376 Q1984.47 26.1121 1989.21 26.1121 Q1997.03 26.1121 2001.04 30.9732 Q2005.05 35.7938 2005.05 45.1919 Z" fill="#000000" fill-rule="nonzero" fill-opacity="1" /><path clip-path="url(#clip030)" d="M2058.72 48.0275 L2058.72 51.6733 L2024.45 51.6733 Q2024.94 59.3701 2029.07 63.421 Q2033.24 67.4314 2040.66 67.4314 Q2044.95 67.4314 2048.96 66.3781 Q2053.01 65.3249 2056.98 63.2184 L2056.98 70.267 Q2052.97 71.9684 2048.76 72.8596 Q2044.54 73.7508 2040.21 73.7508 Q2029.35 73.7508 2022.99 67.4314 Q2016.67 61.1119 2016.67 50.3365 Q2016.67 39.1965 2022.67 32.6746 Q2028.71 26.1121 2038.91 26.1121 Q2048.07 26.1121 2053.38 32.0264 Q2058.72 37.9003 2058.72 48.0275 M2051.27 45.84 Q2051.19 39.7232 2047.83 36.0774 Q2044.5 32.4315 2039 32.4315 Q2032.76 32.4315 2028.99 35.9558 Q2025.26 39.4801 2024.7 45.8805 L2051.27 45.84 Z" fill="#000000" fill-rule="nonzero" fill-opacity="1" /><path clip-path="url(#clip030)" d="M2097.25 34.1734 Q2095.99 33.4443 2094.49 33.1202 Q2093.03 32.7556 2091.25 32.7556 Q2084.93 32.7556 2081.53 36.8875 Q2078.17 40.9789 2078.17 48.6757 L2078.17 72.576 L2070.67 72.576 L2070.67 27.2059 L2078.17 27.2059 L2078.17 34.2544 Q2080.52 30.1225 2084.28 28.1376 Q2088.05 26.1121 2093.44 26.1121 Q2094.21 26.1121 2095.14 26.2337 Q2096.07 26.3147 2097.21 26.5172 L2097.25 34.1734 Z" fill="#000000" fill-rule="nonzero" fill-opacity="1" /><path clip-path="url(#clip030)" d="M2133.46 49.3643 Q2133.46 41.2625 2130.1 36.8065 Q2126.78 32.3505 2120.74 32.3505 Q2114.75 32.3505 2111.38 36.8065 Q2108.06 41.2625 2108.06 49.3643 Q2108.06 57.4256 2111.38 61.8816 Q2114.75 66.3376 2120.74 66.3376 Q2126.78 66.3376 2130.1 61.8816 Q2133.46 57.4256 2133.46 49.3643 M2140.92 66.9452 Q2140.92 78.5308 2135.77 84.1616 Q2130.63 89.8329 2120.01 89.8329 Q2116.08 89.8329 2112.6 89.2252 Q2109.12 88.6581 2105.84 87.4428 L2105.84 80.1917 Q2109.12 81.9741 2112.32 82.8248 Q2115.52 83.6755 2118.84 83.6755 Q2126.17 83.6755 2129.82 79.8271 Q2133.46 76.0193 2133.46 68.282 L2133.46 64.5957 Q2131.15 68.6061 2127.55 70.5911 Q2123.94 72.576 2118.92 72.576 Q2110.57 72.576 2105.47 66.2161 Q2100.37 59.8562 2100.37 49.3643 Q2100.37 38.832 2105.47 32.472 Q2110.57 26.1121 2118.92 26.1121 Q2123.94 26.1121 2127.55 28.0971 Q2131.15 30.082 2133.46 34.0924 L2133.46 27.2059 L2140.92 27.2059 L2140.92 66.9452 Z" fill="#000000" fill-rule="nonzero" fill-opacity="1" /><path clip-path="url(#clip030)" d="M2175.15 76.7889 Q2171.99 84.8907 2168.99 87.3618 Q2165.99 89.8329 2160.97 89.8329 L2155.01 89.8329 L2155.01 83.5945 L2159.39 83.5945 Q2162.47 83.5945 2164.17 82.1361 Q2165.87 80.6778 2167.94 75.2496 L2169.27 71.8468 L2150.92 27.2059 L2158.82 27.2059 L2173 62.6918 L2187.18 27.2059 L2195.08 27.2059 L2175.15 76.7889 Z" fill="#000000" fill-rule="nonzero" fill-opacity="1" /><polyline clip-path="url(#clip032)" style="stroke:#009af9; stroke-linecap:round; stroke-linejoin:round; stroke-width:8; stroke-opacity:1; fill:none" points="331.177,1386.4 370.431,160.256 409.685,177.838 448.939,184.485 488.193,188.782 527.447,192.022 566.701,194.558 605.955,196.577 645.209,198.202 684.463,199.521 723.717,200.598 762.971,201.484 802.225,202.216 841.479,202.823 880.733,203.329 919.987,203.753 959.241,204.109 998.495,204.409 1037.75,204.664 1077,204.879 1116.26,205.063 1155.51,205.219 1194.76,205.352 1234.02,205.466 1273.27,205.564 1312.53,205.648 1351.78,205.72 1391.03,205.782 1430.29,205.836 1469.54,205.883 1508.8,205.923 1548.05,205.958 1587.3,205.989 1626.56,206.016 1665.81,206.039 1705.07,206.059 1744.32,206.076 1783.57,206.091 1822.83,206.103 1862.08,206.114 1901.34,206.122 1940.59,206.129 1979.84,206.135 2019.1,206.139 2058.35,206.143 2097.61,206.146 2136.86,206.149 2176.11,206.151 2215.37,206.154 2254.62,206.156 2293.87,206.163 "/>
<polyline clip-path="url(#clip032)" style="stroke:#e26f46; stroke-linecap:round; stroke-linejoin:round; stroke-width:8; stroke-opacity:1; fill:none" points="331.177,489.428 370.431,227.326 409.685,208.731 448.939,203.012 488.193,202.266 527.447,202.71 566.701,203.3 605.955,203.817 645.209,204.236 684.463,204.571 723.717,204.84 762.971,205.057 802.225,205.235 841.479,205.381 880.733,205.502 919.987,205.603 959.241,205.688 998.495,205.759 1037.75,205.819 1077,205.87 1116.26,205.914 1155.51,205.951 1194.76,205.982 1234.02,206.009 1273.27,206.032 1312.53,206.052 1351.78,206.069 1391.03,206.084 1430.29,206.096 1469.54,206.107 1508.8,206.117 1548.05,206.125 1587.3,206.132 1626.56,206.138 1665.81,206.143 1705.07,206.147 1744.32,206.151 1783.57,206.155 1822.83,206.157 1862.08,206.16 1901.34,206.162 1940.59,206.164 1979.84,206.165 2019.1,206.167 2058.35,206.168 2097.61,206.169 2136.86,206.17 2176.11,206.17 2215.37,206.171 2254.62,206.172 2293.87,206.172 "/>
<path clip-path="url(#clip030)" d="M1876.38 322.316 L2283.41 322.316 L2283.41 166.796 L1876.38 166.796  Z" fill="#ffffff" fill-rule="evenodd" fill-opacity="1"/>
<polyline clip-path="url(#clip030)" style="stroke:#000000; stroke-linecap:round; stroke-linejoin:round; stroke-width:4; stroke-opacity:1; fill:none" points="1876.38,322.316 2283.41,322.316 2283.41,166.796 1876.38,166.796 1876.38,322.316 "/>
<polyline clip-path="url(#clip030)" style="stroke:#009af9; stroke-linecap:round; stroke-linejoin:round; stroke-width:8; stroke-opacity:1; fill:none" points="1899.5,218.636 2038.19,218.636 "/>
<path clip-path="url(#clip030)" d="M2061.31 209.99 L2065.82 209.99 L2073.93 231.749 L2082.03 209.99 L2086.54 209.99 L2076.82 235.916 L2071.03 235.916 L2061.31 209.99 Z" fill="#000000" fill-rule="nonzero" fill-opacity="1" /><path clip-path="url(#clip030)" d="M2091.57 233.369 L2096.29 233.369 L2096.29 219.226 L2091.13 220.175 L2091.13 217.49 L2096.45 216.587 L2099.62 216.587 L2099.62 233.369 L2104.37 233.369 L2104.37 235.916 L2091.57 235.916 L2091.57 233.369 Z" fill="#000000" fill-rule="nonzero" fill-opacity="1" /><path clip-path="url(#clip030)" d="M2136.73 199.944 Q2133.63 205.268 2132.12 210.476 Q2130.62 215.684 2130.62 221.032 Q2130.62 226.379 2132.12 231.633 Q2133.65 236.865 2136.73 242.166 L2133.02 242.166 Q2129.55 236.726 2127.81 231.471 Q2126.1 226.217 2126.1 221.032 Q2126.1 215.87 2127.81 210.638 Q2129.53 205.407 2133.02 199.944 L2136.73 199.944 Z" fill="#000000" fill-rule="nonzero" fill-opacity="1" /><path clip-path="url(#clip030)" d="M2156.73 205.962 L2150.38 223.161 L2163.09 223.161 L2156.73 205.962 M2154.09 201.356 L2159.39 201.356 L2172.56 235.916 L2167.7 235.916 L2164.55 227.05 L2148.97 227.05 L2145.82 235.916 L2140.89 235.916 L2154.09 201.356 Z" fill="#000000" fill-rule="nonzero" fill-opacity="1" /><path clip-path="url(#clip030)" d="M2210.36 220.013 L2210.36 222.096 L2201.26 231.194 L2198.49 228.416 L2203.88 223.022 L2175.66 223.022 L2175.66 219.087 L2203.88 219.087 L2198.49 213.694 L2201.26 210.916 L2210.36 220.013 Z" fill="#000000" fill-rule="nonzero" fill-opacity="1" /><path clip-path="url(#clip030)" d="M2222 219.411 L2222 232.073 L2229.5 232.073 Q2233.28 232.073 2235.08 230.522 Q2236.91 228.948 2236.91 225.731 Q2236.91 222.49 2235.08 220.962 Q2233.28 219.411 2229.5 219.411 L2222 219.411 M2222 205.198 L2222 215.615 L2228.93 215.615 Q2232.35 215.615 2234.02 214.342 Q2235.71 213.045 2235.71 210.407 Q2235.71 207.791 2234.02 206.495 Q2232.35 205.198 2228.93 205.198 L2222 205.198 M2217.33 201.356 L2229.27 201.356 Q2234.62 201.356 2237.51 203.578 Q2240.41 205.8 2240.41 209.897 Q2240.41 213.069 2238.93 214.944 Q2237.44 216.819 2234.57 217.282 Q2238.02 218.022 2239.92 220.383 Q2241.84 222.721 2241.84 226.24 Q2241.84 230.869 2238.69 233.393 Q2235.55 235.916 2229.74 235.916 L2217.33 235.916 L2217.33 201.356 Z" fill="#000000" fill-rule="nonzero" fill-opacity="1" /><path clip-path="url(#clip030)" d="M2248.99 199.944 L2252.7 199.944 Q2256.17 205.407 2257.88 210.638 Q2259.62 215.87 2259.62 221.032 Q2259.62 226.217 2257.88 231.471 Q2256.17 236.726 2252.7 242.166 L2248.99 242.166 Q2252.07 236.865 2253.58 231.633 Q2255.11 226.379 2255.11 221.032 Q2255.11 215.684 2253.58 210.476 Q2252.07 205.268 2248.99 199.944 Z" fill="#000000" fill-rule="nonzero" fill-opacity="1" /><polyline clip-path="url(#clip030)" style="stroke:#e26f46; stroke-linecap:round; stroke-linejoin:round; stroke-width:8; stroke-opacity:1; fill:none" points="1899.5,270.476 2038.19,270.476 "/>
<path clip-path="url(#clip030)" d="M2061.31 261.83 L2065.82 261.83 L2073.93 283.589 L2082.03 261.83 L2086.54 261.83 L2076.82 287.756 L2071.03 287.756 L2061.31 261.83 Z" fill="#000000" fill-rule="nonzero" fill-opacity="1" /><path clip-path="url(#clip030)" d="M2094.16 285.117 L2103.97 285.117 L2103.97 287.756 L2090.13 287.756 L2090.13 285.209 Q2090.92 284.492 2092.38 283.196 Q2100.34 276.135 2100.34 273.959 Q2100.34 272.432 2099.13 271.506 Q2097.93 270.557 2095.96 270.557 Q2094.76 270.557 2093.35 270.973 Q2091.94 271.367 2090.27 272.177 L2090.27 269.33 Q2092.05 268.682 2093.58 268.358 Q2095.13 268.034 2096.45 268.034 Q2099.81 268.034 2101.82 269.561 Q2103.83 271.089 2103.83 273.589 Q2103.83 276.807 2096.17 283.381 Q2094.88 284.492 2094.16 285.117 Z" fill="#000000" fill-rule="nonzero" fill-opacity="1" /><path clip-path="url(#clip030)" d="M2136.73 251.784 Q2133.63 257.108 2132.12 262.316 Q2130.62 267.524 2130.62 272.872 Q2130.62 278.219 2132.12 283.473 Q2133.65 288.705 2136.73 294.006 L2133.02 294.006 Q2129.55 288.566 2127.81 283.311 Q2126.1 278.057 2126.1 272.872 Q2126.1 267.71 2127.81 262.478 Q2129.53 257.247 2133.02 251.784 L2136.73 251.784 Z" fill="#000000" fill-rule="nonzero" fill-opacity="1" /><path clip-path="url(#clip030)" d="M2149.85 271.251 L2149.85 283.913 L2157.35 283.913 Q2161.12 283.913 2162.93 282.362 Q2164.76 280.788 2164.76 277.571 Q2164.76 274.33 2162.93 272.802 Q2161.12 271.251 2157.35 271.251 L2149.85 271.251 M2149.85 257.038 L2149.85 267.455 L2156.77 267.455 Q2160.2 267.455 2161.87 266.182 Q2163.56 264.885 2163.56 262.247 Q2163.56 259.631 2161.87 258.335 Q2160.2 257.038 2156.77 257.038 L2149.85 257.038 M2145.18 253.196 L2157.12 253.196 Q2162.47 253.196 2165.36 255.418 Q2168.25 257.64 2168.25 261.737 Q2168.25 264.909 2166.77 266.784 Q2165.29 268.659 2162.42 269.122 Q2165.87 269.862 2167.77 272.223 Q2169.69 274.561 2169.69 278.08 Q2169.69 282.709 2166.54 285.233 Q2163.39 287.756 2157.58 287.756 L2145.18 287.756 L2145.18 253.196 Z" fill="#000000" fill-rule="nonzero" fill-opacity="1" /><path clip-path="url(#clip030)" d="M2210.45 271.853 L2210.45 273.936 L2201.36 283.034 L2198.58 280.256 L2203.97 274.862 L2175.75 274.862 L2175.75 270.927 L2203.97 270.927 L2198.58 265.534 L2201.36 262.756 L2210.45 271.853 Z" fill="#000000" fill-rule="nonzero" fill-opacity="1" /><path clip-path="url(#clip030)" d="M2243.3 255.858 L2243.3 260.788 Q2240.94 258.589 2238.25 257.501 Q2235.59 256.413 2232.58 256.413 Q2226.66 256.413 2223.51 260.048 Q2220.36 263.659 2220.36 270.51 Q2220.36 277.339 2223.51 280.973 Q2226.66 284.584 2232.58 284.584 Q2235.59 284.584 2238.25 283.496 Q2240.94 282.409 2243.3 280.209 L2243.3 285.094 Q2240.85 286.76 2238.09 287.594 Q2235.36 288.427 2232.31 288.427 Q2224.46 288.427 2219.94 283.635 Q2215.43 278.821 2215.43 270.51 Q2215.43 262.177 2219.94 257.386 Q2224.46 252.571 2232.31 252.571 Q2235.41 252.571 2238.14 253.404 Q2240.89 254.214 2243.3 255.858 Z" fill="#000000" fill-rule="nonzero" fill-opacity="1" /><path clip-path="url(#clip030)" d="M2249.67 251.784 L2253.37 251.784 Q2256.84 257.247 2258.55 262.478 Q2260.29 267.71 2260.29 272.872 Q2260.29 278.057 2258.55 283.311 Q2256.84 288.566 2253.37 294.006 L2249.67 294.006 Q2252.74 288.705 2254.25 283.473 Q2255.78 278.219 2255.78 272.872 Q2255.78 267.524 2254.25 262.316 Q2252.74 257.108 2249.67 251.784 Z" fill="#000000" fill-rule="nonzero" fill-opacity="1" /></svg>
