<?xml version="1.0" encoding="utf-8"?>
<svg xmlns="http://www.w3.org/2000/svg" xmlns:xlink="http://www.w3.org/1999/xlink" width="600" height="400" viewBox="0 0 2400 1600">
<defs>
  <clipPath id="clip600">
    <rect x="0" y="0" width="2400" height="1600"/>
  </clipPath>
</defs>
<path clip-path="url(#clip600)" d="M0 1600 L2400 1600 L2400 8.88178e-14 L0 8.88178e-14  Z" fill="#ffffff" fill-rule="evenodd" fill-opacity="1"/>
<defs>
  <clipPath id="clip601">
    <rect x="480" y="0" width="1681" height="1600"/>
  </clipPath>
</defs>
<path clip-path="url(#clip600)" d="M202.227 1423.18 L2352.76 1423.18 L2352.76 123.472 L202.227 123.472  Z" fill="#ffffff" fill-rule="evenodd" fill-opacity="1"/>
<defs>
  <clipPath id="clip602">
    <rect x="202" y="123" width="2152" height="1301"/>
  </clipPath>
</defs>
<polyline clip-path="url(#clip602)" style="stroke:#000000; stroke-linecap:round; stroke-linejoin:round; stroke-width:2; stroke-opacity:0.1; fill:none" points="263.091,1423.18 263.091,123.472 "/>
<polyline clip-path="url(#clip602)" style="stroke:#000000; stroke-linecap:round; stroke-linejoin:round; stroke-width:2; stroke-opacity:0.1; fill:none" points="668.852,1423.18 668.852,123.472 "/>
<polyline clip-path="url(#clip602)" style="stroke:#000000; stroke-linecap:round; stroke-linejoin:round; stroke-width:2; stroke-opacity:0.1; fill:none" points="1074.61,1423.18 1074.61,123.472 "/>
<polyline clip-path="url(#clip602)" style="stroke:#000000; stroke-linecap:round; stroke-linejoin:round; stroke-width:2; stroke-opacity:0.1; fill:none" points="1480.37,1423.18 1480.37,123.472 "/>
<polyline clip-path="url(#clip602)" style="stroke:#000000; stroke-linecap:round; stroke-linejoin:round; stroke-width:2; stroke-opacity:0.1; fill:none" points="1886.13,1423.18 1886.13,123.472 "/>
<polyline clip-path="url(#clip602)" style="stroke:#000000; stroke-linecap:round; stroke-linejoin:round; stroke-width:2; stroke-opacity:0.1; fill:none" points="2291.89,1423.18 2291.89,123.472 "/>
<polyline clip-path="url(#clip602)" style="stroke:#000000; stroke-linecap:round; stroke-linejoin:round; stroke-width:2; stroke-opacity:0.1; fill:none" points="202.227,1386.45 2352.76,1386.45 "/>
<polyline clip-path="url(#clip602)" style="stroke:#000000; stroke-linecap:round; stroke-linejoin:round; stroke-width:2; stroke-opacity:0.1; fill:none" points="202.227,1041.96 2352.76,1041.96 "/>
<polyline clip-path="url(#clip602)" style="stroke:#000000; stroke-linecap:round; stroke-linejoin:round; stroke-width:2; stroke-opacity:0.1; fill:none" points="202.227,697.47 2352.76,697.47 "/>
<polyline clip-path="url(#clip602)" style="stroke:#000000; stroke-linecap:round; stroke-linejoin:round; stroke-width:2; stroke-opacity:0.1; fill:none" points="202.227,352.981 2352.76,352.981 "/>
<polyline clip-path="url(#clip600)" style="stroke:#000000; stroke-linecap:round; stroke-linejoin:round; stroke-width:4; stroke-opacity:1; fill:none" points="202.227,1423.18 2352.76,1423.18 "/>
<polyline clip-path="url(#clip600)" style="stroke:#000000; stroke-linecap:round; stroke-linejoin:round; stroke-width:4; stroke-opacity:1; fill:none" points="263.091,1423.18 263.091,1404.28 "/>
<polyline clip-path="url(#clip600)" style="stroke:#000000; stroke-linecap:round; stroke-linejoin:round; stroke-width:4; stroke-opacity:1; fill:none" points="668.852,1423.18 668.852,1404.28 "/>
<polyline clip-path="url(#clip600)" style="stroke:#000000; stroke-linecap:round; stroke-linejoin:round; stroke-width:4; stroke-opacity:1; fill:none" points="1074.61,1423.18 1074.61,1404.28 "/>
<polyline clip-path="url(#clip600)" style="stroke:#000000; stroke-linecap:round; stroke-linejoin:round; stroke-width:4; stroke-opacity:1; fill:none" points="1480.37,1423.18 1480.37,1404.28 "/>
<polyline clip-path="url(#clip600)" style="stroke:#000000; stroke-linecap:round; stroke-linejoin:round; stroke-width:4; stroke-opacity:1; fill:none" points="1886.13,1423.18 1886.13,1404.28 "/>
<polyline clip-path="url(#clip600)" style="stroke:#000000; stroke-linecap:round; stroke-linejoin:round; stroke-width:4; stroke-opacity:1; fill:none" points="2291.89,1423.18 2291.89,1404.28 "/>
<path clip-path="url(#clip600)" d="M263.091 1454.1 Q259.48 1454.1 257.652 1457.66 Q255.846 1461.2 255.846 1468.33 Q255.846 1475.44 257.652 1479.01 Q259.48 1482.55 263.091 1482.55 Q266.726 1482.55 268.531 1479.01 Q270.36 1475.44 270.36 1468.33 Q270.36 1461.2 268.531 1457.66 Q266.726 1454.1 263.091 1454.1 M263.091 1450.39 Q268.902 1450.39 271.957 1455 Q275.036 1459.58 275.036 1468.33 Q275.036 1477.06 271.957 1481.67 Q268.902 1486.25 263.091 1486.25 Q257.281 1486.25 254.203 1481.67 Q251.147 1477.06 251.147 1468.33 Q251.147 1459.58 254.203 1455 Q257.281 1450.39 263.091 1450.39 Z" fill="#000000" fill-rule="nonzero" fill-opacity="1" /><path clip-path="url(#clip600)" d="M659.234 1481.64 L666.872 1481.64 L666.872 1455.28 L658.562 1456.95 L658.562 1452.69 L666.826 1451.02 L671.502 1451.02 L671.502 1481.64 L679.141 1481.64 L679.141 1485.58 L659.234 1485.58 L659.234 1481.64 Z" fill="#000000" fill-rule="nonzero" fill-opacity="1" /><path clip-path="url(#clip600)" d="M1069.26 1481.64 L1085.58 1481.64 L1085.58 1485.58 L1063.64 1485.58 L1063.64 1481.64 Q1066.3 1478.89 1070.88 1474.26 Q1075.49 1469.61 1076.67 1468.27 Q1078.92 1465.74 1079.8 1464.01 Q1080.7 1462.25 1080.7 1460.56 Q1080.7 1457.8 1078.76 1456.07 Q1076.83 1454.33 1073.73 1454.33 Q1071.53 1454.33 1069.08 1455.09 Q1066.65 1455.86 1063.87 1457.41 L1063.87 1452.69 Q1066.7 1451.55 1069.15 1450.97 Q1071.6 1450.39 1073.64 1450.39 Q1079.01 1450.39 1082.2 1453.08 Q1085.4 1455.77 1085.4 1460.26 Q1085.4 1462.39 1084.59 1464.31 Q1083.8 1466.2 1081.69 1468.8 Q1081.12 1469.47 1078.01 1472.69 Q1074.91 1475.88 1069.26 1481.64 Z" fill="#000000" fill-rule="nonzero" fill-opacity="1" /><path clip-path="url(#clip600)" d="M1484.62 1466.95 Q1487.98 1467.66 1489.85 1469.93 Q1491.75 1472.2 1491.75 1475.53 Q1491.75 1480.65 1488.23 1483.45 Q1484.71 1486.25 1478.23 1486.25 Q1476.05 1486.25 1473.74 1485.81 Q1471.45 1485.39 1468.99 1484.54 L1468.99 1480.02 Q1470.94 1481.16 1473.25 1481.74 Q1475.57 1482.32 1478.09 1482.32 Q1482.49 1482.32 1484.78 1480.58 Q1487.1 1478.84 1487.1 1475.53 Q1487.1 1472.48 1484.94 1470.77 Q1482.81 1469.03 1478.99 1469.03 L1474.97 1469.03 L1474.97 1465.19 L1479.18 1465.19 Q1482.63 1465.19 1484.46 1463.82 Q1486.29 1462.43 1486.29 1459.84 Q1486.29 1457.18 1484.39 1455.77 Q1482.51 1454.33 1478.99 1454.33 Q1477.07 1454.33 1474.87 1454.75 Q1472.68 1455.16 1470.04 1456.04 L1470.04 1451.88 Q1472.7 1451.14 1475.01 1450.77 Q1477.35 1450.39 1479.41 1450.39 Q1484.74 1450.39 1487.84 1452.83 Q1490.94 1455.23 1490.94 1459.35 Q1490.94 1462.22 1489.3 1464.21 Q1487.65 1466.18 1484.62 1466.95 Z" fill="#000000" fill-rule="nonzero" fill-opacity="1" /><path clip-path="url(#clip600)" d="M1889.14 1455.09 L1877.34 1473.54 L1889.14 1473.54 L1889.14 1455.09 M1887.91 1451.02 L1893.79 1451.02 L1893.79 1473.54 L1898.72 1473.54 L1898.72 1477.43 L1893.79 1477.43 L1893.79 1485.58 L1889.14 1485.58 L1889.14 1477.43 L1873.54 1477.43 L1873.54 1472.92 L1887.91 1451.02 Z" fill="#000000" fill-rule="nonzero" fill-opacity="1" /><path clip-path="url(#clip600)" d="M2282.17 1451.02 L2300.53 1451.02 L2300.53 1454.96 L2286.45 1454.96 L2286.45 1463.43 Q2287.47 1463.08 2288.49 1462.92 Q2289.51 1462.73 2290.53 1462.73 Q2296.31 1462.73 2299.69 1465.9 Q2303.07 1469.08 2303.07 1474.49 Q2303.07 1480.07 2299.6 1483.17 Q2296.13 1486.25 2289.81 1486.25 Q2287.63 1486.25 2285.36 1485.88 Q2283.12 1485.51 2280.71 1484.77 L2280.71 1480.07 Q2282.79 1481.2 2285.02 1481.76 Q2287.24 1482.32 2289.72 1482.32 Q2293.72 1482.32 2296.06 1480.21 Q2298.4 1478.1 2298.4 1474.49 Q2298.4 1470.88 2296.06 1468.77 Q2293.72 1466.67 2289.72 1466.67 Q2287.84 1466.67 2285.97 1467.08 Q2284.11 1467.5 2282.17 1468.38 L2282.17 1451.02 Z" fill="#000000" fill-rule="nonzero" fill-opacity="1" /><path clip-path="url(#clip600)" d="M1199.37 1520.52 L1239.57 1520.52 L1239.57 1525.93 L1222.7 1525.93 L1222.7 1568.04 L1216.24 1568.04 L1216.24 1525.93 L1199.37 1525.93 L1199.37 1520.52 Z" fill="#000000" fill-rule="nonzero" fill-opacity="1" /><path clip-path="url(#clip600)" d="M1243.51 1532.4 L1249.37 1532.4 L1249.37 1568.04 L1243.51 1568.04 L1243.51 1532.4 M1243.51 1518.52 L1249.37 1518.52 L1249.37 1525.93 L1243.51 1525.93 L1243.51 1518.52 Z" fill="#000000" fill-rule="nonzero" fill-opacity="1" /><path clip-path="url(#clip600)" d="M1289.38 1539.24 Q1291.58 1535.29 1294.63 1533.41 Q1297.69 1531.54 1301.82 1531.54 Q1307.39 1531.54 1310.42 1535.45 Q1313.44 1539.33 1313.44 1546.53 L1313.44 1568.04 L1307.55 1568.04 L1307.55 1546.72 Q1307.55 1541.59 1305.74 1539.11 Q1303.93 1536.63 1300.2 1536.63 Q1295.65 1536.63 1293.01 1539.65 Q1290.37 1542.68 1290.37 1547.9 L1290.37 1568.04 L1284.48 1568.04 L1284.48 1546.72 Q1284.48 1541.56 1282.66 1539.11 Q1280.85 1536.63 1277.06 1536.63 Q1272.57 1536.63 1269.93 1539.68 Q1267.29 1542.71 1267.29 1547.9 L1267.29 1568.04 L1261.4 1568.04 L1261.4 1532.4 L1267.29 1532.4 L1267.29 1537.93 Q1269.3 1534.66 1272.1 1533.1 Q1274.9 1531.54 1278.75 1531.54 Q1282.63 1531.54 1285.34 1533.51 Q1288.07 1535.48 1289.38 1539.24 Z" fill="#000000" fill-rule="nonzero" fill-opacity="1" /><path clip-path="url(#clip600)" d="M1355.61 1548.76 L1355.61 1551.62 L1328.69 1551.62 Q1329.07 1557.67 1332.32 1560.85 Q1335.59 1564 1341.42 1564 Q1344.79 1564 1347.94 1563.17 Q1351.13 1562.35 1354.25 1560.69 L1354.25 1566.23 Q1351.1 1567.57 1347.79 1568.27 Q1344.47 1568.97 1341.07 1568.97 Q1332.54 1568.97 1327.54 1564 Q1322.58 1559.04 1322.58 1550.57 Q1322.58 1541.82 1327.29 1536.69 Q1332.03 1531.54 1340.05 1531.54 Q1347.24 1531.54 1351.41 1536.18 Q1355.61 1540.8 1355.61 1548.76 M1349.76 1547.04 Q1349.69 1542.23 1347.05 1539.37 Q1344.44 1536.5 1340.11 1536.5 Q1335.21 1536.5 1332.25 1539.27 Q1329.32 1542.04 1328.88 1547.07 L1349.76 1547.04 Z" fill="#000000" fill-rule="nonzero" fill-opacity="1" /><polyline clip-path="url(#clip600)" style="stroke:#000000; stroke-linecap:round; stroke-linejoin:round; stroke-width:4; stroke-opacity:1; fill:none" points="202.227,1423.18 202.227,123.472 "/>
<polyline clip-path="url(#clip600)" style="stroke:#000000; stroke-linecap:round; stroke-linejoin:round; stroke-width:4; stroke-opacity:1; fill:none" points="202.227,1386.45 221.125,1386.45 "/>
<polyline clip-path="url(#clip600)" style="stroke:#000000; stroke-linecap:round; stroke-linejoin:round; stroke-width:4; stroke-opacity:1; fill:none" points="202.227,1041.96 221.125,1041.96 "/>
<polyline clip-path="url(#clip600)" style="stroke:#000000; stroke-linecap:round; stroke-linejoin:round; stroke-width:4; stroke-opacity:1; fill:none" points="202.227,697.47 221.125,697.47 "/>
<polyline clip-path="url(#clip600)" style="stroke:#000000; stroke-linecap:round; stroke-linejoin:round; stroke-width:4; stroke-opacity:1; fill:none" points="202.227,352.981 221.125,352.981 "/>
<path clip-path="url(#clip600)" d="M154.283 1372.25 Q150.672 1372.25 148.843 1375.81 Q147.038 1379.35 147.038 1386.48 Q147.038 1393.59 148.843 1397.15 Q150.672 1400.69 154.283 1400.69 Q157.917 1400.69 159.723 1397.15 Q161.552 1393.59 161.552 1386.48 Q161.552 1379.35 159.723 1375.81 Q157.917 1372.25 154.283 1372.25 M154.283 1368.54 Q160.093 1368.54 163.149 1373.15 Q166.227 1377.73 166.227 1386.48 Q166.227 1395.21 163.149 1399.81 Q160.093 1404.4 154.283 1404.4 Q148.473 1404.4 145.394 1399.81 Q142.339 1395.21 142.339 1386.48 Q142.339 1377.73 145.394 1373.15 Q148.473 1368.54 154.283 1368.54 Z" fill="#000000" fill-rule="nonzero" fill-opacity="1" /><path clip-path="url(#clip600)" d="M145.325 1024.68 L163.681 1024.68 L163.681 1028.61 L149.607 1028.61 L149.607 1037.09 Q150.626 1036.74 151.644 1036.58 Q152.663 1036.39 153.681 1036.39 Q159.468 1036.39 162.848 1039.56 Q166.227 1042.73 166.227 1048.15 Q166.227 1053.73 162.755 1056.83 Q159.283 1059.91 152.964 1059.91 Q150.788 1059.91 148.519 1059.54 Q146.274 1059.17 143.866 1058.43 L143.866 1053.73 Q145.95 1054.86 148.172 1055.42 Q150.394 1055.97 152.871 1055.97 Q156.876 1055.97 159.214 1053.87 Q161.552 1051.76 161.552 1048.15 Q161.552 1044.54 159.214 1042.43 Q156.876 1040.33 152.871 1040.33 Q150.996 1040.33 149.121 1040.74 Q147.269 1041.16 145.325 1042.04 L145.325 1024.68 Z" fill="#000000" fill-rule="nonzero" fill-opacity="1" /><path clip-path="url(#clip600)" d="M114.931 710.815 L122.57 710.815 L122.57 684.449 L114.26 686.116 L114.26 681.857 L122.524 680.19 L127.2 680.19 L127.2 710.815 L134.839 710.815 L134.839 714.75 L114.931 714.75 L114.931 710.815 Z" fill="#000000" fill-rule="nonzero" fill-opacity="1" /><path clip-path="url(#clip600)" d="M154.283 683.269 Q150.672 683.269 148.843 686.833 Q147.038 690.375 147.038 697.505 Q147.038 704.611 148.843 708.176 Q150.672 711.718 154.283 711.718 Q157.917 711.718 159.723 708.176 Q161.552 704.611 161.552 697.505 Q161.552 690.375 159.723 686.833 Q157.917 683.269 154.283 683.269 M154.283 679.565 Q160.093 679.565 163.149 684.171 Q166.227 688.755 166.227 697.505 Q166.227 706.231 163.149 710.838 Q160.093 715.421 154.283 715.421 Q148.473 715.421 145.394 710.838 Q142.339 706.231 142.339 697.505 Q142.339 688.755 145.394 684.171 Q148.473 679.565 154.283 679.565 Z" fill="#000000" fill-rule="nonzero" fill-opacity="1" /><path clip-path="url(#clip600)" d="M115.927 366.326 L123.566 366.326 L123.566 339.961 L115.256 341.627 L115.256 337.368 L123.519 335.701 L128.195 335.701 L128.195 366.326 L135.834 366.326 L135.834 370.261 L115.927 370.261 L115.927 366.326 Z" fill="#000000" fill-rule="nonzero" fill-opacity="1" /><path clip-path="url(#clip600)" d="M145.325 335.701 L163.681 335.701 L163.681 339.637 L149.607 339.637 L149.607 348.109 Q150.626 347.762 151.644 347.6 Q152.663 347.414 153.681 347.414 Q159.468 347.414 162.848 350.586 Q166.227 353.757 166.227 359.174 Q166.227 364.752 162.755 367.854 Q159.283 370.933 152.964 370.933 Q150.788 370.933 148.519 370.562 Q146.274 370.192 143.866 369.451 L143.866 364.752 Q145.95 365.886 148.172 366.442 Q150.394 366.998 152.871 366.998 Q156.876 366.998 159.214 364.891 Q161.552 362.785 161.552 359.174 Q161.552 355.562 159.214 353.456 Q156.876 351.35 152.871 351.35 Q150.996 351.35 149.121 351.766 Q147.269 352.183 145.325 353.062 L145.325 335.701 Z" fill="#000000" fill-rule="nonzero" fill-opacity="1" /><path clip-path="url(#clip600)" d="M16.4842 836.808 L16.4842 809.499 L21.895 809.499 L21.895 830.379 L35.8996 830.379 L35.8996 811.536 L41.3104 811.536 L41.3104 830.379 L64.0042 830.379 L64.0042 836.808 L16.4842 836.808 Z" fill="#000000" fill-rule="nonzero" fill-opacity="1" /><path clip-path="url(#clip600)" d="M14.479 799.569 L14.479 793.712 L64.0042 793.712 L64.0042 799.569 L14.479 799.569 Z" fill="#000000" fill-rule="nonzero" fill-opacity="1" /><path clip-path="url(#clip600)" d="M49.9359 782.063 L28.3562 782.063 L28.3562 776.206 L49.7131 776.206 Q54.7739 776.206 57.3202 774.233 Q59.8346 772.26 59.8346 768.313 Q59.8346 763.571 56.8109 760.833 Q53.7872 758.064 48.5673 758.064 L28.3562 758.064 L28.3562 752.208 L64.0042 752.208 L64.0042 758.064 L58.5296 758.064 Q61.7762 760.197 63.3676 763.029 Q64.9272 765.83 64.9272 769.554 Q64.9272 775.697 61.1078 778.88 Q57.2883 782.063 49.9359 782.063 M27.4968 767.326 L27.4968 767.326 Z" fill="#000000" fill-rule="nonzero" fill-opacity="1" /><path clip-path="url(#clip600)" d="M28.3562 710.512 L45.7028 723.403 L64.0042 709.844 L64.0042 716.751 L49.9996 727.127 L64.0042 737.503 L64.0042 744.41 L45.3526 730.564 L28.3562 743.232 L28.3562 736.325 L41.0558 726.872 L28.3562 717.419 L28.3562 710.512 Z" fill="#000000" fill-rule="nonzero" fill-opacity="1" /><path clip-path="url(#clip600)" d="M394.941 12.096 L446.104 12.096 L446.104 18.9825 L424.635 18.9825 L424.635 72.576 L416.411 72.576 L416.411 18.9825 L394.941 18.9825 L394.941 12.096 Z" fill="#000000" fill-rule="nonzero" fill-opacity="1" /><path clip-path="url(#clip600)" d="M491.393 45.1919 L491.393 72.576 L483.94 72.576 L483.94 45.4349 Q483.94 38.994 481.428 35.7938 Q478.917 32.5936 473.894 32.5936 Q467.858 32.5936 464.374 36.4419 Q460.89 40.2903 460.89 46.9338 L460.89 72.576 L453.396 72.576 L453.396 9.54393 L460.89 9.54393 L460.89 34.2544 Q463.564 30.163 467.169 28.1376 Q470.815 26.1121 475.554 26.1121 Q483.373 26.1121 487.383 30.9732 Q491.393 35.7938 491.393 45.1919 Z" fill="#000000" fill-rule="nonzero" fill-opacity="1" /><path clip-path="url(#clip600)" d="M545.068 48.0275 L545.068 51.6733 L510.797 51.6733 Q511.283 59.3701 515.415 63.421 Q519.588 67.4314 527.001 67.4314 Q531.295 67.4314 535.305 66.3781 Q539.356 65.3249 543.326 63.2184 L543.326 70.267 Q539.316 71.9684 535.103 72.8596 Q530.89 73.7508 526.555 73.7508 Q515.699 73.7508 509.339 67.4314 Q503.02 61.1119 503.02 50.3365 Q503.02 39.1965 509.015 32.6746 Q515.051 26.1121 525.259 26.1121 Q534.414 26.1121 539.721 32.0264 Q545.068 37.9003 545.068 48.0275 M537.614 45.84 Q537.533 39.7232 534.171 36.0774 Q530.849 32.4315 525.34 32.4315 Q519.102 32.4315 515.334 35.9558 Q511.607 39.4801 511.04 45.8805 L537.614 45.84 Z" fill="#000000" fill-rule="nonzero" fill-opacity="1" /><path clip-path="url(#clip600)" d="M583.592 34.1734 Q582.336 33.4443 580.837 33.1202 Q579.379 32.7556 577.597 32.7556 Q571.277 32.7556 567.875 36.8875 Q564.512 40.9789 564.512 48.6757 L564.512 72.576 L557.018 72.576 L557.018 27.2059 L564.512 27.2059 L564.512 34.2544 Q566.862 30.1225 570.629 28.1376 Q574.396 26.1121 579.784 26.1121 Q580.554 26.1121 581.486 26.2337 Q582.417 26.3147 583.552 26.5172 L583.592 34.1734 Z" fill="#000000" fill-rule="nonzero" fill-opacity="1" /><path clip-path="url(#clip600)" d="M625.276 35.9153 Q628.071 30.8922 631.96 28.5022 Q635.849 26.1121 641.115 26.1121 Q648.204 26.1121 652.052 31.0947 Q655.901 36.0368 655.901 45.1919 L655.901 72.576 L648.407 72.576 L648.407 45.4349 Q648.407 38.913 646.098 35.7533 Q643.788 32.5936 639.049 32.5936 Q633.256 32.5936 629.894 36.4419 Q626.532 40.2903 626.532 46.9338 L626.532 72.576 L619.037 72.576 L619.037 45.4349 Q619.037 38.8725 616.728 35.7533 Q614.419 32.5936 609.599 32.5936 Q603.887 32.5936 600.525 36.4824 Q597.163 40.3308 597.163 46.9338 L597.163 72.576 L589.668 72.576 L589.668 27.2059 L597.163 27.2059 L597.163 34.2544 Q599.715 30.082 603.279 28.0971 Q606.844 26.1121 611.746 26.1121 Q616.688 26.1121 620.131 28.6237 Q623.615 31.1352 625.276 35.9153 Z" fill="#000000" fill-rule="nonzero" fill-opacity="1" /><path clip-path="url(#clip600)" d="M688.348 32.4315 Q682.353 32.4315 678.869 37.1306 Q675.386 41.7891 675.386 49.9314 Q675.386 58.0738 678.829 62.7728 Q682.313 67.4314 688.348 67.4314 Q694.303 67.4314 697.787 62.7323 Q701.271 58.0333 701.271 49.9314 Q701.271 41.8701 697.787 37.1711 Q694.303 32.4315 688.348 32.4315 M688.348 26.1121 Q698.071 26.1121 703.62 32.4315 Q709.17 38.7509 709.17 49.9314 Q709.17 61.0714 703.62 67.4314 Q698.071 73.7508 688.348 73.7508 Q678.586 73.7508 673.036 67.4314 Q667.527 61.0714 667.527 49.9314 Q667.527 38.7509 673.036 32.4315 Q678.586 26.1121 688.348 26.1121 Z" fill="#000000" fill-rule="nonzero" fill-opacity="1" /><path clip-path="url(#clip600)" d="M751.381 34.0924 L751.381 9.54393 L758.834 9.54393 L758.834 72.576 L751.381 72.576 L751.381 65.7705 Q749.031 69.8214 745.426 71.8063 Q741.861 73.7508 736.838 73.7508 Q728.614 73.7508 723.429 67.1883 Q718.285 60.6258 718.285 49.9314 Q718.285 39.2371 723.429 32.6746 Q728.614 26.1121 736.838 26.1121 Q741.861 26.1121 745.426 28.0971 Q749.031 30.0415 751.381 34.0924 M725.981 49.9314 Q725.981 58.1548 729.344 62.8538 Q732.746 67.5124 738.661 67.5124 Q744.575 67.5124 747.978 62.8538 Q751.381 58.1548 751.381 49.9314 Q751.381 41.7081 747.978 37.0496 Q744.575 32.3505 738.661 32.3505 Q732.746 32.3505 729.344 37.0496 Q725.981 41.7081 725.981 49.9314 Z" fill="#000000" fill-rule="nonzero" fill-opacity="1" /><path clip-path="url(#clip600)" d="M793.064 76.7889 Q789.905 84.8907 786.907 87.3618 Q783.909 89.8329 778.886 89.8329 L772.931 89.8329 L772.931 83.5945 L777.306 83.5945 Q780.385 83.5945 782.086 82.1361 Q783.788 80.6778 785.854 75.2496 L787.19 71.8468 L768.84 27.2059 L776.739 27.2059 L790.917 62.6918 L805.095 27.2059 L812.995 27.2059 L793.064 76.7889 Z" fill="#000000" fill-rule="nonzero" fill-opacity="1" /><path clip-path="url(#clip600)" d="M860.998 45.1919 L860.998 72.576 L853.544 72.576 L853.544 45.4349 Q853.544 38.994 851.033 35.7938 Q848.521 32.5936 843.498 32.5936 Q837.462 32.5936 833.978 36.4419 Q830.495 40.2903 830.495 46.9338 L830.495 72.576 L823 72.576 L823 27.2059 L830.495 27.2059 L830.495 34.2544 Q833.168 30.163 836.774 28.1376 Q840.419 26.1121 845.159 26.1121 Q852.977 26.1121 856.988 30.9732 Q860.998 35.7938 860.998 45.1919 Z" fill="#000000" fill-rule="nonzero" fill-opacity="1" /><path clip-path="url(#clip600)" d="M896.484 49.7694 Q887.45 49.7694 883.967 51.8354 Q880.483 53.9013 880.483 58.8839 Q880.483 62.8538 883.075 65.2034 Q885.708 67.5124 890.205 67.5124 Q896.403 67.5124 900.13 63.1374 Q903.897 58.7219 903.897 51.4303 L903.897 49.7694 L896.484 49.7694 M911.351 46.6907 L911.351 72.576 L903.897 72.576 L903.897 65.6895 Q901.345 69.8214 897.537 71.8063 Q893.729 73.7508 888.22 73.7508 Q881.252 73.7508 877.121 69.8619 Q873.029 65.9325 873.029 59.3701 Q873.029 51.7138 878.133 47.825 Q883.278 43.9361 893.446 43.9361 L903.897 43.9361 L903.897 43.2069 Q903.897 38.0623 900.494 35.2672 Q897.132 32.4315 891.015 32.4315 Q887.126 32.4315 883.44 33.3632 Q879.754 34.295 876.351 36.1584 L876.351 29.2718 Q880.442 27.692 884.291 26.9223 Q888.139 26.1121 891.785 26.1121 Q901.629 26.1121 906.49 31.2163 Q911.351 36.3204 911.351 46.6907 Z" fill="#000000" fill-rule="nonzero" fill-opacity="1" /><path clip-path="url(#clip600)" d="M962.028 35.9153 Q964.823 30.8922 968.712 28.5022 Q972.6 26.1121 977.867 26.1121 Q984.956 26.1121 988.804 31.0947 Q992.652 36.0368 992.652 45.1919 L992.652 72.576 L985.158 72.576 L985.158 45.4349 Q985.158 38.913 982.849 35.7533 Q980.54 32.5936 975.801 32.5936 Q970.008 32.5936 966.646 36.4419 Q963.283 40.2903 963.283 46.9338 L963.283 72.576 L955.789 72.576 L955.789 45.4349 Q955.789 38.8725 953.48 35.7533 Q951.171 32.5936 946.351 32.5936 Q940.639 32.5936 937.276 36.4824 Q933.914 40.3308 933.914 46.9338 L933.914 72.576 L926.42 72.576 L926.42 27.2059 L933.914 27.2059 L933.914 34.2544 Q936.466 30.082 940.031 28.0971 Q943.596 26.1121 948.498 26.1121 Q953.44 26.1121 956.883 28.6237 Q960.367 31.1352 962.028 35.9153 Z" fill="#000000" fill-rule="nonzero" fill-opacity="1" /><path clip-path="url(#clip600)" d="M1007.52 27.2059 L1014.97 27.2059 L1014.97 72.576 L1007.52 72.576 L1007.52 27.2059 M1007.52 9.54393 L1014.97 9.54393 L1014.97 18.9825 L1007.52 18.9825 L1007.52 9.54393 Z" fill="#000000" fill-rule="nonzero" fill-opacity="1" /><path clip-path="url(#clip600)" d="M1063.22 28.9478 L1063.22 35.9153 Q1060.06 34.1734 1056.86 33.3227 Q1053.7 32.4315 1050.46 32.4315 Q1043.21 32.4315 1039.2 37.0496 Q1035.19 41.6271 1035.19 49.9314 Q1035.19 58.2358 1039.2 62.8538 Q1043.21 67.4314 1050.46 67.4314 Q1053.7 67.4314 1056.86 66.5807 Q1060.06 65.6895 1063.22 63.9476 L1063.22 70.8341 Q1060.1 72.2924 1056.74 73.0216 Q1053.42 73.7508 1049.65 73.7508 Q1039.4 73.7508 1033.36 67.3098 Q1027.33 60.8689 1027.33 49.9314 Q1027.33 38.832 1033.4 32.472 Q1039.52 26.1121 1050.13 26.1121 Q1053.58 26.1121 1056.86 26.8413 Q1060.14 27.5299 1063.22 28.9478 Z" fill="#000000" fill-rule="nonzero" fill-opacity="1" /><path clip-path="url(#clip600)" d="M1102.88 12.096 L1137.63 12.096 L1137.63 18.9825 L1111.06 18.9825 L1111.06 36.8065 L1135.04 36.8065 L1135.04 43.6931 L1111.06 43.6931 L1111.06 72.576 L1102.88 72.576 L1102.88 12.096 Z" fill="#000000" fill-rule="nonzero" fill-opacity="1" /><path clip-path="url(#clip600)" d="M1150.27 9.54393 L1157.73 9.54393 L1157.73 72.576 L1150.27 72.576 L1150.27 9.54393 Z" fill="#000000" fill-rule="nonzero" fill-opacity="1" /><path clip-path="url(#clip600)" d="M1172.55 54.671 L1172.55 27.2059 L1180.01 27.2059 L1180.01 54.3874 Q1180.01 60.8284 1182.52 64.0691 Q1185.03 67.2693 1190.05 67.2693 Q1196.09 67.2693 1199.57 63.421 Q1203.1 59.5726 1203.1 52.9291 L1203.1 27.2059 L1210.55 27.2059 L1210.55 72.576 L1203.1 72.576 L1203.1 65.6084 Q1200.38 69.7404 1196.78 71.7658 Q1193.21 73.7508 1188.47 73.7508 Q1180.65 73.7508 1176.6 68.8897 Q1172.55 64.0286 1172.55 54.671 M1191.31 26.1121 L1191.31 26.1121 Z" fill="#000000" fill-rule="nonzero" fill-opacity="1" /><path clip-path="url(#clip600)" d="M1263.62 27.2059 L1247.21 49.2833 L1264.47 72.576 L1255.68 72.576 L1242.47 54.752 L1229.27 72.576 L1220.48 72.576 L1238.1 48.8377 L1221.97 27.2059 L1230.76 27.2059 L1242.8 43.369 L1254.83 27.2059 L1263.62 27.2059 Z" fill="#000000" fill-rule="nonzero" fill-opacity="1" /><path clip-path="url(#clip600)" d="M1311.26 48.0275 L1311.26 51.6733 L1276.99 51.6733 Q1277.47 59.3701 1281.6 63.421 Q1285.78 67.4314 1293.19 67.4314 Q1297.48 67.4314 1301.49 66.3781 Q1305.54 65.3249 1309.51 63.2184 L1309.51 70.267 Q1305.5 71.9684 1301.29 72.8596 Q1297.08 73.7508 1292.74 73.7508 Q1281.89 73.7508 1275.53 67.4314 Q1269.21 61.1119 1269.21 50.3365 Q1269.21 39.1965 1275.2 32.6746 Q1281.24 26.1121 1291.45 26.1121 Q1300.6 26.1121 1305.91 32.0264 Q1311.26 37.9003 1311.26 48.0275 M1303.8 45.84 Q1303.72 39.7232 1300.36 36.0774 Q1297.04 32.4315 1291.53 32.4315 Q1285.29 32.4315 1281.52 35.9558 Q1277.8 39.4801 1277.23 45.8805 L1303.8 45.84 Z" fill="#000000" fill-rule="nonzero" fill-opacity="1" /><path clip-path="url(#clip600)" d="M1352.41 28.5427 L1352.41 35.5912 Q1349.25 33.9709 1345.85 33.1607 Q1342.45 32.3505 1338.8 32.3505 Q1333.25 32.3505 1330.46 34.0519 Q1327.7 35.7533 1327.7 39.156 Q1327.7 41.7486 1329.69 43.2475 Q1331.67 44.7058 1337.67 46.0426 L1340.22 46.6097 Q1348.16 48.3111 1351.48 51.4303 Q1354.84 54.509 1354.84 60.0587 Q1354.84 66.3781 1349.82 70.0644 Q1344.84 73.7508 1336.09 73.7508 Q1332.44 73.7508 1328.47 73.0216 Q1324.54 72.3329 1320.17 70.9151 L1320.17 63.2184 Q1324.3 65.3654 1328.31 66.4591 Q1332.32 67.5124 1336.25 67.5124 Q1341.52 67.5124 1344.35 65.73 Q1347.19 63.9071 1347.19 60.6258 Q1347.19 57.5877 1345.12 55.9673 Q1343.1 54.3469 1336.17 52.8481 L1333.58 52.2405 Q1326.65 50.7821 1323.57 47.7845 Q1320.49 44.7463 1320.49 39.4801 Q1320.49 33.0797 1325.03 29.5959 Q1329.57 26.1121 1337.91 26.1121 Q1342.04 26.1121 1345.69 26.7198 Q1349.33 27.3274 1352.41 28.5427 Z" fill="#000000" fill-rule="nonzero" fill-opacity="1" /><path clip-path="url(#clip600)" d="M1379.96 12.096 L1386.85 12.096 L1365.78 80.2727 L1358.89 80.2727 L1379.96 12.096 Z" fill="#000000" fill-rule="nonzero" fill-opacity="1" /><path clip-path="url(#clip600)" d="M1403.17 18.8205 L1403.17 65.8515 L1413.06 65.8515 Q1425.57 65.8515 1431.37 60.1802 Q1437.2 54.509 1437.2 42.2752 Q1437.2 30.1225 1431.37 24.4918 Q1425.57 18.8205 1413.06 18.8205 L1403.17 18.8205 M1394.99 12.096 L1411.8 12.096 Q1429.38 12.096 1437.6 19.4281 Q1445.83 26.7198 1445.83 42.2752 Q1445.83 57.9117 1437.56 65.2439 Q1429.3 72.576 1411.8 72.576 L1394.99 72.576 L1394.99 12.096 Z" fill="#000000" fill-rule="nonzero" fill-opacity="1" /><path clip-path="url(#clip600)" d="M1458.55 27.2059 L1466 27.2059 L1466 72.576 L1458.55 72.576 L1458.55 27.2059 M1458.55 9.54393 L1466 9.54393 L1466 18.9825 L1458.55 18.9825 L1458.55 9.54393 Z" fill="#000000" fill-rule="nonzero" fill-opacity="1" /><path clip-path="url(#clip600)" d="M1510.52 28.5427 L1510.52 35.5912 Q1507.36 33.9709 1503.96 33.1607 Q1500.55 32.3505 1496.91 32.3505 Q1491.36 32.3505 1488.56 34.0519 Q1485.81 35.7533 1485.81 39.156 Q1485.81 41.7486 1487.79 43.2475 Q1489.78 44.7058 1495.77 46.0426 L1498.33 46.6097 Q1506.27 48.3111 1509.59 51.4303 Q1512.95 54.509 1512.95 60.0587 Q1512.95 66.3781 1507.93 70.0644 Q1502.94 73.7508 1494.19 73.7508 Q1490.55 73.7508 1486.58 73.0216 Q1482.65 72.3329 1478.27 70.9151 L1478.27 63.2184 Q1482.41 65.3654 1486.42 66.4591 Q1490.43 67.5124 1494.36 67.5124 Q1499.62 67.5124 1502.46 65.73 Q1505.29 63.9071 1505.29 60.6258 Q1505.29 57.5877 1503.23 55.9673 Q1501.2 54.3469 1494.28 52.8481 L1491.68 52.2405 Q1484.76 50.7821 1481.68 47.7845 Q1478.6 44.7463 1478.6 39.4801 Q1478.6 33.0797 1483.14 29.5959 Q1487.67 26.1121 1496.02 26.1121 Q1500.15 26.1121 1503.8 26.7198 Q1507.44 27.3274 1510.52 28.5427 Z" fill="#000000" fill-rule="nonzero" fill-opacity="1" /><path clip-path="url(#clip600)" d="M1553.74 28.5427 L1553.74 35.5912 Q1550.58 33.9709 1547.18 33.1607 Q1543.78 32.3505 1540.13 32.3505 Q1534.58 32.3505 1531.79 34.0519 Q1529.03 35.7533 1529.03 39.156 Q1529.03 41.7486 1531.02 43.2475 Q1533 44.7058 1539 46.0426 L1541.55 46.6097 Q1549.49 48.3111 1552.81 51.4303 Q1556.17 54.509 1556.17 60.0587 Q1556.17 66.3781 1551.15 70.0644 Q1546.17 73.7508 1537.42 73.7508 Q1533.77 73.7508 1529.8 73.0216 Q1525.87 72.3329 1521.5 70.9151 L1521.5 63.2184 Q1525.63 65.3654 1529.64 66.4591 Q1533.65 67.5124 1537.58 67.5124 Q1542.85 67.5124 1545.68 65.73 Q1548.52 63.9071 1548.52 60.6258 Q1548.52 57.5877 1546.45 55.9673 Q1544.43 54.3469 1537.5 52.8481 L1534.91 52.2405 Q1527.98 50.7821 1524.9 47.7845 Q1521.82 44.7463 1521.82 39.4801 Q1521.82 33.0797 1526.36 29.5959 Q1530.9 26.1121 1539.24 26.1121 Q1543.37 26.1121 1547.02 26.7198 Q1550.66 27.3274 1553.74 28.5427 Z" fill="#000000" fill-rule="nonzero" fill-opacity="1" /><path clip-path="url(#clip600)" d="M1568.04 27.2059 L1575.5 27.2059 L1575.5 72.576 L1568.04 72.576 L1568.04 27.2059 M1568.04 9.54393 L1575.5 9.54393 L1575.5 18.9825 L1568.04 18.9825 L1568.04 9.54393 Z" fill="#000000" fill-rule="nonzero" fill-opacity="1" /><path clip-path="url(#clip600)" d="M1598.3 65.7705 L1598.3 89.8329 L1590.81 89.8329 L1590.81 27.2059 L1598.3 27.2059 L1598.3 34.0924 Q1600.65 30.0415 1604.22 28.0971 Q1607.82 26.1121 1612.81 26.1121 Q1621.07 26.1121 1626.21 32.6746 Q1631.4 39.2371 1631.4 49.9314 Q1631.4 60.6258 1626.21 67.1883 Q1621.07 73.7508 1612.81 73.7508 Q1607.82 73.7508 1604.22 71.8063 Q1600.65 69.8214 1598.3 65.7705 M1623.66 49.9314 Q1623.66 41.7081 1620.26 37.0496 Q1616.9 32.3505 1610.98 32.3505 Q1605.07 32.3505 1601.67 37.0496 Q1598.3 41.7081 1598.3 49.9314 Q1598.3 58.1548 1601.67 62.8538 Q1605.07 67.5124 1610.98 67.5124 Q1616.9 67.5124 1620.26 62.8538 Q1623.66 58.1548 1623.66 49.9314 Z" fill="#000000" fill-rule="nonzero" fill-opacity="1" /><path clip-path="url(#clip600)" d="M1664.37 49.7694 Q1655.34 49.7694 1651.86 51.8354 Q1648.37 53.9013 1648.37 58.8839 Q1648.37 62.8538 1650.96 65.2034 Q1653.6 67.5124 1658.09 67.5124 Q1664.29 67.5124 1668.02 63.1374 Q1671.79 58.7219 1671.79 51.4303 L1671.79 49.7694 L1664.37 49.7694 M1679.24 46.6907 L1679.24 72.576 L1671.79 72.576 L1671.79 65.6895 Q1669.23 69.8214 1665.43 71.8063 Q1661.62 73.7508 1656.11 73.7508 Q1649.14 73.7508 1645.01 69.8619 Q1640.92 65.9325 1640.92 59.3701 Q1640.92 51.7138 1646.02 47.825 Q1651.17 43.9361 1661.34 43.9361 L1671.79 43.9361 L1671.79 43.2069 Q1671.79 38.0623 1668.38 35.2672 Q1665.02 32.4315 1658.9 32.4315 Q1655.02 32.4315 1651.33 33.3632 Q1647.64 34.295 1644.24 36.1584 L1644.24 29.2718 Q1648.33 27.692 1652.18 26.9223 Q1656.03 26.1121 1659.67 26.1121 Q1669.52 26.1121 1674.38 31.2163 Q1679.24 36.3204 1679.24 46.6907 Z" fill="#000000" fill-rule="nonzero" fill-opacity="1" /><path clip-path="url(#clip600)" d="M1701.97 14.324 L1701.97 27.2059 L1717.32 27.2059 L1717.32 32.9987 L1701.97 32.9987 L1701.97 57.6282 Q1701.97 63.1779 1703.46 64.7578 Q1705 66.3376 1709.66 66.3376 L1717.32 66.3376 L1717.32 72.576 L1709.66 72.576 Q1701.03 72.576 1697.75 69.3758 Q1694.47 66.1351 1694.47 57.6282 L1694.47 32.9987 L1689 32.9987 L1689 27.2059 L1694.47 27.2059 L1694.47 14.324 L1701.97 14.324 Z" fill="#000000" fill-rule="nonzero" fill-opacity="1" /><path clip-path="url(#clip600)" d="M1727.12 27.2059 L1734.58 27.2059 L1734.58 72.576 L1727.12 72.576 L1727.12 27.2059 M1727.12 9.54393 L1734.58 9.54393 L1734.58 18.9825 L1727.12 18.9825 L1727.12 9.54393 Z" fill="#000000" fill-rule="nonzero" fill-opacity="1" /><path clip-path="url(#clip600)" d="M1767.75 32.4315 Q1761.76 32.4315 1758.27 37.1306 Q1754.79 41.7891 1754.79 49.9314 Q1754.79 58.0738 1758.23 62.7728 Q1761.72 67.4314 1767.75 67.4314 Q1773.71 67.4314 1777.19 62.7323 Q1780.67 58.0333 1780.67 49.9314 Q1780.67 41.8701 1777.19 37.1711 Q1773.71 32.4315 1767.75 32.4315 M1767.75 26.1121 Q1777.47 26.1121 1783.02 32.4315 Q1788.57 38.7509 1788.57 49.9314 Q1788.57 61.0714 1783.02 67.4314 Q1777.47 73.7508 1767.75 73.7508 Q1757.99 73.7508 1752.44 67.4314 Q1746.93 61.0714 1746.93 49.9314 Q1746.93 38.7509 1752.44 32.4315 Q1757.99 26.1121 1767.75 26.1121 Z" fill="#000000" fill-rule="nonzero" fill-opacity="1" /><path clip-path="url(#clip600)" d="M1838.64 45.1919 L1838.64 72.576 L1831.19 72.576 L1831.19 45.4349 Q1831.19 38.994 1828.68 35.7938 Q1826.17 32.5936 1821.14 32.5936 Q1815.11 32.5936 1811.62 36.4419 Q1808.14 40.2903 1808.14 46.9338 L1808.14 72.576 L1800.65 72.576 L1800.65 27.2059 L1808.14 27.2059 L1808.14 34.2544 Q1810.81 30.163 1814.42 28.1376 Q1818.06 26.1121 1822.8 26.1121 Q1830.62 26.1121 1834.63 30.9732 Q1838.64 35.7938 1838.64 45.1919 Z" fill="#000000" fill-rule="nonzero" fill-opacity="1" /><path clip-path="url(#clip600)" d="M1880.21 12.096 L1918.45 12.096 L1918.45 18.9825 L1888.39 18.9825 L1888.39 36.8875 L1917.19 36.8875 L1917.19 43.7741 L1888.39 43.7741 L1888.39 65.6895 L1919.18 65.6895 L1919.18 72.576 L1880.21 72.576 L1880.21 12.096 Z" fill="#000000" fill-rule="nonzero" fill-opacity="1" /><path clip-path="url(#clip600)" d="M1970.01 45.1919 L1970.01 72.576 L1962.56 72.576 L1962.56 45.4349 Q1962.56 38.994 1960.05 35.7938 Q1957.54 32.5936 1952.51 32.5936 Q1946.48 32.5936 1942.99 36.4419 Q1939.51 40.2903 1939.51 46.9338 L1939.51 72.576 L1932.02 72.576 L1932.02 27.2059 L1939.51 27.2059 L1939.51 34.2544 Q1942.18 30.163 1945.79 28.1376 Q1949.44 26.1121 1954.17 26.1121 Q1961.99 26.1121 1966 30.9732 Q1970.01 35.7938 1970.01 45.1919 Z" fill="#000000" fill-rule="nonzero" fill-opacity="1" /><path clip-path="url(#clip600)" d="M2023.69 48.0275 L2023.69 51.6733 L1989.42 51.6733 Q1989.9 59.3701 1994.04 63.421 Q1998.21 67.4314 2005.62 67.4314 Q2009.92 67.4314 2013.93 66.3781 Q2017.98 65.3249 2021.95 63.2184 L2021.95 70.267 Q2017.94 71.9684 2013.72 72.8596 Q2009.51 73.7508 2005.18 73.7508 Q1994.32 73.7508 1987.96 67.4314 Q1981.64 61.1119 1981.64 50.3365 Q1981.64 39.1965 1987.64 32.6746 Q1993.67 26.1121 2003.88 26.1121 Q2013.03 26.1121 2018.34 32.0264 Q2023.69 37.9003 2023.69 48.0275 M2016.23 45.84 Q2016.15 39.7232 2012.79 36.0774 Q2009.47 32.4315 2003.96 32.4315 Q1997.72 32.4315 1993.95 35.9558 Q1990.23 39.4801 1989.66 45.8805 L2016.23 45.84 Z" fill="#000000" fill-rule="nonzero" fill-opacity="1" /><path clip-path="url(#clip600)" d="M2062.21 34.1734 Q2060.96 33.4443 2059.46 33.1202 Q2058 32.7556 2056.22 32.7556 Q2049.9 32.7556 2046.5 36.8875 Q2043.13 40.9789 2043.13 48.6757 L2043.13 72.576 L2035.64 72.576 L2035.64 27.2059 L2043.13 27.2059 L2043.13 34.2544 Q2045.48 30.1225 2049.25 28.1376 Q2053.02 26.1121 2058.4 26.1121 Q2059.17 26.1121 2060.11 26.2337 Q2061.04 26.3147 2062.17 26.5172 L2062.21 34.1734 Z" fill="#000000" fill-rule="nonzero" fill-opacity="1" /><path clip-path="url(#clip600)" d="M2098.43 49.3643 Q2098.43 41.2625 2095.07 36.8065 Q2091.74 32.3505 2085.71 32.3505 Q2079.71 32.3505 2076.35 36.8065 Q2073.03 41.2625 2073.03 49.3643 Q2073.03 57.4256 2076.35 61.8816 Q2079.71 66.3376 2085.71 66.3376 Q2091.74 66.3376 2095.07 61.8816 Q2098.43 57.4256 2098.43 49.3643 M2105.88 66.9452 Q2105.88 78.5308 2100.74 84.1616 Q2095.59 89.8329 2084.98 89.8329 Q2081.05 89.8329 2077.57 89.2252 Q2074.08 88.6581 2070.8 87.4428 L2070.8 80.1917 Q2074.08 81.9741 2077.28 82.8248 Q2080.48 83.6755 2083.8 83.6755 Q2091.14 83.6755 2094.78 79.8271 Q2098.43 76.0193 2098.43 68.282 L2098.43 64.5957 Q2096.12 68.6061 2092.51 70.5911 Q2088.91 72.576 2083.88 72.576 Q2075.54 72.576 2070.44 66.2161 Q2065.33 59.8562 2065.33 49.3643 Q2065.33 38.832 2070.44 32.472 Q2075.54 26.1121 2083.88 26.1121 Q2088.91 26.1121 2092.51 28.0971 Q2096.12 30.082 2098.43 34.0924 L2098.43 27.2059 L2105.88 27.2059 L2105.88 66.9452 Z" fill="#000000" fill-rule="nonzero" fill-opacity="1" /><path clip-path="url(#clip600)" d="M2140.11 76.7889 Q2136.95 84.8907 2133.95 87.3618 Q2130.96 89.8329 2125.93 89.8329 L2119.98 89.8329 L2119.98 83.5945 L2124.35 83.5945 Q2127.43 83.5945 2129.13 82.1361 Q2130.83 80.6778 2132.9 75.2496 L2134.24 71.8468 L2115.89 27.2059 L2123.79 27.2059 L2137.96 62.6918 L2152.14 27.2059 L2160.04 27.2059 L2140.11 76.7889 Z" fill="#000000" fill-rule="nonzero" fill-opacity="1" /><polyline clip-path="url(#clip602)" style="stroke:#009af9; stroke-linecap:round; stroke-linejoin:round; stroke-width:8; stroke-opacity:1; fill:none" points="303.667,160.256 344.244,891.619 384.82,1004.83 425.396,1078.3 465.972,1135.43 506.548,1180.7 547.124,1216.87 587.7,1245.97 628.276,1269.54 668.852,1288.72 709.428,1304.41 750.004,1317.3 790.58,1327.96 831.156,1336.82 871.732,1344.24 912.308,1350.46 952.884,1355.7 993.46,1360.14 1034.04,1363.89 1074.61,1367.07 1115.19,1369.75 1155.76,1372.03 1196.34,1373.98 1236.92,1375.65 1277.49,1377.1 1318.07,1378.36 1358.64,1379.46 1399.22,1380.41 1439.8,1381.24 1480.37,1381.94 1520.95,1382.52 1561.52,1383.02 1602.1,1383.44 1642.68,1383.82 1683.25,1384.16 1723.83,1384.46 1764.4,1384.74 1804.98,1384.98 1845.56,1385.2 1886.13,1385.37 1926.71,1385.5 1967.28,1385.6 2007.86,1385.69 2048.44,1385.77 2089.01,1385.85 2129.59,1385.93 2170.16,1386.02 2210.74,1386.1 2251.32,1386.17 2291.89,1386.21 "/>
<polyline clip-path="url(#clip602)" style="stroke:#e26f46; stroke-linecap:round; stroke-linejoin:round; stroke-width:8; stroke-opacity:1; fill:none" points="303.667,479.347 344.244,1018.92 384.82,1198.03 425.396,1271.88 465.972,1309.18 506.548,1330.81 547.124,1344.59 587.7,1353.99 628.276,1360.7 668.852,1365.68 709.428,1369.48 750.004,1372.44 790.58,1374.79 831.156,1376.67 871.732,1378.21 912.308,1379.47 952.884,1380.51 993.46,1381.39 1034.04,1382.12 1074.61,1382.74 1115.19,1383.26 1155.76,1383.7 1196.34,1384.08 1236.92,1384.4 1277.49,1384.68 1318.07,1384.92 1358.64,1385.12 1399.22,1385.3 1439.8,1385.45 1480.37,1385.59 1520.95,1385.7 1561.52,1385.8 1602.1,1385.88 1642.68,1385.95 1683.25,1386.02 1723.83,1386.07 1764.4,1386.12 1804.98,1386.17 1845.56,1386.2 1886.13,1386.24 1926.71,1386.26 1967.28,1386.29 2007.86,1386.31 2048.44,1386.32 2089.01,1386.34 2129.59,1386.35 2170.16,1386.37 2210.74,1386.38 2251.32,1386.39 2291.89,1386.4 "/>
<path clip-path="url(#clip600)" d="M1867.04 322.316 L2281.07 322.316 L2281.07 166.796 L1867.04 166.796  Z" fill="#ffffff" fill-rule="evenodd" fill-opacity="1"/>
<polyline clip-path="url(#clip600)" style="stroke:#000000; stroke-linecap:round; stroke-linejoin:round; stroke-width:4; stroke-opacity:1; fill:none" points="1867.04,322.316 2281.07,322.316 2281.07,166.796 1867.04,166.796 1867.04,322.316 "/>
<polyline clip-path="url(#clip600)" style="stroke:#009af9; stroke-linecap:round; stroke-linejoin:round; stroke-width:8; stroke-opacity:1; fill:none" points="1890.93,218.636 2034.3,218.636 "/>
<path clip-path="url(#clip600)" d="M2058.2 209.99 L2062.71 209.99 L2070.81 231.749 L2078.91 209.99 L2083.43 209.99 L2073.71 235.916 L2067.92 235.916 L2058.2 209.99 Z" fill="#000000" fill-rule="nonzero" fill-opacity="1" /><path clip-path="url(#clip600)" d="M2088.45 233.369 L2093.17 233.369 L2093.17 219.226 L2088.01 220.175 L2088.01 217.49 L2093.34 216.587 L2096.51 216.587 L2096.51 233.369 L2101.25 233.369 L2101.25 235.916 L2088.45 235.916 L2088.45 233.369 Z" fill="#000000" fill-rule="nonzero" fill-opacity="1" /><path clip-path="url(#clip600)" d="M2133.61 199.944 Q2130.51 205.268 2129.01 210.476 Q2127.5 215.684 2127.5 221.032 Q2127.5 226.379 2129.01 231.633 Q2130.53 236.865 2133.61 242.166 L2129.91 242.166 Q2126.44 236.726 2124.7 231.471 Q2122.99 226.217 2122.99 221.032 Q2122.99 215.87 2124.7 210.638 Q2126.41 205.407 2129.91 199.944 L2133.61 199.944 Z" fill="#000000" fill-rule="nonzero" fill-opacity="1" /><path clip-path="url(#clip600)" d="M2153.61 205.962 L2147.27 223.161 L2159.98 223.161 L2153.61 205.962 M2150.97 201.356 L2156.27 201.356 L2169.45 235.916 L2164.58 235.916 L2161.44 227.05 L2145.86 227.05 L2142.71 235.916 L2137.78 235.916 L2150.97 201.356 Z" fill="#000000" fill-rule="nonzero" fill-opacity="1" /><path clip-path="url(#clip600)" d="M2207.25 220.013 L2207.25 222.096 L2198.15 231.194 L2195.37 228.416 L2200.77 223.022 L2172.55 223.022 L2172.55 219.087 L2200.77 219.087 L2195.37 213.694 L2198.15 210.916 L2207.25 220.013 Z" fill="#000000" fill-rule="nonzero" fill-opacity="1" /><path clip-path="url(#clip600)" d="M2218.89 219.411 L2218.89 232.073 L2226.39 232.073 Q2230.16 232.073 2231.97 230.522 Q2233.8 228.948 2233.8 225.731 Q2233.8 222.49 2231.97 220.962 Q2230.16 219.411 2226.39 219.411 L2218.89 219.411 M2218.89 205.198 L2218.89 215.615 L2225.81 215.615 Q2229.24 215.615 2230.9 214.342 Q2232.59 213.045 2232.59 210.407 Q2232.59 207.791 2230.9 206.495 Q2229.24 205.198 2225.81 205.198 L2218.89 205.198 M2214.21 201.356 L2226.16 201.356 Q2231.51 201.356 2234.4 203.578 Q2237.29 205.8 2237.29 209.897 Q2237.29 213.069 2235.81 214.944 Q2234.33 216.819 2231.46 217.282 Q2234.91 218.022 2236.81 220.383 Q2238.73 222.721 2238.73 226.24 Q2238.73 230.869 2235.58 233.393 Q2232.43 235.916 2226.62 235.916 L2214.21 235.916 L2214.21 201.356 Z" fill="#000000" fill-rule="nonzero" fill-opacity="1" /><path clip-path="url(#clip600)" d="M2245.88 199.944 L2249.58 199.944 Q2253.06 205.407 2254.77 210.638 Q2256.51 215.87 2256.51 221.032 Q2256.51 226.217 2254.77 231.471 Q2253.06 236.726 2249.58 242.166 L2245.88 242.166 Q2248.96 236.865 2250.46 231.633 Q2251.99 226.379 2251.99 221.032 Q2251.99 215.684 2250.46 210.476 Q2248.96 205.268 2245.88 199.944 Z" fill="#000000" fill-rule="nonzero" fill-opacity="1" /><polyline clip-path="url(#clip600)" style="stroke:#e26f46; stroke-linecap:round; stroke-linejoin:round; stroke-width:8; stroke-opacity:1; fill:none" points="1890.93,270.476 2034.3,270.476 "/>
<path clip-path="url(#clip600)" d="M2058.2 261.83 L2062.71 261.83 L2070.81 283.589 L2078.91 261.83 L2083.43 261.83 L2073.71 287.756 L2067.92 287.756 L2058.2 261.83 Z" fill="#000000" fill-rule="nonzero" fill-opacity="1" /><path clip-path="url(#clip600)" d="M2091.04 285.117 L2100.86 285.117 L2100.86 287.756 L2087.02 287.756 L2087.02 285.209 Q2087.8 284.492 2089.26 283.196 Q2097.22 276.135 2097.22 273.959 Q2097.22 272.432 2096.02 271.506 Q2094.82 270.557 2092.85 270.557 Q2091.65 270.557 2090.23 270.973 Q2088.82 271.367 2087.15 272.177 L2087.15 269.33 Q2088.94 268.682 2090.46 268.358 Q2092.02 268.034 2093.34 268.034 Q2096.69 268.034 2098.71 269.561 Q2100.72 271.089 2100.72 273.589 Q2100.72 276.807 2093.06 283.381 Q2091.76 284.492 2091.04 285.117 Z" fill="#000000" fill-rule="nonzero" fill-opacity="1" /><path clip-path="url(#clip600)" d="M2133.61 251.784 Q2130.51 257.108 2129.01 262.316 Q2127.5 267.524 2127.5 272.872 Q2127.5 278.219 2129.01 283.473 Q2130.53 288.705 2133.61 294.006 L2129.91 294.006 Q2126.44 288.566 2124.7 283.311 Q2122.99 278.057 2122.99 272.872 Q2122.99 267.71 2124.7 262.478 Q2126.41 257.247 2129.91 251.784 L2133.61 251.784 Z" fill="#000000" fill-rule="nonzero" fill-opacity="1" /><path clip-path="url(#clip600)" d="M2146.74 271.251 L2146.74 283.913 L2154.24 283.913 Q2158.01 283.913 2159.82 282.362 Q2161.64 280.788 2161.64 277.571 Q2161.64 274.33 2159.82 272.802 Q2158.01 271.251 2154.24 271.251 L2146.74 271.251 M2146.74 257.038 L2146.74 267.455 L2153.66 267.455 Q2157.08 267.455 2158.75 266.182 Q2160.44 264.885 2160.44 262.247 Q2160.44 259.631 2158.75 258.335 Q2157.08 257.038 2153.66 257.038 L2146.74 257.038 M2142.06 253.196 L2154.01 253.196 Q2159.35 253.196 2162.25 255.418 Q2165.14 257.64 2165.14 261.737 Q2165.14 264.909 2163.66 266.784 Q2162.18 268.659 2159.31 269.122 Q2162.76 269.862 2164.65 272.223 Q2166.58 274.561 2166.58 278.08 Q2166.58 282.709 2163.43 285.233 Q2160.28 287.756 2154.47 287.756 L2142.06 287.756 L2142.06 253.196 Z" fill="#000000" fill-rule="nonzero" fill-opacity="1" /><path clip-path="url(#clip600)" d="M2207.34 271.853 L2207.34 273.936 L2198.24 283.034 L2195.46 280.256 L2200.86 274.862 L2172.64 274.862 L2172.64 270.927 L2200.86 270.927 L2195.46 265.534 L2198.24 262.756 L2207.34 271.853 Z" fill="#000000" fill-rule="nonzero" fill-opacity="1" /><path clip-path="url(#clip600)" d="M2240.19 255.858 L2240.19 260.788 Q2237.83 258.589 2235.14 257.501 Q2232.48 256.413 2229.47 256.413 Q2223.54 256.413 2220.39 260.048 Q2217.25 263.659 2217.25 270.51 Q2217.25 277.339 2220.39 280.973 Q2223.54 284.584 2229.47 284.584 Q2232.48 284.584 2235.14 283.496 Q2237.83 282.409 2240.19 280.209 L2240.19 285.094 Q2237.73 286.76 2234.98 287.594 Q2232.25 288.427 2229.19 288.427 Q2221.34 288.427 2216.83 283.635 Q2212.32 278.821 2212.32 270.51 Q2212.32 262.177 2216.83 257.386 Q2221.34 252.571 2229.19 252.571 Q2232.29 252.571 2235.02 253.404 Q2237.78 254.214 2240.19 255.858 Z" fill="#000000" fill-rule="nonzero" fill-opacity="1" /><path clip-path="url(#clip600)" d="M2246.55 251.784 L2250.26 251.784 Q2253.73 257.247 2255.44 262.478 Q2257.18 267.71 2257.18 272.872 Q2257.18 278.057 2255.44 283.311 Q2253.73 288.566 2250.26 294.006 L2246.55 294.006 Q2249.63 288.705 2251.14 283.473 Q2252.66 278.219 2252.66 272.872 Q2252.66 267.524 2251.14 262.316 Q2249.63 257.108 2246.55 251.784 Z" fill="#000000" fill-rule="nonzero" fill-opacity="1" /></svg>
